<svg version="1.1" viewBox="0.0 0.0 600.0 371.0" fill="none" stroke="none" stroke-linecap="square" stroke-miterlimit="10" width="600" height="371" xmlns:xlink="http://www.w3.org/1999/xlink" xmlns="http://www.w3.org/2000/svg"><path fill="#ffffff" d="M0 0L600.0 0L600.0 371.0L0 371.0L0 0Z" fill-rule="nonzero"/><path stroke="#333333" stroke-width="1.0" stroke-linecap="butt" d="M45.5 286.5L581.5 286.5" fill-rule="nonzero"/><path stroke="#cccccc" stroke-width="1.0" stroke-linecap="butt" d="M45.5 220.5L581.5 220.5" fill-rule="nonzero"/><path stroke="#cccccc" stroke-width="1.0" stroke-linecap="butt" d="M45.5 154.5L581.5 154.5" fill-rule="nonzero"/><path stroke="#cccccc" stroke-width="1.0" stroke-linecap="butt" d="M45.5 88.5L581.5 88.5" fill-rule="nonzero"/><clipPath id="id_0"><path d="M45.55 88.28333L581.45 88.28333L581.45 286.45L45.55 286.45L45.55 88.28333Z" clip-rule="nonzero"/></clipPath><path stroke="#000000" stroke-width="2.0" stroke-linecap="butt" stroke-opacity="0.0" clip-path="url(#id_0)" d="M136.0 286.0L103.0 286.0L103.0 198.0C103.0 196.89543 103.89543 196.0 105.0 196.0L134.0 196.0C135.10457 196.0 136.0 196.89543 136.0 198.0Z" fill-rule="nonzero"/><path fill="#4285f4" clip-path="url(#id_0)" d="M136.0 286.0L103.0 286.0L103.0 198.0C103.0 196.89543 103.89543 196.0 105.0 196.0L134.0 196.0C135.10457 196.0 136.0 196.89543 136.0 198.0Z" fill-rule="nonzero"/><path stroke="#000000" stroke-width="2.0" stroke-linecap="butt" stroke-opacity="0.0" clip-path="url(#id_0)" d="M296.0 286.0L263.0 286.0L263.0 199.0C263.0 197.89543 263.89542 197.0 265.0 197.0L294.0 197.0C295.10458 197.0 296.0 197.89543 296.0 199.0Z" fill-rule="nonzero"/><path fill="#4285f4" clip-path="url(#id_0)" d="M296.0 286.0L263.0 286.0L263.0 199.0C263.0 197.89543 263.89542 197.0 265.0 197.0L294.0 197.0C295.10458 197.0 296.0 197.89543 296.0 199.0Z" fill-rule="nonzero"/><path stroke="#000000" stroke-width="2.0" stroke-linecap="butt" stroke-opacity="0.0" clip-path="url(#id_0)" d="M455.0 286.0L422.0 286.0L422.0 250.0C422.0 248.89543 422.89542 248.0 424.0 248.0L453.0 248.0C454.10458 248.0 455.0 248.89543 455.0 250.0Z" fill-rule="nonzero"/><path fill="#4285f4" clip-path="url(#id_0)" d="M455.0 286.0L422.0 286.0L422.0 250.0C422.0 248.89543 422.89542 248.0 424.0 248.0L453.0 248.0C454.10458 248.0 455.0 248.89543 455.0 250.0Z" fill-rule="nonzero"/><path stroke="#000000" stroke-width="2.0" stroke-linecap="butt" stroke-opacity="0.0" clip-path="url(#id_0)" d="M171.0 286.0L138.0 286.0L138.0 97.0C138.0 95.89543 138.89543 95.0 140.0 95.0L169.0 95.0C170.10457 95.0 171.0 95.89543 171.0 97.0Z" fill-rule="nonzero"/><path fill="#ea4335" clip-path="url(#id_0)" d="M171.0 286.0L138.0 286.0L138.0 97.0C138.0 95.89543 138.89543 95.0 140.0 95.0L169.0 95.0C170.10457 95.0 171.0 95.89543 171.0 97.0Z" fill-rule="nonzero"/><path stroke="#000000" stroke-width="2.0" stroke-linecap="butt" stroke-opacity="0.0" clip-path="url(#id_0)" d="M331.0 286.0L298.0 286.0L298.0 141.0C298.0 139.89543 298.89542 139.0 300.0 139.0L329.0 139.0C330.10458 139.0 331.0 139.89543 331.0 141.0Z" fill-rule="nonzero"/><path fill="#ea4335" clip-path="url(#id_0)" d="M331.0 286.0L298.0 286.0L298.0 141.0C298.0 139.89543 298.89542 139.0 300.0 139.0L329.0 139.0C330.10458 139.0 331.0 139.89543 331.0 141.0Z" fill-rule="nonzero"/><path stroke="#000000" stroke-width="2.0" stroke-linecap="butt" stroke-opacity="0.0" clip-path="url(#id_0)" d="M490.0 286.0L457.0 286.0L457.0 220.0C457.0 218.89543 457.89542 218.0 459.0 218.0L488.0 218.0C489.10458 218.0 490.0 218.89543 490.0 220.0Z" fill-rule="nonzero"/><path fill="#ea4335" clip-path="url(#id_0)" d="M490.0 286.0L457.0 286.0L457.0 220.0C457.0 218.89543 457.89542 218.0 459.0 218.0L488.0 218.0C489.10458 218.0 490.0 218.89543 490.0 220.0Z" fill-rule="nonzero"/><path stroke="#000000" stroke-width="2.0" stroke-linecap="butt" stroke-opacity="0.0" clip-path="url(#id_0)" d="M206.0 286.0L173.0 286.0L173.0 262.0C173.0 260.89542 173.89543 260.0 175.0 260.0L204.0 260.0C205.10457 260.0 206.0 260.89542 206.0 262.0Z" fill-rule="nonzero"/><path fill="#fbbc04" clip-path="url(#id_0)" d="M206.0 286.0L173.0 286.0L173.0 262.0C173.0 260.89542 173.89543 260.0 175.0 260.0L204.0 260.0C205.10457 260.0 206.0 260.89542 206.0 262.0Z" fill-rule="nonzero"/><path stroke="#000000" stroke-width="2.0" stroke-linecap="butt" stroke-opacity="0.0" clip-path="url(#id_0)" d="M366.0 286.0L333.0 286.0L333.0 271.0C333.0 269.89542 333.89542 269.0 335.0 269.0L364.0 269.0C365.10458 269.0 366.0 269.89542 366.0 271.0Z" fill-rule="nonzero"/><path fill="#fbbc04" clip-path="url(#id_0)" d="M366.0 286.0L333.0 286.0L333.0 271.0C333.0 269.89542 333.89542 269.0 335.0 269.0L364.0 269.0C365.10458 269.0 366.0 269.89542 366.0 271.0Z" fill-rule="nonzero"/><path stroke="#000000" stroke-width="2.0" stroke-linecap="butt" stroke-opacity="0.0" clip-path="url(#id_0)" d="M525.0 286.0L492.0 286.0L492.0 278.0C492.0 276.89542 492.89542 276.0 494.0 276.0L523.0 276.0C524.10455 276.0 525.0 276.89542 525.0 278.0Z" fill-rule="nonzero"/><path fill="#fbbc04" clip-path="url(#id_0)" d="M525.0 286.0L492.0 286.0L492.0 278.0C492.0 276.89542 492.89542 276.0 494.0 276.0L523.0 276.0C524.10455 276.0 525.0 276.89542 525.0 278.0Z" fill-rule="nonzero"/><path fill="#000000" d="M291.42188 349.45L291.42188 340.85626L294.67188 340.85626Q295.51562 340.85626 295.96875 340.9344Q296.60938 341.04376 297.03125 341.34064Q297.46875 341.6375 297.71875 342.16876Q297.98438 342.7 297.98438 343.34064Q297.98438 344.4344 297.28125 345.2Q296.59375 345.95 294.76562 345.95L292.5625 345.95L292.5625 349.45L291.42188 349.45ZM292.5625 344.95L294.78125 344.95Q295.89062 344.95 296.34375 344.54376Q296.8125 344.1219 296.8125 343.3719Q296.8125 342.84064 296.53125 342.46564Q296.26562 342.075 295.82812 341.95Q295.53125 341.8719 294.76562 341.8719L292.5625 341.8719L292.5625 344.95ZM299.26562 349.45L299.26562 340.85626L300.32812 340.85626L300.32812 349.45L299.26562 349.45ZM306.35938 348.6844Q305.76562 349.1844 305.21875 349.3875Q304.6875 349.59064 304.0625 349.59064Q303.03125 349.59064 302.48438 349.09064Q301.9375 348.59064 301.9375 347.8094Q301.9375 347.35626 302.14062 346.98126Q302.34375 346.59064 302.6875 346.3719Q303.03125 346.1375 303.45312 346.02814Q303.75 345.9344 304.39062 345.85626Q305.65625 345.71564 306.26562 345.4969Q306.26562 345.27814 306.26562 345.23126Q306.26562 344.575 305.96875 344.3094Q305.5625 343.96564 304.76562 343.96564Q304.03125 343.96564 303.67188 344.23126Q303.3125 344.48126 303.14062 345.1375L302.10938 344.9969Q302.25 344.34064 302.57812 343.9344Q302.90625 343.52814 303.51562 343.3094Q304.125 343.09064 304.92188 343.09064Q305.71875 343.09064 306.21875 343.27814Q306.71875 343.46564 306.95312 343.7469Q307.1875 344.02814 307.28125 344.46564Q307.32812 344.73126 307.32812 345.4344L307.32812 346.84064Q307.32812 348.3094 307.39062 348.7Q307.46875 349.09064 307.67188 349.45L306.5625 349.45Q306.40625 349.1219 306.35938 348.6844ZM306.26562 346.325Q305.6875 346.5594 304.54688 346.73126Q303.89062 346.825 303.625 346.95Q303.35938 347.0594 303.20312 347.27814Q303.0625 347.4969 303.0625 347.77814Q303.0625 348.2 303.375 348.48126Q303.70312 348.7625 304.3125 348.7625Q304.92188 348.7625 305.39062 348.4969Q305.875 348.23126 306.09375 347.7625Q306.26562 347.40314 306.26562 346.71564L306.26562 346.325ZM311.59375 348.5125L311.75 349.4344Q311.29688 349.52814 310.95312 349.52814Q310.375 349.52814 310.0625 349.35626Q309.75 349.16876 309.60938 348.8719Q309.48438 348.575 309.48438 347.6219L309.48438 344.04376L308.71875 344.04376L308.71875 343.23126L309.48438 343.23126L309.48438 341.6844L310.53125 341.0594L310.53125 343.23126L311.59375 343.23126L311.59375 344.04376L310.53125 344.04376L310.53125 347.6844Q310.53125 348.1375 310.57812 348.2625Q310.64062 348.3875 310.76562 348.46564Q310.89062 348.54376 311.125 348.54376Q311.3125 348.54376 311.59375 348.5125ZM312.54688 349.45L312.54688 344.04376L311.60938 344.04376L311.60938 343.23126L312.54688 343.23126L312.54688 342.5594Q312.54688 341.9344 312.65625 341.6375Q312.8125 341.21564 313.1875 340.96564Q313.57812 340.71564 314.26562 340.71564Q314.71875 340.71564 315.25 340.825L315.09375 341.73126Q314.76562 341.6844 314.46875 341.6844Q313.98438 341.6844 313.78125 341.8875Q313.59375 342.09064 313.59375 342.65314L313.59375 343.23126L314.8125 343.23126L314.8125 344.04376L313.59375 344.04376L313.59375 349.45L312.54688 349.45ZM314.90625 346.34064Q314.90625 344.60626 315.85938 343.77814Q316.65625 343.09064 317.8125 343.09064Q319.09375 343.09064 319.90625 343.9344Q320.73438 344.7625 320.73438 346.2469Q320.73438 347.45 320.375 348.1375Q320.01562 348.825 319.3125 349.21564Q318.625 349.59064 317.8125 349.59064Q316.51562 349.59064 315.70312 348.7625Q314.90625 347.91876 314.90625 346.34064ZM315.98438 346.34064Q315.98438 347.52814 316.5 348.1219Q317.03125 348.71564 317.8125 348.71564Q318.60938 348.71564 319.125 348.1219Q319.64062 347.52814 319.64062 346.3094Q319.64062 345.15314 319.10938 344.5594Q318.59375 343.96564 317.8125 343.96564Q317.03125 343.96564 316.5 344.5594Q315.98438 345.1375 315.98438 346.34064ZM322.28125 349.45L322.28125 343.23126L323.23438 343.23126L323.23438 344.16876Q323.59375 343.5125 323.89062 343.3094Q324.20312 343.09064 324.57812 343.09064Q325.10938 343.09064 325.65625 343.41876L325.29688 344.40314Q324.90625 344.16876 324.53125 344.16876Q324.17188 344.16876 323.89062 344.3875Q323.625 344.59064 323.51562 344.96564Q323.32812 345.52814 323.32812 346.1844L323.32812 349.45L322.28125 349.45ZM326.29688 349.45L326.29688 343.23126L327.23438 343.23126L327.23438 344.10626Q327.53125 343.6375 328.01562 343.3719Q328.5 343.09064 329.125 343.09064Q329.8125 343.09064 330.25 343.3719Q330.70312 343.65314 330.875 344.16876Q331.625 343.09064 332.79688 343.09064Q333.73438 343.09064 334.21875 343.60626Q334.71875 344.10626 334.71875 345.1844L334.71875 349.45L333.67188 349.45L333.67188 345.52814Q333.67188 344.90314 333.5625 344.6219Q333.46875 344.34064 333.20312 344.16876Q332.9375 343.9969 332.5625 343.9969Q331.90625 343.9969 331.46875 344.4344Q331.04688 344.8719 331.04688 345.84064L331.04688 349.45L329.98438 349.45L329.98438 345.40314Q329.98438 344.7 329.71875 344.35626Q329.46875 343.9969 328.89062 343.9969Q328.4375 343.9969 328.0625 344.23126Q327.6875 344.46564 327.51562 344.91876Q327.34375 345.3719 327.34375 346.21564L327.34375 349.45L326.29688 349.45Z" fill-rule="nonzero"/><path fill="#000000" d="M33.05 286.21564Q33.05 284.6844 33.3625 283.7625Q33.675 282.825 34.284374 282.325Q34.909374 281.825 35.846874 281.825Q36.534374 281.825 37.05 282.10626Q37.58125 282.3875 37.925 282.91876Q38.26875 283.4344 38.45625 284.1844Q38.64375 284.9344 38.64375 286.21564Q38.64375 287.73126 38.33125 288.65314Q38.034374 289.575 37.409374 290.09064Q36.8 290.59064 35.846874 290.59064Q34.6125 290.59064 33.89375 289.7Q33.05 288.6375 33.05 286.21564ZM34.128124 286.21564Q34.128124 288.325 34.628124 289.02814Q35.128124 289.73126 35.846874 289.73126Q36.58125 289.73126 37.065624 289.02814Q37.565624 288.325 37.565624 286.21564Q37.565624 284.09064 37.065624 283.40314Q36.58125 282.7 35.83125 282.7Q35.1125 282.7 34.675 283.3094Q34.128124 284.09064 34.128124 286.21564Z" fill-rule="nonzero"/><path fill="#000000" d="M24.596874 223.37881L24.596874 224.39444L18.909374 224.39444Q18.909374 224.01944 19.034374 223.66006Q19.253124 223.08194 19.721874 222.51944Q20.20625 221.95694 21.1125 221.22256Q22.51875 220.06631 23.003124 219.39444Q23.503124 218.72256 23.503124 218.12881Q23.503124 217.50381 23.05 217.08194Q22.596874 216.64444 21.878124 216.64444Q21.1125 216.64444 20.659374 217.09756Q20.20625 217.55069 20.190624 218.36319L19.1125 218.25381Q19.221874 217.03506 19.940624 216.41006Q20.675 215.76944 21.909374 215.76944Q23.14375 215.76944 23.8625 216.45694Q24.58125 217.14444 24.58125 218.16006Q24.58125 218.67569 24.3625 219.17569Q24.159374 219.66006 23.659374 220.22256Q23.175 220.76944 22.05 221.72256Q21.096874 222.51944 20.815624 222.81631Q20.55 223.09756 20.378124 223.37881L24.596874 223.37881ZM26.05 220.16006Q26.05 218.62881 26.3625 217.70694Q26.675 216.76944 27.284374 216.26944Q27.909374 215.76944 28.846874 215.76944Q29.534374 215.76944 30.05 216.05069Q30.58125 216.33194 30.925 216.86319Q31.26875 217.37881 31.45625 218.12881Q31.64375 218.87881 31.64375 220.16006Q31.64375 221.67569 31.33125 222.59756Q31.034374 223.51944 30.409374 224.03506Q29.8 224.53506 28.846874 224.53506Q27.6125 224.53506 26.89375 223.64444Q26.05 222.58194 26.05 220.16006ZM27.128124 220.16006Q27.128124 222.26944 27.628124 222.97256Q28.128124 223.67569 28.846874 223.67569Q29.58125 223.67569 30.065624 222.97256Q30.565624 222.26944 30.565624 220.16006Q30.565624 218.03506 30.065624 217.34756Q29.58125 216.64444 28.83125 216.64444Q28.1125 216.64444 27.675 217.25381Q27.128124 218.03506 27.128124 220.16006ZM33.05 220.16006Q33.05 218.62881 33.3625 217.70694Q33.675 216.76944 34.284374 216.26944Q34.909374 215.76944 35.846874 215.76944Q36.534374 215.76944 37.05 216.05069Q37.58125 216.33194 37.925 216.86319Q38.26875 217.37881 38.45625 218.12881Q38.64375 218.87881 38.64375 220.16006Q38.64375 221.67569 38.33125 222.59756Q38.034374 223.51944 37.409374 224.03506Q36.8 224.53506 35.846874 224.53506Q34.6125 224.53506 33.89375 223.64444Q33.05 222.58194 33.05 220.16006ZM34.128124 220.16006Q34.128124 222.26944 34.628124 222.97256Q35.128124 223.67569 35.846874 223.67569Q36.58125 223.67569 37.065624 222.97256Q37.565624 222.26944 37.565624 220.16006Q37.565624 218.03506 37.065624 217.34756Q36.58125 216.64444 35.83125 216.64444Q35.1125 216.64444 34.675 217.25381Q34.128124 218.03506 34.128124 220.16006Z" fill-rule="nonzero"/><path fill="#000000" d="M22.425 158.33888L22.425 156.27638L18.70625 156.27638L18.70625 155.30763L22.628124 149.74513L23.4875 149.74513L23.4875 155.30763L24.64375 155.30763L24.64375 156.27638L23.4875 156.27638L23.4875 158.33888L22.425 158.33888ZM22.425 155.30763L22.425 151.44826L19.7375 155.30763L22.425 155.30763ZM26.05 154.1045Q26.05 152.57326 26.3625 151.65138Q26.675 150.71388 27.284374 150.21388Q27.909374 149.71388 28.846874 149.71388Q29.534374 149.71388 30.05 149.99513Q30.58125 150.27638 30.925 150.80763Q31.26875 151.32326 31.45625 152.07326Q31.64375 152.82326 31.64375 154.1045Q31.64375 155.62013 31.33125 156.542Q31.034374 157.46388 30.409374 157.9795Q29.8 158.4795 28.846874 158.4795Q27.6125 158.4795 26.89375 157.58888Q26.05 156.52638 26.05 154.1045ZM27.128124 154.1045Q27.128124 156.21388 27.628124 156.917Q28.128124 157.62013 28.846874 157.62013Q29.58125 157.62013 30.065624 156.917Q30.565624 156.21388 30.565624 154.1045Q30.565624 151.9795 30.065624 151.292Q29.58125 150.58888 28.83125 150.58888Q28.1125 150.58888 27.675 151.19826Q27.128124 151.9795 27.128124 154.1045ZM33.05 154.1045Q33.05 152.57326 33.3625 151.65138Q33.675 150.71388 34.284374 150.21388Q34.909374 149.71388 35.846874 149.71388Q36.534374 149.71388 37.05 149.99513Q37.58125 150.27638 37.925 150.80763Q38.26875 151.32326 38.45625 152.07326Q38.64375 152.82326 38.64375 154.1045Q38.64375 155.62013 38.33125 156.542Q38.034374 157.46388 37.409374 157.9795Q36.8 158.4795 35.846874 158.4795Q34.6125 158.4795 33.89375 157.58888Q33.05 156.52638 33.05 154.1045ZM34.128124 154.1045Q34.128124 156.21388 34.628124 156.917Q35.128124 157.62013 35.846874 157.62013Q36.58125 157.62013 37.065624 156.917Q37.565624 156.21388 37.565624 154.1045Q37.565624 151.9795 37.065624 151.292Q36.58125 150.58888 35.83125 150.58888Q35.1125 150.58888 34.675 151.19826Q34.128124 151.9795 34.128124 154.1045Z" fill-rule="nonzero"/><path fill="#000000" d="M24.51875 85.79896L23.471874 85.87708Q23.33125 85.25208 23.08125 84.97083Q22.64375 84.51771 22.01875 84.51771Q21.51875 84.51771 21.128124 84.79896Q20.64375 85.17396 20.346874 85.87708Q20.065624 86.56458 20.05 87.84583Q20.425 87.26771 20.971874 86.98646Q21.534374 86.70521 22.14375 86.70521Q23.190624 86.70521 23.925 87.48646Q24.675 88.26771 24.675 89.48646Q24.675 90.29896 24.315624 91.00208Q23.971874 91.68958 23.3625 92.06458Q22.753124 92.42396 21.9875 92.42396Q20.659374 92.42396 19.83125 91.45521Q19.003124 90.48646 19.003124 88.26771Q19.003124 85.76771 19.925 84.64271Q20.721874 83.65833 22.08125 83.65833Q23.096874 83.65833 23.7375 84.23646Q24.39375 84.79896 24.51875 85.79896ZM20.221874 89.50208Q20.221874 90.04896 20.440624 90.54896Q20.675 91.03333 21.08125 91.29896Q21.503124 91.56458 21.971874 91.56458Q22.628124 91.56458 23.1125 91.03333Q23.596874 90.48646 23.596874 89.56458Q23.596874 88.67396 23.1125 88.15833Q22.64375 87.64271 21.925 87.64271Q21.20625 87.64271 20.70625 88.15833Q20.221874 88.67396 20.221874 89.50208ZM26.05 88.04896Q26.05 86.51771 26.3625 85.59583Q26.675 84.65833 27.284374 84.15833Q27.909374 83.65833 28.846874 83.65833Q29.534374 83.65833 30.05 83.93958Q30.58125 84.22083 30.925 84.75208Q31.26875 85.26771 31.45625 86.01771Q31.64375 86.76771 31.64375 88.04896Q31.64375 89.56458 31.33125 90.48646Q31.034374 91.40833 30.409374 91.92396Q29.8 92.42396 28.846874 92.42396Q27.6125 92.42396 26.89375 91.53333Q26.05 90.47083 26.05 88.04896ZM27.128124 88.04896Q27.128124 90.15833 27.628124 90.86146Q28.128124 91.56458 28.846874 91.56458Q29.58125 91.56458 30.065624 90.86146Q30.565624 90.15833 30.565624 88.04896Q30.565624 85.92396 30.065624 85.23646Q29.58125 84.53333 28.83125 84.53333Q28.1125 84.53333 27.675 85.14271Q27.128124 85.92396 27.128124 88.04896ZM33.05 88.04896Q33.05 86.51771 33.3625 85.59583Q33.675 84.65833 34.284374 84.15833Q34.909374 83.65833 35.846874 83.65833Q36.534374 83.65833 37.05 83.93958Q37.58125 84.22083 37.925 84.75208Q38.26875 85.26771 38.45625 86.01771Q38.64375 86.76771 38.64375 88.04896Q38.64375 89.56458 38.33125 90.48646Q38.034374 91.40833 37.409374 91.92396Q36.8 92.42396 35.846874 92.42396Q34.6125 92.42396 33.89375 91.53333Q33.05 90.47083 33.05 88.04896ZM34.128124 88.04896Q34.128124 90.15833 34.628124 90.86146Q35.128124 91.56458 35.846874 91.56458Q36.58125 91.56458 37.065624 90.86146Q37.565624 90.15833 37.565624 88.04896Q37.565624 85.92396 37.065624 85.23646Q36.58125 84.53333 35.83125 84.53333Q35.1125 84.53333 34.675 85.14271Q34.128124 85.92396 34.128124 88.04896Z" fill-rule="nonzero"/><path fill="#000000" d="M89.88923 301.16876L90.92048 301.3094Q90.748604 302.3719 90.04548 302.98126Q89.342354 303.59064 88.32673 303.59064Q87.04548 303.59064 86.26423 302.7625Q85.498604 301.91876 85.498604 300.35626Q85.498604 299.35626 85.82673 298.60626Q86.17048 297.84064 86.842354 297.46564Q87.529854 297.09064 88.342354 297.09064Q89.342354 297.09064 89.98298 297.60626Q90.63923 298.10626 90.82673 299.0594L89.79548 299.21564Q89.654854 298.59064 89.279854 298.27814Q88.904854 297.95 88.373604 297.95Q87.57673 297.95 87.07673 298.52814Q86.57673 299.09064 86.57673 300.325Q86.57673 301.59064 87.061104 302.15314Q87.54548 302.71564 88.311104 302.71564Q88.936104 302.71564 89.342354 302.34064Q89.76423 301.96564 89.88923 301.16876ZM91.436104 300.34064Q91.436104 298.60626 92.38923 297.77814Q93.186104 297.09064 94.342354 297.09064Q95.623604 297.09064 96.436104 297.9344Q97.26423 298.7625 97.26423 300.2469Q97.26423 301.45 96.904854 302.1375Q96.54548 302.825 95.842354 303.21564Q95.154854 303.59064 94.342354 303.59064Q93.04548 303.59064 92.23298 302.7625Q91.436104 301.91876 91.436104 300.34064ZM92.51423 300.34064Q92.51423 301.52814 93.029854 302.1219Q93.561104 302.71564 94.342354 302.71564Q95.13923 302.71564 95.654854 302.1219Q96.17048 301.52814 96.17048 300.3094Q96.17048 299.15314 95.63923 298.5594Q95.123604 297.96564 94.342354 297.96564Q93.561104 297.96564 93.029854 298.5594Q92.51423 299.1375 92.51423 300.34064ZM98.811104 303.45L98.811104 297.23126L99.76423 297.23126L99.76423 298.16876Q100.123604 297.5125 100.42048 297.3094Q100.73298 297.09064 101.10798 297.09064Q101.63923 297.09064 102.186104 297.41876L101.82673 298.40314Q101.436104 298.16876 101.061104 298.16876Q100.70173 298.16876 100.42048 298.3875Q100.154854 298.59064 100.04548 298.96564Q99.85798 299.52814 99.85798 300.1844L99.85798 303.45L98.811104 303.45ZM107.07673 301.45L108.17048 301.575Q107.92048 302.52814 107.217354 303.0594Q106.51423 303.59064 105.436104 303.59064Q104.07673 303.59064 103.26423 302.7469Q102.467354 301.90314 102.467354 300.3875Q102.467354 298.825 103.279854 297.96564Q104.092354 297.09064 105.373604 297.09064Q106.623604 297.09064 107.404854 297.9344Q108.20173 298.77814 108.20173 300.325Q108.20173 300.41876 108.20173 300.60626L103.561104 300.60626Q103.623604 301.6375 104.13923 302.1844Q104.654854 302.71564 105.436104 302.71564Q106.01423 302.71564 106.42048 302.41876Q106.842354 302.10626 107.07673 301.45ZM103.623604 299.7469L107.092354 299.7469Q107.029854 298.95 106.70173 298.5594Q106.186104 297.95 105.38923 297.95Q104.654854 297.95 104.154854 298.4344Q103.67048 298.91876 103.623604 299.7469ZM112.82673 296.075L112.82673 294.85626L113.88923 294.85626L113.88923 296.075L112.82673 296.075ZM112.82673 303.45L112.82673 297.23126L113.88923 297.23126L113.88923 303.45L112.82673 303.45ZM115.529854 301.2L116.63923 301.10626Q116.76423 301.91876 117.20173 302.325Q117.654854 302.73126 118.29548 302.73126Q119.04548 302.73126 119.57673 302.15314Q120.10798 301.575 120.10798 300.6375Q120.10798 299.73126 119.592354 299.21564Q119.092354 298.6844 118.26423 298.6844Q117.76423 298.6844 117.342354 298.91876Q116.936104 299.15314 116.70173 299.5125L115.717354 299.3875L116.54548 294.98126L120.82673 294.98126L120.82673 295.98126L117.38923 295.98126L116.936104 298.29376Q117.70173 297.7469 118.54548 297.7469Q119.67048 297.7469 120.436104 298.52814Q121.217354 299.3094 121.217354 300.54376Q121.217354 301.7 120.54548 302.5594Q119.717354 303.59064 118.29548 303.59064Q117.123604 303.59064 116.373604 302.9344Q115.63923 302.27814 115.529854 301.2ZM131.07672 302.4344L131.07672 303.45L125.38923 303.45Q125.38923 303.075 125.51423 302.71564Q125.73298 302.1375 126.20173 301.575Q126.686104 301.0125 127.592354 300.27814Q128.9986 299.1219 129.48297 298.45Q129.98297 297.77814 129.98297 297.1844Q129.98297 296.5594 129.52985 296.1375Q129.07672 295.7 128.35797 295.7Q127.592354 295.7 127.13923 296.15314Q126.686104 296.60626 126.67048 297.41876L125.592354 297.3094Q125.70173 296.09064 126.42048 295.46564Q127.154854 294.825 128.38922 294.825Q129.6236 294.825 130.34235 295.5125Q131.0611 296.2 131.0611 297.21564Q131.0611 297.73126 130.84235 298.23126Q130.63922 298.71564 130.13922 299.27814Q129.65485 299.825 128.52985 300.77814Q127.57673 301.575 127.29548 301.8719Q127.029854 302.15314 126.85798 302.4344L131.07672 302.4344ZM139.98297 300.075L139.98297 299.075L143.60797 299.0594L143.60797 302.2469Q142.77985 302.91876 141.88922 303.2625Q140.9986 303.59064 140.0611 303.59064Q138.79547 303.59064 137.7486 303.0594Q136.71735 302.5125 136.1861 301.4969Q135.67047 300.46564 135.67047 299.2Q135.67047 297.9344 136.1861 296.85626Q136.71735 295.7625 137.70172 295.2469Q138.6861 294.71564 139.96735 294.71564Q140.90485 294.71564 141.65485 295.0125Q142.40485 295.3094 142.82672 295.85626Q143.26422 296.3875 143.48297 297.2625L142.46735 297.54376Q142.26422 296.8875 141.96735 296.5125Q141.6861 296.1375 141.15485 295.91876Q140.6236 295.6844 139.98297 295.6844Q139.20172 295.6844 138.6236 295.91876Q138.0611 296.15314 137.70172 296.54376Q137.35797 296.9344 137.17047 297.40314Q136.84235 298.2 136.84235 299.1219Q136.84235 300.27814 137.23297 301.0594Q137.63922 301.825 138.38922 302.2Q139.13922 302.575 139.9986 302.575Q140.73297 302.575 141.4361 302.29376Q142.13922 301.9969 142.4986 301.6844L142.4986 300.075L139.98297 300.075ZM144.9986 303.45L144.9986 294.85626L146.1236 294.85626L146.1236 298.3875L150.59235 298.3875L150.59235 294.85626L151.73297 294.85626L151.73297 303.45L150.59235 303.45L150.59235 299.40314L146.1236 299.40314L146.1236 303.45L144.9986 303.45ZM153.26422 303.45L153.26422 302.59064L157.23297 298.04376Q156.54547 298.075 156.02985 298.075L153.4986 298.075L153.4986 297.23126L158.59235 297.23126L158.59235 297.91876L155.21735 301.8719L154.5611 302.59064Q155.27985 302.54376 155.88922 302.54376L158.77985 302.54376L158.77985 303.45L153.26422 303.45ZM168.46735 302.52814Q169.26422 303.075 169.92047 303.325L169.59235 304.1219Q168.67047 303.77814 167.7486 303.0594Q166.79547 303.59064 165.63922 303.59064Q164.46735 303.59064 163.51422 303.02814Q162.57672 302.46564 162.0611 301.45Q161.54547 300.4344 161.54547 299.15314Q161.54547 297.8875 162.0611 296.84064Q162.57672 295.79376 163.52985 295.2469Q164.48297 294.7 165.65485 294.7Q166.84235 294.7 167.79547 295.27814Q168.76422 295.84064 169.26422 296.85626Q169.76422 297.8719 169.76422 299.15314Q169.76422 300.21564 169.4361 301.0594Q169.1236 301.90314 168.46735 302.52814ZM165.96735 301.075Q166.95172 301.35626 167.59235 301.90314Q168.59235 300.98126 168.59235 299.15314Q168.59235 298.10626 168.23297 297.325Q167.8736 296.54376 167.1861 296.1219Q166.51422 295.6844 165.67047 295.6844Q164.38922 295.6844 163.54547 296.5594Q162.71735 297.41876 162.71735 299.15314Q162.71735 300.825 163.54547 301.73126Q164.3736 302.6219 165.67047 302.6219Q166.27985 302.6219 166.8111 302.3875Q166.27985 302.04376 165.6861 301.90314L165.96735 301.075ZM174.90485 303.45L174.90485 302.52814Q174.17047 303.59064 172.92047 303.59064Q172.3736 303.59064 171.88922 303.3875Q171.42047 303.16876 171.1861 302.85626Q170.95172 302.52814 170.85797 302.0594Q170.79547 301.7625 170.79547 301.075L170.79547 297.23126L171.85797 297.23126L171.85797 300.6844Q171.85797 301.4969 171.92047 301.79376Q172.01422 302.2 172.32672 302.45Q172.65485 302.6844 173.13922 302.6844Q173.60797 302.6844 174.01422 302.45Q174.4361 302.2 174.60797 301.77814Q174.79547 301.35626 174.79547 300.5594L174.79547 297.23126L175.84235 297.23126L175.84235 303.45L174.90485 303.45ZM181.88922 302.6844Q181.29547 303.1844 180.7486 303.3875Q180.21735 303.59064 179.59235 303.59064Q178.5611 303.59064 178.01422 303.09064Q177.46735 302.59064 177.46735 301.8094Q177.46735 301.35626 177.67047 300.98126Q177.8736 300.59064 178.21735 300.3719Q178.5611 300.1375 178.98297 300.02814Q179.27985 299.9344 179.92047 299.85626Q181.1861 299.71564 181.79547 299.4969Q181.79547 299.27814 181.79547 299.23126Q181.79547 298.575 181.4986 298.3094Q181.09235 297.96564 180.29547 297.96564Q179.5611 297.96564 179.20172 298.23126Q178.84235 298.48126 178.67047 299.1375L177.63922 298.9969Q177.77985 298.34064 178.10797 297.9344Q178.4361 297.52814 179.04547 297.3094Q179.65485 297.09064 180.45172 297.09064Q181.2486 297.09064 181.7486 297.27814Q182.2486 297.46564 182.48297 297.7469Q182.71735 298.02814 182.8111 298.46564Q182.85797 298.73126 182.85797 299.4344L182.85797 300.84064Q182.85797 302.3094 182.92047 302.7Q182.9986 303.09064 183.20172 303.45L182.09235 303.45Q181.9361 303.1219 181.88922 302.6844ZM181.79547 300.325Q181.21735 300.5594 180.07672 300.73126Q179.42047 300.825 179.15485 300.95Q178.88922 301.0594 178.73297 301.27814Q178.59235 301.4969 178.59235 301.77814Q178.59235 302.2 178.90485 302.48126Q179.23297 302.7625 179.84235 302.7625Q180.45172 302.7625 180.92047 302.4969Q181.40485 302.23126 181.6236 301.7625Q181.79547 301.40314 181.79547 300.71564L181.79547 300.325ZM188.85797 303.45L188.85797 302.66876Q188.26422 303.59064 187.1236 303.59064Q186.3736 303.59064 185.7486 303.1844Q185.1236 302.7625 184.77985 302.02814Q184.4361 301.29376 184.4361 300.34064Q184.4361 299.41876 184.7486 298.65314Q185.0611 297.8875 185.6861 297.4969Q186.3111 297.09064 187.07672 297.09064Q187.63922 297.09064 188.07672 297.325Q188.51422 297.5594 188.79547 297.9344L188.79547 294.85626L189.84235 294.85626L189.84235 303.45L188.85797 303.45ZM185.52985 300.34064Q185.52985 301.54376 186.02985 302.1375Q186.52985 302.71564 187.21735 302.71564Q187.90485 302.71564 188.38922 302.15314Q188.8736 301.59064 188.8736 300.4344Q188.8736 299.15314 188.3736 298.5594Q187.88922 297.96564 187.17047 297.96564Q186.46735 297.96564 185.9986 298.54376Q185.52985 299.10626 185.52985 300.34064ZM191.40485 300.8719L191.40485 299.8094L194.65485 299.8094L194.65485 300.8719L191.40485 300.8719ZM202.09235 300.4344L203.21735 300.73126Q202.85797 302.1219 201.9361 302.85626Q201.01422 303.59064 199.67047 303.59064Q198.27985 303.59064 197.40485 303.02814Q196.52985 302.46564 196.07672 301.40314Q195.6236 300.325 195.6236 299.09064Q195.6236 297.7469 196.13922 296.7469Q196.65485 295.7469 197.59235 295.23126Q198.54547 294.71564 199.6861 294.71564Q200.96735 294.71564 201.84235 295.3719Q202.73297 296.02814 203.07672 297.21564L201.95172 297.48126Q201.65485 296.54376 201.07672 296.1219Q200.51422 295.6844 199.65485 295.6844Q198.67047 295.6844 197.9986 296.16876Q197.34235 296.6375 197.0611 297.4344Q196.79547 298.23126 196.79547 299.09064Q196.79547 300.1844 197.10797 300.9969Q197.4361 301.8094 198.10797 302.21564Q198.77985 302.6219 199.57672 302.6219Q200.52985 302.6219 201.1861 302.075Q201.85797 301.52814 202.09235 300.4344ZM204.4361 300.34064Q204.4361 298.60626 205.38922 297.77814Q206.1861 297.09064 207.34235 297.09064Q208.6236 297.09064 209.4361 297.9344Q210.26422 298.7625 210.26422 300.2469Q210.26422 301.45 209.90485 302.1375Q209.54547 302.825 208.84235 303.21564Q208.15485 303.59064 207.34235 303.59064Q206.04547 303.59064 205.23297 302.7625Q204.4361 301.91876 204.4361 300.34064ZM205.51422 300.34064Q205.51422 301.52814 206.02985 302.1219Q206.5611 302.71564 207.34235 302.71564Q208.13922 302.71564 208.65485 302.1219Q209.17047 301.52814 209.17047 300.3094Q209.17047 299.15314 208.63922 298.5594Q208.1236 297.96564 207.34235 297.96564Q206.5611 297.96564 206.02985 298.5594Q205.51422 299.1375 205.51422 300.34064ZM211.8111 303.45L211.8111 297.23126L212.76422 297.23126L212.76422 298.16876Q213.1236 297.5125 213.42047 297.3094Q213.73297 297.09064 214.10797 297.09064Q214.63922 297.09064 215.1861 297.41876L214.82672 298.40314Q214.4361 298.16876 214.0611 298.16876Q213.70172 298.16876 213.42047 298.3875Q213.15485 298.59064 213.04547 298.96564Q212.85797 299.52814 212.85797 300.1844L212.85797 303.45L211.8111 303.45ZM220.07672 301.45L221.17047 301.575Q220.92047 302.52814 220.21735 303.0594Q219.51422 303.59064 218.4361 303.59064Q217.07672 303.59064 216.26422 302.7469Q215.46735 301.90314 215.46735 300.3875Q215.46735 298.825 216.27985 297.96564Q217.09235 297.09064 218.3736 297.09064Q219.6236 297.09064 220.40485 297.9344Q221.20172 298.77814 221.20172 300.325Q221.20172 300.41876 221.20172 300.60626L216.5611 300.60626Q216.6236 301.6375 217.13922 302.1844Q217.65485 302.71564 218.4361 302.71564Q219.01422 302.71564 219.42047 302.41876Q219.84235 302.10626 220.07672 301.45ZM216.6236 299.7469L220.09235 299.7469Q220.02985 298.95 219.70172 298.5594Q219.1861 297.95 218.38922 297.95Q217.65485 297.95 217.15485 298.4344Q216.67047 298.91876 216.6236 299.7469Z" fill-rule="nonzero"/><path fill="#000000" d="M146.4986 317.45L145.45172 317.45L145.45172 310.73126Q145.0611 311.09064 144.4361 311.46564Q143.82672 311.825 143.34235 311.9969L143.34235 310.98126Q144.21735 310.5594 144.8736 309.98126Q145.54547 309.3875 145.82672 308.825L146.4986 308.825L146.4986 317.45ZM154.9986 310.96564L153.95172 311.04376Q153.8111 310.41876 153.5611 310.1375Q153.1236 309.6844 152.4986 309.6844Q151.9986 309.6844 151.60797 309.96564Q151.1236 310.34064 150.82672 311.04376Q150.54547 311.73126 150.52985 313.0125Q150.90485 312.4344 151.45172 312.15314Q152.01422 311.8719 152.6236 311.8719Q153.67047 311.8719 154.40485 312.65314Q155.15485 313.4344 155.15485 314.65314Q155.15485 315.46564 154.79547 316.16876Q154.45172 316.85626 153.84235 317.23126Q153.23297 317.59064 152.46735 317.59064Q151.13922 317.59064 150.3111 316.6219Q149.48297 315.65314 149.48297 313.4344Q149.48297 310.9344 150.40485 309.8094Q151.20172 308.825 152.5611 308.825Q153.57672 308.825 154.21735 309.40314Q154.8736 309.96564 154.9986 310.96564ZM150.70172 314.66876Q150.70172 315.21564 150.92047 315.71564Q151.15485 316.2 151.5611 316.46564Q151.98297 316.73126 152.45172 316.73126Q153.10797 316.73126 153.59235 316.2Q154.07672 315.65314 154.07672 314.73126Q154.07672 313.84064 153.59235 313.325Q153.1236 312.8094 152.40485 312.8094Q151.6861 312.8094 151.1861 313.325Q150.70172 313.84064 150.70172 314.66876ZM160.98297 314.075L160.98297 313.075L164.60797 313.0594L164.60797 316.2469Q163.77985 316.91876 162.88922 317.2625Q161.9986 317.59064 161.0611 317.59064Q159.79547 317.59064 158.7486 317.0594Q157.71735 316.5125 157.1861 315.4969Q156.67047 314.46564 156.67047 313.2Q156.67047 311.9344 157.1861 310.85626Q157.71735 309.7625 158.70172 309.2469Q159.6861 308.71564 160.96735 308.71564Q161.90485 308.71564 162.65485 309.0125Q163.40485 309.3094 163.82672 309.85626Q164.26422 310.3875 164.48297 311.2625L163.46735 311.54376Q163.26422 310.8875 162.96735 310.5125Q162.6861 310.1375 162.15485 309.91876Q161.6236 309.6844 160.98297 309.6844Q160.20172 309.6844 159.6236 309.91876Q159.0611 310.15314 158.70172 310.54376Q158.35797 310.9344 158.17047 311.40314Q157.84235 312.2 157.84235 313.1219Q157.84235 314.27814 158.23297 315.0594Q158.63922 315.825 159.38922 316.2Q160.13922 316.575 160.9986 316.575Q161.73297 316.575 162.4361 316.29376Q163.13922 315.9969 163.4986 315.6844L163.4986 314.075L160.98297 314.075Z" fill-rule="nonzero"/><path fill="#000000" d="M243.35938 301.16876L244.39062 301.3094Q244.21875 302.3719 243.51562 302.98126Q242.8125 303.59064 241.79688 303.59064Q240.51562 303.59064 239.73438 302.7625Q238.96875 301.91876 238.96875 300.35626Q238.96875 299.35626 239.29688 298.60626Q239.64062 297.84064 240.3125 297.46564Q241.0 297.09064 241.8125 297.09064Q242.8125 297.09064 243.45312 297.60626Q244.10938 298.10626 244.29688 299.0594L243.26562 299.21564Q243.125 298.59064 242.75 298.27814Q242.375 297.95 241.84375 297.95Q241.04688 297.95 240.54688 298.52814Q240.04688 299.09064 240.04688 300.325Q240.04688 301.59064 240.53125 302.15314Q241.01562 302.71564 241.78125 302.71564Q242.40625 302.71564 242.8125 302.34064Q243.23438 301.96564 243.35938 301.16876ZM244.90625 300.34064Q244.90625 298.60626 245.85938 297.77814Q246.65625 297.09064 247.8125 297.09064Q249.09375 297.09064 249.90625 297.9344Q250.73438 298.7625 250.73438 300.2469Q250.73438 301.45 250.375 302.1375Q250.01562 302.825 249.3125 303.21564Q248.625 303.59064 247.8125 303.59064Q246.51562 303.59064 245.70312 302.7625Q244.90625 301.91876 244.90625 300.34064ZM245.98438 300.34064Q245.98438 301.52814 246.5 302.1219Q247.03125 302.71564 247.8125 302.71564Q248.60938 302.71564 249.125 302.1219Q249.64062 301.52814 249.64062 300.3094Q249.64062 299.15314 249.10938 298.5594Q248.59375 297.96564 247.8125 297.96564Q247.03125 297.96564 246.5 298.5594Q245.98438 299.1375 245.98438 300.34064ZM252.28125 303.45L252.28125 297.23126L253.23438 297.23126L253.23438 298.16876Q253.59375 297.5125 253.89062 297.3094Q254.20312 297.09064 254.57812 297.09064Q255.10938 297.09064 255.65625 297.41876L255.29688 298.40314Q254.90625 298.16876 254.53125 298.16876Q254.17188 298.16876 253.89062 298.3875Q253.625 298.59064 253.51562 298.96564Q253.32812 299.52814 253.32812 300.1844L253.32812 303.45L252.28125 303.45ZM260.54688 301.45L261.64062 301.575Q261.39062 302.52814 260.6875 303.0594Q259.98438 303.59064 258.90625 303.59064Q257.54688 303.59064 256.73438 302.7469Q255.9375 301.90314 255.9375 300.3875Q255.9375 298.825 256.75 297.96564Q257.5625 297.09064 258.84375 297.09064Q260.09375 297.09064 260.875 297.9344Q261.67188 298.77814 261.67188 300.325Q261.67188 300.41876 261.67188 300.60626L257.03125 300.60626Q257.09375 301.6375 257.60938 302.1844Q258.125 302.71564 258.90625 302.71564Q259.48438 302.71564 259.89062 302.41876Q260.3125 302.10626 260.54688 301.45ZM257.09375 299.7469L260.5625 299.7469Q260.5 298.95 260.17188 298.5594Q259.65625 297.95 258.85938 297.95Q258.125 297.95 257.625 298.4344Q257.14062 298.91876 257.09375 299.7469ZM266.29688 296.075L266.29688 294.85626L267.35938 294.85626L267.35938 296.075L266.29688 296.075ZM266.29688 303.45L266.29688 297.23126L267.35938 297.23126L267.35938 303.45L266.29688 303.45ZM269.15625 301.46564L270.17188 301.3719Q270.29688 302.09064 270.65625 302.41876Q271.03125 302.73126 271.59375 302.73126Q272.07812 302.73126 272.4375 302.5125Q272.8125 302.27814 273.04688 301.91876Q273.28125 301.54376 273.4375 300.91876Q273.59375 300.27814 273.59375 299.6219Q273.59375 299.54376 273.59375 299.40314Q273.28125 299.90314 272.73438 300.23126Q272.1875 300.54376 271.54688 300.54376Q270.46875 300.54376 269.73438 299.77814Q269.0 298.9969 269.0 297.73126Q269.0 296.41876 269.76562 295.6219Q270.54688 294.825 271.70312 294.825Q272.53125 294.825 273.21875 295.27814Q273.92188 295.73126 274.28125 296.575Q274.64062 297.40314 274.64062 298.98126Q274.64062 300.6219 274.28125 301.60626Q273.9375 302.575 273.21875 303.09064Q272.51562 303.59064 271.57812 303.59064Q270.5625 303.59064 269.92188 303.04376Q269.28125 302.48126 269.15625 301.46564ZM273.46875 297.66876Q273.46875 296.7625 272.98438 296.23126Q272.51562 295.7 271.82812 295.7Q271.125 295.7 270.59375 296.27814Q270.07812 296.84064 270.07812 297.7625Q270.07812 298.575 270.57812 299.09064Q271.07812 299.60626 271.79688 299.60626Q272.53125 299.60626 273.0 299.09064Q273.46875 298.575 273.46875 297.66876ZM284.54688 302.4344L284.54688 303.45L278.85938 303.45Q278.85938 303.075 278.98438 302.71564Q279.20312 302.1375 279.67188 301.575Q280.15625 301.0125 281.0625 300.27814Q282.46875 299.1219 282.95312 298.45Q283.45312 297.77814 283.45312 297.1844Q283.45312 296.5594 283.0 296.1375Q282.54688 295.7 281.82812 295.7Q281.0625 295.7 280.60938 296.15314Q280.15625 296.60626 280.14062 297.41876L279.0625 297.3094Q279.17188 296.09064 279.89062 295.46564Q280.625 294.825 281.85938 294.825Q283.09375 294.825 283.8125 295.5125Q284.53125 296.2 284.53125 297.21564Q284.53125 297.73126 284.3125 298.23126Q284.10938 298.71564 283.60938 299.27814Q283.125 299.825 282.0 300.77814Q281.04688 301.575 280.76562 301.8719Q280.5 302.15314 280.32812 302.4344L284.54688 302.4344ZM286.5625 303.45L286.5625 302.2469L287.76562 302.2469L287.76562 303.45Q287.76562 304.10626 287.53125 304.5125Q287.29688 304.9344 286.79688 305.15314L286.5 304.7Q286.82812 304.5594 286.98438 304.2625Q287.14062 303.98126 287.17188 303.45L286.5625 303.45ZM292.375 303.45L292.375 301.3875L288.65625 301.3875L288.65625 300.41876L292.57812 294.85626L293.4375 294.85626L293.4375 300.41876L294.59375 300.41876L294.59375 301.3875L293.4375 301.3875L293.4375 303.45L292.375 303.45ZM292.375 300.41876L292.375 296.5594L289.6875 300.41876L292.375 300.41876ZM303.45312 300.075L303.45312 299.075L307.07812 299.0594L307.07812 302.2469Q306.25 302.91876 305.35938 303.2625Q304.46875 303.59064 303.53125 303.59064Q302.26562 303.59064 301.21875 303.0594Q300.1875 302.5125 299.65625 301.4969Q299.14062 300.46564 299.14062 299.2Q299.14062 297.9344 299.65625 296.85626Q300.1875 295.7625 301.17188 295.2469Q302.15625 294.71564 303.4375 294.71564Q304.375 294.71564 305.125 295.0125Q305.875 295.3094 306.29688 295.85626Q306.73438 296.3875 306.95312 297.2625L305.9375 297.54376Q305.73438 296.8875 305.4375 296.5125Q305.15625 296.1375 304.625 295.91876Q304.09375 295.6844 303.45312 295.6844Q302.67188 295.6844 302.09375 295.91876Q301.53125 296.15314 301.17188 296.54376Q300.82812 296.9344 300.64062 297.40314Q300.3125 298.2 300.3125 299.1219Q300.3125 300.27814 300.70312 301.0594Q301.10938 301.825 301.85938 302.2Q302.60938 302.575 303.46875 302.575Q304.20312 302.575 304.90625 302.29376Q305.60938 301.9969 305.96875 301.6844L305.96875 300.075L303.45312 300.075ZM308.46875 303.45L308.46875 294.85626L309.59375 294.85626L309.59375 298.3875L314.0625 298.3875L314.0625 294.85626L315.20312 294.85626L315.20312 303.45L314.0625 303.45L314.0625 299.40314L309.59375 299.40314L309.59375 303.45L308.46875 303.45ZM316.73438 303.45L316.73438 302.59064L320.70312 298.04376Q320.01562 298.075 319.5 298.075L316.96875 298.075L316.96875 297.23126L322.0625 297.23126L322.0625 297.91876L318.6875 301.8719L318.03125 302.59064Q318.75 302.54376 319.35938 302.54376L322.25 302.54376L322.25 303.45L316.73438 303.45ZM326.625 298.79376Q325.96875 298.54376 325.64062 298.10626Q325.32812 297.65314 325.32812 297.04376Q325.32812 296.10626 326.0 295.46564Q326.6875 294.825 327.79688 294.825Q328.92188 294.825 329.60938 295.48126Q330.29688 296.1375 330.29688 297.075Q330.29688 297.66876 329.98438 298.10626Q329.67188 298.54376 329.03125 298.79376Q329.82812 299.04376 330.23438 299.6219Q330.64062 300.2 330.64062 300.9969Q330.64062 302.09064 329.85938 302.84064Q329.09375 303.59064 327.8125 303.59064Q326.54688 303.59064 325.76562 302.84064Q324.98438 302.09064 324.98438 300.96564Q324.98438 300.1219 325.40625 299.5594Q325.84375 298.9969 326.625 298.79376ZM326.40625 296.9969Q326.40625 297.60626 326.79688 297.9969Q327.20312 298.3875 327.82812 298.3875Q328.4375 298.3875 328.82812 298.0125Q329.21875 297.6219 329.21875 297.0594Q329.21875 296.48126 328.8125 296.09064Q328.40625 295.6844 327.8125 295.6844Q327.20312 295.6844 326.79688 296.075Q326.40625 296.46564 326.40625 296.9969ZM326.07812 300.96564Q326.07812 301.41876 326.28125 301.84064Q326.5 302.2625 326.92188 302.4969Q327.34375 302.73126 327.82812 302.73126Q328.57812 302.73126 329.0625 302.2469Q329.5625 301.7625 329.5625 301.0125Q329.5625 300.2469 329.0625 299.7469Q328.5625 299.2469 327.79688 299.2469Q327.04688 299.2469 326.5625 299.7469Q326.07812 300.23126 326.07812 300.96564ZM331.875 300.8719L331.875 299.8094L335.125 299.8094L335.125 300.8719L331.875 300.8719ZM342.5625 300.4344L343.6875 300.73126Q343.32812 302.1219 342.40625 302.85626Q341.48438 303.59064 340.14062 303.59064Q338.75 303.59064 337.875 303.02814Q337.0 302.46564 336.54688 301.40314Q336.09375 300.325 336.09375 299.09064Q336.09375 297.7469 336.60938 296.7469Q337.125 295.7469 338.0625 295.23126Q339.01562 294.71564 340.15625 294.71564Q341.4375 294.71564 342.3125 295.3719Q343.20312 296.02814 343.54688 297.21564L342.42188 297.48126Q342.125 296.54376 341.54688 296.1219Q340.98438 295.6844 340.125 295.6844Q339.14062 295.6844 338.46875 296.16876Q337.8125 296.6375 337.53125 297.4344Q337.26562 298.23126 337.26562 299.09064Q337.26562 300.1844 337.57812 300.9969Q337.90625 301.8094 338.57812 302.21564Q339.25 302.6219 340.04688 302.6219Q341.0 302.6219 341.65625 302.075Q342.32812 301.52814 342.5625 300.4344ZM344.90625 300.34064Q344.90625 298.60626 345.85938 297.77814Q346.65625 297.09064 347.8125 297.09064Q349.09375 297.09064 349.90625 297.9344Q350.73438 298.7625 350.73438 300.2469Q350.73438 301.45 350.375 302.1375Q350.01562 302.825 349.3125 303.21564Q348.625 303.59064 347.8125 303.59064Q346.51562 303.59064 345.70312 302.7625Q344.90625 301.91876 344.90625 300.34064ZM345.98438 300.34064Q345.98438 301.52814 346.5 302.1219Q347.03125 302.71564 347.8125 302.71564Q348.60938 302.71564 349.125 302.1219Q349.64062 301.52814 349.64062 300.3094Q349.64062 299.15314 349.10938 298.5594Q348.59375 297.96564 347.8125 297.96564Q347.03125 297.96564 346.5 298.5594Q345.98438 299.1375 345.98438 300.34064ZM352.28125 303.45L352.28125 297.23126L353.23438 297.23126L353.23438 298.16876Q353.59375 297.5125 353.89062 297.3094Q354.20312 297.09064 354.57812 297.09064Q355.10938 297.09064 355.65625 297.41876L355.29688 298.40314Q354.90625 298.16876 354.53125 298.16876Q354.17188 298.16876 353.89062 298.3875Q353.625 298.59064 353.51562 298.96564Q353.32812 299.52814 353.32812 300.1844L353.32812 303.45L352.28125 303.45ZM360.54688 301.45L361.64062 301.575Q361.39062 302.52814 360.6875 303.0594Q359.98438 303.59064 358.90625 303.59064Q357.54688 303.59064 356.73438 302.7469Q355.9375 301.90314 355.9375 300.3875Q355.9375 298.825 356.75 297.96564Q357.5625 297.09064 358.84375 297.09064Q360.09375 297.09064 360.875 297.9344Q361.67188 298.77814 361.67188 300.325Q361.67188 300.41876 361.67188 300.60626L357.03125 300.60626Q357.09375 301.6375 357.60938 302.1844Q358.125 302.71564 358.90625 302.71564Q359.48438 302.71564 359.89062 302.41876Q360.3125 302.10626 360.54688 301.45ZM357.09375 299.7469L360.5625 299.7469Q360.5 298.95 360.17188 298.5594Q359.65625 297.95 358.85938 297.95Q358.125 297.95 357.625 298.4344Q357.14062 298.91876 357.09375 299.7469ZM366.0 301.1844L367.0625 301.04376Q367.23438 301.9344 367.67188 302.34064Q368.10938 302.73126 368.73438 302.73126Q369.48438 302.73126 370.0 302.21564Q370.51562 301.7 370.51562 300.9344Q370.51562 300.21564 370.03125 299.7469Q369.5625 299.2625 368.82812 299.2625Q368.53125 299.2625 368.07812 299.3875L368.20312 298.45Q368.3125 298.46564 368.375 298.46564Q369.04688 298.46564 369.57812 298.1219Q370.125 297.7625 370.125 297.02814Q370.125 296.45 369.73438 296.075Q369.34375 295.6844 368.71875 295.6844Q368.10938 295.6844 367.6875 296.075Q367.28125 296.46564 367.17188 297.23126L366.10938 297.04376Q366.29688 295.9969 366.98438 295.41876Q367.67188 294.825 368.6875 294.825Q369.39062 294.825 369.98438 295.1375Q370.57812 295.4344 370.89062 295.95Q371.20312 296.46564 371.20312 297.0594Q371.20312 297.60626 370.90625 298.075Q370.60938 298.52814 370.03125 298.79376Q370.78125 298.96564 371.20312 299.52814Q371.625 300.075 371.625 300.91876Q371.625 302.04376 370.79688 302.825Q369.98438 303.60626 368.73438 303.60626Q367.60938 303.60626 366.85938 302.9344Q366.10938 302.2469 366.0 301.1844ZM378.54688 302.4344L378.54688 303.45L372.85938 303.45Q372.85938 303.075 372.98438 302.71564Q373.20312 302.1375 373.67188 301.575Q374.15625 301.0125 375.0625 300.27814Q376.46875 299.1219 376.95312 298.45Q377.45312 297.77814 377.45312 297.1844Q377.45312 296.5594 377.0 296.1375Q376.54688 295.7 375.82812 295.7Q375.0625 295.7 374.60938 296.15314Q374.15625 296.60626 374.14062 297.41876L373.0625 297.3094Q373.17188 296.09064 373.89062 295.46564Q374.625 294.825 375.85938 294.825Q377.09375 294.825 377.8125 295.5125Q378.53125 296.2 378.53125 297.21564Q378.53125 297.73126 378.3125 298.23126Q378.10938 298.71564 377.60938 299.27814Q377.125 299.825 376.0 300.77814Q375.04688 301.575 374.76562 301.8719Q374.5 302.15314 374.32812 302.4344L378.54688 302.4344ZM384.45312 300.075L384.45312 299.075L388.07812 299.0594L388.07812 302.2469Q387.25 302.91876 386.35938 303.2625Q385.46875 303.59064 384.53125 303.59064Q383.26562 303.59064 382.21875 303.0594Q381.1875 302.5125 380.65625 301.4969Q380.14062 300.46564 380.14062 299.2Q380.14062 297.9344 380.65625 296.85626Q381.1875 295.7625 382.17188 295.2469Q383.15625 294.71564 384.4375 294.71564Q385.375 294.71564 386.125 295.0125Q386.875 295.3094 387.29688 295.85626Q387.73438 296.3875 387.95312 297.2625L386.9375 297.54376Q386.73438 296.8875 386.4375 296.5125Q386.15625 296.1375 385.625 295.91876Q385.09375 295.6844 384.45312 295.6844Q383.67188 295.6844 383.09375 295.91876Q382.53125 296.15314 382.17188 296.54376Q381.82812 296.9344 381.64062 297.40314Q381.3125 298.2 381.3125 299.1219Q381.3125 300.27814 381.70312 301.0594Q382.10938 301.825 382.85938 302.2Q383.60938 302.575 384.46875 302.575Q385.20312 302.575 385.90625 302.29376Q386.60938 301.9969 386.96875 301.6844L386.96875 300.075L384.45312 300.075Z" fill-rule="nonzero"/><path fill="#000000" d="M418.32953 302.6844Q417.73578 303.1844 417.1889 303.3875Q416.65765 303.59064 416.03265 303.59064Q415.0014 303.59064 414.45453 303.09064Q413.90765 302.59064 413.90765 301.8094Q413.90765 301.35626 414.11078 300.98126Q414.3139 300.59064 414.65765 300.3719Q415.0014 300.1375 415.42328 300.02814Q415.72015 299.9344 416.36078 299.85626Q417.6264 299.71564 418.23578 299.4969Q418.23578 299.27814 418.23578 299.23126Q418.23578 298.575 417.9389 298.3094Q417.53265 297.96564 416.73578 297.96564Q416.0014 297.96564 415.64203 298.23126Q415.28265 298.48126 415.11078 299.1375L414.07953 298.9969Q414.22015 298.34064 414.54828 297.9344Q414.8764 297.52814 415.48578 297.3094Q416.09515 297.09064 416.89203 297.09064Q417.6889 297.09064 418.1889 297.27814Q418.6889 297.46564 418.92328 297.7469Q419.15765 298.02814 419.2514 298.46564Q419.29828 298.73126 419.29828 299.4344L419.29828 300.84064Q419.29828 302.3094 419.36078 302.7Q419.4389 303.09064 419.64203 303.45L418.53265 303.45Q418.3764 303.1219 418.32953 302.6844ZM418.23578 300.325Q417.65765 300.5594 416.51703 300.73126Q415.86078 300.825 415.59515 300.95Q415.32953 301.0594 415.17328 301.27814Q415.03265 301.4969 415.03265 301.77814Q415.03265 302.2 415.34515 302.48126Q415.67328 302.7625 416.28265 302.7625Q416.89203 302.7625 417.36078 302.4969Q417.84515 302.23126 418.0639 301.7625Q418.23578 301.40314 418.23578 300.71564L418.23578 300.325ZM421.2514 303.45L421.2514 297.23126L422.20453 297.23126L422.20453 298.16876Q422.5639 297.5125 422.86078 297.3094Q423.17328 297.09064 423.54828 297.09064Q424.07953 297.09064 424.6264 297.41876L424.26703 298.40314Q423.8764 298.16876 423.5014 298.16876Q423.14203 298.16876 422.86078 298.3875Q422.59515 298.59064 422.48578 298.96564Q422.29828 299.52814 422.29828 300.1844L422.29828 303.45L421.2514 303.45ZM425.26703 303.45L425.26703 297.23126L426.20453 297.23126L426.20453 298.10626Q426.5014 297.6375 426.98578 297.3719Q427.47015 297.09064 428.09515 297.09064Q428.78265 297.09064 429.22015 297.3719Q429.67328 297.65314 429.84515 298.16876Q430.59515 297.09064 431.76703 297.09064Q432.70453 297.09064 433.1889 297.60626Q433.6889 298.10626 433.6889 299.1844L433.6889 303.45L432.64203 303.45L432.64203 299.52814Q432.64203 298.90314 432.53265 298.6219Q432.4389 298.34064 432.17328 298.16876Q431.90765 297.9969 431.53265 297.9969Q430.8764 297.9969 430.4389 298.4344Q430.01703 298.8719 430.01703 299.84064L430.01703 303.45L428.95453 303.45L428.95453 299.40314Q428.95453 298.7 428.6889 298.35626Q428.4389 297.9969 427.86078 297.9969Q427.40765 297.9969 427.03265 298.23126Q426.65765 298.46564 426.48578 298.91876Q426.3139 299.3719 426.3139 300.21564L426.3139 303.45L425.26703 303.45ZM439.26703 303.45L439.26703 297.23126L440.20453 297.23126L440.20453 298.10626Q440.5014 297.6375 440.98578 297.3719Q441.47015 297.09064 442.09515 297.09064Q442.78265 297.09064 443.22015 297.3719Q443.67328 297.65314 443.84515 298.16876Q444.59515 297.09064 445.76703 297.09064Q446.70453 297.09064 447.1889 297.60626Q447.6889 298.10626 447.6889 299.1844L447.6889 303.45L446.64203 303.45L446.64203 299.52814Q446.64203 298.90314 446.53265 298.6219Q446.4389 298.34064 446.17328 298.16876Q445.90765 297.9969 445.53265 297.9969Q444.8764 297.9969 444.4389 298.4344Q444.01703 298.8719 444.01703 299.84064L444.01703 303.45L442.95453 303.45L442.95453 299.40314Q442.95453 298.7 442.6889 298.35626Q442.4389 297.9969 441.86078 297.9969Q441.40765 297.9969 441.03265 298.23126Q440.65765 298.46564 440.48578 298.91876Q440.3139 299.3719 440.3139 300.21564L440.3139 303.45L439.26703 303.45ZM453.9389 303.45L452.89203 303.45L452.89203 296.73126Q452.5014 297.09064 451.8764 297.46564Q451.26703 297.825 450.78265 297.9969L450.78265 296.98126Q451.65765 296.5594 452.3139 295.98126Q452.98578 295.3875 453.26703 294.825L453.9389 294.825L453.9389 303.45ZM463.9389 303.45L462.89203 303.45L462.89203 296.73126Q462.5014 297.09064 461.8764 297.46564Q461.26703 297.825 460.78265 297.9969L460.78265 296.98126Q461.65765 296.5594 462.3139 295.98126Q462.98578 295.3875 463.26703 294.825L463.9389 294.825L463.9389 303.45ZM466.97015 299.21564Q466.97015 297.6844 467.28265 296.7625Q467.59515 295.825 468.20453 295.325Q468.82953 294.825 469.76703 294.825Q470.45453 294.825 470.97015 295.10626Q471.5014 295.3875 471.84515 295.91876Q472.1889 296.4344 472.3764 297.1844Q472.5639 297.9344 472.5639 299.21564Q472.5639 300.73126 472.2514 301.65314Q471.95453 302.575 471.32953 303.09064Q470.72015 303.59064 469.76703 303.59064Q468.53265 303.59064 467.8139 302.7Q466.97015 301.6375 466.97015 299.21564ZM468.04828 299.21564Q468.04828 301.325 468.54828 302.02814Q469.04828 302.73126 469.76703 302.73126Q470.5014 302.73126 470.98578 302.02814Q471.48578 301.325 471.48578 299.21564Q471.48578 297.09064 470.98578 296.40314Q470.5014 295.7 469.7514 295.7Q469.03265 295.7 468.59515 296.3094Q468.04828 297.09064 468.04828 299.21564ZM481.32953 301.16876L482.36078 301.3094Q482.1889 302.3719 481.48578 302.98126Q480.78265 303.59064 479.76703 303.59064Q478.48578 303.59064 477.70453 302.7625Q476.9389 301.91876 476.9389 300.35626Q476.9389 299.35626 477.26703 298.60626Q477.61078 297.84064 478.28265 297.46564Q478.97015 297.09064 479.78265 297.09064Q480.78265 297.09064 481.42328 297.60626Q482.07953 298.10626 482.26703 299.0594L481.23578 299.21564Q481.09515 298.59064 480.72015 298.27814Q480.34515 297.95 479.8139 297.95Q479.01703 297.95 478.51703 298.52814Q478.01703 299.09064 478.01703 300.325Q478.01703 301.59064 478.5014 302.15314Q478.98578 302.71564 479.7514 302.71564Q480.3764 302.71564 480.78265 302.34064Q481.20453 301.96564 481.32953 301.16876ZM482.8764 300.34064Q482.8764 298.60626 483.82953 297.77814Q484.6264 297.09064 485.78265 297.09064Q487.0639 297.09064 487.8764 297.9344Q488.70453 298.7625 488.70453 300.2469Q488.70453 301.45 488.34515 302.1375Q487.98578 302.825 487.28265 303.21564Q486.59515 303.59064 485.78265 303.59064Q484.48578 303.59064 483.67328 302.7625Q482.8764 301.91876 482.8764 300.34064ZM483.95453 300.34064Q483.95453 301.52814 484.47015 302.1219Q485.0014 302.71564 485.78265 302.71564Q486.57953 302.71564 487.09515 302.1219Q487.61078 301.52814 487.61078 300.3094Q487.61078 299.15314 487.07953 298.5594Q486.5639 297.96564 485.78265 297.96564Q485.0014 297.96564 484.47015 298.5594Q483.95453 299.1375 483.95453 300.34064ZM490.2514 303.45L490.2514 297.23126L491.20453 297.23126L491.20453 298.16876Q491.5639 297.5125 491.86078 297.3094Q492.17328 297.09064 492.54828 297.09064Q493.07953 297.09064 493.6264 297.41876L493.26703 298.40314Q492.8764 298.16876 492.5014 298.16876Q492.14203 298.16876 491.86078 298.3875Q491.59515 298.59064 491.48578 298.96564Q491.29828 299.52814 491.29828 300.1844L491.29828 303.45L490.2514 303.45ZM498.51703 301.45L499.61078 301.575Q499.36078 302.52814 498.65765 303.0594Q497.95453 303.59064 496.8764 303.59064Q495.51703 303.59064 494.70453 302.7469Q493.90765 301.90314 493.90765 300.3875Q493.90765 298.825 494.72015 297.96564Q495.53265 297.09064 496.8139 297.09064Q498.0639 297.09064 498.84515 297.9344Q499.64203 298.77814 499.64203 300.325Q499.64203 300.41876 499.64203 300.60626L495.0014 300.60626Q495.0639 301.6375 495.57953 302.1844Q496.09515 302.71564 496.8764 302.71564Q497.45453 302.71564 497.86078 302.41876Q498.28265 302.10626 498.51703 301.45ZM495.0639 299.7469L498.53265 299.7469Q498.47015 298.95 498.14203 298.5594Q497.6264 297.95 496.82953 297.95Q496.09515 297.95 495.59515 298.4344Q495.11078 298.91876 495.0639 299.7469ZM500.84515 301.59064L501.8764 301.4344Q501.97015 302.0594 502.36078 302.3875Q502.76703 302.71564 503.5014 302.71564Q504.22015 302.71564 504.5639 302.4344Q504.92328 302.1375 504.92328 301.73126Q504.92328 301.3719 504.61078 301.16876Q504.39203 301.02814 503.53265 300.8094Q502.3764 300.5125 501.92328 300.3094Q501.48578 300.09064 501.2514 299.71564Q501.01703 299.34064 501.01703 298.8719Q501.01703 298.46564 501.20453 298.10626Q501.39203 297.7469 501.72015 297.5125Q501.97015 297.34064 502.39203 297.21564Q502.8139 297.09064 503.3139 297.09064Q504.03265 297.09064 504.57953 297.3094Q505.14203 297.5125 505.40765 297.8719Q505.67328 298.23126 505.76703 298.825L504.73578 298.96564Q504.67328 298.4969 504.32953 298.23126Q504.0014 297.95 503.3764 297.95Q502.65765 297.95 502.34515 298.2Q502.03265 298.4344 502.03265 298.7625Q502.03265 298.96564 502.15765 299.1219Q502.29828 299.29376 502.5639 299.40314Q502.72015 299.46564 503.5014 299.66876Q504.6264 299.98126 505.0639 300.16876Q505.5014 300.35626 505.7514 300.71564Q506.0014 301.075 506.0014 301.6219Q506.0014 302.15314 505.6889 302.6219Q505.39203 303.075 504.8139 303.34064Q504.23578 303.59064 503.5014 303.59064Q502.28265 303.59064 501.64203 303.09064Q501.01703 302.575 500.84515 301.59064ZM510.97015 301.1844L512.03265 301.04376Q512.2045 301.9344 512.642 302.34064Q513.0795 302.73126 513.7045 302.73126Q514.4545 302.73126 514.97015 302.21564Q515.4858 301.7 515.4858 300.9344Q515.4858 300.21564 515.0014 299.7469Q514.53265 299.2625 513.7983 299.2625Q513.5014 299.2625 513.0483 299.3875L513.1733 298.45Q513.28265 298.46564 513.34515 298.46564Q514.017 298.46564 514.5483 298.1219Q515.09515 297.7625 515.09515 297.02814Q515.09515 296.45 514.7045 296.075Q514.3139 295.6844 513.6889 295.6844Q513.0795 295.6844 512.65765 296.075Q512.2514 296.46564 512.142 297.23126L511.07953 297.04376Q511.26703 295.9969 511.95453 295.41876Q512.642 294.825 513.65765 294.825Q514.3608 294.825 514.9545 295.1375Q515.5483 295.4344 515.8608 295.95Q516.1733 296.46564 516.1733 297.0594Q516.1733 297.60626 515.8764 298.075Q515.5795 298.52814 515.0014 298.79376Q515.7514 298.96564 516.1733 299.52814Q516.59515 300.075 516.59515 300.91876Q516.59515 302.04376 515.767 302.825Q514.9545 303.60626 513.7045 303.60626Q512.5795 303.60626 511.82953 302.9344Q511.07953 302.2469 510.97015 301.1844ZM523.517 302.4344L523.517 303.45L517.8295 303.45Q517.8295 303.075 517.9545 302.71564Q518.1733 302.1375 518.642 301.575Q519.1264 301.0125 520.03265 300.27814Q521.4389 299.1219 521.9233 298.45Q522.4233 297.77814 522.4233 297.1844Q522.4233 296.5594 521.97015 296.1375Q521.517 295.7 520.7983 295.7Q520.03265 295.7 519.5795 296.15314Q519.1264 296.60626 519.1108 297.41876L518.03265 297.3094Q518.142 296.09064 518.8608 295.46564Q519.59515 294.825 520.8295 294.825Q522.0639 294.825 522.78265 295.5125Q523.5014 296.2 523.5014 297.21564Q523.5014 297.73126 523.28265 298.23126Q523.0795 298.71564 522.5795 299.27814Q522.09515 299.825 520.97015 300.77814Q520.017 301.575 519.7358 301.8719Q519.47015 302.15314 519.2983 302.4344L523.517 302.4344ZM529.4233 300.075L529.4233 299.075L533.0483 299.0594L533.0483 302.2469Q532.22015 302.91876 531.3295 303.2625Q530.4389 303.59064 529.5014 303.59064Q528.2358 303.59064 527.1889 303.0594Q526.15765 302.5125 525.6264 301.4969Q525.1108 300.46564 525.1108 299.2Q525.1108 297.9344 525.6264 296.85626Q526.15765 295.7625 527.142 295.2469Q528.1264 294.71564 529.40765 294.71564Q530.34515 294.71564 531.09515 295.0125Q531.84515 295.3094 532.267 295.85626Q532.7045 296.3875 532.9233 297.2625L531.90765 297.54376Q531.7045 296.8875 531.40765 296.5125Q531.1264 296.1375 530.59515 295.91876Q530.0639 295.6844 529.4233 295.6844Q528.642 295.6844 528.0639 295.91876Q527.5014 296.15314 527.142 296.54376Q526.7983 296.9344 526.6108 297.40314Q526.28265 298.2 526.28265 299.1219Q526.28265 300.27814 526.6733 301.0594Q527.0795 301.825 527.8295 302.2Q528.5795 302.575 529.4389 302.575Q530.1733 302.575 530.8764 302.29376Q531.5795 301.9969 531.9389 301.6844L531.9389 300.075L529.4233 300.075Z" fill-rule="nonzero"/><path fill="#4285f4" d="M170.5 56.916668C170.5 56.364384 170.94771 55.916668 171.5 55.916668L181.5 55.916668C182.05229 55.916668 182.5 56.364384 182.5 56.916668L182.5 66.916664C182.5 67.46895 182.05229 67.916664 181.5 67.916664L171.5 67.916664C170.94771 67.916664 170.5 67.46895 170.5 66.916664Z" fill-rule="nonzero"/><path fill="#1a1a1a" d="M191.42188 65.916664L191.42188 57.322914L194.67188 57.322914Q195.51562 57.322914 195.96875 57.40104Q196.60938 57.510414 197.03125 57.80729Q197.46875 58.104164 197.71875 58.635414Q197.98438 59.166664 197.98438 59.80729Q197.98438 60.90104 197.28125 61.666664Q196.59375 62.416664 194.76562 62.416664L192.5625 62.416664L192.5625 65.916664L191.42188 65.916664ZM192.5625 61.416664L194.78125 61.416664Q195.89062 61.416664 196.34375 61.010414Q196.8125 60.58854 196.8125 59.83854Q196.8125 59.30729 196.53125 58.93229Q196.26562 58.541664 195.82812 58.416664Q195.53125 58.33854 194.76562 58.33854L192.5625 58.33854L192.5625 61.416664ZM203.45312 62.541664L203.45312 61.541664L207.07812 61.52604L207.07812 64.71354Q206.25 65.385414 205.35938 65.729164Q204.46875 66.05729 203.53125 66.05729Q202.26562 66.05729 201.21875 65.52604Q200.1875 64.979164 199.65625 63.96354Q199.14062 62.93229 199.14062 61.666664Q199.14062 60.40104 199.65625 59.322914Q200.1875 58.229164 201.17188 57.71354Q202.15625 57.18229 203.4375 57.18229Q204.375 57.18229 205.125 57.479164Q205.875 57.77604 206.29688 58.322914Q206.73438 58.854164 206.95312 59.729164L205.9375 60.010414Q205.73438 59.354164 205.4375 58.979164Q205.15625 58.604164 204.625 58.385414Q204.09375 58.15104 203.45312 58.15104Q202.67188 58.15104 202.09375 58.385414Q201.53125 58.61979 201.17188 59.010414Q200.82812 59.40104 200.64062 59.86979Q200.3125 60.666664 200.3125 61.58854Q200.3125 62.74479 200.70312 63.52604Q201.10938 64.291664 201.85938 64.666664Q202.60938 65.041664 203.46875 65.041664Q204.20312 65.041664 204.90625 64.760414Q205.60938 64.46354 205.96875 64.15104L205.96875 62.541664L203.45312 62.541664ZM213.54688 64.90104L213.54688 65.916664L207.85938 65.916664Q207.85938 65.541664 207.98438 65.18229Q208.20312 64.604164 208.67188 64.041664Q209.15625 63.479164 210.0625 62.74479Q211.46875 61.58854 211.95312 60.916664Q212.45312 60.24479 212.45312 59.65104Q212.45312 59.02604 212.0 58.604164Q211.54688 58.166664 210.82812 58.166664Q210.0625 58.166664 209.60938 58.61979Q209.15625 59.072914 209.14062 59.885414L208.0625 59.77604Q208.17188 58.55729 208.89062 57.93229Q209.625 57.291664 210.85938 57.291664Q212.09375 57.291664 212.8125 57.979164Q213.53125 58.666664 213.53125 59.68229Q213.53125 60.197914 213.3125 60.697914Q213.10938 61.18229 212.60938 61.74479Q212.125 62.291664 211.0 63.24479Q210.04688 64.041664 209.76562 64.33854Q209.5 64.61979 209.32812 64.90104L213.54688 64.90104ZM218.0 61.68229Q218.0 60.15104 218.3125 59.229164Q218.625 58.291664 219.23438 57.791664Q219.85938 57.291664 220.79688 57.291664Q221.48438 57.291664 222.0 57.572914Q222.53125 57.854164 222.875 58.385414Q223.21875 58.90104 223.40625 59.65104Q223.59375 60.40104 223.59375 61.68229Q223.59375 63.197914 223.28125 64.11979Q222.98438 65.041664 222.35938 65.55729Q221.75 66.05729 220.79688 66.05729Q219.5625 66.05729 218.84375 65.166664Q218.0 64.104164 218.0 61.68229ZM219.07812 61.68229Q219.07812 63.791664 219.57812 64.49479Q220.07812 65.197914 220.79688 65.197914Q221.53125 65.197914 222.01562 64.49479Q222.51562 63.791664 222.51562 61.68229Q222.51562 59.55729 222.01562 58.86979Q221.53125 58.166664 220.78125 58.166664Q220.0625 58.166664 219.625 58.77604Q219.07812 59.55729 219.07812 61.68229ZM225.59375 65.916664L225.59375 64.71354L226.79688 64.71354L226.79688 65.916664L225.59375 65.916664ZM231.96875 65.916664L230.92188 65.916664L230.92188 59.197914Q230.53125 59.55729 229.90625 59.93229Q229.29688 60.291664 228.8125 60.46354L228.8125 59.447914Q229.6875 59.02604 230.34375 58.447914Q231.01562 57.854164 231.29688 57.291664L231.96875 57.291664L231.96875 65.916664ZM235.59375 65.916664L235.59375 64.71354L236.79688 64.71354L236.79688 65.916664L235.59375 65.916664ZM241.96875 65.916664L240.92188 65.916664L240.92188 59.197914Q240.53125 59.55729 239.90625 59.93229Q239.29688 60.291664 238.8125 60.46354L238.8125 59.447914Q239.6875 59.02604 240.34375 58.447914Q241.01562 57.854164 241.29688 57.291664L241.96875 57.291664L241.96875 65.916664Z" fill-rule="nonzero"/><path fill="#ea4335" d="M260.5 56.916668C260.5 56.364384 260.94772 55.916668 261.5 55.916668L271.5 55.916668C272.05228 55.916668 272.5 56.364384 272.5 56.916668L272.5 66.916664C272.5 67.46895 272.05228 67.916664 271.5 67.916664L261.5 67.916664C260.94772 67.916664 260.5 67.46895 260.5 66.916664Z" fill-rule="nonzero"/><path fill="#1a1a1a" d="M280.84375 63.479164L281.875 63.33854Q281.90625 64.322914 282.23438 64.68229Q282.5625 65.041664 283.15625 65.041664Q283.57812 65.041664 283.89062 64.854164Q284.20312 64.65104 284.3125 64.322914Q284.4375 63.979164 284.4375 63.24479L284.4375 57.322914L285.5625 57.322914L285.5625 63.18229Q285.5625 64.260414 285.29688 64.854164Q285.04688 65.447914 284.48438 65.760414Q283.92188 66.05729 283.15625 66.05729Q282.03125 66.05729 281.42188 65.416664Q280.82812 64.760414 280.84375 63.479164ZM287.42188 65.916664L287.42188 57.322914L290.39062 57.322914Q291.39062 57.322914 291.92188 57.447914Q292.65625 57.61979 293.17188 58.05729Q293.85938 58.635414 294.1875 59.541664Q294.53125 60.43229 294.53125 61.572914Q294.53125 62.55729 294.29688 63.30729Q294.07812 64.05729 293.71875 64.55729Q293.35938 65.05729 292.92188 65.33854Q292.5 65.61979 291.90625 65.77604Q291.3125 65.916664 290.53125 65.916664L287.42188 65.916664ZM288.5625 64.90104L290.39062 64.90104Q291.25 64.90104 291.73438 64.74479Q292.21875 64.58854 292.5 64.291664Q292.90625 63.90104 293.125 63.21354Q293.35938 62.52604 293.35938 61.55729Q293.35938 60.21354 292.90625 59.49479Q292.46875 58.760414 291.84375 58.510414Q291.375 58.33854 290.375 58.33854L288.5625 58.33854L288.5625 64.90104ZM296.375 65.916664L296.375 57.322914L299.60938 57.322914Q300.59375 57.322914 301.1875 57.58854Q301.78125 57.854164 302.10938 58.40104Q302.45312 58.93229 302.45312 59.52604Q302.45312 60.072914 302.15625 60.55729Q301.85938 61.041664 301.25 61.33854Q302.03125 61.572914 302.4375 62.135414Q302.85938 62.68229 302.85938 63.43229Q302.85938 64.02604 302.60938 64.55729Q302.35938 65.072914 301.98438 65.354164Q301.60938 65.635414 301.03125 65.77604Q300.46875 65.916664 299.65625 65.916664L296.375 65.916664ZM297.51562 60.93229L299.375 60.93229Q300.125 60.93229 300.45312 60.83854Q300.89062 60.71354 301.10938 60.416664Q301.32812 60.104164 301.32812 59.65104Q301.32812 59.229164 301.125 58.90104Q300.92188 58.572914 300.53125 58.46354Q300.15625 58.33854 299.23438 58.33854L297.51562 58.33854L297.51562 60.93229ZM297.51562 64.90104L299.65625 64.90104Q300.20312 64.90104 300.42188 64.854164Q300.82812 64.791664 301.07812 64.635414Q301.34375 64.46354 301.51562 64.15104Q301.6875 63.83854 301.6875 63.43229Q301.6875 62.947914 301.4375 62.58854Q301.20312 62.229164 300.76562 62.08854Q300.32812 61.947914 299.5 61.947914L297.51562 61.947914L297.51562 64.90104ZM310.5625 62.90104L311.6875 63.197914Q311.32812 64.58854 310.40625 65.322914Q309.48438 66.05729 308.14062 66.05729Q306.75 66.05729 305.875 65.49479Q305.0 64.93229 304.54688 63.86979Q304.09375 62.791664 304.09375 61.55729Q304.09375 60.21354 304.60938 59.21354Q305.125 58.21354 306.0625 57.697914Q307.01562 57.18229 308.15625 57.18229Q309.4375 57.18229 310.3125 57.83854Q311.20312 58.49479 311.54688 59.68229L310.42188 59.947914Q310.125 59.010414 309.54688 58.58854Q308.98438 58.15104 308.125 58.15104Q307.14062 58.15104 306.46875 58.635414Q305.8125 59.104164 305.53125 59.90104Q305.26562 60.697914 305.26562 61.55729Q305.26562 62.65104 305.57812 63.46354Q305.90625 64.27604 306.57812 64.68229Q307.25 65.08854 308.04688 65.08854Q309.0 65.08854 309.65625 64.541664Q310.32812 63.99479 310.5625 62.90104ZM313.59375 65.916664L313.59375 64.71354L314.79688 64.71354L314.79688 65.916664L313.59375 65.916664ZM316.42188 65.916664L316.42188 57.322914L317.57812 57.322914L322.09375 64.072914L322.09375 57.322914L323.1875 57.322914L323.1875 65.916664L322.01562 65.916664L317.5 59.166664L317.5 65.916664L316.42188 65.916664ZM329.54688 63.916664L330.64062 64.041664Q330.39062 64.99479 329.6875 65.52604Q328.98438 66.05729 327.90625 66.05729Q326.54688 66.05729 325.73438 65.21354Q324.9375 64.36979 324.9375 62.854164Q324.9375 61.291664 325.75 60.43229Q326.5625 59.55729 327.84375 59.55729Q329.09375 59.55729 329.875 60.40104Q330.67188 61.24479 330.67188 62.791664Q330.67188 62.885414 330.67188 63.072914L326.03125 63.072914Q326.09375 64.104164 326.60938 64.65104Q327.125 65.18229 327.90625 65.18229Q328.48438 65.18229 328.89062 64.885414Q329.3125 64.572914 329.54688 63.916664ZM326.09375 62.21354L329.5625 62.21354Q329.5 61.416664 329.17188 61.02604Q328.65625 60.416664 327.85938 60.416664Q327.125 60.416664 326.625 60.90104Q326.14062 61.385414 326.09375 62.21354ZM331.59375 65.916664L333.85938 62.68229L331.76562 59.697914L333.07812 59.697914L334.03125 61.15104Q334.29688 61.572914 334.46875 61.854164Q334.71875 61.46354 334.9375 61.166664L335.98438 59.697914L337.25 59.697914L335.09375 62.61979L337.40625 65.916664L336.125 65.916664L334.84375 63.979164L334.5 63.46354L332.85938 65.916664L331.59375 65.916664ZM339.59375 64.979164L339.75 65.90104Q339.29688 65.99479 338.95312 65.99479Q338.375 65.99479 338.0625 65.822914Q337.75 65.635414 337.60938 65.33854Q337.48438 65.041664 337.48438 64.08854L337.48438 60.510414L336.71875 60.510414L336.71875 59.697914L337.48438 59.697914L337.48438 58.15104L338.53125 57.52604L338.53125 59.697914L339.59375 59.697914L339.59375 60.510414L338.53125 60.510414L338.53125 64.15104Q338.53125 64.604164 338.57812 64.729164Q338.64062 64.854164 338.76562 64.93229Q338.89062 65.010414 339.125 65.010414Q339.3125 65.010414 339.59375 64.979164Z" fill-rule="nonzero"/><path fill="#fbbc04" d="M355.5 56.916668C355.5 56.364384 355.94772 55.916668 356.5 55.916668L366.5 55.916668C367.05228 55.916668 367.5 56.364384 367.5 56.916668L367.5 66.916664C367.5 67.46895 367.05228 67.916664 366.5 67.916664L356.5 67.916664C355.94772 67.916664 355.5 67.46895 355.5 66.916664Z" fill-rule="nonzero"/><path fill="#1a1a1a" d="M376.42188 65.916664L376.42188 57.322914L379.67188 57.322914Q380.51562 57.322914 380.96875 57.40104Q381.60938 57.510414 382.03125 57.80729Q382.46875 58.104164 382.71875 58.635414Q382.98438 59.166664 382.98438 59.80729Q382.98438 60.90104 382.28125 61.666664Q381.59375 62.416664 379.76562 62.416664L377.5625 62.416664L377.5625 65.916664L376.42188 65.916664ZM377.5625 61.416664L379.78125 61.416664Q380.89062 61.416664 381.34375 61.010414Q381.8125 60.58854 381.8125 59.83854Q381.8125 59.30729 381.53125 58.93229Q381.26562 58.541664 380.82812 58.416664Q380.53125 58.33854 379.76562 58.33854L377.5625 58.33854L377.5625 61.416664ZM388.45312 62.541664L388.45312 61.541664L392.07812 61.52604L392.07812 64.71354Q391.25 65.385414 390.35938 65.729164Q389.46875 66.05729 388.53125 66.05729Q387.26562 66.05729 386.21875 65.52604Q385.1875 64.979164 384.65625 63.96354Q384.14062 62.93229 384.14062 61.666664Q384.14062 60.40104 384.65625 59.322914Q385.1875 58.229164 386.17188 57.71354Q387.15625 57.18229 388.4375 57.18229Q389.375 57.18229 390.125 57.479164Q390.875 57.77604 391.29688 58.322914Q391.73438 58.854164 391.95312 59.729164L390.9375 60.010414Q390.73438 59.354164 390.4375 58.979164Q390.15625 58.604164 389.625 58.385414Q389.09375 58.15104 388.45312 58.15104Q387.67188 58.15104 387.09375 58.385414Q386.53125 58.61979 386.17188 59.010414Q385.82812 59.40104 385.64062 59.86979Q385.3125 60.666664 385.3125 61.58854Q385.3125 62.74479 385.70312 63.52604Q386.10938 64.291664 386.85938 64.666664Q387.60938 65.041664 388.46875 65.041664Q389.20312 65.041664 389.90625 64.760414Q390.60938 64.46354 390.96875 64.15104L390.96875 62.541664L388.45312 62.541664ZM398.54688 64.90104L398.54688 65.916664L392.85938 65.916664Q392.85938 65.541664 392.98438 65.18229Q393.20312 64.604164 393.67188 64.041664Q394.15625 63.479164 395.0625 62.74479Q396.46875 61.58854 396.95312 60.916664Q397.45312 60.24479 397.45312 59.65104Q397.45312 59.02604 397.0 58.604164Q396.54688 58.166664 395.82812 58.166664Q395.0625 58.166664 394.60938 58.61979Q394.15625 59.072914 394.14062 59.885414L393.0625 59.77604Q393.17188 58.55729 393.89062 57.93229Q394.625 57.291664 395.85938 57.291664Q397.09375 57.291664 397.8125 57.979164Q398.53125 58.666664 398.53125 59.68229Q398.53125 60.197914 398.3125 60.697914Q398.10938 61.18229 397.60938 61.74479Q397.125 62.291664 396.0 63.24479Q395.04688 64.041664 394.76562 64.33854Q394.5 64.61979 394.32812 64.90104L398.54688 64.90104ZM403.0 61.68229Q403.0 60.15104 403.3125 59.229164Q403.625 58.291664 404.23438 57.791664Q404.85938 57.291664 405.79688 57.291664Q406.48438 57.291664 407.0 57.572914Q407.53125 57.854164 407.875 58.385414Q408.21875 58.90104 408.40625 59.65104Q408.59375 60.40104 408.59375 61.68229Q408.59375 63.197914 408.28125 64.11979Q407.98438 65.041664 407.35938 65.55729Q406.75 66.05729 405.79688 66.05729Q404.5625 66.05729 403.84375 65.166664Q403.0 64.104164 403.0 61.68229ZM404.07812 61.68229Q404.07812 63.791664 404.57812 64.49479Q405.07812 65.197914 405.79688 65.197914Q406.53125 65.197914 407.01562 64.49479Q407.51562 63.791664 407.51562 61.68229Q407.51562 59.55729 407.01562 58.86979Q406.53125 58.166664 405.78125 58.166664Q405.0625 58.166664 404.625 58.77604Q404.07812 59.55729 404.07812 61.68229ZM410.59375 65.916664L410.59375 64.71354L411.79688 64.71354L411.79688 65.916664L410.59375 65.916664ZM416.96875 65.916664L415.92188 65.916664L415.92188 59.197914Q415.53125 59.55729 414.90625 59.93229Q414.29688 60.291664 413.8125 60.46354L413.8125 59.447914Q414.6875 59.02604 415.34375 58.447914Q416.01562 57.854164 416.29688 57.291664L416.96875 57.291664L416.96875 65.916664ZM420.59375 65.916664L420.59375 64.71354L421.79688 64.71354L421.79688 65.916664L420.59375 65.916664ZM428.54688 64.90104L428.54688 65.916664L422.85938 65.916664Q422.85938 65.541664 422.98438 65.18229Q423.20312 64.604164 423.67188 64.041664Q424.15625 63.479164 425.0625 62.74479Q426.46875 61.58854 426.95312 60.916664Q427.45312 60.24479 427.45312 59.65104Q427.45312 59.02604 427.0 58.604164Q426.54688 58.166664 425.82812 58.166664Q425.0625 58.166664 424.60938 58.61979Q424.15625 59.072914 424.14062 59.885414L423.0625 59.77604Q423.17188 58.55729 423.89062 57.93229Q424.625 57.291664 425.85938 57.291664Q427.09375 57.291664 427.8125 57.979164Q428.53125 58.666664 428.53125 59.68229Q428.53125 60.197914 428.3125 60.697914Q428.10938 61.18229 427.60938 61.74479Q427.125 62.291664 426.0 63.24479Q425.04688 64.041664 424.76562 64.33854Q424.5 64.61979 424.32812 64.90104L428.54688 64.90104Z" fill-rule="nonzero"/><path fill="#757575" d="M18.51875 37.55L24.01875 23.2375L26.065624 23.2375L31.925 37.55L29.76875 37.55L28.096874 33.20625L22.1125 33.20625L20.534374 37.55L18.51875 37.55ZM22.659374 31.675L27.503124 31.675L26.01875 27.70625Q25.33125 25.89375 25.003124 24.7375Q24.721874 26.1125 24.221874 27.471874L22.659374 31.675ZM45.64375 33.753124L47.3625 33.971874Q47.08125 35.76875 45.909374 36.784374Q44.753124 37.784374 43.05 37.784374Q40.925 37.784374 39.628124 36.39375Q38.33125 35.003124 38.33125 32.409374Q38.33125 30.721874 38.878124 29.471874Q39.440624 28.20625 40.58125 27.58125Q41.721874 26.940624 43.065624 26.940624Q44.753124 26.940624 45.815624 27.8Q46.89375 28.659374 47.20625 30.221874L45.4875 30.4875Q45.253124 29.440624 44.628124 28.925Q44.003124 28.39375 43.128124 28.39375Q41.8 28.39375 40.971874 29.346874Q40.14375 30.3 40.14375 32.346874Q40.14375 34.440624 40.940624 35.39375Q41.7375 36.33125 43.034374 36.33125Q44.065624 36.33125 44.753124 35.70625Q45.45625 35.065624 45.64375 33.753124ZM48.221874 32.3625Q48.221874 29.4875 49.815624 28.096874Q51.159374 26.940624 53.08125 26.940624Q55.221874 26.940624 56.565624 28.346874Q57.925 29.753124 57.925 32.221874Q57.925 34.221874 57.33125 35.378124Q56.7375 36.51875 55.58125 37.159374Q54.440624 37.784374 53.08125 37.784374Q50.89375 37.784374 49.55 36.39375Q48.221874 34.9875 48.221874 32.3625ZM50.01875 32.3625Q50.01875 34.3625 50.878124 35.346874Q51.753124 36.33125 53.08125 36.33125Q54.39375 36.33125 55.253124 35.346874Q56.128124 34.346874 56.128124 32.3Q56.128124 30.378124 55.253124 29.39375Q54.378124 28.39375 53.08125 28.39375Q51.753124 28.39375 50.878124 29.39375Q50.01875 30.378124 50.01875 32.3625ZM59.8625 37.55L59.8625 27.175L61.440624 27.175L61.440624 28.628124Q61.925 27.878124 62.7375 27.409374Q63.55 26.940624 64.58125 26.940624Q65.7375 26.940624 66.47188 27.425Q67.20625 27.89375 67.51875 28.753124Q68.75313 26.940624 70.72188 26.940624Q72.26875 26.940624 73.09688 27.8Q73.925 28.659374 73.925 30.425L73.925 37.55L72.175 37.55L72.175 31.01875Q72.175 29.95625 72.00313 29.503124Q71.83125 29.034374 71.37813 28.753124Q70.94063 28.471874 70.33125 28.471874Q69.2375 28.471874 68.50313 29.20625Q67.78438 29.925 67.78438 31.51875L67.78438 37.55L66.03438 37.55L66.03438 30.815624Q66.03438 29.64375 65.59688 29.065624Q65.175 28.471874 64.19063 28.471874Q63.45625 28.471874 62.815624 28.8625Q62.190624 29.253124 61.909374 30.003124Q61.628124 30.753124 61.628124 32.175L61.628124 37.55L59.8625 37.55ZM75.8625 41.51875L75.8625 27.175L77.47188 27.175L77.47188 28.51875Q78.03438 27.7375 78.7375 27.346874Q79.45625 26.940624 80.47188 26.940624Q81.8 26.940624 82.81563 27.628124Q83.83125 28.315624 84.34688 29.565624Q84.87813 30.8 84.87813 32.284374Q84.87813 33.878124 84.3 35.159374Q83.7375 36.425 82.64375 37.1125Q81.55 37.784374 80.34688 37.784374Q79.47188 37.784374 78.76875 37.409374Q78.08125 37.034374 77.62813 36.471874L77.62813 41.51875L75.8625 41.51875ZM77.45625 32.425Q77.45625 34.425 78.26875 35.378124Q79.08125 36.33125 80.2375 36.33125Q81.40938 36.33125 82.2375 35.346874Q83.08125 34.3625 83.08125 32.26875Q83.08125 30.3 82.25313 29.315624Q81.44063 28.315624 80.31563 28.315624Q79.19063 28.315624 78.31563 29.378124Q77.45625 30.425 77.45625 32.425ZM86.83125 37.55L86.83125 23.2375L88.58125 23.2375L88.58125 37.55L86.83125 37.55ZM97.97188 34.20625L99.78438 34.440624Q99.3625 36.01875 98.19063 36.909374Q97.03438 37.784374 95.22188 37.784374Q92.95625 37.784374 91.6125 36.39375Q90.28438 34.9875 90.28438 32.45625Q90.28438 29.83125 91.62813 28.39375Q92.97188 26.940624 95.12813 26.940624Q97.20625 26.940624 98.51875 28.3625Q99.84688 29.76875 99.84688 32.346874Q99.84688 32.503124 99.83125 32.815624L92.09688 32.815624Q92.19063 34.51875 93.06563 35.425Q93.94063 36.33125 95.2375 36.33125Q96.20625 36.33125 96.87813 35.83125Q97.56563 35.315624 97.97188 34.20625ZM92.19063 31.3625L97.9875 31.3625Q97.87813 30.065624 97.33125 29.409374Q96.4875 28.39375 95.14375 28.39375Q93.94063 28.39375 93.1125 29.20625Q92.28438 30.003124 92.19063 31.3625ZM100.69063 37.55L104.4875 32.159374L100.9875 27.175L103.175 27.175L104.76875 29.6125Q105.22188 30.3 105.4875 30.76875Q105.925 30.128124 106.28438 29.628124L108.03438 27.175L110.12813 27.175L106.55 32.065624L110.40938 37.55L108.25313 37.55L106.1125 34.33125L105.55 33.45625L102.83125 37.55L100.69063 37.55ZM116.84688 37.55L116.84688 27.175L118.425 27.175L118.425 28.753124Q119.03438 27.64375 119.55 27.3Q120.06563 26.940624 120.675 26.940624Q121.56563 26.940624 122.4875 27.503124L121.87813 29.14375Q121.2375 28.753124 120.59688 28.753124Q120.01875 28.753124 119.55 29.1125Q119.09688 29.45625 118.89375 30.065624Q118.6125 31.003124 118.6125 32.1125L118.6125 37.55L116.84688 37.55ZM130.64375 36.26875Q129.65938 37.096874 128.75313 37.440624Q127.84688 37.784374 126.81563 37.784374Q125.1125 37.784374 124.19063 36.95625Q123.26875 36.1125 123.26875 34.815624Q123.26875 34.05 123.6125 33.425Q123.97188 32.8 124.53438 32.425Q125.09688 32.034374 125.8 31.83125Q126.31563 31.70625 127.3625 31.565624Q129.4875 31.315624 130.4875 30.971874Q130.50313 30.6125 130.50313 30.503124Q130.50313 29.440624 130.00313 28.9875Q129.33125 28.39375 128.00313 28.39375Q126.75313 28.39375 126.15938 28.83125Q125.58125 29.26875 125.3 30.378124L123.58125 30.14375Q123.81563 29.034374 124.34688 28.3625Q124.87813 27.675 125.89375 27.315624Q126.90938 26.940624 128.25313 26.940624Q129.58125 26.940624 130.40938 27.253124Q131.2375 27.565624 131.62813 28.05Q132.01875 28.51875 132.175 29.2375Q132.26875 29.690624 132.26875 30.8625L132.26875 33.20625Q132.26875 35.659374 132.37813 36.315624Q132.4875 36.95625 132.83125 37.55L130.9875 37.55Q130.72188 37.003124 130.64375 36.26875ZM130.4875 32.346874Q129.53438 32.7375 127.6125 33.003124Q126.53438 33.159374 126.08125 33.3625Q125.64375 33.55 125.39375 33.925Q125.14375 34.3 125.14375 34.76875Q125.14375 35.471874 125.675 35.940624Q126.20625 36.409374 127.2375 36.409374Q128.25313 36.409374 129.03438 35.971874Q129.83125 35.51875 130.20625 34.753124Q130.4875 34.14375 130.4875 32.9875L130.4875 32.346874ZM134.8625 37.55L134.8625 27.175L136.45625 27.175L136.45625 28.659374Q137.59688 26.940624 139.75313 26.940624Q140.69063 26.940624 141.47188 27.284374Q142.26875 27.6125 142.65938 28.159374Q143.05 28.70625 143.20625 29.45625Q143.3 29.95625 143.3 31.175L143.3 37.55L141.53438 37.55L141.53438 31.2375Q141.53438 30.159374 141.33125 29.628124Q141.12813 29.096874 140.59688 28.784374Q140.08125 28.471874 139.37813 28.471874Q138.25313 28.471874 137.44063 29.190624Q136.62813 29.89375 136.62813 31.878124L136.62813 37.55L134.8625 37.55ZM151.59688 37.55L151.59688 36.2375Q150.6125 37.784374 148.69063 37.784374Q147.45625 37.784374 146.40938 37.096874Q145.37813 36.409374 144.8 35.190624Q144.2375 33.971874 144.2375 32.378124Q144.2375 30.815624 144.75313 29.55Q145.26875 28.284374 146.3 27.6125Q147.34688 26.940624 148.6125 26.940624Q149.55 26.940624 150.28438 27.346874Q151.01875 27.7375 151.4875 28.3625L151.4875 23.2375L153.22188 23.2375L153.22188 37.55L151.59688 37.55ZM146.03438 32.378124Q146.03438 34.3625 146.87813 35.346874Q147.72188 36.33125 148.8625 36.33125Q150.01875 36.33125 150.81563 35.39375Q151.62813 34.45625 151.62813 32.51875Q151.62813 30.39375 150.8 29.39375Q149.9875 28.39375 148.78438 28.39375Q147.6125 28.39375 146.81563 29.3625Q146.03438 30.315624 146.03438 32.378124ZM155.22188 32.3625Q155.22188 29.4875 156.81563 28.096874Q158.15938 26.940624 160.08125 26.940624Q162.22188 26.940624 163.56563 28.346874Q164.925 29.753124 164.925 32.221874Q164.925 34.221874 164.33125 35.378124Q163.7375 36.51875 162.58125 37.159374Q161.44063 37.784374 160.08125 37.784374Q157.89375 37.784374 156.55 36.39375Q155.22188 34.9875 155.22188 32.3625ZM157.01875 32.3625Q157.01875 34.3625 157.87813 35.346874Q158.75313 36.33125 160.08125 36.33125Q161.39375 36.33125 162.25313 35.346874Q163.12813 34.346874 163.12813 32.3Q163.12813 30.378124 162.25313 29.39375Q161.37813 28.39375 160.08125 28.39375Q158.75313 28.39375 157.87813 29.39375Q157.01875 30.378124 157.01875 32.3625ZM166.8625 37.55L166.8625 27.175L168.44063 27.175L168.44063 28.628124Q168.925 27.878124 169.7375 27.409374Q170.55 26.940624 171.58125 26.940624Q172.7375 26.940624 173.47188 27.425Q174.20625 27.89375 174.51875 28.753124Q175.75313 26.940624 177.72188 26.940624Q179.26875 26.940624 180.09688 27.8Q180.925 28.659374 180.925 30.425L180.925 37.55L179.175 37.55L179.175 31.01875Q179.175 29.95625 179.00313 29.503124Q178.83125 29.034374 178.37813 28.753124Q177.94063 28.471874 177.33125 28.471874Q176.2375 28.471874 175.50313 29.20625Q174.78438 29.925 174.78438 31.51875L174.78438 37.55L173.03438 37.55L173.03438 30.815624Q173.03438 29.64375 172.59688 29.065624Q172.175 28.471874 171.19063 28.471874Q170.45625 28.471874 169.81563 28.8625Q169.19063 29.253124 168.90938 30.003124Q168.62813 30.753124 168.62813 32.175L168.62813 37.55L166.8625 37.55ZM195.4875 41.51875L195.4875 36.440624Q195.06563 37.01875 194.33125 37.409374Q193.59688 37.784374 192.76875 37.784374Q190.925 37.784374 189.58125 36.315624Q188.25313 34.83125 188.25313 32.26875Q188.25313 30.70625 188.78438 29.471874Q189.33125 28.221874 190.3625 27.58125Q191.39375 26.940624 192.62813 26.940624Q194.55 26.940624 195.65938 28.565624L195.65938 27.175L197.2375 27.175L197.2375 41.51875L195.4875 41.51875ZM190.06563 32.33125Q190.06563 34.33125 190.89375 35.33125Q191.7375 36.33125 192.90938 36.33125Q194.03438 36.33125 194.84688 35.39375Q195.65938 34.440624 195.65938 32.4875Q195.65938 30.425 194.8 29.378124Q193.94063 28.33125 192.8 28.33125Q191.65938 28.33125 190.8625 29.3Q190.06563 30.26875 190.06563 32.33125ZM206.65938 37.55L206.65938 36.01875Q205.45625 37.784374 203.37813 37.784374Q202.45625 37.784374 201.65938 37.440624Q200.8625 37.08125 200.47188 36.55Q200.09688 36.01875 199.94063 35.2375Q199.83125 34.721874 199.83125 33.596874L199.83125 27.175L201.58125 27.175L201.58125 32.925Q201.58125 34.3 201.69063 34.784374Q201.8625 35.471874 202.39375 35.878124Q202.94063 36.26875 203.72188 36.26875Q204.51875 36.26875 205.20625 35.8625Q205.90938 35.45625 206.19063 34.76875Q206.4875 34.065624 206.4875 32.7375L206.4875 27.175L208.2375 27.175L208.2375 37.55L206.65938 37.55ZM216.97188 34.20625L218.78438 34.440624Q218.3625 36.01875 217.19063 36.909374Q216.03438 37.784374 214.22188 37.784374Q211.95625 37.784374 210.6125 36.39375Q209.28438 34.9875 209.28438 32.45625Q209.28438 29.83125 210.62813 28.39375Q211.97188 26.940624 214.12813 26.940624Q216.20625 26.940624 217.51875 28.3625Q218.84688 29.76875 218.84688 32.346874Q218.84688 32.503124 218.83125 32.815624L211.09688 32.815624Q211.19063 34.51875 212.06563 35.425Q212.94063 36.33125 214.2375 36.33125Q215.20625 36.33125 215.87813 35.83125Q216.56563 35.315624 216.97188 34.20625ZM211.19063 31.3625L216.9875 31.3625Q216.87813 30.065624 216.33125 29.409374Q215.4875 28.39375 214.14375 28.39375Q212.94063 28.39375 212.1125 29.20625Q211.28438 30.003124 211.19063 31.3625ZM220.84688 37.55L220.84688 27.175L222.425 27.175L222.425 28.753124Q223.03438 27.64375 223.55 27.3Q224.06563 26.940624 224.675 26.940624Q225.56563 26.940624 226.4875 27.503124L225.87813 29.14375Q225.2375 28.753124 224.59688 28.753124Q224.01875 28.753124 223.55 29.1125Q223.09688 29.45625 222.89375 30.065624Q222.6125 31.003124 222.6125 32.1125L222.6125 37.55L220.84688 37.55ZM227.78438 41.55L227.59688 39.89375Q228.175 40.05 228.59688 40.05Q229.19063 40.05 229.53438 39.846874Q229.89375 39.659374 230.1125 39.315624Q230.28438 39.05 230.65938 38.003124Q230.70625 37.846874 230.81563 37.565624L226.87813 27.175L228.76875 27.175L230.925 33.190624Q231.34688 34.33125 231.675 35.58125Q231.9875 34.378124 232.39375 33.221874L234.6125 27.175L236.37813 27.175L232.425 37.721874Q231.8 39.440624 231.44063 40.08125Q230.97188 40.95625 230.3625 41.346874Q229.76875 41.753124 228.925 41.753124Q228.40938 41.753124 227.78438 41.55ZM238.33125 37.55L238.33125 35.55L240.33125 35.55L240.33125 37.55Q240.33125 38.659374 239.94063 39.33125Q239.55 40.01875 238.70625 40.378124L238.20625 39.628124Q238.76875 39.39375 239.03438 38.909374Q239.3 38.440624 239.33125 37.55L238.33125 37.55ZM249.87813 25.253124L249.87813 23.2375L251.64375 23.2375L251.64375 25.253124L249.87813 25.253124ZM249.87813 37.55L249.87813 27.175L251.64375 27.175L251.64375 37.55L249.87813 37.55ZM253.8625 37.55L253.8625 27.175L255.45625 27.175L255.45625 28.659374Q256.59686 26.940624 258.7531 26.940624Q259.6906 26.940624 260.47186 27.284374Q261.26874 27.6125 261.65936 28.159374Q262.05 28.70625 262.20624 29.45625Q262.3 29.95625 262.3 31.175L262.3 37.55L260.53436 37.55L260.53436 31.2375Q260.53436 30.159374 260.33124 29.628124Q260.1281 29.096874 259.59686 28.784374Q259.08124 28.471874 258.3781 28.471874Q257.2531 28.471874 256.4406 29.190624Q255.62813 29.89375 255.62813 31.878124L255.62813 37.55L253.8625 37.55ZM269.8625 37.55L269.8625 27.175L271.4406 27.175L271.4406 28.628124Q271.925 27.878124 272.7375 27.409374Q273.55 26.940624 274.58124 26.940624Q275.7375 26.940624 276.47186 27.425Q277.20624 27.89375 277.51874 28.753124Q278.7531 26.940624 280.72186 26.940624Q282.26874 26.940624 283.09686 27.8Q283.925 28.659374 283.925 30.425L283.925 37.55L282.175 37.55L282.175 31.01875Q282.175 29.95625 282.0031 29.503124Q281.83124 29.034374 281.3781 28.753124Q280.9406 28.471874 280.33124 28.471874Q279.2375 28.471874 278.5031 29.20625Q277.78436 29.925 277.78436 31.51875L277.78436 37.55L276.03436 37.55L276.03436 30.815624Q276.03436 29.64375 275.59686 29.065624Q275.175 28.471874 274.1906 28.471874Q273.45624 28.471874 272.8156 28.8625Q272.1906 29.253124 271.90936 30.003124Q271.6281 30.753124 271.6281 32.175L271.6281 37.55L269.8625 37.55ZM285.15936 34.45625L286.90936 34.175Q287.05 35.221874 287.72186 35.784374Q288.39374 36.33125 289.59686 36.33125Q290.8 36.33125 291.3781 35.846874Q291.97186 35.346874 291.97186 34.690624Q291.97186 34.096874 291.45624 33.753124Q291.09686 33.51875 289.65936 33.159374Q287.72186 32.659374 286.97186 32.315624Q286.2375 31.95625 285.84686 31.33125Q285.45624 30.690624 285.45624 29.925Q285.45624 29.2375 285.76874 28.64375Q286.09686 28.05 286.64374 27.659374Q287.05 27.3625 287.7531 27.159374Q288.47186 26.940624 289.28436 26.940624Q290.5031 26.940624 291.425 27.3Q292.34686 27.64375 292.78436 28.253124Q293.22186 28.846874 293.39374 29.846874L291.675 30.08125Q291.55 29.284374 290.9875 28.846874Q290.425 28.39375 289.40936 28.39375Q288.1906 28.39375 287.675 28.8Q287.15936 29.190624 287.15936 29.721874Q287.15936 30.065624 287.3781 30.346874Q287.58124 30.628124 288.05 30.815624Q288.3156 30.909374 289.59686 31.253124Q291.47186 31.753124 292.20624 32.08125Q292.9406 32.39375 293.3625 33.003124Q293.78436 33.596874 293.78436 34.503124Q293.78436 35.378124 293.26874 36.159374Q292.7531 36.940624 291.78436 37.3625Q290.8156 37.784374 289.59686 37.784374Q287.58124 37.784374 286.51874 36.940624Q285.45624 36.096874 285.15936 34.45625ZM305.22186 41.753124Q303.76874 39.925 302.76874 37.471874Q301.76874 35.003124 301.76874 32.3625Q301.76874 30.034374 302.51874 27.909374Q303.39374 25.440624 305.22186 22.9875L306.4875 22.9875Q305.3 25.01875 304.925 25.89375Q304.33124 27.2375 303.9875 28.70625Q303.5656 30.534374 303.5656 32.378124Q303.5656 37.065624 306.4875 41.753124L305.22186 41.753124ZM308.83124 37.55L308.83124 23.2375L310.58124 23.2375L310.58124 37.55L308.83124 37.55ZM319.97186 34.20625L321.78436 34.440624Q321.3625 36.01875 320.1906 36.909374Q319.03436 37.784374 317.22186 37.784374Q314.95624 37.784374 313.6125 36.39375Q312.28436 34.9875 312.28436 32.45625Q312.28436 29.83125 313.6281 28.39375Q314.97186 26.940624 317.1281 26.940624Q319.20624 26.940624 320.51874 28.3625Q321.84686 29.76875 321.84686 32.346874Q321.84686 32.503124 321.83124 32.815624L314.09686 32.815624Q314.1906 34.51875 315.0656 35.425Q315.9406 36.33125 317.2375 36.33125Q318.20624 36.33125 318.8781 35.83125Q319.5656 35.315624 319.97186 34.20625ZM314.1906 31.3625L319.9875 31.3625Q319.8781 30.065624 319.33124 29.409374Q318.4875 28.39375 317.14374 28.39375Q315.9406 28.39375 315.1125 29.20625Q314.28436 30.003124 314.1906 31.3625ZM323.15936 34.45625L324.90936 34.175Q325.05 35.221874 325.72186 35.784374Q326.39374 36.33125 327.59686 36.33125Q328.8 36.33125 329.3781 35.846874Q329.97186 35.346874 329.97186 34.690624Q329.97186 34.096874 329.45624 33.753124Q329.09686 33.51875 327.65936 33.159374Q325.72186 32.659374 324.97186 32.315624Q324.2375 31.95625 323.84686 31.33125Q323.45624 30.690624 323.45624 29.925Q323.45624 29.2375 323.76874 28.64375Q324.09686 28.05 324.64374 27.659374Q325.05 27.3625 325.7531 27.159374Q326.47186 26.940624 327.28436 26.940624Q328.5031 26.940624 329.425 27.3Q330.34686 27.64375 330.78436 28.253124Q331.22186 28.846874 331.39374 29.846874L329.675 30.08125Q329.55 29.284374 328.9875 28.846874Q328.425 28.39375 327.40936 28.39375Q326.1906 28.39375 325.675 28.8Q325.15936 29.190624 325.15936 29.721874Q325.15936 30.065624 325.3781 30.346874Q325.58124 30.628124 326.05 30.815624Q326.3156 30.909374 327.59686 31.253124Q329.47186 31.753124 330.20624 32.08125Q330.9406 32.39375 331.3625 33.003124Q331.78436 33.596874 331.78436 34.503124Q331.78436 35.378124 331.26874 36.159374Q330.7531 36.940624 329.78436 37.3625Q328.8156 37.784374 327.59686 37.784374Q325.58124 37.784374 324.51874 36.940624Q323.45624 36.096874 323.15936 34.45625ZM333.15936 34.45625L334.90936 34.175Q335.05 35.221874 335.72186 35.784374Q336.39374 36.33125 337.59686 36.33125Q338.8 36.33125 339.3781 35.846874Q339.97186 35.346874 339.97186 34.690624Q339.97186 34.096874 339.45624 33.753124Q339.09686 33.51875 337.65936 33.159374Q335.72186 32.659374 334.97186 32.315624Q334.2375 31.95625 333.84686 31.33125Q333.45624 30.690624 333.45624 29.925Q333.45624 29.2375 333.76874 28.64375Q334.09686 28.05 334.64374 27.659374Q335.05 27.3625 335.7531 27.159374Q336.47186 26.940624 337.28436 26.940624Q338.5031 26.940624 339.425 27.3Q340.34686 27.64375 340.78436 28.253124Q341.22186 28.846874 341.39374 29.846874L339.675 30.08125Q339.55 29.284374 338.9875 28.846874Q338.425 28.39375 337.40936 28.39375Q336.1906 28.39375 335.675 28.8Q335.15936 29.190624 335.15936 29.721874Q335.15936 30.065624 335.3781 30.346874Q335.58124 30.628124 336.05 30.815624Q336.3156 30.909374 337.59686 31.253124Q339.47186 31.753124 340.20624 32.08125Q340.9406 32.39375 341.3625 33.003124Q341.78436 33.596874 341.78436 34.503124Q341.78436 35.378124 341.26874 36.159374Q340.7531 36.940624 339.78436 37.3625Q338.8156 37.784374 337.59686 37.784374Q335.58124 37.784374 334.51874 36.940624Q333.45624 36.096874 333.15936 34.45625ZM349.8781 25.253124L349.8781 23.2375L351.64374 23.2375L351.64374 25.253124L349.8781 25.253124ZM349.8781 37.55L349.8781 27.175L351.64374 27.175L351.64374 37.55L349.8781 37.55ZM353.15936 34.45625L354.90936 34.175Q355.05 35.221874 355.72186 35.784374Q356.39374 36.33125 357.59686 36.33125Q358.8 36.33125 359.3781 35.846874Q359.97186 35.346874 359.97186 34.690624Q359.97186 34.096874 359.45624 33.753124Q359.09686 33.51875 357.65936 33.159374Q355.72186 32.659374 354.97186 32.315624Q354.2375 31.95625 353.84686 31.33125Q353.45624 30.690624 353.45624 29.925Q353.45624 29.2375 353.76874 28.64375Q354.09686 28.05 354.64374 27.659374Q355.05 27.3625 355.7531 27.159374Q356.47186 26.940624 357.28436 26.940624Q358.5031 26.940624 359.425 27.3Q360.34686 27.64375 360.78436 28.253124Q361.22186 28.846874 361.39374 29.846874L359.675 30.08125Q359.55 29.284374 358.9875 28.846874Q358.425 28.39375 357.40936 28.39375Q356.1906 28.39375 355.675 28.8Q355.15936 29.190624 355.15936 29.721874Q355.15936 30.065624 355.3781 30.346874Q355.58124 30.628124 356.05 30.815624Q356.3156 30.909374 357.59686 31.253124Q359.47186 31.753124 360.20624 32.08125Q360.9406 32.39375 361.3625 33.003124Q361.78436 33.596874 361.78436 34.503124Q361.78436 35.378124 361.26874 36.159374Q360.7531 36.940624 359.78436 37.3625Q358.8156 37.784374 357.59686 37.784374Q355.58124 37.784374 354.51874 36.940624Q353.45624 36.096874 353.15936 34.45625ZM371.4875 37.55L369.8625 37.55L369.8625 23.2375L371.6125 23.2375L371.6125 28.346874Q372.7375 26.940624 374.45624 26.940624Q375.40936 26.940624 376.26874 27.33125Q377.1281 27.721874 377.675 28.425Q378.22186 29.1125 378.53436 30.096874Q378.84686 31.08125 378.84686 32.20625Q378.84686 34.878124 377.53436 36.33125Q376.22186 37.784374 374.3781 37.784374Q372.53436 37.784374 371.4875 36.253124L371.4875 37.55ZM371.47186 32.284374Q371.47186 34.14375 371.97186 34.9875Q372.8156 36.33125 374.22186 36.33125Q375.3781 36.33125 376.20624 35.33125Q377.05 34.33125 377.05 32.346874Q377.05 30.315624 376.2375 29.3625Q375.4406 28.39375 374.3 28.39375Q373.14374 28.39375 372.3 29.39375Q371.47186 30.39375 371.47186 32.284374ZM387.97186 34.20625L389.78436 34.440624Q389.3625 36.01875 388.1906 36.909374Q387.03436 37.784374 385.22186 37.784374Q382.95624 37.784374 381.6125 36.39375Q380.28436 34.9875 380.28436 32.45625Q380.28436 29.83125 381.6281 28.39375Q382.97186 26.940624 385.1281 26.940624Q387.20624 26.940624 388.51874 28.3625Q389.84686 29.76875 389.84686 32.346874Q389.84686 32.503124 389.83124 32.815624L382.09686 32.815624Q382.1906 34.51875 383.0656 35.425Q383.9406 36.33125 385.2375 36.33125Q386.20624 36.33125 386.8781 35.83125Q387.5656 35.315624 387.97186 34.20625ZM382.1906 31.3625L387.9875 31.3625Q387.8781 30.065624 387.33124 29.409374Q386.4875 28.39375 385.14374 28.39375Q383.9406 28.39375 383.1125 29.20625Q382.28436 30.003124 382.1906 31.3625ZM395.70624 35.971874L395.95624 37.534374Q395.22186 37.690624 394.6281 37.690624Q393.675 37.690624 393.14374 37.39375Q392.6281 37.08125 392.40936 36.596874Q392.1906 36.096874 392.1906 34.51875L392.1906 28.55L390.90936 28.55L390.90936 27.175L392.1906 27.175L392.1906 24.6125L393.9406 23.55L393.9406 27.175L395.70624 27.175L395.70624 28.55L393.9406 28.55L393.9406 34.6125Q393.9406 35.3625 394.03436 35.58125Q394.1281 35.784374 394.33124 35.925Q394.55 36.05 394.9406 36.05Q395.22186 36.05 395.70624 35.971874ZM401.70624 35.971874L401.95624 37.534374Q401.22186 37.690624 400.6281 37.690624Q399.675 37.690624 399.14374 37.39375Q398.6281 37.08125 398.40936 36.596874Q398.1906 36.096874 398.1906 34.51875L398.1906 28.55L396.90936 28.55L396.90936 27.175L398.1906 27.175L398.1906 24.6125L399.9406 23.55L399.9406 27.175L401.70624 27.175L401.70624 28.55L399.9406 28.55L399.9406 34.6125Q399.9406 35.3625 400.03436 35.58125Q400.1281 35.784374 400.33124 35.925Q400.55 36.05 400.9406 36.05Q401.22186 36.05 401.70624 35.971874ZM410.97186 34.20625L412.78436 34.440624Q412.3625 36.01875 411.1906 36.909374Q410.03436 37.784374 408.22186 37.784374Q405.95624 37.784374 404.6125 36.39375Q403.28436 34.9875 403.28436 32.45625Q403.28436 29.83125 404.6281 28.39375Q405.97186 26.940624 408.1281 26.940624Q410.20624 26.940624 411.51874 28.3625Q412.84686 29.76875 412.84686 32.346874Q412.84686 32.503124 412.83124 32.815624L405.09686 32.815624Q405.1906 34.51875 406.0656 35.425Q406.9406 36.33125 408.2375 36.33125Q409.20624 36.33125 409.8781 35.83125Q410.5656 35.315624 410.97186 34.20625ZM405.1906 31.3625L410.9875 31.3625Q410.8781 30.065624 410.33124 29.409374Q409.4875 28.39375 408.14374 28.39375Q406.9406 28.39375 406.1125 29.20625Q405.28436 30.003124 405.1906 31.3625ZM414.84686 37.55L414.84686 27.175L416.425 27.175L416.425 28.753124Q417.03436 27.64375 417.55 27.3Q418.0656 26.940624 418.675 26.940624Q419.5656 26.940624 420.4875 27.503124L419.8781 29.14375Q419.2375 28.753124 418.59686 28.753124Q418.01874 28.753124 417.55 29.1125Q417.09686 29.45625 416.89374 30.065624Q416.6125 31.003124 416.6125 32.1125L416.6125 37.55L414.84686 37.55ZM423.01874 41.753124L421.76874 41.753124Q424.675 37.065624 424.675 32.378124Q424.675 30.534374 424.26874 28.7375Q423.925 27.26875 423.33124 25.925Q422.95624 25.034374 421.76874 22.9875L423.01874 22.9875Q424.8625 25.440624 425.7375 27.909374Q426.4875 30.034374 426.4875 32.3625Q426.4875 35.003124 425.47186 37.471874Q424.47186 39.925 423.01874 41.753124Z" fill-rule="nonzero"/></svg>