<svg version="1.1" viewBox="0.0 0.0 1100.0 681.0" fill="none" stroke="none" stroke-linecap="square" stroke-miterlimit="10" width="1100" height="681" xmlns:xlink="http://www.w3.org/1999/xlink" xmlns="http://www.w3.org/2000/svg"><path fill="#ffffff" d="M0 0L1100.0 0L1100.0 681.0L0 681.0L0 0Z" fill-rule="nonzero"/><path stroke="#333333" stroke-width="1.0" stroke-linecap="butt" d="M68.5 612.5L1065.5 612.5" fill-rule="nonzero"/><path stroke="#cccccc" stroke-width="1.0" stroke-linecap="butt" d="M68.5 454.5L1065.5 454.5" fill-rule="nonzero"/><path stroke="#cccccc" stroke-width="1.0" stroke-linecap="butt" d="M68.5 296.5L1065.5 296.5" fill-rule="nonzero"/><path stroke="#cccccc" stroke-width="1.0" stroke-linecap="butt" d="M68.5 138.5L1065.5 138.5" fill-rule="nonzero"/><clipPath id="id_0"><path d="M68.05 138.45L1065.95 138.45L1065.95 612.95L68.05 612.95L68.05 138.45Z" clip-rule="nonzero"/></clipPath><path stroke="#000000" stroke-width="2.0" stroke-linecap="butt" stroke-opacity="0.0" clip-path="url(#id_0)" d="M285.0 613.0L218.0 613.0L218.0 521.0C218.0 519.89545 218.89543 519.0 220.0 519.0L283.0 519.0C284.10458 519.0 285.0 519.89545 285.0 521.0Z" fill-rule="nonzero"/><path fill="#4285f4" clip-path="url(#id_0)" d="M285.0 613.0L218.0 613.0L218.0 521.0C218.0 519.89545 218.89543 519.0 220.0 519.0L283.0 519.0C284.10458 519.0 285.0 519.89545 285.0 521.0Z" fill-rule="nonzero"/><path stroke="#000000" stroke-width="2.0" stroke-linecap="butt" stroke-opacity="0.0" clip-path="url(#id_0)" d="M709.0 613.0L642.0 613.0L642.0 553.0C642.0 551.89545 642.89545 551.0 644.0 551.0L707.0 551.0C708.10455 551.0 709.0 551.89545 709.0 553.0Z" fill-rule="nonzero"/><path fill="#4285f4" clip-path="url(#id_0)" d="M709.0 613.0L642.0 613.0L642.0 553.0C642.0 551.89545 642.89545 551.0 644.0 551.0L707.0 551.0C708.10455 551.0 709.0 551.89545 709.0 553.0Z" fill-rule="nonzero"/><path stroke="#000000" stroke-width="2.0" stroke-linecap="butt" stroke-opacity="0.0" clip-path="url(#id_0)" d="M354.0 613.0L287.0 613.0L287.0 468.0C287.0 466.89542 287.89542 466.0 289.0 466.0L352.0 466.0C353.10458 466.0 354.0 466.89542 354.0 468.0Z" fill-rule="nonzero"/><path fill="#ea4335" clip-path="url(#id_0)" d="M354.0 613.0L287.0 613.0L287.0 468.0C287.0 466.89542 287.89542 466.0 289.0 466.0L352.0 466.0C353.10458 466.0 354.0 466.89542 354.0 468.0Z" fill-rule="nonzero"/><path stroke="#000000" stroke-width="2.0" stroke-linecap="butt" stroke-opacity="0.0" clip-path="url(#id_0)" d="M778.0 613.0L711.0 613.0L711.0 529.0C711.0 527.89545 711.89545 527.0 713.0 527.0L776.0 527.0C777.10455 527.0 778.0 527.89545 778.0 529.0Z" fill-rule="nonzero"/><path fill="#ea4335" clip-path="url(#id_0)" d="M778.0 613.0L711.0 613.0L711.0 529.0C711.0 527.89545 711.89545 527.0 713.0 527.0L776.0 527.0C777.10455 527.0 778.0 527.89545 778.0 529.0Z" fill-rule="nonzero"/><path stroke="#000000" stroke-width="2.0" stroke-linecap="butt" stroke-opacity="0.0" clip-path="url(#id_0)" d="M423.0 613.0L356.0 613.0L356.0 433.0C356.0 431.89542 356.89542 431.0 358.0 431.0L421.0 431.0C422.10458 431.0 423.0 431.89542 423.0 433.0Z" fill-rule="nonzero"/><path fill="#fbbc04" clip-path="url(#id_0)" d="M423.0 613.0L356.0 613.0L356.0 433.0C356.0 431.89542 356.89542 431.0 358.0 431.0L421.0 431.0C422.10458 431.0 423.0 431.89542 423.0 433.0Z" fill-rule="nonzero"/><path stroke="#000000" stroke-width="2.0" stroke-linecap="butt" stroke-opacity="0.0" clip-path="url(#id_0)" d="M847.0 613.0L780.0 613.0L780.0 477.0C780.0 475.89542 780.89545 475.0 782.0 475.0L845.0 475.0C846.10455 475.0 847.0 475.89542 847.0 477.0Z" fill-rule="nonzero"/><path fill="#fbbc04" clip-path="url(#id_0)" d="M847.0 613.0L780.0 613.0L780.0 477.0C780.0 475.89542 780.89545 475.0 782.0 475.0L845.0 475.0C846.10455 475.0 847.0 475.89542 847.0 477.0Z" fill-rule="nonzero"/><path stroke="#000000" stroke-width="2.0" stroke-linecap="butt" stroke-opacity="0.0" clip-path="url(#id_0)" d="M492.0 613.0L425.0 613.0L425.0 161.0C425.0 159.89543 425.89542 159.0 427.0 159.0L490.0 159.0C491.10458 159.0 492.0 159.89543 492.0 161.0Z" fill-rule="nonzero"/><path fill="#34a853" clip-path="url(#id_0)" d="M492.0 613.0L425.0 613.0L425.0 161.0C425.0 159.89543 425.89542 159.0 427.0 159.0L490.0 159.0C491.10458 159.0 492.0 159.89543 492.0 161.0Z" fill-rule="nonzero"/><path stroke="#000000" stroke-width="2.0" stroke-linecap="butt" stroke-opacity="0.0" clip-path="url(#id_0)" d="M916.0 613.0L849.0 613.0L849.0 371.0C849.0 369.89542 849.89545 369.0 851.0 369.0L914.0 369.0C915.10455 369.0 916.0 369.89542 916.0 371.0Z" fill-rule="nonzero"/><path fill="#34a853" clip-path="url(#id_0)" d="M916.0 613.0L849.0 613.0L849.0 371.0C849.0 369.89542 849.89545 369.0 851.0 369.0L914.0 369.0C915.10455 369.0 916.0 369.89542 916.0 371.0Z" fill-rule="nonzero"/><path fill="#000000" d="M55.55 612.71564Q55.55 611.1844 55.8625 610.2625Q56.175 609.325 56.784374 608.825Q57.409374 608.325 58.346874 608.325Q59.034374 608.325 59.55 608.60626Q60.08125 608.8875 60.425 609.41876Q60.76875 609.9344 60.95625 610.6844Q61.14375 611.4344 61.14375 612.71564Q61.14375 614.23126 60.83125 615.15314Q60.534374 616.075 59.909374 616.59064Q59.3 617.09064 58.346874 617.09064Q57.1125 617.09064 56.39375 616.2Q55.55 615.1375 55.55 612.71564ZM56.628124 612.71564Q56.628124 614.825 57.128124 615.52814Q57.628124 616.23126 58.346874 616.23126Q59.08125 616.23126 59.565624 615.52814Q60.065624 614.825 60.065624 612.71564Q60.065624 610.59064 59.565624 609.90314Q59.08125 609.2 58.33125 609.2Q57.6125 609.2 57.175 609.8094Q56.628124 610.59064 56.628124 612.71564Z" fill-rule="nonzero"/><path fill="#000000" d="M38.51875 458.78333L37.471874 458.78333L37.471874 452.06458Q37.08125 452.42395 36.45625 452.79895Q35.846874 453.15833 35.3625 453.3302L35.3625 452.31458Q36.2375 451.8927 36.89375 451.31458Q37.565624 450.72083 37.846874 450.15833L38.51875 450.15833L38.51875 458.78333ZM41.55 454.54895Q41.55 453.0177 41.8625 452.09583Q42.175 451.15833 42.784374 450.65833Q43.409374 450.15833 44.346874 450.15833Q45.034374 450.15833 45.55 450.43958Q46.08125 450.72083 46.425 451.25208Q46.76875 451.7677 46.95625 452.5177Q47.14375 453.2677 47.14375 454.54895Q47.14375 456.06458 46.83125 456.98645Q46.534374 457.90833 45.909374 458.42395Q45.3 458.92395 44.346874 458.92395Q43.1125 458.92395 42.39375 458.03333Q41.55 456.97083 41.55 454.54895ZM42.628124 454.54895Q42.628124 456.65833 43.128124 457.36145Q43.628124 458.06458 44.346874 458.06458Q45.08125 458.06458 45.565624 457.36145Q46.065624 456.65833 46.065624 454.54895Q46.065624 452.42395 45.565624 451.73645Q45.08125 451.03333 44.33125 451.03333Q43.6125 451.03333 43.175 451.6427Q42.628124 452.42395 42.628124 454.54895ZM48.55 454.54895Q48.55 453.0177 48.8625 452.09583Q49.175 451.15833 49.784374 450.65833Q50.409374 450.15833 51.346874 450.15833Q52.034374 450.15833 52.55 450.43958Q53.08125 450.72083 53.425 451.25208Q53.76875 451.7677 53.95625 452.5177Q54.14375 453.2677 54.14375 454.54895Q54.14375 456.06458 53.83125 456.98645Q53.534374 457.90833 52.909374 458.42395Q52.3 458.92395 51.346874 458.92395Q50.1125 458.92395 49.39375 458.03333Q48.55 456.97083 48.55 454.54895ZM49.628124 454.54895Q49.628124 456.65833 50.128124 457.36145Q50.628124 458.06458 51.346874 458.06458Q52.08125 458.06458 52.565624 457.36145Q53.065624 456.65833 53.065624 454.54895Q53.065624 452.42395 52.565624 451.73645Q52.08125 451.03333 51.33125 451.03333Q50.6125 451.03333 50.175 451.6427Q49.628124 452.42395 49.628124 454.54895ZM55.55 454.54895Q55.55 453.0177 55.8625 452.09583Q56.175 451.15833 56.784374 450.65833Q57.409374 450.15833 58.346874 450.15833Q59.034374 450.15833 59.55 450.43958Q60.08125 450.72083 60.425 451.25208Q60.76875 451.7677 60.95625 452.5177Q61.14375 453.2677 61.14375 454.54895Q61.14375 456.06458 60.83125 456.98645Q60.534374 457.90833 59.909374 458.42395Q59.3 458.92395 58.346874 458.92395Q57.1125 458.92395 56.39375 458.03333Q55.55 456.97083 55.55 454.54895ZM56.628124 454.54895Q56.628124 456.65833 57.128124 457.36145Q57.628124 458.06458 58.346874 458.06458Q59.08125 458.06458 59.565624 457.36145Q60.065624 456.65833 60.065624 454.54895Q60.065624 452.42395 59.565624 451.73645Q59.08125 451.03333 58.33125 451.03333Q57.6125 451.03333 57.175 451.6427Q56.628124 452.42395 56.628124 454.54895Z" fill-rule="nonzero"/><path fill="#000000" d="M40.096874 299.60104L40.096874 300.61667L34.409374 300.61667Q34.409374 300.24167 34.534374 299.8823Q34.753124 299.30417 35.221874 298.74167Q35.70625 298.17917 36.6125 297.4448Q38.01875 296.28854 38.503124 295.61667Q39.003124 294.9448 39.003124 294.35104Q39.003124 293.72604 38.55 293.30417Q38.096874 292.86667 37.378124 292.86667Q36.6125 292.86667 36.159374 293.3198Q35.70625 293.77292 35.690624 294.58542L34.6125 294.47604Q34.721874 293.2573 35.440624 292.6323Q36.175 291.99167 37.409374 291.99167Q38.64375 291.99167 39.3625 292.67917Q40.08125 293.36667 40.08125 294.3823Q40.08125 294.89792 39.8625 295.39792Q39.659374 295.8823 39.159374 296.4448Q38.675 296.99167 37.55 297.9448Q36.596874 298.74167 36.315624 299.03854Q36.05 299.3198 35.878124 299.60104L40.096874 299.60104ZM41.55 296.3823Q41.55 294.85104 41.8625 293.92917Q42.175 292.99167 42.784374 292.49167Q43.409374 291.99167 44.346874 291.99167Q45.034374 291.99167 45.55 292.27292Q46.08125 292.55417 46.425 293.08542Q46.76875 293.60104 46.95625 294.35104Q47.14375 295.10104 47.14375 296.3823Q47.14375 297.89792 46.83125 298.8198Q46.534374 299.74167 45.909374 300.2573Q45.3 300.7573 44.346874 300.7573Q43.1125 300.7573 42.39375 299.86667Q41.55 298.80417 41.55 296.3823ZM42.628124 296.3823Q42.628124 298.49167 43.128124 299.1948Q43.628124 299.89792 44.346874 299.89792Q45.08125 299.89792 45.565624 299.1948Q46.065624 298.49167 46.065624 296.3823Q46.065624 294.2573 45.565624 293.5698Q45.08125 292.86667 44.33125 292.86667Q43.6125 292.86667 43.175 293.47604Q42.628124 294.2573 42.628124 296.3823ZM48.55 296.3823Q48.55 294.85104 48.8625 293.92917Q49.175 292.99167 49.784374 292.49167Q50.409374 291.99167 51.346874 291.99167Q52.034374 291.99167 52.55 292.27292Q53.08125 292.55417 53.425 293.08542Q53.76875 293.60104 53.95625 294.35104Q54.14375 295.10104 54.14375 296.3823Q54.14375 297.89792 53.83125 298.8198Q53.534374 299.74167 52.909374 300.2573Q52.3 300.7573 51.346874 300.7573Q50.1125 300.7573 49.39375 299.86667Q48.55 298.80417 48.55 296.3823ZM49.628124 296.3823Q49.628124 298.49167 50.128124 299.1948Q50.628124 299.89792 51.346874 299.89792Q52.08125 299.89792 52.565624 299.1948Q53.065624 298.49167 53.065624 296.3823Q53.065624 294.2573 52.565624 293.5698Q52.08125 292.86667 51.33125 292.86667Q50.6125 292.86667 50.175 293.47604Q49.628124 294.2573 49.628124 296.3823ZM55.55 296.3823Q55.55 294.85104 55.8625 293.92917Q56.175 292.99167 56.784374 292.49167Q57.409374 291.99167 58.346874 291.99167Q59.034374 291.99167 59.55 292.27292Q60.08125 292.55417 60.425 293.08542Q60.76875 293.60104 60.95625 294.35104Q61.14375 295.10104 61.14375 296.3823Q61.14375 297.89792 60.83125 298.8198Q60.534374 299.74167 59.909374 300.2573Q59.3 300.7573 58.346874 300.7573Q57.1125 300.7573 56.39375 299.86667Q55.55 298.80417 55.55 296.3823ZM56.628124 296.3823Q56.628124 298.49167 57.128124 299.1948Q57.628124 299.89792 58.346874 299.89792Q59.08125 299.89792 59.565624 299.1948Q60.065624 298.49167 60.065624 296.3823Q60.065624 294.2573 59.565624 293.5698Q59.08125 292.86667 58.33125 292.86667Q57.6125 292.86667 57.175 293.47604Q56.628124 294.2573 56.628124 296.3823Z" fill-rule="nonzero"/><path fill="#000000" d="M34.55 140.18437L35.6125 140.04375Q35.784374 140.93437 36.221874 141.34062Q36.659374 141.73125 37.284374 141.73125Q38.034374 141.73125 38.55 141.21562Q39.065624 140.7 39.065624 139.93437Q39.065624 139.21562 38.58125 138.74687Q38.1125 138.2625 37.378124 138.2625Q37.08125 138.2625 36.628124 138.3875L36.753124 137.45Q36.8625 137.46562 36.925 137.46562Q37.596874 137.46562 38.128124 137.12187Q38.675 136.7625 38.675 136.02812Q38.675 135.45 38.284374 135.075Q37.89375 134.68437 37.26875 134.68437Q36.659374 134.68437 36.2375 135.075Q35.83125 135.46562 35.721874 136.23125L34.659374 136.04375Q34.846874 134.99687 35.534374 134.41875Q36.221874 133.825 37.2375 133.825Q37.940624 133.825 38.534374 134.1375Q39.128124 134.43437 39.440624 134.95Q39.753124 135.46562 39.753124 136.05937Q39.753124 136.60625 39.45625 137.075Q39.159374 137.52812 38.58125 137.79375Q39.33125 137.96562 39.753124 138.52812Q40.175 139.075 40.175 139.91875Q40.175 141.04375 39.346874 141.825Q38.534374 142.60625 37.284374 142.60625Q36.159374 142.60625 35.409374 141.93437Q34.659374 141.24687 34.55 140.18437ZM41.55 138.21562Q41.55 136.68437 41.8625 135.7625Q42.175 134.825 42.784374 134.325Q43.409374 133.825 44.346874 133.825Q45.034374 133.825 45.55 134.10625Q46.08125 134.3875 46.425 134.91875Q46.76875 135.43437 46.95625 136.18437Q47.14375 136.93437 47.14375 138.21562Q47.14375 139.73125 46.83125 140.65312Q46.534374 141.575 45.909374 142.09062Q45.3 142.59062 44.346874 142.59062Q43.1125 142.59062 42.39375 141.7Q41.55 140.6375 41.55 138.21562ZM42.628124 138.21562Q42.628124 140.325 43.128124 141.02812Q43.628124 141.73125 44.346874 141.73125Q45.08125 141.73125 45.565624 141.02812Q46.065624 140.325 46.065624 138.21562Q46.065624 136.09062 45.565624 135.40312Q45.08125 134.7 44.33125 134.7Q43.6125 134.7 43.175 135.30937Q42.628124 136.09062 42.628124 138.21562ZM48.55 138.21562Q48.55 136.68437 48.8625 135.7625Q49.175 134.825 49.784374 134.325Q50.409374 133.825 51.346874 133.825Q52.034374 133.825 52.55 134.10625Q53.08125 134.3875 53.425 134.91875Q53.76875 135.43437 53.95625 136.18437Q54.14375 136.93437 54.14375 138.21562Q54.14375 139.73125 53.83125 140.65312Q53.534374 141.575 52.909374 142.09062Q52.3 142.59062 51.346874 142.59062Q50.1125 142.59062 49.39375 141.7Q48.55 140.6375 48.55 138.21562ZM49.628124 138.21562Q49.628124 140.325 50.128124 141.02812Q50.628124 141.73125 51.346874 141.73125Q52.08125 141.73125 52.565624 141.02812Q53.065624 140.325 53.065624 138.21562Q53.065624 136.09062 52.565624 135.40312Q52.08125 134.7 51.33125 134.7Q50.6125 134.7 50.175 135.30937Q49.628124 136.09062 49.628124 138.21562ZM55.55 138.21562Q55.55 136.68437 55.8625 135.7625Q56.175 134.825 56.784374 134.325Q57.409374 133.825 58.346874 133.825Q59.034374 133.825 59.55 134.10625Q60.08125 134.3875 60.425 134.91875Q60.76875 135.43437 60.95625 136.18437Q61.14375 136.93437 61.14375 138.21562Q61.14375 139.73125 60.83125 140.65312Q60.534374 141.575 59.909374 142.09062Q59.3 142.59062 58.346874 142.59062Q57.1125 142.59062 56.39375 141.7Q55.55 140.6375 55.55 138.21562ZM56.628124 138.21562Q56.628124 140.325 57.128124 141.02812Q57.628124 141.73125 58.346874 141.73125Q59.08125 141.73125 59.565624 141.02812Q60.065624 140.325 60.065624 138.21562Q60.065624 136.09062 59.565624 135.40312Q59.08125 134.7 58.33125 134.7Q57.6125 134.7 57.175 135.30937Q56.628124 136.09062 56.628124 138.21562Z" fill-rule="nonzero"/><path fill="#000000" d="M330.22772 641.95L330.22772 627.6375L335.61835 627.6375Q337.05585 627.6375 337.80585 627.7625Q338.85272 627.95 339.57147 628.45Q340.29022 628.9344 340.7121 629.825Q341.1496 630.71564 341.1496 631.77814Q341.1496 633.60626 339.97772 634.8719Q338.82147 636.1219 335.79022 636.1219L332.11835 636.1219L332.11835 641.95L330.22772 641.95ZM332.11835 634.4344L335.82147 634.4344Q337.6496 634.4344 338.41522 633.7625Q339.19647 633.075 339.19647 631.825Q339.19647 630.9344 338.74335 630.29376Q338.29022 629.65314 337.55585 629.45Q337.07147 629.325 335.7746 629.325L332.11835 629.325L332.11835 634.4344ZM349.7746 640.66876Q348.79022 641.4969 347.88397 641.84064Q346.97772 642.1844 345.94647 642.1844Q344.24335 642.1844 343.32147 641.35626Q342.3996 640.5125 342.3996 639.21564Q342.3996 638.45 342.74335 637.825Q343.10272 637.2 343.66522 636.825Q344.22772 636.4344 344.93085 636.23126Q345.44647 636.10626 346.49335 635.96564Q348.61835 635.71564 349.61835 635.3719Q349.63397 635.0125 349.63397 634.90314Q349.63397 633.84064 349.13397 633.3875Q348.4621 632.79376 347.13397 632.79376Q345.88397 632.79376 345.29022 633.23126Q344.7121 633.66876 344.43085 634.77814L342.7121 634.54376Q342.94647 633.4344 343.47772 632.7625Q344.00897 632.075 345.0246 631.71564Q346.04022 631.34064 347.38397 631.34064Q348.7121 631.34064 349.54022 631.65314Q350.36835 631.96564 350.75897 632.45Q351.1496 632.91876 351.30585 633.6375Q351.3996 634.09064 351.3996 635.2625L351.3996 637.60626Q351.3996 640.0594 351.50897 640.71564Q351.61835 641.35626 351.9621 641.95L350.11835 641.95Q349.85272 641.40314 349.7746 640.66876ZM349.61835 636.7469Q348.66522 637.1375 346.74335 637.40314Q345.66522 637.5594 345.2121 637.7625Q344.7746 637.95 344.5246 638.325Q344.2746 638.7 344.2746 639.16876Q344.2746 639.8719 344.80585 640.34064Q345.3371 640.8094 346.36835 640.8094Q347.38397 640.8094 348.16522 640.3719Q348.9621 639.91876 349.3371 639.15314Q349.61835 638.54376 349.61835 637.3875L349.61835 636.7469ZM353.97772 641.95L353.97772 631.575L355.55585 631.575L355.55585 633.15314Q356.16522 632.04376 356.68085 631.7Q357.19647 631.34064 357.80585 631.34064Q358.69647 631.34064 359.61835 631.90314L359.00897 633.54376Q358.36835 633.15314 357.72772 633.15314Q357.1496 633.15314 356.68085 633.5125Q356.22772 633.85626 356.0246 634.46564Q355.74335 635.40314 355.74335 636.5125L355.74335 641.95L353.97772 641.95ZM360.29022 638.85626L362.04022 638.575Q362.18085 639.6219 362.85272 640.1844Q363.5246 640.73126 364.72772 640.73126Q365.93085 640.73126 366.50897 640.2469Q367.10272 639.7469 367.10272 639.09064Q367.10272 638.4969 366.5871 638.15314Q366.22772 637.91876 364.79022 637.5594Q362.85272 637.0594 362.10272 636.71564Q361.36835 636.35626 360.97772 635.73126Q360.5871 635.09064 360.5871 634.325Q360.5871 633.6375 360.8996 633.04376Q361.22772 632.45 361.7746 632.0594Q362.18085 631.7625 362.88397 631.5594Q363.60272 631.34064 364.41522 631.34064Q365.63397 631.34064 366.55585 631.7Q367.47772 632.04376 367.91522 632.65314Q368.35272 633.2469 368.5246 634.2469L366.80585 634.48126Q366.68085 633.6844 366.11835 633.2469Q365.55585 632.79376 364.54022 632.79376Q363.32147 632.79376 362.80585 633.2Q362.29022 633.59064 362.29022 634.1219Q362.29022 634.46564 362.50897 634.7469Q362.7121 635.02814 363.18085 635.21564Q363.44647 635.3094 364.72772 635.65314Q366.60272 636.15314 367.3371 636.48126Q368.07147 636.79376 368.49335 637.40314Q368.91522 637.9969 368.91522 638.90314Q368.91522 639.77814 368.3996 640.5594Q367.88397 641.34064 366.91522 641.7625Q365.94647 642.1844 364.72772 642.1844Q362.7121 642.1844 361.6496 641.34064Q360.5871 640.4969 360.29022 638.85626ZM378.10272 638.60626L379.91522 638.84064Q379.49335 640.41876 378.32147 641.3094Q377.16522 642.1844 375.35272 642.1844Q373.0871 642.1844 371.74335 640.79376Q370.41522 639.3875 370.41522 636.85626Q370.41522 634.23126 371.75897 632.79376Q373.10272 631.34064 375.25897 631.34064Q377.3371 631.34064 378.6496 632.7625Q379.97772 634.16876 379.97772 636.7469Q379.97772 636.90314 379.9621 637.21564L372.22772 637.21564Q372.32147 638.91876 373.19647 639.825Q374.07147 640.73126 375.36835 640.73126Q376.3371 640.73126 377.00897 640.23126Q377.69647 639.71564 378.10272 638.60626ZM372.32147 635.7625L378.11835 635.7625Q378.00897 634.46564 377.4621 633.8094Q376.61835 632.79376 375.2746 632.79376Q374.07147 632.79376 373.24335 633.60626Q372.41522 634.40314 372.32147 635.7625Z" fill-rule="nonzero"/><path fill="#000000" d="M759.866 641.95L756.06915 627.6375L758.00665 627.6375L760.1785 637.0125Q760.5379 638.4969 760.7879 639.95Q761.3348 637.65314 761.4285 637.29376L764.1629 627.6375L766.44415 627.6375L768.491 634.8719Q769.2723 637.575 769.616 639.95Q769.88165 638.59064 770.31915 636.825L772.56915 627.6375L774.4754 627.6375L770.5535 641.95L768.7254 641.95L765.7098 631.04376Q765.31915 629.66876 765.25665 629.35626Q765.0223 630.34064 764.8348 631.04376L761.8035 641.95L759.866 641.95ZM776.116 641.95L776.116 631.575L777.69415 631.575L777.69415 633.15314Q778.3035 632.04376 778.81915 631.7Q779.3348 631.34064 779.94415 631.34064Q780.8348 631.34064 781.75665 631.90314L781.1473 633.54376Q780.50665 633.15314 779.866 633.15314Q779.2879 633.15314 778.81915 633.5125Q778.366 633.85626 778.1629 634.46564Q777.88165 635.40314 777.88165 636.5125L777.88165 641.95L776.116 641.95ZM783.1473 629.65314L783.1473 627.6375L784.9129 627.6375L784.9129 629.65314L783.1473 629.65314ZM783.1473 641.95L783.1473 631.575L784.9129 631.575L784.9129 641.95L783.1473 641.95ZM790.9754 640.3719L791.2254 641.9344Q790.491 642.09064 789.8973 642.09064Q788.94415 642.09064 788.4129 641.79376Q787.8973 641.48126 787.6785 640.9969Q787.4598 640.4969 787.4598 638.91876L787.4598 632.95L786.1785 632.95L786.1785 631.575L787.4598 631.575L787.4598 629.0125L789.2098 627.95L789.2098 631.575L790.9754 631.575L790.9754 632.95L789.2098 632.95L789.2098 639.0125Q789.2098 639.7625 789.3035 639.98126Q789.3973 640.1844 789.6004 640.325Q789.81915 640.45 790.2098 640.45Q790.491 640.45 790.9754 640.3719ZM800.241 638.60626L802.0535 638.84064Q801.63165 640.41876 800.4598 641.3094Q799.3035 642.1844 797.491 642.1844Q795.2254 642.1844 793.88165 640.79376Q792.5535 639.3875 792.5535 636.85626Q792.5535 634.23126 793.8973 632.79376Q795.241 631.34064 797.3973 631.34064Q799.4754 631.34064 800.7879 632.7625Q802.116 634.16876 802.116 636.7469Q802.116 636.90314 802.1004 637.21564L794.366 637.21564Q794.4598 638.91876 795.3348 639.825Q796.2098 640.73126 797.50665 640.73126Q798.4754 640.73126 799.1473 640.23126Q799.8348 639.71564 800.241 638.60626ZM794.4598 635.7625L800.25665 635.7625Q800.1473 634.46564 799.6004 633.8094Q798.75665 632.79376 797.4129 632.79376Q796.2098 632.79376 795.38165 633.60626Q794.5535 634.40314 794.4598 635.7625Z" fill-rule="nonzero"/><path fill="#4285f4" d="M353.0 91.75C353.0 91.197716 353.44772 90.75 354.0 90.75L364.0 90.75C364.55228 90.75 365.0 91.197716 365.0 91.75L365.0 101.75C365.0 102.302284 364.55228 102.75 364.0 102.75L354.0 102.75C353.44772 102.75 353.0 102.302284 353.0 101.75Z" fill-rule="nonzero"/><path fill="#1a1a1a" d="M373.57812 99.6875L375.28125 99.453125Q375.35938 101.09375 375.90625 101.703125Q376.45312 102.296875 377.42188 102.296875Q378.125 102.296875 378.64062 101.984375Q379.15625 101.65625 379.34375 101.09375Q379.54688 100.53125 379.54688 99.296875L379.54688 89.4375L381.45312 89.4375L381.45312 99.1875Q381.45312 100.984375 381.01562 101.96875Q380.57812 102.953125 379.625 103.484375Q378.6875 104.0 377.42188 104.0Q375.54688 104.0 374.53125 102.921875Q373.53125 101.828125 373.57812 99.6875ZM383.60938 100.65625L385.35938 100.375Q385.5 101.421875 386.17188 101.984375Q386.84375 102.53125 388.04688 102.53125Q389.25 102.53125 389.82812 102.046875Q390.42188 101.546875 390.42188 100.890625Q390.42188 100.296875 389.90625 99.953125Q389.54688 99.71875 388.10938 99.359375Q386.17188 98.859375 385.42188 98.515625Q384.6875 98.15625 384.29688 97.53125Q383.90625 96.890625 383.90625 96.125Q383.90625 95.4375 384.21875 94.84375Q384.54688 94.25 385.09375 93.859375Q385.5 93.5625 386.20312 93.359375Q386.92188 93.140625 387.73438 93.140625Q388.95312 93.140625 389.875 93.5Q390.79688 93.84375 391.23438 94.453125Q391.67188 95.046875 391.84375 96.046875L390.125 96.28125Q390.0 95.484375 389.4375 95.046875Q388.875 94.59375 387.85938 94.59375Q386.64062 94.59375 386.125 95.0Q385.60938 95.390625 385.60938 95.921875Q385.60938 96.265625 385.82812 96.546875Q386.03125 96.828125 386.5 97.015625Q386.76562 97.109375 388.04688 97.453125Q389.92188 97.953125 390.65625 98.28125Q391.39062 98.59375 391.8125 99.203125Q392.23438 99.796875 392.23438 100.703125Q392.23438 101.578125 391.71875 102.359375Q391.20312 103.140625 390.23438 103.5625Q389.26562 103.984375 388.04688 103.984375Q386.03125 103.984375 384.96875 103.140625Q383.90625 102.296875 383.60938 100.65625ZM393.67188 98.5625Q393.67188 95.6875 395.26562 94.296875Q396.60938 93.140625 398.53125 93.140625Q400.67188 93.140625 402.01562 94.546875Q403.375 95.953125 403.375 98.421875Q403.375 100.421875 402.78125 101.578125Q402.1875 102.71875 401.03125 103.359375Q399.89062 103.984375 398.53125 103.984375Q396.34375 103.984375 395.0 102.59375Q393.67188 101.1875 393.67188 98.5625ZM395.46875 98.5625Q395.46875 100.5625 396.32812 101.546875Q397.20312 102.53125 398.53125 102.53125Q399.84375 102.53125 400.70312 101.546875Q401.57812 100.546875 401.57812 98.5Q401.57812 96.578125 400.70312 95.59375Q399.82812 94.59375 398.53125 94.59375Q397.20312 94.59375 396.32812 95.59375Q395.46875 96.578125 395.46875 98.5625ZM405.3125 103.75L405.3125 93.375L406.90625 93.375L406.90625 94.859375Q408.04688 93.140625 410.20312 93.140625Q411.14062 93.140625 411.92188 93.484375Q412.71875 93.8125 413.10938 94.359375Q413.5 94.90625 413.65625 95.65625Q413.75 96.15625 413.75 97.375L413.75 103.75L411.98438 103.75L411.98438 97.4375Q411.98438 96.359375 411.78125 95.828125Q411.57812 95.296875 411.04688 94.984375Q410.53125 94.671875 409.82812 94.671875Q408.70312 94.671875 407.89062 95.390625Q407.07812 96.09375 407.07812 98.078125L407.07812 103.75L405.3125 103.75ZM415.32812 91.453125L415.32812 89.4375L417.09375 89.4375L417.09375 91.453125L415.32812 91.453125ZM415.32812 103.75L415.32812 93.375L417.09375 93.375L417.09375 103.75L415.32812 103.75ZM418.60938 100.65625L420.35938 100.375Q420.5 101.421875 421.17188 101.984375Q421.84375 102.53125 423.04688 102.53125Q424.25 102.53125 424.82812 102.046875Q425.42188 101.546875 425.42188 100.890625Q425.42188 100.296875 424.90625 99.953125Q424.54688 99.71875 423.10938 99.359375Q421.17188 98.859375 420.42188 98.515625Q419.6875 98.15625 419.29688 97.53125Q418.90625 96.890625 418.90625 96.125Q418.90625 95.4375 419.21875 94.84375Q419.54688 94.25 420.09375 93.859375Q420.5 93.5625 421.20312 93.359375Q421.92188 93.140625 422.73438 93.140625Q423.95312 93.140625 424.875 93.5Q425.79688 93.84375 426.23438 94.453125Q426.67188 95.046875 426.84375 96.046875L425.125 96.28125Q425.0 95.484375 424.4375 95.046875Q423.875 94.59375 422.85938 94.59375Q421.64062 94.59375 421.125 95.0Q420.60938 95.390625 420.60938 95.921875Q420.60938 96.265625 420.82812 96.546875Q421.03125 96.828125 421.5 97.015625Q421.76562 97.109375 423.04688 97.453125Q424.92188 97.953125 425.65625 98.28125Q426.39062 98.59375 426.8125 99.203125Q427.23438 99.796875 427.23438 100.703125Q427.23438 101.578125 426.71875 102.359375Q426.20312 103.140625 425.23438 103.5625Q424.26562 103.984375 423.04688 103.984375Q421.03125 103.984375 419.96875 103.140625Q418.90625 102.296875 418.60938 100.65625ZM433.15625 102.171875L433.40625 103.734375Q432.67188 103.890625 432.07812 103.890625Q431.125 103.890625 430.59375 103.59375Q430.07812 103.28125 429.85938 102.796875Q429.64062 102.296875 429.64062 100.71875L429.64062 94.75L428.35938 94.75L428.35938 93.375L429.64062 93.375L429.64062 90.8125L431.39062 89.75L431.39062 93.375L433.15625 93.375L433.15625 94.75L431.39062 94.75L431.39062 100.8125Q431.39062 101.5625 431.48438 101.78125Q431.57812 101.984375 431.78125 102.125Q432.0 102.25 432.39062 102.25Q432.67188 102.25 433.15625 102.171875ZM442.09375 102.46875Q441.10938 103.296875 440.20312 103.640625Q439.29688 103.984375 438.26562 103.984375Q436.5625 103.984375 435.64062 103.15625Q434.71875 102.3125 434.71875 101.015625Q434.71875 100.25 435.0625 99.625Q435.42188 99.0 435.98438 98.625Q436.54688 98.234375 437.25 98.03125Q437.76562 97.90625 438.8125 97.765625Q440.9375 97.515625 441.9375 97.171875Q441.95312 96.8125 441.95312 96.703125Q441.95312 95.640625 441.45312 95.1875Q440.78125 94.59375 439.45312 94.59375Q438.20312 94.59375 437.60938 95.03125Q437.03125 95.46875 436.75 96.578125L435.03125 96.34375Q435.26562 95.234375 435.79688 94.5625Q436.32812 93.875 437.34375 93.515625Q438.35938 93.140625 439.70312 93.140625Q441.03125 93.140625 441.85938 93.453125Q442.6875 93.765625 443.07812 94.25Q443.46875 94.71875 443.625 95.4375Q443.71875 95.890625 443.71875 97.0625L443.71875 99.40625Q443.71875 101.859375 443.82812 102.515625Q443.9375 103.15625 444.28125 103.75L442.4375 103.75Q442.17188 103.203125 442.09375 102.46875ZM441.9375 98.546875Q440.98438 98.9375 439.0625 99.203125Q437.98438 99.359375 437.53125 99.5625Q437.09375 99.75 436.84375 100.125Q436.59375 100.5 436.59375 100.96875Q436.59375 101.671875 437.125 102.140625Q437.65625 102.609375 438.6875 102.609375Q439.70312 102.609375 440.48438 102.171875Q441.28125 101.71875 441.65625 100.953125Q441.9375 100.34375 441.9375 99.1875L441.9375 98.546875Z" fill-rule="nonzero"/><path fill="#ea4335" d="M461.0 91.75C461.0 91.197716 461.44772 90.75 462.0 90.75L472.0 90.75C472.55228 90.75 473.0 91.197716 473.0 91.75L473.0 101.75C473.0 102.302284 472.55228 102.75 472.0 102.75L462.0 102.75C461.44772 102.75 461.0 102.302284 461.0 101.75Z" fill-rule="nonzero"/><path fill="#1a1a1a" d="M492.76562 98.734375L494.65625 99.203125Q494.0625 101.546875 492.51562 102.78125Q490.96875 104.0 488.71875 104.0Q486.40625 104.0 484.95312 103.0625Q483.51562 102.109375 482.75 100.328125Q482.0 98.53125 482.0 96.484375Q482.0 94.25 482.84375 92.59375Q483.70312 90.921875 485.28125 90.0625Q486.85938 89.1875 488.75 89.1875Q490.90625 89.1875 492.35938 90.28125Q493.82812 91.375 494.40625 93.359375L492.54688 93.796875Q492.04688 92.234375 491.09375 91.53125Q490.15625 90.8125 488.71875 90.8125Q487.0625 90.8125 485.95312 91.609375Q484.84375 92.390625 484.39062 93.734375Q483.95312 95.0625 483.95312 96.46875Q483.95312 98.296875 484.48438 99.671875Q485.01562 101.03125 486.14062 101.703125Q487.26562 102.375 488.5625 102.375Q490.15625 102.375 491.26562 101.453125Q492.375 100.53125 492.76562 98.734375ZM496.3125 103.75L496.3125 89.4375L498.07812 89.4375L498.07812 94.5625Q499.3125 93.140625 501.1875 93.140625Q502.32812 93.140625 503.17188 93.59375Q504.03125 94.046875 504.39062 94.859375Q504.76562 95.65625 504.76562 97.171875L504.76562 103.75L503.01562 103.75L503.01562 97.171875Q503.01562 95.859375 502.4375 95.265625Q501.85938 94.65625 500.82812 94.65625Q500.04688 94.65625 499.34375 95.0625Q498.65625 95.46875 498.35938 96.171875Q498.07812 96.859375 498.07812 98.078125L498.07812 103.75L496.3125 103.75ZM513.4219 100.40625L515.2344 100.640625Q514.8125 102.21875 513.6406 103.109375Q512.4844 103.984375 510.67188 103.984375Q508.40625 103.984375 507.0625 102.59375Q505.73438 101.1875 505.73438 98.65625Q505.73438 96.03125 507.07812 94.59375Q508.42188 93.140625 510.57812 93.140625Q512.65625 93.140625 513.96875 94.5625Q515.2969 95.96875 515.2969 98.546875Q515.2969 98.703125 515.28125 99.015625L507.54688 99.015625Q507.64062 100.71875 508.51562 101.625Q509.39062 102.53125 510.6875 102.53125Q511.65625 102.53125 512.3281 102.03125Q513.0156 101.515625 513.4219 100.40625ZM507.64062 97.5625L513.4375 97.5625Q513.3281 96.265625 512.78125 95.609375Q511.9375 94.59375 510.59375 94.59375Q509.39062 94.59375 508.5625 95.40625Q507.73438 96.203125 507.64062 97.5625ZM516.6094 100.65625L518.3594 100.375Q518.5 101.421875 519.1719 101.984375Q519.84375 102.53125 521.0469 102.53125Q522.25 102.53125 522.8281 102.046875Q523.4219 101.546875 523.4219 100.890625Q523.4219 100.296875 522.90625 99.953125Q522.5469 99.71875 521.1094 99.359375Q519.1719 98.859375 518.4219 98.515625Q517.6875 98.15625 517.2969 97.53125Q516.90625 96.890625 516.90625 96.125Q516.90625 95.4375 517.21875 94.84375Q517.5469 94.25 518.09375 93.859375Q518.5 93.5625 519.2031 93.359375Q519.9219 93.140625 520.7344 93.140625Q521.9531 93.140625 522.875 93.5Q523.7969 93.84375 524.2344 94.453125Q524.6719 95.046875 524.84375 96.046875L523.125 96.28125Q523.0 95.484375 522.4375 95.046875Q521.875 94.59375 520.8594 94.59375Q519.6406 94.59375 519.125 95.0Q518.6094 95.390625 518.6094 95.921875Q518.6094 96.265625 518.8281 96.546875Q519.03125 96.828125 519.5 97.015625Q519.7656 97.109375 521.0469 97.453125Q522.9219 97.953125 523.65625 98.28125Q524.3906 98.59375 524.8125 99.203125Q525.2344 99.796875 525.2344 100.703125Q525.2344 101.578125 524.71875 102.359375Q524.2031 103.140625 523.2344 103.5625Q522.2656 103.984375 521.0469 103.984375Q519.03125 103.984375 517.96875 103.140625Q516.90625 102.296875 516.6094 100.65625ZM527.3281 91.453125L527.3281 89.4375L529.09375 89.4375L529.09375 91.453125L527.3281 91.453125ZM527.3281 103.75L527.3281 93.375L529.09375 93.375L529.09375 103.75L527.3281 103.75ZM531.2969 103.75L531.2969 93.375L532.875 93.375L532.875 94.953125Q533.4844 93.84375 534.0 93.5Q534.5156 93.140625 535.125 93.140625Q536.0156 93.140625 536.9375 93.703125L536.3281 95.34375Q535.6875 94.953125 535.0469 94.953125Q534.46875 94.953125 534.0 95.3125Q533.5469 95.65625 533.34375 96.265625Q533.0625 97.203125 533.0625 98.3125L533.0625 103.75L531.2969 103.75ZM545.4219 100.40625L547.2344 100.640625Q546.8125 102.21875 545.6406 103.109375Q544.4844 103.984375 542.6719 103.984375Q540.40625 103.984375 539.0625 102.59375Q537.7344 101.1875 537.7344 98.65625Q537.7344 96.03125 539.0781 94.59375Q540.4219 93.140625 542.5781 93.140625Q544.65625 93.140625 545.96875 94.5625Q547.2969 95.96875 547.2969 98.546875Q547.2969 98.703125 547.28125 99.015625L539.5469 99.015625Q539.6406 100.71875 540.5156 101.625Q541.3906 102.53125 542.6875 102.53125Q543.65625 102.53125 544.3281 102.03125Q545.0156 101.515625 545.4219 100.40625ZM539.6406 97.5625L545.4375 97.5625Q545.3281 96.265625 544.78125 95.609375Q543.9375 94.59375 542.59375 94.59375Q541.3906 94.59375 540.5625 95.40625Q539.7344 96.203125 539.6406 97.5625Z" fill-rule="nonzero"/><path fill="#fbbc04" d="M564.0 91.75C564.0 91.197716 564.4477 90.75 565.0 90.75L575.0 90.75C575.5523 90.75 576.0 91.197716 576.0 91.75L576.0 101.75C576.0 102.302284 575.5523 102.75 575.0 102.75L565.0 102.75C564.4477 102.75 564.0 102.302284 564.0 101.75Z" fill-rule="nonzero"/><path fill="#1a1a1a" d="M584.5781 99.6875L586.28125 99.453125Q586.3594 101.09375 586.90625 101.703125Q587.4531 102.296875 588.4219 102.296875Q589.125 102.296875 589.6406 101.984375Q590.15625 101.65625 590.34375 101.09375Q590.5469 100.53125 590.5469 99.296875L590.5469 89.4375L592.4531 89.4375L592.4531 99.1875Q592.4531 100.984375 592.0156 101.96875Q591.5781 102.953125 590.625 103.484375Q589.6875 104.0 588.4219 104.0Q586.5469 104.0 585.53125 102.921875Q584.53125 101.828125 584.5781 99.6875ZM594.6094 100.65625L596.3594 100.375Q596.5 101.421875 597.1719 101.984375Q597.84375 102.53125 599.0469 102.53125Q600.25 102.53125 600.8281 102.046875Q601.4219 101.546875 601.4219 100.890625Q601.4219 100.296875 600.90625 99.953125Q600.5469 99.71875 599.1094 99.359375Q597.1719 98.859375 596.4219 98.515625Q595.6875 98.15625 595.2969 97.53125Q594.90625 96.890625 594.90625 96.125Q594.90625 95.4375 595.21875 94.84375Q595.5469 94.25 596.09375 93.859375Q596.5 93.5625 597.2031 93.359375Q597.9219 93.140625 598.7344 93.140625Q599.9531 93.140625 600.875 93.5Q601.7969 93.84375 602.2344 94.453125Q602.6719 95.046875 602.84375 96.046875L601.125 96.28125Q601.0 95.484375 600.4375 95.046875Q599.875 94.59375 598.8594 94.59375Q597.6406 94.59375 597.125 95.0Q596.6094 95.390625 596.6094 95.921875Q596.6094 96.265625 596.8281 96.546875Q597.03125 96.828125 597.5 97.015625Q597.7656 97.109375 599.0469 97.453125Q600.9219 97.953125 601.65625 98.28125Q602.3906 98.59375 602.8125 99.203125Q603.2344 99.796875 603.2344 100.703125Q603.2344 101.578125 602.71875 102.359375Q602.2031 103.140625 601.2344 103.5625Q600.2656 103.984375 599.0469 103.984375Q597.03125 103.984375 595.96875 103.140625Q594.90625 102.296875 594.6094 100.65625ZM612.09375 102.46875Q611.1094 103.296875 610.2031 103.640625Q609.2969 103.984375 608.2656 103.984375Q606.5625 103.984375 605.6406 103.15625Q604.71875 102.3125 604.71875 101.015625Q604.71875 100.25 605.0625 99.625Q605.4219 99.0 605.9844 98.625Q606.5469 98.234375 607.25 98.03125Q607.7656 97.90625 608.8125 97.765625Q610.9375 97.515625 611.9375 97.171875Q611.9531 96.8125 611.9531 96.703125Q611.9531 95.640625 611.4531 95.1875Q610.78125 94.59375 609.4531 94.59375Q608.2031 94.59375 607.6094 95.03125Q607.03125 95.46875 606.75 96.578125L605.03125 96.34375Q605.2656 95.234375 605.7969 94.5625Q606.3281 93.875 607.34375 93.515625Q608.3594 93.140625 609.7031 93.140625Q611.03125 93.140625 611.8594 93.453125Q612.6875 93.765625 613.0781 94.25Q613.46875 94.71875 613.625 95.4375Q613.71875 95.890625 613.71875 97.0625L613.71875 99.40625Q613.71875 101.859375 613.8281 102.515625Q613.9375 103.15625 614.28125 103.75L612.4375 103.75Q612.1719 103.203125 612.09375 102.46875ZM611.9375 98.546875Q610.9844 98.9375 609.0625 99.203125Q607.9844 99.359375 607.53125 99.5625Q607.09375 99.75 606.84375 100.125Q606.59375 100.5 606.59375 100.96875Q606.59375 101.671875 607.125 102.140625Q607.65625 102.609375 608.6875 102.609375Q609.7031 102.609375 610.4844 102.171875Q611.28125 101.71875 611.65625 100.953125Q611.9375 100.34375 611.9375 99.1875L611.9375 98.546875ZM616.3125 103.75L616.3125 93.375L617.8906 93.375L617.8906 94.828125Q618.375 94.078125 619.1875 93.609375Q620.0 93.140625 621.03125 93.140625Q622.1875 93.140625 622.9219 93.625Q623.65625 94.09375 623.96875 94.953125Q625.2031 93.140625 627.1719 93.140625Q628.71875 93.140625 629.5469 94.0Q630.375 94.859375 630.375 96.625L630.375 103.75L628.625 103.75L628.625 97.21875Q628.625 96.15625 628.4531 95.703125Q628.28125 95.234375 627.8281 94.953125Q627.3906 94.671875 626.78125 94.671875Q625.6875 94.671875 624.9531 95.40625Q624.2344 96.125 624.2344 97.71875L624.2344 103.75L622.4844 103.75L622.4844 97.015625Q622.4844 95.84375 622.0469 95.265625Q621.625 94.671875 620.6406 94.671875Q619.90625 94.671875 619.2656 95.0625Q618.6406 95.453125 618.3594 96.203125Q618.0781 96.953125 618.0781 98.375L618.0781 103.75L616.3125 103.75Z" fill-rule="nonzero"/><path fill="#34a853" d="M647.0 91.75C647.0 91.197716 647.4477 90.75 648.0 90.75L658.0 90.75C658.5523 90.75 659.0 91.197716 659.0 91.75L659.0 101.75C659.0 102.302284 658.5523 102.75 658.0 102.75L648.0 102.75C647.4477 102.75 647.0 102.302284 647.0 101.75Z" fill-rule="nonzero"/><path fill="#1a1a1a" d="M675.0469 103.75L675.0469 102.4375Q674.0625 103.984375 672.1406 103.984375Q670.90625 103.984375 669.8594 103.296875Q668.8281 102.609375 668.25 101.390625Q667.6875 100.171875 667.6875 98.578125Q667.6875 97.015625 668.2031 95.75Q668.71875 94.484375 669.75 93.8125Q670.7969 93.140625 672.0625 93.140625Q673.0 93.140625 673.7344 93.546875Q674.46875 93.9375 674.9375 94.5625L674.9375 89.4375L676.6719 89.4375L676.6719 103.75L675.0469 103.75ZM669.4844 98.578125Q669.4844 100.5625 670.3281 101.546875Q671.1719 102.53125 672.3125 102.53125Q673.46875 102.53125 674.2656 101.59375Q675.0781 100.65625 675.0781 98.71875Q675.0781 96.59375 674.25 95.59375Q673.4375 94.59375 672.2344 94.59375Q671.0625 94.59375 670.2656 95.5625Q669.4844 96.515625 669.4844 98.578125ZM686.09375 102.46875Q685.1094 103.296875 684.2031 103.640625Q683.2969 103.984375 682.2656 103.984375Q680.5625 103.984375 679.6406 103.15625Q678.71875 102.3125 678.71875 101.015625Q678.71875 100.25 679.0625 99.625Q679.4219 99.0 679.9844 98.625Q680.5469 98.234375 681.25 98.03125Q681.7656 97.90625 682.8125 97.765625Q684.9375 97.515625 685.9375 97.171875Q685.9531 96.8125 685.9531 96.703125Q685.9531 95.640625 685.4531 95.1875Q684.78125 94.59375 683.4531 94.59375Q682.2031 94.59375 681.6094 95.03125Q681.03125 95.46875 680.75 96.578125L679.03125 96.34375Q679.2656 95.234375 679.7969 94.5625Q680.3281 93.875 681.34375 93.515625Q682.3594 93.140625 683.7031 93.140625Q685.03125 93.140625 685.8594 93.453125Q686.6875 93.765625 687.0781 94.25Q687.46875 94.71875 687.625 95.4375Q687.71875 95.890625 687.71875 97.0625L687.71875 99.40625Q687.71875 101.859375 687.8281 102.515625Q687.9375 103.15625 688.28125 103.75L686.4375 103.75Q686.1719 103.203125 686.09375 102.46875ZM685.9375 98.546875Q684.9844 98.9375 683.0625 99.203125Q681.9844 99.359375 681.53125 99.5625Q681.09375 99.75 680.84375 100.125Q680.59375 100.5 680.59375 100.96875Q680.59375 101.671875 681.125 102.140625Q681.65625 102.609375 682.6875 102.609375Q683.7031 102.609375 684.4844 102.171875Q685.28125 101.71875 685.65625 100.953125Q685.9375 100.34375 685.9375 99.1875L685.9375 98.546875ZM694.15625 102.171875L694.40625 103.734375Q693.6719 103.890625 693.0781 103.890625Q692.125 103.890625 691.59375 103.59375Q691.0781 103.28125 690.8594 102.796875Q690.6406 102.296875 690.6406 100.71875L690.6406 94.75L689.3594 94.75L689.3594 93.375L690.6406 93.375L690.6406 90.8125L692.3906 89.75L692.3906 93.375L694.15625 93.375L694.15625 94.75L692.3906 94.75L692.3906 100.8125Q692.3906 101.5625 692.4844 101.78125Q692.5781 101.984375 692.78125 102.125Q693.0 102.25 693.3906 102.25Q693.6719 102.25 694.15625 102.171875ZM703.09375 102.46875Q702.1094 103.296875 701.2031 103.640625Q700.2969 103.984375 699.2656 103.984375Q697.5625 103.984375 696.6406 103.15625Q695.71875 102.3125 695.71875 101.015625Q695.71875 100.25 696.0625 99.625Q696.4219 99.0 696.9844 98.625Q697.5469 98.234375 698.25 98.03125Q698.7656 97.90625 699.8125 97.765625Q701.9375 97.515625 702.9375 97.171875Q702.9531 96.8125 702.9531 96.703125Q702.9531 95.640625 702.4531 95.1875Q701.78125 94.59375 700.4531 94.59375Q699.2031 94.59375 698.6094 95.03125Q698.03125 95.46875 697.75 96.578125L696.03125 96.34375Q696.2656 95.234375 696.7969 94.5625Q697.3281 93.875 698.34375 93.515625Q699.3594 93.140625 700.7031 93.140625Q702.03125 93.140625 702.8594 93.453125Q703.6875 93.765625 704.0781 94.25Q704.46875 94.71875 704.625 95.4375Q704.71875 95.890625 704.71875 97.0625L704.71875 99.40625Q704.71875 101.859375 704.8281 102.515625Q704.9375 103.15625 705.28125 103.75L703.4375 103.75Q703.1719 103.203125 703.09375 102.46875ZM702.9375 98.546875Q701.9844 98.9375 700.0625 99.203125Q698.9844 99.359375 698.53125 99.5625Q698.09375 99.75 697.84375 100.125Q697.59375 100.5 697.59375 100.96875Q697.59375 101.671875 698.125 102.140625Q698.65625 102.609375 699.6875 102.609375Q700.7031 102.609375 701.4844 102.171875Q702.28125 101.71875 702.65625 100.953125Q702.9375 100.34375 702.9375 99.1875L702.9375 98.546875ZM707.8125 103.75L707.8125 101.75L709.8125 101.75L709.8125 103.75L707.8125 103.75ZM713.3125 91.46875L713.3125 89.4375L715.0625 89.4375L715.0625 91.46875L713.3125 91.46875ZM711.0781 107.78125L711.40625 106.28125Q711.9375 106.421875 712.25 106.421875Q712.78125 106.421875 713.0469 106.0625Q713.3125 105.703125 713.3125 104.28125L713.3125 93.375L715.0625 93.375L715.0625 104.3125Q715.0625 106.234375 714.5625 106.984375Q713.9375 107.953125 712.4531 107.953125Q711.75 107.953125 711.0781 107.78125ZM716.6094 100.65625L718.3594 100.375Q718.5 101.421875 719.1719 101.984375Q719.84375 102.53125 721.0469 102.53125Q722.25 102.53125 722.8281 102.046875Q723.4219 101.546875 723.4219 100.890625Q723.4219 100.296875 722.90625 99.953125Q722.5469 99.71875 721.1094 99.359375Q719.1719 98.859375 718.4219 98.515625Q717.6875 98.15625 717.2969 97.53125Q716.90625 96.890625 716.90625 96.125Q716.90625 95.4375 717.21875 94.84375Q717.5469 94.25 718.09375 93.859375Q718.5 93.5625 719.2031 93.359375Q719.9219 93.140625 720.7344 93.140625Q721.9531 93.140625 722.875 93.5Q723.7969 93.84375 724.2344 94.453125Q724.6719 95.046875 724.84375 96.046875L723.125 96.28125Q723.0 95.484375 722.4375 95.046875Q721.875 94.59375 720.8594 94.59375Q719.6406 94.59375 719.125 95.0Q718.6094 95.390625 718.6094 95.921875Q718.6094 96.265625 718.8281 96.546875Q719.03125 96.828125 719.5 97.015625Q719.7656 97.109375 721.0469 97.453125Q722.9219 97.953125 723.65625 98.28125Q724.3906 98.59375 724.8125 99.203125Q725.2344 99.796875 725.2344 100.703125Q725.2344 101.578125 724.71875 102.359375Q724.2031 103.140625 723.2344 103.5625Q722.2656 103.984375 721.0469 103.984375Q719.03125 103.984375 717.96875 103.140625Q716.90625 102.296875 716.6094 100.65625ZM726.6719 98.5625Q726.6719 95.6875 728.2656 94.296875Q729.6094 93.140625 731.53125 93.140625Q733.6719 93.140625 735.0156 94.546875Q736.375 95.953125 736.375 98.421875Q736.375 100.421875 735.78125 101.578125Q735.1875 102.71875 734.03125 103.359375Q732.8906 103.984375 731.53125 103.984375Q729.34375 103.984375 728.0 102.59375Q726.6719 101.1875 726.6719 98.5625ZM728.46875 98.5625Q728.46875 100.5625 729.3281 101.546875Q730.2031 102.53125 731.53125 102.53125Q732.84375 102.53125 733.7031 101.546875Q734.5781 100.546875 734.5781 98.5Q734.5781 96.578125 733.7031 95.59375Q732.8281 94.59375 731.53125 94.59375Q730.2031 94.59375 729.3281 95.59375Q728.46875 96.578125 728.46875 98.5625ZM738.3125 103.75L738.3125 93.375L739.90625 93.375L739.90625 94.859375Q741.0469 93.140625 743.2031 93.140625Q744.1406 93.140625 744.9219 93.484375Q745.71875 93.8125 746.1094 94.359375Q746.5 94.90625 746.65625 95.65625Q746.75 96.15625 746.75 97.375L746.75 103.75L744.9844 103.75L744.9844 97.4375Q744.9844 96.359375 744.78125 95.828125Q744.5781 95.296875 744.0469 94.984375Q743.53125 94.671875 742.8281 94.671875Q741.7031 94.671875 740.8906 95.390625Q740.0781 96.09375 740.0781 98.078125L740.0781 103.75L738.3125 103.75Z" fill-rule="nonzero"/><path fill="#757575" d="M42.9875 56.05L40.878124 56.05L40.878124 42.6125Q40.128124 43.33125 38.878124 44.065624Q37.64375 44.784374 36.659374 45.14375L36.659374 43.1125Q38.440624 42.284374 39.753124 41.096874Q41.08125 39.909374 41.628124 38.8L42.9875 38.8L42.9875 56.05ZM48.05 47.58125Q48.05 44.534374 48.675 42.675Q49.3 40.815624 50.534374 39.815624Q51.76875 38.8 53.64375 38.8Q55.034374 38.8 56.065624 39.3625Q57.1125 39.909374 57.784374 40.95625Q58.471874 42.003124 58.8625 43.51875Q59.253124 45.01875 59.253124 47.58125Q59.253124 50.596874 58.628124 52.45625Q58.003124 54.315624 56.76875 55.33125Q55.534374 56.346874 53.64375 56.346874Q51.159374 56.346874 49.753124 54.565624Q48.05 52.409374 48.05 47.58125ZM50.221874 47.58125Q50.221874 51.8 51.20625 53.20625Q52.190624 54.6125 53.64375 54.6125Q55.096874 54.6125 56.08125 53.20625Q57.08125 51.8 57.08125 47.58125Q57.08125 43.33125 56.08125 41.940624Q55.096874 40.55 53.628124 40.55Q52.175 40.55 51.3 41.76875Q50.221874 43.346874 50.221874 47.58125ZM61.05 47.58125Q61.05 44.534374 61.675 42.675Q62.3 40.815624 63.534374 39.815624Q64.76875 38.8 66.64375 38.8Q68.03438 38.8 69.06563 39.3625Q70.1125 39.909374 70.78438 40.95625Q71.47188 42.003124 71.8625 43.51875Q72.25313 45.01875 72.25313 47.58125Q72.25313 50.596874 71.62813 52.45625Q71.00313 54.315624 69.76875 55.33125Q68.53438 56.346874 66.64375 56.346874Q64.15938 56.346874 62.753124 54.565624Q61.05 52.409374 61.05 47.58125ZM63.221874 47.58125Q63.221874 51.8 64.20625 53.20625Q65.19063 54.6125 66.64375 54.6125Q68.09688 54.6125 69.08125 53.20625Q70.08125 51.8 70.08125 47.58125Q70.08125 43.33125 69.08125 41.940624Q68.09688 40.55 66.62813 40.55Q65.175 40.55 64.3 41.76875Q63.221874 43.346874 63.221874 47.58125ZM74.83125 56.05L74.83125 38.8625L78.25313 38.8625L82.31563 51.034374Q82.87813 52.7375 83.14375 53.58125Q83.44063 52.64375 84.05 50.815624L88.175 38.8625L91.22188 38.8625L91.22188 56.05L89.03438 56.05L89.03438 41.675L84.05 56.05L81.9875 56.05L77.01875 41.425L77.01875 56.05L74.83125 56.05ZM95.58125 56.05L93.62813 56.05L93.62813 38.8625L95.7375 38.8625L95.7375 45.003124Q97.06563 43.315624 99.14375 43.315624Q100.28438 43.315624 101.31563 43.784374Q102.34688 44.253124 103.00313 45.096874Q103.65938 45.925 104.03438 47.1125Q104.40938 48.284374 104.40938 49.64375Q104.40938 52.83125 102.83125 54.58125Q101.25313 56.33125 99.03438 56.33125Q96.83125 56.33125 95.58125 54.4875L95.58125 56.05ZM95.55 49.7375Q95.55 51.971874 96.15938 52.971874Q97.15938 54.596874 98.8625 54.596874Q100.2375 54.596874 101.2375 53.39375Q102.25313 52.190624 102.25313 49.815624Q102.25313 47.378124 101.28438 46.221874Q100.33125 45.05 98.95625 45.05Q97.56563 45.05 96.55 46.253124Q95.55 47.45625 95.55 49.7375ZM115.14375 56.05L115.14375 45.2375L113.26875 45.2375L113.26875 43.596874L115.14375 43.596874L115.14375 42.284374Q115.14375 41.01875 115.3625 40.409374Q115.65938 39.596874 116.425 39.096874Q117.20625 38.58125 118.58125 38.58125Q119.47188 38.58125 120.55 38.784374L120.2375 40.628124Q119.58125 40.503124 118.9875 40.503124Q118.03438 40.503124 117.62813 40.925Q117.2375 41.33125 117.2375 42.45625L117.2375 43.596874L119.65938 43.596874L119.65938 45.2375L117.2375 45.2375L117.2375 56.05L115.14375 56.05ZM121.64375 41.3L121.64375 38.8625L123.75313 38.8625L123.75313 41.3L121.64375 41.3ZM121.64375 56.05L121.64375 43.596874L123.75313 43.596874L123.75313 56.05L121.64375 56.05ZM126.58125 56.05L126.58125 38.8625L128.69063 38.8625L128.69063 56.05L126.58125 56.05ZM141.15938 52.034374L143.33125 52.315624Q142.81563 54.221874 141.425 55.284374Q140.03438 56.33125 137.8625 56.33125Q135.12813 56.33125 133.51875 54.659374Q131.925 52.971874 131.925 49.925Q131.925 46.784374 133.53438 45.05Q135.15938 43.315624 137.7375 43.315624Q140.2375 43.315624 141.81563 45.01875Q143.40938 46.721874 143.40938 49.8Q143.40938 49.9875 143.39375 50.3625L134.1125 50.3625Q134.22188 52.409374 135.26875 53.503124Q136.31563 54.596874 137.87813 54.596874Q139.03438 54.596874 139.84688 53.9875Q140.675 53.378124 141.15938 52.034374ZM134.22188 48.628124L141.175 48.628124Q141.03438 47.065624 140.37813 46.26875Q139.37813 45.05 137.76875 45.05Q136.31563 45.05 135.31563 46.034374Q134.33125 47.003124 134.22188 48.628124ZM152.6125 56.05L152.6125 43.596874L154.50313 43.596874L154.50313 45.4875Q155.2375 44.159374 155.84688 43.7375Q156.47188 43.315624 157.20625 43.315624Q158.26875 43.315624 159.37813 44.003124L158.64375 45.95625Q157.87813 45.503124 157.09688 45.503124Q156.40938 45.503124 155.84688 45.925Q155.3 46.33125 155.06563 47.065624Q154.72188 48.190624 154.72188 49.534374L154.72188 56.05L152.6125 56.05ZM169.15938 52.034374L171.33125 52.315624Q170.81563 54.221874 169.425 55.284374Q168.03438 56.33125 165.8625 56.33125Q163.12813 56.33125 161.51875 54.659374Q159.925 52.971874 159.925 49.925Q159.925 46.784374 161.53438 45.05Q163.15938 43.315624 165.7375 43.315624Q168.2375 43.315624 169.81563 45.01875Q171.40938 46.721874 171.40938 49.8Q171.40938 49.9875 171.39375 50.3625L162.1125 50.3625Q162.22188 52.409374 163.26875 53.503124Q164.31563 54.596874 165.87813 54.596874Q167.03438 54.596874 167.84688 53.9875Q168.675 53.378124 169.15938 52.034374ZM162.22188 48.628124L169.175 48.628124Q169.03438 47.065624 168.37813 46.26875Q167.37813 45.05 165.76875 45.05Q164.31563 45.05 163.31563 46.034374Q162.33125 47.003124 162.22188 48.628124ZM181.75313 54.51875Q180.58125 55.503124 179.4875 55.925Q178.40938 56.33125 177.175 56.33125Q175.12813 56.33125 174.01875 55.33125Q172.925 54.33125 172.925 52.76875Q172.925 51.846874 173.33125 51.096874Q173.75313 50.346874 174.425 49.89375Q175.09688 49.425 175.94063 49.190624Q176.56563 49.034374 177.81563 48.878124Q180.37813 48.565624 181.58125 48.14375Q181.59688 47.721874 181.59688 47.596874Q181.59688 46.315624 180.9875 45.784374Q180.19063 45.065624 178.59688 45.065624Q177.09688 45.065624 176.39375 45.596874Q175.69063 46.1125 175.34688 47.440624L173.28438 47.159374Q173.56563 45.83125 174.20625 45.01875Q174.84688 44.20625 176.06563 43.76875Q177.28438 43.315624 178.89375 43.315624Q180.4875 43.315624 181.4875 43.690624Q182.4875 44.065624 182.95625 44.64375Q183.425 45.20625 183.6125 46.08125Q183.70625 46.6125 183.70625 48.01875L183.70625 50.83125Q183.70625 53.76875 183.84688 54.55Q183.9875 55.33125 184.37813 56.05L182.175 56.05Q181.84688 55.39375 181.75313 54.51875ZM181.58125 49.8Q180.425 50.26875 178.12813 50.596874Q176.83125 50.784374 176.28438 51.01875Q175.75313 51.253124 175.45625 51.70625Q175.175 52.159374 175.175 52.70625Q175.175 53.55 175.8 54.1125Q176.44063 54.675 177.675 54.675Q178.89375 54.675 179.84688 54.14375Q180.8 53.6125 181.2375 52.690624Q181.58125 51.971874 181.58125 50.58125L181.58125 49.8ZM194.70625 56.05L194.70625 54.471874Q193.51875 56.33125 191.22188 56.33125Q189.7375 56.33125 188.4875 55.51875Q187.2375 54.690624 186.55 53.221874Q185.87813 51.753124 185.87813 49.83125Q185.87813 47.971874 186.4875 46.45625Q187.1125 44.940624 188.34688 44.128124Q189.59688 43.315624 191.12813 43.315624Q192.25313 43.315624 193.12813 43.8Q194.01875 44.26875 194.56563 45.034374L194.56563 38.8625L196.65938 38.8625L196.65938 56.05L194.70625 56.05ZM188.03438 49.83125Q188.03438 52.221874 189.03438 53.409374Q190.05 54.596874 191.425 54.596874Q192.81563 54.596874 193.76875 53.471874Q194.7375 52.33125 194.7375 50.01875Q194.7375 47.45625 193.75313 46.26875Q192.76875 45.065624 191.33125 45.065624Q189.925 45.065624 188.97188 46.221874Q188.03438 47.3625 188.03438 49.83125ZM215.75313 54.51875Q214.58125 55.503124 213.4875 55.925Q212.40938 56.33125 211.175 56.33125Q209.12813 56.33125 208.01875 55.33125Q206.925 54.33125 206.925 52.76875Q206.925 51.846874 207.33125 51.096874Q207.75313 50.346874 208.425 49.89375Q209.09688 49.425 209.94063 49.190624Q210.56563 49.034374 211.81563 48.878124Q214.37813 48.565624 215.58125 48.14375Q215.59688 47.721874 215.59688 47.596874Q215.59688 46.315624 214.9875 45.784374Q214.19063 45.065624 212.59688 45.065624Q211.09688 45.065624 210.39375 45.596874Q209.69063 46.1125 209.34688 47.440624L207.28438 47.159374Q207.56563 45.83125 208.20625 45.01875Q208.84688 44.20625 210.06563 43.76875Q211.28438 43.315624 212.89375 43.315624Q214.4875 43.315624 215.4875 43.690624Q216.4875 44.065624 216.95625 44.64375Q217.425 45.20625 217.6125 46.08125Q217.70625 46.6125 217.70625 48.01875L217.70625 50.83125Q217.70625 53.76875 217.84688 54.55Q217.9875 55.33125 218.37813 56.05L216.175 56.05Q215.84688 55.39375 215.75313 54.51875ZM215.58125 49.8Q214.425 50.26875 212.12813 50.596874Q210.83125 50.784374 210.28438 51.01875Q209.75313 51.253124 209.45625 51.70625Q209.175 52.159374 209.175 52.70625Q209.175 53.55 209.8 54.1125Q210.44063 54.675 211.675 54.675Q212.89375 54.675 213.84688 54.14375Q214.8 53.6125 215.2375 52.690624Q215.58125 51.971874 215.58125 50.58125L215.58125 49.8ZM220.62813 56.05L220.62813 43.596874L222.53438 43.596874L222.53438 45.378124Q223.90938 43.315624 226.4875 43.315624Q227.6125 43.315624 228.55 43.721874Q229.50313 44.128124 229.97188 44.784374Q230.44063 45.440624 230.62813 46.346874Q230.75313 46.925 230.75313 48.39375L230.75313 56.05L228.64375 56.05L228.64375 48.471874Q228.64375 47.190624 228.39375 46.55Q228.14375 45.909374 227.51875 45.534374Q226.89375 45.14375 226.05 45.14375Q224.70625 45.14375 223.72188 46.003124Q222.7375 46.8625 222.7375 49.253124L222.7375 56.05L220.62813 56.05ZM242.70625 56.05L242.70625 54.471874Q241.51875 56.33125 239.22188 56.33125Q237.7375 56.33125 236.4875 55.51875Q235.2375 54.690624 234.55 53.221874Q233.87813 51.753124 233.87813 49.83125Q233.87813 47.971874 234.4875 46.45625Q235.1125 44.940624 236.34688 44.128124Q237.59688 43.315624 239.12813 43.315624Q240.25313 43.315624 241.12813 43.8Q242.01875 44.26875 242.56563 45.034374L242.56563 38.8625L244.65938 38.8625L244.65938 56.05L242.70625 56.05ZM236.03438 49.83125Q236.03438 52.221874 237.03438 53.409374Q238.05 54.596874 239.425 54.596874Q240.81563 54.596874 241.76875 53.471874Q242.7375 52.33125 242.7375 50.01875Q242.7375 47.45625 241.75313 46.26875Q240.76875 45.065624 239.33125 45.065624Q237.925 45.065624 236.97188 46.221874Q236.03438 47.3625 236.03438 49.83125ZM257.925 56.05L254.12813 43.596874L256.3 43.596874L258.28436 50.784374L259.01874 53.45625Q259.0656 53.253124 259.65936 50.89375L261.64374 43.596874L263.8156 43.596874L265.675 50.815624L266.3 53.20625L267.01874 50.8L269.14374 43.596874L271.1906 43.596874L267.3 56.05L265.1125 56.05L263.1281 48.596874L262.65936 46.471874L260.1281 56.05L257.925 56.05ZM272.6125 56.05L272.6125 43.596874L274.5031 43.596874L274.5031 45.4875Q275.2375 44.159374 275.84686 43.7375Q276.47186 43.315624 277.20624 43.315624Q278.26874 43.315624 279.3781 44.003124L278.64374 45.95625Q277.8781 45.503124 277.09686 45.503124Q276.40936 45.503124 275.84686 45.925Q275.3 46.33125 275.0656 47.065624Q274.72186 48.190624 274.72186 49.534374L274.72186 56.05L272.6125 56.05ZM280.64374 41.3L280.64374 38.8625L282.7531 38.8625L282.7531 41.3L280.64374 41.3ZM280.64374 56.05L280.64374 43.596874L282.7531 43.596874L282.7531 56.05L280.64374 56.05ZM290.2375 54.159374L290.55 56.01875Q289.65936 56.221874 288.95624 56.221874Q287.8 56.221874 287.15936 55.8625Q286.53436 55.4875 286.26874 54.89375Q286.01874 54.3 286.01874 52.409374L286.01874 45.2375L284.47186 45.2375L284.47186 43.596874L286.01874 43.596874L286.01874 40.51875L288.1125 39.253124L288.1125 43.596874L290.2375 43.596874L290.2375 45.2375L288.1125 45.2375L288.1125 52.51875Q288.1125 53.425 288.22186 53.690624Q288.34686 53.940624 288.59686 54.096874Q288.84686 54.2375 289.3156 54.2375Q289.65936 54.2375 290.2375 54.159374ZM301.15936 52.034374L303.33124 52.315624Q302.8156 54.221874 301.425 55.284374Q300.03436 56.33125 297.8625 56.33125Q295.1281 56.33125 293.51874 54.659374Q291.925 52.971874 291.925 49.925Q291.925 46.784374 293.53436 45.05Q295.15936 43.315624 297.7375 43.315624Q300.2375 43.315624 301.8156 45.01875Q303.40936 46.721874 303.40936 49.8Q303.40936 49.9875 303.39374 50.3625L294.1125 50.3625Q294.22186 52.409374 295.26874 53.503124Q296.3156 54.596874 297.8781 54.596874Q299.03436 54.596874 299.84686 53.9875Q300.675 53.378124 301.15936 52.034374ZM294.22186 48.628124L301.175 48.628124Q301.03436 47.065624 300.3781 46.26875Q299.3781 45.05 297.76874 45.05Q296.3156 45.05 295.3156 46.034374Q294.33124 47.003124 294.22186 48.628124ZM312.64374 41.3L312.64374 38.8625L314.7531 38.8625L314.7531 41.3L312.64374 41.3ZM312.64374 56.05L312.64374 43.596874L314.7531 43.596874L314.7531 56.05L312.64374 56.05ZM317.6281 56.05L317.6281 43.596874L319.53436 43.596874L319.53436 45.378124Q320.90936 43.315624 323.4875 43.315624Q324.6125 43.315624 325.55 43.721874Q326.5031 44.128124 326.97186 44.784374Q327.4406 45.440624 327.6281 46.346874Q327.7531 46.925 327.7531 48.39375L327.7531 56.05L325.64374 56.05L325.64374 48.471874Q325.64374 47.190624 325.39374 46.55Q325.14374 45.909374 324.51874 45.534374Q323.89374 45.14375 323.05 45.14375Q321.70624 45.14375 320.72186 46.003124Q319.7375 46.8625 319.7375 49.253124L319.7375 56.05L317.6281 56.05ZM338.6281 56.05L338.6281 43.596874L340.51874 43.596874L340.51874 45.346874Q341.1125 44.440624 342.08124 43.878124Q343.05 43.315624 344.3 43.315624Q345.675 43.315624 346.55 43.89375Q347.4406 44.471874 347.8156 45.503124Q349.28436 43.315624 351.65936 43.315624Q353.5031 43.315624 354.5031 44.346874Q355.5031 45.378124 355.5031 47.503124L355.5031 56.05L353.39374 56.05L353.39374 48.20625Q353.39374 46.940624 353.1906 46.39375Q352.9875 45.83125 352.4406 45.4875Q351.90936 45.14375 351.1906 45.14375Q349.8781 45.14375 349.0031 46.01875Q348.14374 46.89375 348.14374 48.815624L348.14374 56.05L346.03436 56.05L346.03436 47.95625Q346.03436 46.55 345.51874 45.846874Q345.0031 45.14375 343.83124 45.14375Q342.9406 45.14375 342.175 45.6125Q341.425 46.08125 341.08124 46.9875Q340.7375 47.89375 340.7375 49.596874L340.7375 56.05L338.6281 56.05ZM357.78436 52.33125L359.8781 52.003124Q360.05 53.253124 360.84686 53.925Q361.65936 54.596874 363.09686 54.596874Q364.55 54.596874 365.2531 54.003124Q365.95624 53.409374 365.95624 52.6125Q365.95624 51.89375 365.33124 51.4875Q364.90936 51.20625 363.175 50.76875Q360.8625 50.190624 359.95624 49.76875Q359.0656 49.33125 358.59686 48.58125Q358.14374 47.815624 358.14374 46.909374Q358.14374 46.08125 358.51874 45.378124Q358.90936 44.659374 359.5656 44.190624Q360.05 43.83125 360.89374 43.58125Q361.7531 43.315624 362.72186 43.315624Q364.1906 43.315624 365.3 43.7375Q366.40936 44.159374 366.925 44.89375Q367.45624 45.6125 367.65936 46.815624L365.59686 47.096874Q365.45624 46.128124 364.78436 45.596874Q364.1125 45.05 362.8781 45.05Q361.425 45.05 360.8 45.534374Q360.175 46.01875 360.175 46.659374Q360.175 47.065624 360.4406 47.39375Q360.6906 47.7375 361.2531 47.95625Q361.5656 48.08125 363.1125 48.503124Q365.34686 49.096874 366.22186 49.4875Q367.1125 49.8625 367.6125 50.596874Q368.1281 51.315624 368.1281 52.39375Q368.1281 53.440624 367.5031 54.378124Q366.89374 55.315624 365.7375 55.83125Q364.58124 56.33125 363.1125 56.33125Q360.6906 56.33125 359.40936 55.33125Q358.14374 54.315624 357.78436 52.33125ZM371.1906 56.05L371.1906 53.64375L373.58124 53.64375L373.58124 56.05Q373.58124 57.378124 373.1125 58.190624Q372.64374 59.003124 371.6281 59.45625L371.05 58.55Q371.70624 58.253124 372.01874 57.675Q372.34686 57.1125 372.3781 56.05L371.1906 56.05ZM384.58124 56.05L384.58124 38.8625L386.6906 38.8625L386.6906 56.05L384.58124 56.05ZM399.15936 52.034374L401.33124 52.315624Q400.8156 54.221874 399.425 55.284374Q398.03436 56.33125 395.8625 56.33125Q393.1281 56.33125 391.51874 54.659374Q389.925 52.971874 389.925 49.925Q389.925 46.784374 391.53436 45.05Q393.15936 43.315624 395.7375 43.315624Q398.2375 43.315624 399.8156 45.01875Q401.40936 46.721874 401.40936 49.8Q401.40936 49.9875 401.39374 50.3625L392.1125 50.3625Q392.22186 52.409374 393.26874 53.503124Q394.3156 54.596874 395.8781 54.596874Q397.03436 54.596874 397.84686 53.9875Q398.675 53.378124 399.15936 52.034374ZM392.22186 48.628124L399.175 48.628124Q399.03436 47.065624 398.3781 46.26875Q397.3781 45.05 395.76874 45.05Q394.3156 45.05 393.3156 46.034374Q392.33124 47.003124 392.22186 48.628124ZM402.78436 52.33125L404.8781 52.003124Q405.05 53.253124 405.84686 53.925Q406.65936 54.596874 408.09686 54.596874Q409.55 54.596874 410.2531 54.003124Q410.95624 53.409374 410.95624 52.6125Q410.95624 51.89375 410.33124 51.4875Q409.90936 51.20625 408.175 50.76875Q405.8625 50.190624 404.95624 49.76875Q404.0656 49.33125 403.59686 48.58125Q403.14374 47.815624 403.14374 46.909374Q403.14374 46.08125 403.51874 45.378124Q403.90936 44.659374 404.5656 44.190624Q405.05 43.83125 405.89374 43.58125Q406.7531 43.315624 407.72186 43.315624Q409.1906 43.315624 410.3 43.7375Q411.40936 44.159374 411.925 44.89375Q412.45624 45.6125 412.65936 46.815624L410.59686 47.096874Q410.45624 46.128124 409.78436 45.596874Q409.1125 45.05 407.8781 45.05Q406.425 45.05 405.8 45.534374Q405.175 46.01875 405.175 46.659374Q405.175 47.065624 405.4406 47.39375Q405.6906 47.7375 406.2531 47.95625Q406.5656 48.08125 408.1125 48.503124Q410.34686 49.096874 411.22186 49.4875Q412.1125 49.8625 412.6125 50.596874Q413.1281 51.315624 413.1281 52.39375Q413.1281 53.440624 412.5031 54.378124Q411.89374 55.315624 410.7375 55.83125Q409.58124 56.33125 408.1125 56.33125Q405.6906 56.33125 404.40936 55.33125Q403.14374 54.315624 402.78436 52.33125ZM414.78436 52.33125L416.8781 52.003124Q417.05 53.253124 417.84686 53.925Q418.65936 54.596874 420.09686 54.596874Q421.55 54.596874 422.2531 54.003124Q422.95624 53.409374 422.95624 52.6125Q422.95624 51.89375 422.33124 51.4875Q421.90936 51.20625 420.175 50.76875Q417.8625 50.190624 416.95624 49.76875Q416.0656 49.33125 415.59686 48.58125Q415.14374 47.815624 415.14374 46.909374Q415.14374 46.08125 415.51874 45.378124Q415.90936 44.659374 416.5656 44.190624Q417.05 43.83125 417.89374 43.58125Q418.7531 43.315624 419.72186 43.315624Q421.1906 43.315624 422.3 43.7375Q423.40936 44.159374 423.925 44.89375Q424.45624 45.6125 424.65936 46.815624L422.59686 47.096874Q422.45624 46.128124 421.78436 45.596874Q421.1125 45.05 419.8781 45.05Q418.425 45.05 417.8 45.534374Q417.175 46.01875 417.175 46.659374Q417.175 47.065624 417.4406 47.39375Q417.6906 47.7375 418.2531 47.95625Q418.5656 48.08125 420.1125 48.503124Q422.34686 49.096874 423.22186 49.4875Q424.1125 49.8625 424.6125 50.596874Q425.1281 51.315624 425.1281 52.39375Q425.1281 53.440624 424.5031 54.378124Q423.89374 55.315624 422.7375 55.83125Q421.58124 56.33125 420.1125 56.33125Q417.6906 56.33125 416.40936 55.33125Q415.14374 54.315624 414.78436 52.33125ZM434.64374 41.3L434.64374 38.8625L436.7531 38.8625L436.7531 41.3L434.64374 41.3ZM434.64374 56.05L434.64374 43.596874L436.7531 43.596874L436.7531 56.05L434.64374 56.05ZM438.78436 52.33125L440.8781 52.003124Q441.05 53.253124 441.84686 53.925Q442.65936 54.596874 444.09686 54.596874Q445.55 54.596874 446.2531 54.003124Q446.95624 53.409374 446.95624 52.6125Q446.95624 51.89375 446.33124 51.4875Q445.90936 51.20625 444.175 50.76875Q441.8625 50.190624 440.95624 49.76875Q440.0656 49.33125 439.59686 48.58125Q439.14374 47.815624 439.14374 46.909374Q439.14374 46.08125 439.51874 45.378124Q439.90936 44.659374 440.5656 44.190624Q441.05 43.83125 441.89374 43.58125Q442.7531 43.315624 443.72186 43.315624Q445.1906 43.315624 446.3 43.7375Q447.40936 44.159374 447.925 44.89375Q448.45624 45.6125 448.65936 46.815624L446.59686 47.096874Q446.45624 46.128124 445.78436 45.596874Q445.1125 45.05 443.8781 45.05Q442.425 45.05 441.8 45.534374Q441.175 46.01875 441.175 46.659374Q441.175 47.065624 441.4406 47.39375Q441.6906 47.7375 442.2531 47.95625Q442.5656 48.08125 444.1125 48.503124Q446.34686 49.096874 447.22186 49.4875Q448.1125 49.8625 448.6125 50.596874Q449.1281 51.315624 449.1281 52.39375Q449.1281 53.440624 448.5031 54.378124Q447.89374 55.315624 446.7375 55.83125Q445.58124 56.33125 444.1125 56.33125Q441.6906 56.33125 440.40936 55.33125Q439.14374 54.315624 438.78436 52.33125ZM460.58124 56.05L458.6281 56.05L458.6281 38.8625L460.7375 38.8625L460.7375 45.003124Q462.0656 43.315624 464.14374 43.315624Q465.28436 43.315624 466.3156 43.784374Q467.34686 44.253124 468.0031 45.096874Q468.65936 45.925 469.03436 47.1125Q469.40936 48.284374 469.40936 49.64375Q469.40936 52.83125 467.83124 54.58125Q466.2531 56.33125 464.03436 56.33125Q461.83124 56.33125 460.58124 54.4875L460.58124 56.05ZM460.55 49.7375Q460.55 51.971874 461.15936 52.971874Q462.15936 54.596874 463.8625 54.596874Q465.2375 54.596874 466.2375 53.39375Q467.2531 52.190624 467.2531 49.815624Q467.2531 47.378124 466.28436 46.221874Q465.33124 45.05 463.95624 45.05Q462.5656 45.05 461.55 46.253124Q460.55 47.45625 460.55 49.7375ZM481.15936 52.034374L483.33124 52.315624Q482.8156 54.221874 481.425 55.284374Q480.03436 56.33125 477.8625 56.33125Q475.1281 56.33125 473.51874 54.659374Q471.925 52.971874 471.925 49.925Q471.925 46.784374 473.53436 45.05Q475.15936 43.315624 477.7375 43.315624Q480.2375 43.315624 481.8156 45.01875Q483.40936 46.721874 483.40936 49.8Q483.40936 49.9875 483.39374 50.3625L474.1125 50.3625Q474.22186 52.409374 475.26874 53.503124Q476.3156 54.596874 477.8781 54.596874Q479.03436 54.596874 479.84686 53.9875Q480.675 53.378124 481.15936 52.034374ZM474.22186 48.628124L481.175 48.628124Q481.03436 47.065624 480.3781 46.26875Q479.3781 45.05 477.76874 45.05Q476.3156 45.05 475.3156 46.034374Q474.33124 47.003124 474.22186 48.628124ZM490.2375 54.159374L490.55 56.01875Q489.65936 56.221874 488.95624 56.221874Q487.8 56.221874 487.15936 55.8625Q486.53436 55.4875 486.26874 54.89375Q486.01874 54.3 486.01874 52.409374L486.01874 45.2375L484.47186 45.2375L484.47186 43.596874L486.01874 43.596874L486.01874 40.51875L488.1125 39.253124L488.1125 43.596874L490.2375 43.596874L490.2375 45.2375L488.1125 45.2375L488.1125 52.51875Q488.1125 53.425 488.22186 53.690624Q488.34686 53.940624 488.59686 54.096874Q488.84686 54.2375 489.3156 54.2375Q489.65936 54.2375 490.2375 54.159374ZM497.2375 54.159374L497.55 56.01875Q496.65936 56.221874 495.95624 56.221874Q494.8 56.221874 494.15936 55.8625Q493.53436 55.4875 493.26874 54.89375Q493.01874 54.3 493.01874 52.409374L493.01874 45.2375L491.47186 45.2375L491.47186 43.596874L493.01874 43.596874L493.01874 40.51875L495.1125 39.253124L495.1125 43.596874L497.2375 43.596874L497.2375 45.2375L495.1125 45.2375L495.1125 52.51875Q495.1125 53.425 495.22186 53.690624Q495.34686 53.940624 495.59686 54.096874Q495.84686 54.2375 496.3156 54.2375Q496.65936 54.2375 497.2375 54.159374ZM508.15936 52.034374L510.33124 52.315624Q509.8156 54.221874 508.425 55.284374Q507.03436 56.33125 504.8625 56.33125Q502.1281 56.33125 500.51874 54.659374Q498.925 52.971874 498.925 49.925Q498.925 46.784374 500.53436 45.05Q502.15936 43.315624 504.7375 43.315624Q507.2375 43.315624 508.8156 45.01875Q510.40936 46.721874 510.40936 49.8Q510.40936 49.9875 510.39374 50.3625L501.1125 50.3625Q501.22186 52.409374 502.26874 53.503124Q503.3156 54.596874 504.8781 54.596874Q506.03436 54.596874 506.84686 53.9875Q507.675 53.378124 508.15936 52.034374ZM501.22186 48.628124L508.175 48.628124Q508.03436 47.065624 507.3781 46.26875Q506.3781 45.05 504.76874 45.05Q503.3156 45.05 502.3156 46.034374Q501.33124 47.003124 501.22186 48.628124ZM512.6125 56.05L512.6125 43.596874L514.5031 43.596874L514.5031 45.4875Q515.2375 44.159374 515.84686 43.7375Q516.47186 43.315624 517.20624 43.315624Q518.26874 43.315624 519.3781 44.003124L518.64374 45.95625Q517.8781 45.503124 517.09686 45.503124Q516.40936 45.503124 515.84686 45.925Q515.3 46.33125 515.0656 47.065624Q514.72186 48.190624 514.72186 49.534374L514.72186 56.05L512.6125 56.05Z" fill-rule="nonzero"/></svg>