<svg version="1.1" viewBox="0.0 0.0 600.0 371.0" fill="none" stroke="none" stroke-linecap="square" stroke-miterlimit="10" width="600" height="371" xmlns:xlink="http://www.w3.org/1999/xlink" xmlns="http://www.w3.org/2000/svg"><path fill="#ffffff" d="M0 0L600.0 0L600.0 371.0L0 371.0L0 0Z" fill-rule="nonzero"/><path stroke="#333333" stroke-width="1.0" stroke-linecap="butt" d="M45.5 286.5L581.5 286.5" fill-rule="nonzero"/><path stroke="#cccccc" stroke-width="1.0" stroke-linecap="butt" d="M45.5 236.5L581.5 236.5" fill-rule="nonzero"/><path stroke="#cccccc" stroke-width="1.0" stroke-linecap="butt" d="M45.5 187.5L581.5 187.5" fill-rule="nonzero"/><path stroke="#cccccc" stroke-width="1.0" stroke-linecap="butt" d="M45.5 137.5L581.5 137.5" fill-rule="nonzero"/><path stroke="#cccccc" stroke-width="1.0" stroke-linecap="butt" d="M45.5 88.5L581.5 88.5" fill-rule="nonzero"/><clipPath id="id_0"><path d="M45.55 88.28333L581.45 88.28333L581.45 286.45L45.55 286.45L45.55 88.28333Z" clip-rule="nonzero"/></clipPath><path stroke="#000000" stroke-width="2.0" stroke-linecap="butt" stroke-opacity="0.0" clip-path="url(#id_0)" d="M153.0 286.0L103.0 286.0L103.0 118.0C103.0 116.89543 103.89543 116.0 105.0 116.0L151.0 116.0C152.10457 116.0 153.0 116.89543 153.0 118.0Z" fill-rule="nonzero"/><path fill="#4285f4" clip-path="url(#id_0)" d="M153.0 286.0L103.0 286.0L103.0 118.0C103.0 116.89543 103.89543 116.0 105.0 116.0L151.0 116.0C152.10457 116.0 153.0 116.89543 153.0 118.0Z" fill-rule="nonzero"/><path stroke="#000000" stroke-width="2.0" stroke-linecap="butt" stroke-opacity="0.0" clip-path="url(#id_0)" d="M313.0 286.0L263.0 286.0L263.0 196.0C263.0 194.89543 263.89542 194.0 265.0 194.0L311.0 194.0C312.10458 194.0 313.0 194.89543 313.0 196.0Z" fill-rule="nonzero"/><path fill="#4285f4" clip-path="url(#id_0)" d="M313.0 286.0L263.0 286.0L263.0 196.0C263.0 194.89543 263.89542 194.0 265.0 194.0L311.0 194.0C312.10458 194.0 313.0 194.89543 313.0 196.0Z" fill-rule="nonzero"/><path stroke="#000000" stroke-width="2.0" stroke-linecap="butt" stroke-opacity="0.0" clip-path="url(#id_0)" d="M472.0 286.0L422.0 286.0L422.0 258.0C422.0 256.89542 422.89542 256.0 424.0 256.0L470.0 256.0C471.10458 256.0 472.0 256.89542 472.0 258.0Z" fill-rule="nonzero"/><path fill="#4285f4" clip-path="url(#id_0)" d="M472.0 286.0L422.0 286.0L422.0 258.0C422.0 256.89542 422.89542 256.0 424.0 256.0L470.0 256.0C471.10458 256.0 472.0 256.89542 472.0 258.0Z" fill-rule="nonzero"/><path stroke="#000000" stroke-width="2.0" stroke-linecap="butt" stroke-opacity="0.0" clip-path="url(#id_0)" d="M205.0 286.0L155.0 286.0L155.0 114.0C155.0 112.89543 155.89543 112.0 157.0 112.0L203.0 112.0C204.10457 112.0 205.0 112.89543 205.0 114.0Z" fill-rule="nonzero"/><path fill="#ea4335" clip-path="url(#id_0)" d="M205.0 286.0L155.0 286.0L155.0 114.0C155.0 112.89543 155.89543 112.0 157.0 112.0L203.0 112.0C204.10457 112.0 205.0 112.89543 205.0 114.0Z" fill-rule="nonzero"/><path stroke="#000000" stroke-width="2.0" stroke-linecap="butt" stroke-opacity="0.0" clip-path="url(#id_0)" d="M365.0 286.0L315.0 286.0L315.0 195.0C315.0 193.89543 315.89542 193.0 317.0 193.0L363.0 193.0C364.10458 193.0 365.0 193.89543 365.0 195.0Z" fill-rule="nonzero"/><path fill="#ea4335" clip-path="url(#id_0)" d="M365.0 286.0L315.0 286.0L315.0 195.0C315.0 193.89543 315.89542 193.0 317.0 193.0L363.0 193.0C364.10458 193.0 365.0 193.89543 365.0 195.0Z" fill-rule="nonzero"/><path stroke="#000000" stroke-width="2.0" stroke-linecap="butt" stroke-opacity="0.0" clip-path="url(#id_0)" d="M524.0 286.0L474.0 286.0L474.0 258.0C474.0 256.89542 474.89542 256.0 476.0 256.0L522.0 256.0C523.10455 256.0 524.0 256.89542 524.0 258.0Z" fill-rule="nonzero"/><path fill="#ea4335" clip-path="url(#id_0)" d="M524.0 286.0L474.0 286.0L474.0 258.0C474.0 256.89542 474.89542 256.0 476.0 256.0L522.0 256.0C523.10455 256.0 524.0 256.89542 524.0 258.0Z" fill-rule="nonzero"/><path fill="#000000" d="M291.42188 349.45L291.42188 340.85626L294.67188 340.85626Q295.51562 340.85626 295.96875 340.9344Q296.60938 341.04376 297.03125 341.34064Q297.46875 341.6375 297.71875 342.16876Q297.98438 342.7 297.98438 343.34064Q297.98438 344.4344 297.28125 345.2Q296.59375 345.95 294.76562 345.95L292.5625 345.95L292.5625 349.45L291.42188 349.45ZM292.5625 344.95L294.78125 344.95Q295.89062 344.95 296.34375 344.54376Q296.8125 344.1219 296.8125 343.3719Q296.8125 342.84064 296.53125 342.46564Q296.26562 342.075 295.82812 341.95Q295.53125 341.8719 294.76562 341.8719L292.5625 341.8719L292.5625 344.95ZM299.26562 349.45L299.26562 340.85626L300.32812 340.85626L300.32812 349.45L299.26562 349.45ZM306.35938 348.6844Q305.76562 349.1844 305.21875 349.3875Q304.6875 349.59064 304.0625 349.59064Q303.03125 349.59064 302.48438 349.09064Q301.9375 348.59064 301.9375 347.8094Q301.9375 347.35626 302.14062 346.98126Q302.34375 346.59064 302.6875 346.3719Q303.03125 346.1375 303.45312 346.02814Q303.75 345.9344 304.39062 345.85626Q305.65625 345.71564 306.26562 345.4969Q306.26562 345.27814 306.26562 345.23126Q306.26562 344.575 305.96875 344.3094Q305.5625 343.96564 304.76562 343.96564Q304.03125 343.96564 303.67188 344.23126Q303.3125 344.48126 303.14062 345.1375L302.10938 344.9969Q302.25 344.34064 302.57812 343.9344Q302.90625 343.52814 303.51562 343.3094Q304.125 343.09064 304.92188 343.09064Q305.71875 343.09064 306.21875 343.27814Q306.71875 343.46564 306.95312 343.7469Q307.1875 344.02814 307.28125 344.46564Q307.32812 344.73126 307.32812 345.4344L307.32812 346.84064Q307.32812 348.3094 307.39062 348.7Q307.46875 349.09064 307.67188 349.45L306.5625 349.45Q306.40625 349.1219 306.35938 348.6844ZM306.26562 346.325Q305.6875 346.5594 304.54688 346.73126Q303.89062 346.825 303.625 346.95Q303.35938 347.0594 303.20312 347.27814Q303.0625 347.4969 303.0625 347.77814Q303.0625 348.2 303.375 348.48126Q303.70312 348.7625 304.3125 348.7625Q304.92188 348.7625 305.39062 348.4969Q305.875 348.23126 306.09375 347.7625Q306.26562 347.40314 306.26562 346.71564L306.26562 346.325ZM311.59375 348.5125L311.75 349.4344Q311.29688 349.52814 310.95312 349.52814Q310.375 349.52814 310.0625 349.35626Q309.75 349.16876 309.60938 348.8719Q309.48438 348.575 309.48438 347.6219L309.48438 344.04376L308.71875 344.04376L308.71875 343.23126L309.48438 343.23126L309.48438 341.6844L310.53125 341.0594L310.53125 343.23126L311.59375 343.23126L311.59375 344.04376L310.53125 344.04376L310.53125 347.6844Q310.53125 348.1375 310.57812 348.2625Q310.64062 348.3875 310.76562 348.46564Q310.89062 348.54376 311.125 348.54376Q311.3125 348.54376 311.59375 348.5125ZM312.54688 349.45L312.54688 344.04376L311.60938 344.04376L311.60938 343.23126L312.54688 343.23126L312.54688 342.5594Q312.54688 341.9344 312.65625 341.6375Q312.8125 341.21564 313.1875 340.96564Q313.57812 340.71564 314.26562 340.71564Q314.71875 340.71564 315.25 340.825L315.09375 341.73126Q314.76562 341.6844 314.46875 341.6844Q313.98438 341.6844 313.78125 341.8875Q313.59375 342.09064 313.59375 342.65314L313.59375 343.23126L314.8125 343.23126L314.8125 344.04376L313.59375 344.04376L313.59375 349.45L312.54688 349.45ZM314.90625 346.34064Q314.90625 344.60626 315.85938 343.77814Q316.65625 343.09064 317.8125 343.09064Q319.09375 343.09064 319.90625 343.9344Q320.73438 344.7625 320.73438 346.2469Q320.73438 347.45 320.375 348.1375Q320.01562 348.825 319.3125 349.21564Q318.625 349.59064 317.8125 349.59064Q316.51562 349.59064 315.70312 348.7625Q314.90625 347.91876 314.90625 346.34064ZM315.98438 346.34064Q315.98438 347.52814 316.5 348.1219Q317.03125 348.71564 317.8125 348.71564Q318.60938 348.71564 319.125 348.1219Q319.64062 347.52814 319.64062 346.3094Q319.64062 345.15314 319.10938 344.5594Q318.59375 343.96564 317.8125 343.96564Q317.03125 343.96564 316.5 344.5594Q315.98438 345.1375 315.98438 346.34064ZM322.28125 349.45L322.28125 343.23126L323.23438 343.23126L323.23438 344.16876Q323.59375 343.5125 323.89062 343.3094Q324.20312 343.09064 324.57812 343.09064Q325.10938 343.09064 325.65625 343.41876L325.29688 344.40314Q324.90625 344.16876 324.53125 344.16876Q324.17188 344.16876 323.89062 344.3875Q323.625 344.59064 323.51562 344.96564Q323.32812 345.52814 323.32812 346.1844L323.32812 349.45L322.28125 349.45ZM326.29688 349.45L326.29688 343.23126L327.23438 343.23126L327.23438 344.10626Q327.53125 343.6375 328.01562 343.3719Q328.5 343.09064 329.125 343.09064Q329.8125 343.09064 330.25 343.3719Q330.70312 343.65314 330.875 344.16876Q331.625 343.09064 332.79688 343.09064Q333.73438 343.09064 334.21875 343.60626Q334.71875 344.10626 334.71875 345.1844L334.71875 349.45L333.67188 349.45L333.67188 345.52814Q333.67188 344.90314 333.5625 344.6219Q333.46875 344.34064 333.20312 344.16876Q332.9375 343.9969 332.5625 343.9969Q331.90625 343.9969 331.46875 344.4344Q331.04688 344.8719 331.04688 345.84064L331.04688 349.45L329.98438 349.45L329.98438 345.40314Q329.98438 344.7 329.71875 344.35626Q329.46875 343.9969 328.89062 343.9969Q328.4375 343.9969 328.0625 344.23126Q327.6875 344.46564 327.51562 344.91876Q327.34375 345.3719 327.34375 346.21564L327.34375 349.45L326.29688 349.45Z" fill-rule="nonzero"/><path fill="#000000" d="M33.05 286.21564Q33.05 284.6844 33.3625 283.7625Q33.675 282.825 34.284374 282.325Q34.909374 281.825 35.846874 281.825Q36.534374 281.825 37.05 282.10626Q37.58125 282.3875 37.925 282.91876Q38.26875 283.4344 38.45625 284.1844Q38.64375 284.9344 38.64375 286.21564Q38.64375 287.73126 38.33125 288.65314Q38.034374 289.575 37.409374 290.09064Q36.8 290.59064 35.846874 290.59064Q34.6125 290.59064 33.89375 289.7Q33.05 288.6375 33.05 286.21564ZM34.128124 286.21564Q34.128124 288.325 34.628124 289.02814Q35.128124 289.73126 35.846874 289.73126Q36.58125 289.73126 37.065624 289.02814Q37.565624 288.325 37.565624 286.21564Q37.565624 284.09064 37.065624 283.40314Q36.58125 282.7 35.83125 282.7Q35.1125 282.7 34.675 283.3094Q34.128124 284.09064 34.128124 286.21564Z" fill-rule="nonzero"/><path fill="#000000" d="M23.01875 240.90834L21.971874 240.90834L21.971874 234.18959Q21.58125 234.54897 20.95625 234.92397Q20.346874 235.28334 19.8625 235.45522L19.8625 234.43959Q20.7375 234.01772 21.39375 233.43959Q22.065624 232.84584 22.346874 232.28334L23.01875 232.28334L23.01875 240.90834ZM26.05 236.67397Q26.05 235.14272 26.3625 234.22084Q26.675 233.28334 27.284374 232.78334Q27.909374 232.28334 28.846874 232.28334Q29.534374 232.28334 30.05 232.56459Q30.58125 232.84584 30.925 233.37709Q31.26875 233.89272 31.45625 234.64272Q31.64375 235.39272 31.64375 236.67397Q31.64375 238.18959 31.33125 239.11147Q31.034374 240.03334 30.409374 240.54897Q29.8 241.04897 28.846874 241.04897Q27.6125 241.04897 26.89375 240.15834Q26.05 239.09584 26.05 236.67397ZM27.128124 236.67397Q27.128124 238.78334 27.628124 239.48647Q28.128124 240.18959 28.846874 240.18959Q29.58125 240.18959 30.065624 239.48647Q30.565624 238.78334 30.565624 236.67397Q30.565624 234.54897 30.065624 233.86147Q29.58125 233.15834 28.83125 233.15834Q28.1125 233.15834 27.675 233.76772Q27.128124 234.54897 27.128124 236.67397ZM33.05 236.67397Q33.05 235.14272 33.3625 234.22084Q33.675 233.28334 34.284374 232.78334Q34.909374 232.28334 35.846874 232.28334Q36.534374 232.28334 37.05 232.56459Q37.58125 232.84584 37.925 233.37709Q38.26875 233.89272 38.45625 234.64272Q38.64375 235.39272 38.64375 236.67397Q38.64375 238.18959 38.33125 239.11147Q38.034374 240.03334 37.409374 240.54897Q36.8 241.04897 35.846874 241.04897Q34.6125 241.04897 33.89375 240.15834Q33.05 239.09584 33.05 236.67397ZM34.128124 236.67397Q34.128124 238.78334 34.628124 239.48647Q35.128124 240.18959 35.846874 240.18959Q36.58125 240.18959 37.065624 239.48647Q37.565624 238.78334 37.565624 236.67397Q37.565624 234.54897 37.065624 233.86147Q36.58125 233.15834 35.83125 233.15834Q35.1125 233.15834 34.675 233.76772Q34.128124 234.54897 34.128124 236.67397Z" fill-rule="nonzero"/><path fill="#000000" d="M24.596874 190.35104L24.596874 191.36667L18.909374 191.36667Q18.909374 190.99167 19.034374 190.6323Q19.253124 190.05417 19.721874 189.49167Q20.20625 188.92917 21.1125 188.1948Q22.51875 187.03854 23.003124 186.36667Q23.503124 185.6948 23.503124 185.10104Q23.503124 184.47604 23.05 184.05417Q22.596874 183.61667 21.878124 183.61667Q21.1125 183.61667 20.659374 184.0698Q20.20625 184.52292 20.190624 185.33542L19.1125 185.22604Q19.221874 184.0073 19.940624 183.3823Q20.675 182.74167 21.909374 182.74167Q23.14375 182.74167 23.8625 183.42917Q24.58125 184.11667 24.58125 185.1323Q24.58125 185.64792 24.3625 186.14792Q24.159374 186.6323 23.659374 187.1948Q23.175 187.74167 22.05 188.6948Q21.096874 189.49167 20.815624 189.78854Q20.55 190.0698 20.378124 190.35104L24.596874 190.35104ZM26.05 187.1323Q26.05 185.60104 26.3625 184.67917Q26.675 183.74167 27.284374 183.24167Q27.909374 182.74167 28.846874 182.74167Q29.534374 182.74167 30.05 183.02292Q30.58125 183.30417 30.925 183.83542Q31.26875 184.35104 31.45625 185.10104Q31.64375 185.85104 31.64375 187.1323Q31.64375 188.64792 31.33125 189.5698Q31.034374 190.49167 30.409374 191.0073Q29.8 191.5073 28.846874 191.5073Q27.6125 191.5073 26.89375 190.61667Q26.05 189.55417 26.05 187.1323ZM27.128124 187.1323Q27.128124 189.24167 27.628124 189.9448Q28.128124 190.64792 28.846874 190.64792Q29.58125 190.64792 30.065624 189.9448Q30.565624 189.24167 30.565624 187.1323Q30.565624 185.0073 30.065624 184.3198Q29.58125 183.61667 28.83125 183.61667Q28.1125 183.61667 27.675 184.22604Q27.128124 185.0073 27.128124 187.1323ZM33.05 187.1323Q33.05 185.60104 33.3625 184.67917Q33.675 183.74167 34.284374 183.24167Q34.909374 182.74167 35.846874 182.74167Q36.534374 182.74167 37.05 183.02292Q37.58125 183.30417 37.925 183.83542Q38.26875 184.35104 38.45625 185.10104Q38.64375 185.85104 38.64375 187.1323Q38.64375 188.64792 38.33125 189.5698Q38.034374 190.49167 37.409374 191.0073Q36.8 191.5073 35.846874 191.5073Q34.6125 191.5073 33.89375 190.61667Q33.05 189.55417 33.05 187.1323ZM34.128124 187.1323Q34.128124 189.24167 34.628124 189.9448Q35.128124 190.64792 35.846874 190.64792Q36.58125 190.64792 37.065624 189.9448Q37.565624 189.24167 37.565624 187.1323Q37.565624 185.0073 37.065624 184.3198Q36.58125 183.61667 35.83125 183.61667Q35.1125 183.61667 34.675 184.22604Q34.128124 185.0073 34.128124 187.1323Z" fill-rule="nonzero"/><path fill="#000000" d="M19.05 139.55937L20.1125 139.41875Q20.284374 140.30937 20.721874 140.71562Q21.159374 141.10625 21.784374 141.10625Q22.534374 141.10625 23.05 140.59062Q23.565624 140.075 23.565624 139.30937Q23.565624 138.59062 23.08125 138.12187Q22.6125 137.6375 21.878124 137.6375Q21.58125 137.6375 21.128124 137.7625L21.253124 136.825Q21.3625 136.84062 21.425 136.84062Q22.096874 136.84062 22.628124 136.49687Q23.175 136.1375 23.175 135.40312Q23.175 134.825 22.784374 134.45Q22.39375 134.05937 21.76875 134.05937Q21.159374 134.05937 20.7375 134.45Q20.33125 134.84062 20.221874 135.60625L19.159374 135.41875Q19.346874 134.37187 20.034374 133.79375Q20.721874 133.2 21.7375 133.2Q22.440624 133.2 23.034374 133.5125Q23.628124 133.80937 23.940624 134.325Q24.253124 134.84062 24.253124 135.43437Q24.253124 135.98125 23.95625 136.45Q23.659374 136.90312 23.08125 137.16875Q23.83125 137.34062 24.253124 137.90312Q24.675 138.45 24.675 139.29375Q24.675 140.41875 23.846874 141.2Q23.034374 141.98125 21.784374 141.98125Q20.659374 141.98125 19.909374 141.30937Q19.159374 140.62187 19.05 139.55937ZM26.05 137.59062Q26.05 136.05937 26.3625 135.1375Q26.675 134.2 27.284374 133.7Q27.909374 133.2 28.846874 133.2Q29.534374 133.2 30.05 133.48125Q30.58125 133.7625 30.925 134.29375Q31.26875 134.80937 31.45625 135.55937Q31.64375 136.30937 31.64375 137.59062Q31.64375 139.10625 31.33125 140.02812Q31.034374 140.95 30.409374 141.46562Q29.8 141.96562 28.846874 141.96562Q27.6125 141.96562 26.89375 141.075Q26.05 140.0125 26.05 137.59062ZM27.128124 137.59062Q27.128124 139.7 27.628124 140.40312Q28.128124 141.10625 28.846874 141.10625Q29.58125 141.10625 30.065624 140.40312Q30.565624 139.7 30.565624 137.59062Q30.565624 135.46562 30.065624 134.77812Q29.58125 134.075 28.83125 134.075Q28.1125 134.075 27.675 134.68437Q27.128124 135.46562 27.128124 137.59062ZM33.05 137.59062Q33.05 136.05937 33.3625 135.1375Q33.675 134.2 34.284374 133.7Q34.909374 133.2 35.846874 133.2Q36.534374 133.2 37.05 133.48125Q37.58125 133.7625 37.925 134.29375Q38.26875 134.80937 38.45625 135.55937Q38.64375 136.30937 38.64375 137.59062Q38.64375 139.10625 38.33125 140.02812Q38.034374 140.95 37.409374 141.46562Q36.8 141.96562 35.846874 141.96562Q34.6125 141.96562 33.89375 141.075Q33.05 140.0125 33.05 137.59062ZM34.128124 137.59062Q34.128124 139.7 34.628124 140.40312Q35.128124 141.10625 35.846874 141.10625Q36.58125 141.10625 37.065624 140.40312Q37.565624 139.7 37.565624 137.59062Q37.565624 135.46562 37.065624 134.77812Q36.58125 134.075 35.83125 134.075Q35.1125 134.075 34.675 134.68437Q34.128124 135.46562 34.128124 137.59062Z" fill-rule="nonzero"/><path fill="#000000" d="M22.425 92.28333L22.425 90.22083L18.70625 90.22083L18.70625 89.25208L22.628124 83.68958L23.4875 83.68958L23.4875 89.25208L24.64375 89.25208L24.64375 90.22083L23.4875 90.22083L23.4875 92.28333L22.425 92.28333ZM22.425 89.25208L22.425 85.39271L19.7375 89.25208L22.425 89.25208ZM26.05 88.04896Q26.05 86.51771 26.3625 85.59583Q26.675 84.65833 27.284374 84.15833Q27.909374 83.65833 28.846874 83.65833Q29.534374 83.65833 30.05 83.93958Q30.58125 84.22083 30.925 84.75208Q31.26875 85.26771 31.45625 86.01771Q31.64375 86.76771 31.64375 88.04896Q31.64375 89.56458 31.33125 90.48646Q31.034374 91.40833 30.409374 91.92396Q29.8 92.42396 28.846874 92.42396Q27.6125 92.42396 26.89375 91.53333Q26.05 90.47083 26.05 88.04896ZM27.128124 88.04896Q27.128124 90.15833 27.628124 90.86146Q28.128124 91.56458 28.846874 91.56458Q29.58125 91.56458 30.065624 90.86146Q30.565624 90.15833 30.565624 88.04896Q30.565624 85.92396 30.065624 85.23646Q29.58125 84.53333 28.83125 84.53333Q28.1125 84.53333 27.675 85.14271Q27.128124 85.92396 27.128124 88.04896ZM33.05 88.04896Q33.05 86.51771 33.3625 85.59583Q33.675 84.65833 34.284374 84.15833Q34.909374 83.65833 35.846874 83.65833Q36.534374 83.65833 37.05 83.93958Q37.58125 84.22083 37.925 84.75208Q38.26875 85.26771 38.45625 86.01771Q38.64375 86.76771 38.64375 88.04896Q38.64375 89.56458 38.33125 90.48646Q38.034374 91.40833 37.409374 91.92396Q36.8 92.42396 35.846874 92.42396Q34.6125 92.42396 33.89375 91.53333Q33.05 90.47083 33.05 88.04896ZM34.128124 88.04896Q34.128124 90.15833 34.628124 90.86146Q35.128124 91.56458 35.846874 91.56458Q36.58125 91.56458 37.065624 90.86146Q37.565624 90.15833 37.565624 88.04896Q37.565624 85.92396 37.065624 85.23646Q36.58125 84.53333 35.83125 84.53333Q35.1125 84.53333 34.675 85.14271Q34.128124 85.92396 34.128124 88.04896Z" fill-rule="nonzero"/><path fill="#000000" d="M89.88923 301.16876L90.92048 301.3094Q90.748604 302.3719 90.04548 302.98126Q89.342354 303.59064 88.32673 303.59064Q87.04548 303.59064 86.26423 302.7625Q85.498604 301.91876 85.498604 300.35626Q85.498604 299.35626 85.82673 298.60626Q86.17048 297.84064 86.842354 297.46564Q87.529854 297.09064 88.342354 297.09064Q89.342354 297.09064 89.98298 297.60626Q90.63923 298.10626 90.82673 299.0594L89.79548 299.21564Q89.654854 298.59064 89.279854 298.27814Q88.904854 297.95 88.373604 297.95Q87.57673 297.95 87.07673 298.52814Q86.57673 299.09064 86.57673 300.325Q86.57673 301.59064 87.061104 302.15314Q87.54548 302.71564 88.311104 302.71564Q88.936104 302.71564 89.342354 302.34064Q89.76423 301.96564 89.88923 301.16876ZM91.436104 300.34064Q91.436104 298.60626 92.38923 297.77814Q93.186104 297.09064 94.342354 297.09064Q95.623604 297.09064 96.436104 297.9344Q97.26423 298.7625 97.26423 300.2469Q97.26423 301.45 96.904854 302.1375Q96.54548 302.825 95.842354 303.21564Q95.154854 303.59064 94.342354 303.59064Q93.04548 303.59064 92.23298 302.7625Q91.436104 301.91876 91.436104 300.34064ZM92.51423 300.34064Q92.51423 301.52814 93.029854 302.1219Q93.561104 302.71564 94.342354 302.71564Q95.13923 302.71564 95.654854 302.1219Q96.17048 301.52814 96.17048 300.3094Q96.17048 299.15314 95.63923 298.5594Q95.123604 297.96564 94.342354 297.96564Q93.561104 297.96564 93.029854 298.5594Q92.51423 299.1375 92.51423 300.34064ZM98.811104 303.45L98.811104 297.23126L99.76423 297.23126L99.76423 298.16876Q100.123604 297.5125 100.42048 297.3094Q100.73298 297.09064 101.10798 297.09064Q101.63923 297.09064 102.186104 297.41876L101.82673 298.40314Q101.436104 298.16876 101.061104 298.16876Q100.70173 298.16876 100.42048 298.3875Q100.154854 298.59064 100.04548 298.96564Q99.85798 299.52814 99.85798 300.1844L99.85798 303.45L98.811104 303.45ZM107.07673 301.45L108.17048 301.575Q107.92048 302.52814 107.217354 303.0594Q106.51423 303.59064 105.436104 303.59064Q104.07673 303.59064 103.26423 302.7469Q102.467354 301.90314 102.467354 300.3875Q102.467354 298.825 103.279854 297.96564Q104.092354 297.09064 105.373604 297.09064Q106.623604 297.09064 107.404854 297.9344Q108.20173 298.77814 108.20173 300.325Q108.20173 300.41876 108.20173 300.60626L103.561104 300.60626Q103.623604 301.6375 104.13923 302.1844Q104.654854 302.71564 105.436104 302.71564Q106.01423 302.71564 106.42048 302.41876Q106.842354 302.10626 107.07673 301.45ZM103.623604 299.7469L107.092354 299.7469Q107.029854 298.95 106.70173 298.5594Q106.186104 297.95 105.38923 297.95Q104.654854 297.95 104.154854 298.4344Q103.67048 298.91876 103.623604 299.7469ZM112.82673 296.075L112.82673 294.85626L113.88923 294.85626L113.88923 296.075L112.82673 296.075ZM112.82673 303.45L112.82673 297.23126L113.88923 297.23126L113.88923 303.45L112.82673 303.45ZM115.529854 301.2L116.63923 301.10626Q116.76423 301.91876 117.20173 302.325Q117.654854 302.73126 118.29548 302.73126Q119.04548 302.73126 119.57673 302.15314Q120.10798 301.575 120.10798 300.6375Q120.10798 299.73126 119.592354 299.21564Q119.092354 298.6844 118.26423 298.6844Q117.76423 298.6844 117.342354 298.91876Q116.936104 299.15314 116.70173 299.5125L115.717354 299.3875L116.54548 294.98126L120.82673 294.98126L120.82673 295.98126L117.38923 295.98126L116.936104 298.29376Q117.70173 297.7469 118.54548 297.7469Q119.67048 297.7469 120.436104 298.52814Q121.217354 299.3094 121.217354 300.54376Q121.217354 301.7 120.54548 302.5594Q119.717354 303.59064 118.29548 303.59064Q117.123604 303.59064 116.373604 302.9344Q115.63923 302.27814 115.529854 301.2ZM131.07672 302.4344L131.07672 303.45L125.38923 303.45Q125.38923 303.075 125.51423 302.71564Q125.73298 302.1375 126.20173 301.575Q126.686104 301.0125 127.592354 300.27814Q128.9986 299.1219 129.48297 298.45Q129.98297 297.77814 129.98297 297.1844Q129.98297 296.5594 129.52985 296.1375Q129.07672 295.7 128.35797 295.7Q127.592354 295.7 127.13923 296.15314Q126.686104 296.60626 126.67048 297.41876L125.592354 297.3094Q125.70173 296.09064 126.42048 295.46564Q127.154854 294.825 128.38922 294.825Q129.6236 294.825 130.34235 295.5125Q131.0611 296.2 131.0611 297.21564Q131.0611 297.73126 130.84235 298.23126Q130.63922 298.71564 130.13922 299.27814Q129.65485 299.825 128.52985 300.77814Q127.57673 301.575 127.29548 301.8719Q127.029854 302.15314 126.85798 302.4344L131.07672 302.4344ZM139.98297 300.075L139.98297 299.075L143.60797 299.0594L143.60797 302.2469Q142.77985 302.91876 141.88922 303.2625Q140.9986 303.59064 140.0611 303.59064Q138.79547 303.59064 137.7486 303.0594Q136.71735 302.5125 136.1861 301.4969Q135.67047 300.46564 135.67047 299.2Q135.67047 297.9344 136.1861 296.85626Q136.71735 295.7625 137.70172 295.2469Q138.6861 294.71564 139.96735 294.71564Q140.90485 294.71564 141.65485 295.0125Q142.40485 295.3094 142.82672 295.85626Q143.26422 296.3875 143.48297 297.2625L142.46735 297.54376Q142.26422 296.8875 141.96735 296.5125Q141.6861 296.1375 141.15485 295.91876Q140.6236 295.6844 139.98297 295.6844Q139.20172 295.6844 138.6236 295.91876Q138.0611 296.15314 137.70172 296.54376Q137.35797 296.9344 137.17047 297.40314Q136.84235 298.2 136.84235 299.1219Q136.84235 300.27814 137.23297 301.0594Q137.63922 301.825 138.38922 302.2Q139.13922 302.575 139.9986 302.575Q140.73297 302.575 141.4361 302.29376Q142.13922 301.9969 142.4986 301.6844L142.4986 300.075L139.98297 300.075ZM144.9986 303.45L144.9986 294.85626L146.1236 294.85626L146.1236 298.3875L150.59235 298.3875L150.59235 294.85626L151.73297 294.85626L151.73297 303.45L150.59235 303.45L150.59235 299.40314L146.1236 299.40314L146.1236 303.45L144.9986 303.45ZM153.26422 303.45L153.26422 302.59064L157.23297 298.04376Q156.54547 298.075 156.02985 298.075L153.4986 298.075L153.4986 297.23126L158.59235 297.23126L158.59235 297.91876L155.21735 301.8719L154.5611 302.59064Q155.27985 302.54376 155.88922 302.54376L158.77985 302.54376L158.77985 303.45L153.26422 303.45ZM168.46735 302.52814Q169.26422 303.075 169.92047 303.325L169.59235 304.1219Q168.67047 303.77814 167.7486 303.0594Q166.79547 303.59064 165.63922 303.59064Q164.46735 303.59064 163.51422 303.02814Q162.57672 302.46564 162.0611 301.45Q161.54547 300.4344 161.54547 299.15314Q161.54547 297.8875 162.0611 296.84064Q162.57672 295.79376 163.52985 295.2469Q164.48297 294.7 165.65485 294.7Q166.84235 294.7 167.79547 295.27814Q168.76422 295.84064 169.26422 296.85626Q169.76422 297.8719 169.76422 299.15314Q169.76422 300.21564 169.4361 301.0594Q169.1236 301.90314 168.46735 302.52814ZM165.96735 301.075Q166.95172 301.35626 167.59235 301.90314Q168.59235 300.98126 168.59235 299.15314Q168.59235 298.10626 168.23297 297.325Q167.8736 296.54376 167.1861 296.1219Q166.51422 295.6844 165.67047 295.6844Q164.38922 295.6844 163.54547 296.5594Q162.71735 297.41876 162.71735 299.15314Q162.71735 300.825 163.54547 301.73126Q164.3736 302.6219 165.67047 302.6219Q166.27985 302.6219 166.8111 302.3875Q166.27985 302.04376 165.6861 301.90314L165.96735 301.075ZM174.90485 303.45L174.90485 302.52814Q174.17047 303.59064 172.92047 303.59064Q172.3736 303.59064 171.88922 303.3875Q171.42047 303.16876 171.1861 302.85626Q170.95172 302.52814 170.85797 302.0594Q170.79547 301.7625 170.79547 301.075L170.79547 297.23126L171.85797 297.23126L171.85797 300.6844Q171.85797 301.4969 171.92047 301.79376Q172.01422 302.2 172.32672 302.45Q172.65485 302.6844 173.13922 302.6844Q173.60797 302.6844 174.01422 302.45Q174.4361 302.2 174.60797 301.77814Q174.79547 301.35626 174.79547 300.5594L174.79547 297.23126L175.84235 297.23126L175.84235 303.45L174.90485 303.45ZM181.88922 302.6844Q181.29547 303.1844 180.7486 303.3875Q180.21735 303.59064 179.59235 303.59064Q178.5611 303.59064 178.01422 303.09064Q177.46735 302.59064 177.46735 301.8094Q177.46735 301.35626 177.67047 300.98126Q177.8736 300.59064 178.21735 300.3719Q178.5611 300.1375 178.98297 300.02814Q179.27985 299.9344 179.92047 299.85626Q181.1861 299.71564 181.79547 299.4969Q181.79547 299.27814 181.79547 299.23126Q181.79547 298.575 181.4986 298.3094Q181.09235 297.96564 180.29547 297.96564Q179.5611 297.96564 179.20172 298.23126Q178.84235 298.48126 178.67047 299.1375L177.63922 298.9969Q177.77985 298.34064 178.10797 297.9344Q178.4361 297.52814 179.04547 297.3094Q179.65485 297.09064 180.45172 297.09064Q181.2486 297.09064 181.7486 297.27814Q182.2486 297.46564 182.48297 297.7469Q182.71735 298.02814 182.8111 298.46564Q182.85797 298.73126 182.85797 299.4344L182.85797 300.84064Q182.85797 302.3094 182.92047 302.7Q182.9986 303.09064 183.20172 303.45L182.09235 303.45Q181.9361 303.1219 181.88922 302.6844ZM181.79547 300.325Q181.21735 300.5594 180.07672 300.73126Q179.42047 300.825 179.15485 300.95Q178.88922 301.0594 178.73297 301.27814Q178.59235 301.4969 178.59235 301.77814Q178.59235 302.2 178.90485 302.48126Q179.23297 302.7625 179.84235 302.7625Q180.45172 302.7625 180.92047 302.4969Q181.40485 302.23126 181.6236 301.7625Q181.79547 301.40314 181.79547 300.71564L181.79547 300.325ZM188.85797 303.45L188.85797 302.66876Q188.26422 303.59064 187.1236 303.59064Q186.3736 303.59064 185.7486 303.1844Q185.1236 302.7625 184.77985 302.02814Q184.4361 301.29376 184.4361 300.34064Q184.4361 299.41876 184.7486 298.65314Q185.0611 297.8875 185.6861 297.4969Q186.3111 297.09064 187.07672 297.09064Q187.63922 297.09064 188.07672 297.325Q188.51422 297.5594 188.79547 297.9344L188.79547 294.85626L189.84235 294.85626L189.84235 303.45L188.85797 303.45ZM185.52985 300.34064Q185.52985 301.54376 186.02985 302.1375Q186.52985 302.71564 187.21735 302.71564Q187.90485 302.71564 188.38922 302.15314Q188.8736 301.59064 188.8736 300.4344Q188.8736 299.15314 188.3736 298.5594Q187.88922 297.96564 187.17047 297.96564Q186.46735 297.96564 185.9986 298.54376Q185.52985 299.10626 185.52985 300.34064ZM191.40485 300.8719L191.40485 299.8094L194.65485 299.8094L194.65485 300.8719L191.40485 300.8719ZM202.09235 300.4344L203.21735 300.73126Q202.85797 302.1219 201.9361 302.85626Q201.01422 303.59064 199.67047 303.59064Q198.27985 303.59064 197.40485 303.02814Q196.52985 302.46564 196.07672 301.40314Q195.6236 300.325 195.6236 299.09064Q195.6236 297.7469 196.13922 296.7469Q196.65485 295.7469 197.59235 295.23126Q198.54547 294.71564 199.6861 294.71564Q200.96735 294.71564 201.84235 295.3719Q202.73297 296.02814 203.07672 297.21564L201.95172 297.48126Q201.65485 296.54376 201.07672 296.1219Q200.51422 295.6844 199.65485 295.6844Q198.67047 295.6844 197.9986 296.16876Q197.34235 296.6375 197.0611 297.4344Q196.79547 298.23126 196.79547 299.09064Q196.79547 300.1844 197.10797 300.9969Q197.4361 301.8094 198.10797 302.21564Q198.77985 302.6219 199.57672 302.6219Q200.52985 302.6219 201.1861 302.075Q201.85797 301.52814 202.09235 300.4344ZM204.4361 300.34064Q204.4361 298.60626 205.38922 297.77814Q206.1861 297.09064 207.34235 297.09064Q208.6236 297.09064 209.4361 297.9344Q210.26422 298.7625 210.26422 300.2469Q210.26422 301.45 209.90485 302.1375Q209.54547 302.825 208.84235 303.21564Q208.15485 303.59064 207.34235 303.59064Q206.04547 303.59064 205.23297 302.7625Q204.4361 301.91876 204.4361 300.34064ZM205.51422 300.34064Q205.51422 301.52814 206.02985 302.1219Q206.5611 302.71564 207.34235 302.71564Q208.13922 302.71564 208.65485 302.1219Q209.17047 301.52814 209.17047 300.3094Q209.17047 299.15314 208.63922 298.5594Q208.1236 297.96564 207.34235 297.96564Q206.5611 297.96564 206.02985 298.5594Q205.51422 299.1375 205.51422 300.34064ZM211.8111 303.45L211.8111 297.23126L212.76422 297.23126L212.76422 298.16876Q213.1236 297.5125 213.42047 297.3094Q213.73297 297.09064 214.10797 297.09064Q214.63922 297.09064 215.1861 297.41876L214.82672 298.40314Q214.4361 298.16876 214.0611 298.16876Q213.70172 298.16876 213.42047 298.3875Q213.15485 298.59064 213.04547 298.96564Q212.85797 299.52814 212.85797 300.1844L212.85797 303.45L211.8111 303.45ZM220.07672 301.45L221.17047 301.575Q220.92047 302.52814 220.21735 303.0594Q219.51422 303.59064 218.4361 303.59064Q217.07672 303.59064 216.26422 302.7469Q215.46735 301.90314 215.46735 300.3875Q215.46735 298.825 216.27985 297.96564Q217.09235 297.09064 218.3736 297.09064Q219.6236 297.09064 220.40485 297.9344Q221.20172 298.77814 221.20172 300.325Q221.20172 300.41876 221.20172 300.60626L216.5611 300.60626Q216.6236 301.6375 217.13922 302.1844Q217.65485 302.71564 218.4361 302.71564Q219.01422 302.71564 219.42047 302.41876Q219.84235 302.10626 220.07672 301.45ZM216.6236 299.7469L220.09235 299.7469Q220.02985 298.95 219.70172 298.5594Q219.1861 297.95 218.38922 297.95Q217.65485 297.95 217.15485 298.4344Q216.67047 298.91876 216.6236 299.7469Z" fill-rule="nonzero"/><path fill="#000000" d="M146.4986 317.45L145.45172 317.45L145.45172 310.73126Q145.0611 311.09064 144.4361 311.46564Q143.82672 311.825 143.34235 311.9969L143.34235 310.98126Q144.21735 310.5594 144.8736 309.98126Q145.54547 309.3875 145.82672 308.825L146.4986 308.825L146.4986 317.45ZM154.9986 310.96564L153.95172 311.04376Q153.8111 310.41876 153.5611 310.1375Q153.1236 309.6844 152.4986 309.6844Q151.9986 309.6844 151.60797 309.96564Q151.1236 310.34064 150.82672 311.04376Q150.54547 311.73126 150.52985 313.0125Q150.90485 312.4344 151.45172 312.15314Q152.01422 311.8719 152.6236 311.8719Q153.67047 311.8719 154.40485 312.65314Q155.15485 313.4344 155.15485 314.65314Q155.15485 315.46564 154.79547 316.16876Q154.45172 316.85626 153.84235 317.23126Q153.23297 317.59064 152.46735 317.59064Q151.13922 317.59064 150.3111 316.6219Q149.48297 315.65314 149.48297 313.4344Q149.48297 310.9344 150.40485 309.8094Q151.20172 308.825 152.5611 308.825Q153.57672 308.825 154.21735 309.40314Q154.8736 309.96564 154.9986 310.96564ZM150.70172 314.66876Q150.70172 315.21564 150.92047 315.71564Q151.15485 316.2 151.5611 316.46564Q151.98297 316.73126 152.45172 316.73126Q153.10797 316.73126 153.59235 316.2Q154.07672 315.65314 154.07672 314.73126Q154.07672 313.84064 153.59235 313.325Q153.1236 312.8094 152.40485 312.8094Q151.6861 312.8094 151.1861 313.325Q150.70172 313.84064 150.70172 314.66876ZM160.98297 314.075L160.98297 313.075L164.60797 313.0594L164.60797 316.2469Q163.77985 316.91876 162.88922 317.2625Q161.9986 317.59064 161.0611 317.59064Q159.79547 317.59064 158.7486 317.0594Q157.71735 316.5125 157.1861 315.4969Q156.67047 314.46564 156.67047 313.2Q156.67047 311.9344 157.1861 310.85626Q157.71735 309.7625 158.70172 309.2469Q159.6861 308.71564 160.96735 308.71564Q161.90485 308.71564 162.65485 309.0125Q163.40485 309.3094 163.82672 309.85626Q164.26422 310.3875 164.48297 311.2625L163.46735 311.54376Q163.26422 310.8875 162.96735 310.5125Q162.6861 310.1375 162.15485 309.91876Q161.6236 309.6844 160.98297 309.6844Q160.20172 309.6844 159.6236 309.91876Q159.0611 310.15314 158.70172 310.54376Q158.35797 310.9344 158.17047 311.40314Q157.84235 312.2 157.84235 313.1219Q157.84235 314.27814 158.23297 315.0594Q158.63922 315.825 159.38922 316.2Q160.13922 316.575 160.9986 316.575Q161.73297 316.575 162.4361 316.29376Q163.13922 315.9969 163.4986 315.6844L163.4986 314.075L160.98297 314.075Z" fill-rule="nonzero"/><path fill="#000000" d="M243.35938 301.16876L244.39062 301.3094Q244.21875 302.3719 243.51562 302.98126Q242.8125 303.59064 241.79688 303.59064Q240.51562 303.59064 239.73438 302.7625Q238.96875 301.91876 238.96875 300.35626Q238.96875 299.35626 239.29688 298.60626Q239.64062 297.84064 240.3125 297.46564Q241.0 297.09064 241.8125 297.09064Q242.8125 297.09064 243.45312 297.60626Q244.10938 298.10626 244.29688 299.0594L243.26562 299.21564Q243.125 298.59064 242.75 298.27814Q242.375 297.95 241.84375 297.95Q241.04688 297.95 240.54688 298.52814Q240.04688 299.09064 240.04688 300.325Q240.04688 301.59064 240.53125 302.15314Q241.01562 302.71564 241.78125 302.71564Q242.40625 302.71564 242.8125 302.34064Q243.23438 301.96564 243.35938 301.16876ZM244.90625 300.34064Q244.90625 298.60626 245.85938 297.77814Q246.65625 297.09064 247.8125 297.09064Q249.09375 297.09064 249.90625 297.9344Q250.73438 298.7625 250.73438 300.2469Q250.73438 301.45 250.375 302.1375Q250.01562 302.825 249.3125 303.21564Q248.625 303.59064 247.8125 303.59064Q246.51562 303.59064 245.70312 302.7625Q244.90625 301.91876 244.90625 300.34064ZM245.98438 300.34064Q245.98438 301.52814 246.5 302.1219Q247.03125 302.71564 247.8125 302.71564Q248.60938 302.71564 249.125 302.1219Q249.64062 301.52814 249.64062 300.3094Q249.64062 299.15314 249.10938 298.5594Q248.59375 297.96564 247.8125 297.96564Q247.03125 297.96564 246.5 298.5594Q245.98438 299.1375 245.98438 300.34064ZM252.28125 303.45L252.28125 297.23126L253.23438 297.23126L253.23438 298.16876Q253.59375 297.5125 253.89062 297.3094Q254.20312 297.09064 254.57812 297.09064Q255.10938 297.09064 255.65625 297.41876L255.29688 298.40314Q254.90625 298.16876 254.53125 298.16876Q254.17188 298.16876 253.89062 298.3875Q253.625 298.59064 253.51562 298.96564Q253.32812 299.52814 253.32812 300.1844L253.32812 303.45L252.28125 303.45ZM260.54688 301.45L261.64062 301.575Q261.39062 302.52814 260.6875 303.0594Q259.98438 303.59064 258.90625 303.59064Q257.54688 303.59064 256.73438 302.7469Q255.9375 301.90314 255.9375 300.3875Q255.9375 298.825 256.75 297.96564Q257.5625 297.09064 258.84375 297.09064Q260.09375 297.09064 260.875 297.9344Q261.67188 298.77814 261.67188 300.325Q261.67188 300.41876 261.67188 300.60626L257.03125 300.60626Q257.09375 301.6375 257.60938 302.1844Q258.125 302.71564 258.90625 302.71564Q259.48438 302.71564 259.89062 302.41876Q260.3125 302.10626 260.54688 301.45ZM257.09375 299.7469L260.5625 299.7469Q260.5 298.95 260.17188 298.5594Q259.65625 297.95 258.85938 297.95Q258.125 297.95 257.625 298.4344Q257.14062 298.91876 257.09375 299.7469ZM266.29688 296.075L266.29688 294.85626L267.35938 294.85626L267.35938 296.075L266.29688 296.075ZM266.29688 303.45L266.29688 297.23126L267.35938 297.23126L267.35938 303.45L266.29688 303.45ZM269.15625 301.46564L270.17188 301.3719Q270.29688 302.09064 270.65625 302.41876Q271.03125 302.73126 271.59375 302.73126Q272.07812 302.73126 272.4375 302.5125Q272.8125 302.27814 273.04688 301.91876Q273.28125 301.54376 273.4375 300.91876Q273.59375 300.27814 273.59375 299.6219Q273.59375 299.54376 273.59375 299.40314Q273.28125 299.90314 272.73438 300.23126Q272.1875 300.54376 271.54688 300.54376Q270.46875 300.54376 269.73438 299.77814Q269.0 298.9969 269.0 297.73126Q269.0 296.41876 269.76562 295.6219Q270.54688 294.825 271.70312 294.825Q272.53125 294.825 273.21875 295.27814Q273.92188 295.73126 274.28125 296.575Q274.64062 297.40314 274.64062 298.98126Q274.64062 300.6219 274.28125 301.60626Q273.9375 302.575 273.21875 303.09064Q272.51562 303.59064 271.57812 303.59064Q270.5625 303.59064 269.92188 303.04376Q269.28125 302.48126 269.15625 301.46564ZM273.46875 297.66876Q273.46875 296.7625 272.98438 296.23126Q272.51562 295.7 271.82812 295.7Q271.125 295.7 270.59375 296.27814Q270.07812 296.84064 270.07812 297.7625Q270.07812 298.575 270.57812 299.09064Q271.07812 299.60626 271.79688 299.60626Q272.53125 299.60626 273.0 299.09064Q273.46875 298.575 273.46875 297.66876ZM284.54688 302.4344L284.54688 303.45L278.85938 303.45Q278.85938 303.075 278.98438 302.71564Q279.20312 302.1375 279.67188 301.575Q280.15625 301.0125 281.0625 300.27814Q282.46875 299.1219 282.95312 298.45Q283.45312 297.77814 283.45312 297.1844Q283.45312 296.5594 283.0 296.1375Q282.54688 295.7 281.82812 295.7Q281.0625 295.7 280.60938 296.15314Q280.15625 296.60626 280.14062 297.41876L279.0625 297.3094Q279.17188 296.09064 279.89062 295.46564Q280.625 294.825 281.85938 294.825Q283.09375 294.825 283.8125 295.5125Q284.53125 296.2 284.53125 297.21564Q284.53125 297.73126 284.3125 298.23126Q284.10938 298.71564 283.60938 299.27814Q283.125 299.825 282.0 300.77814Q281.04688 301.575 280.76562 301.8719Q280.5 302.15314 280.32812 302.4344L284.54688 302.4344ZM286.5625 303.45L286.5625 302.2469L287.76562 302.2469L287.76562 303.45Q287.76562 304.10626 287.53125 304.5125Q287.29688 304.9344 286.79688 305.15314L286.5 304.7Q286.82812 304.5594 286.98438 304.2625Q287.14062 303.98126 287.17188 303.45L286.5625 303.45ZM292.375 303.45L292.375 301.3875L288.65625 301.3875L288.65625 300.41876L292.57812 294.85626L293.4375 294.85626L293.4375 300.41876L294.59375 300.41876L294.59375 301.3875L293.4375 301.3875L293.4375 303.45L292.375 303.45ZM292.375 300.41876L292.375 296.5594L289.6875 300.41876L292.375 300.41876ZM303.45312 300.075L303.45312 299.075L307.07812 299.0594L307.07812 302.2469Q306.25 302.91876 305.35938 303.2625Q304.46875 303.59064 303.53125 303.59064Q302.26562 303.59064 301.21875 303.0594Q300.1875 302.5125 299.65625 301.4969Q299.14062 300.46564 299.14062 299.2Q299.14062 297.9344 299.65625 296.85626Q300.1875 295.7625 301.17188 295.2469Q302.15625 294.71564 303.4375 294.71564Q304.375 294.71564 305.125 295.0125Q305.875 295.3094 306.29688 295.85626Q306.73438 296.3875 306.95312 297.2625L305.9375 297.54376Q305.73438 296.8875 305.4375 296.5125Q305.15625 296.1375 304.625 295.91876Q304.09375 295.6844 303.45312 295.6844Q302.67188 295.6844 302.09375 295.91876Q301.53125 296.15314 301.17188 296.54376Q300.82812 296.9344 300.64062 297.40314Q300.3125 298.2 300.3125 299.1219Q300.3125 300.27814 300.70312 301.0594Q301.10938 301.825 301.85938 302.2Q302.60938 302.575 303.46875 302.575Q304.20312 302.575 304.90625 302.29376Q305.60938 301.9969 305.96875 301.6844L305.96875 300.075L303.45312 300.075ZM308.46875 303.45L308.46875 294.85626L309.59375 294.85626L309.59375 298.3875L314.0625 298.3875L314.0625 294.85626L315.20312 294.85626L315.20312 303.45L314.0625 303.45L314.0625 299.40314L309.59375 299.40314L309.59375 303.45L308.46875 303.45ZM316.73438 303.45L316.73438 302.59064L320.70312 298.04376Q320.01562 298.075 319.5 298.075L316.96875 298.075L316.96875 297.23126L322.0625 297.23126L322.0625 297.91876L318.6875 301.8719L318.03125 302.59064Q318.75 302.54376 319.35938 302.54376L322.25 302.54376L322.25 303.45L316.73438 303.45ZM326.625 298.79376Q325.96875 298.54376 325.64062 298.10626Q325.32812 297.65314 325.32812 297.04376Q325.32812 296.10626 326.0 295.46564Q326.6875 294.825 327.79688 294.825Q328.92188 294.825 329.60938 295.48126Q330.29688 296.1375 330.29688 297.075Q330.29688 297.66876 329.98438 298.10626Q329.67188 298.54376 329.03125 298.79376Q329.82812 299.04376 330.23438 299.6219Q330.64062 300.2 330.64062 300.9969Q330.64062 302.09064 329.85938 302.84064Q329.09375 303.59064 327.8125 303.59064Q326.54688 303.59064 325.76562 302.84064Q324.98438 302.09064 324.98438 300.96564Q324.98438 300.1219 325.40625 299.5594Q325.84375 298.9969 326.625 298.79376ZM326.40625 296.9969Q326.40625 297.60626 326.79688 297.9969Q327.20312 298.3875 327.82812 298.3875Q328.4375 298.3875 328.82812 298.0125Q329.21875 297.6219 329.21875 297.0594Q329.21875 296.48126 328.8125 296.09064Q328.40625 295.6844 327.8125 295.6844Q327.20312 295.6844 326.79688 296.075Q326.40625 296.46564 326.40625 296.9969ZM326.07812 300.96564Q326.07812 301.41876 326.28125 301.84064Q326.5 302.2625 326.92188 302.4969Q327.34375 302.73126 327.82812 302.73126Q328.57812 302.73126 329.0625 302.2469Q329.5625 301.7625 329.5625 301.0125Q329.5625 300.2469 329.0625 299.7469Q328.5625 299.2469 327.79688 299.2469Q327.04688 299.2469 326.5625 299.7469Q326.07812 300.23126 326.07812 300.96564ZM331.875 300.8719L331.875 299.8094L335.125 299.8094L335.125 300.8719L331.875 300.8719ZM342.5625 300.4344L343.6875 300.73126Q343.32812 302.1219 342.40625 302.85626Q341.48438 303.59064 340.14062 303.59064Q338.75 303.59064 337.875 303.02814Q337.0 302.46564 336.54688 301.40314Q336.09375 300.325 336.09375 299.09064Q336.09375 297.7469 336.60938 296.7469Q337.125 295.7469 338.0625 295.23126Q339.01562 294.71564 340.15625 294.71564Q341.4375 294.71564 342.3125 295.3719Q343.20312 296.02814 343.54688 297.21564L342.42188 297.48126Q342.125 296.54376 341.54688 296.1219Q340.98438 295.6844 340.125 295.6844Q339.14062 295.6844 338.46875 296.16876Q337.8125 296.6375 337.53125 297.4344Q337.26562 298.23126 337.26562 299.09064Q337.26562 300.1844 337.57812 300.9969Q337.90625 301.8094 338.57812 302.21564Q339.25 302.6219 340.04688 302.6219Q341.0 302.6219 341.65625 302.075Q342.32812 301.52814 342.5625 300.4344ZM344.90625 300.34064Q344.90625 298.60626 345.85938 297.77814Q346.65625 297.09064 347.8125 297.09064Q349.09375 297.09064 349.90625 297.9344Q350.73438 298.7625 350.73438 300.2469Q350.73438 301.45 350.375 302.1375Q350.01562 302.825 349.3125 303.21564Q348.625 303.59064 347.8125 303.59064Q346.51562 303.59064 345.70312 302.7625Q344.90625 301.91876 344.90625 300.34064ZM345.98438 300.34064Q345.98438 301.52814 346.5 302.1219Q347.03125 302.71564 347.8125 302.71564Q348.60938 302.71564 349.125 302.1219Q349.64062 301.52814 349.64062 300.3094Q349.64062 299.15314 349.10938 298.5594Q348.59375 297.96564 347.8125 297.96564Q347.03125 297.96564 346.5 298.5594Q345.98438 299.1375 345.98438 300.34064ZM352.28125 303.45L352.28125 297.23126L353.23438 297.23126L353.23438 298.16876Q353.59375 297.5125 353.89062 297.3094Q354.20312 297.09064 354.57812 297.09064Q355.10938 297.09064 355.65625 297.41876L355.29688 298.40314Q354.90625 298.16876 354.53125 298.16876Q354.17188 298.16876 353.89062 298.3875Q353.625 298.59064 353.51562 298.96564Q353.32812 299.52814 353.32812 300.1844L353.32812 303.45L352.28125 303.45ZM360.54688 301.45L361.64062 301.575Q361.39062 302.52814 360.6875 303.0594Q359.98438 303.59064 358.90625 303.59064Q357.54688 303.59064 356.73438 302.7469Q355.9375 301.90314 355.9375 300.3875Q355.9375 298.825 356.75 297.96564Q357.5625 297.09064 358.84375 297.09064Q360.09375 297.09064 360.875 297.9344Q361.67188 298.77814 361.67188 300.325Q361.67188 300.41876 361.67188 300.60626L357.03125 300.60626Q357.09375 301.6375 357.60938 302.1844Q358.125 302.71564 358.90625 302.71564Q359.48438 302.71564 359.89062 302.41876Q360.3125 302.10626 360.54688 301.45ZM357.09375 299.7469L360.5625 299.7469Q360.5 298.95 360.17188 298.5594Q359.65625 297.95 358.85938 297.95Q358.125 297.95 357.625 298.4344Q357.14062 298.91876 357.09375 299.7469ZM366.0 301.1844L367.0625 301.04376Q367.23438 301.9344 367.67188 302.34064Q368.10938 302.73126 368.73438 302.73126Q369.48438 302.73126 370.0 302.21564Q370.51562 301.7 370.51562 300.9344Q370.51562 300.21564 370.03125 299.7469Q369.5625 299.2625 368.82812 299.2625Q368.53125 299.2625 368.07812 299.3875L368.20312 298.45Q368.3125 298.46564 368.375 298.46564Q369.04688 298.46564 369.57812 298.1219Q370.125 297.7625 370.125 297.02814Q370.125 296.45 369.73438 296.075Q369.34375 295.6844 368.71875 295.6844Q368.10938 295.6844 367.6875 296.075Q367.28125 296.46564 367.17188 297.23126L366.10938 297.04376Q366.29688 295.9969 366.98438 295.41876Q367.67188 294.825 368.6875 294.825Q369.39062 294.825 369.98438 295.1375Q370.57812 295.4344 370.89062 295.95Q371.20312 296.46564 371.20312 297.0594Q371.20312 297.60626 370.90625 298.075Q370.60938 298.52814 370.03125 298.79376Q370.78125 298.96564 371.20312 299.52814Q371.625 300.075 371.625 300.91876Q371.625 302.04376 370.79688 302.825Q369.98438 303.60626 368.73438 303.60626Q367.60938 303.60626 366.85938 302.9344Q366.10938 302.2469 366.0 301.1844ZM378.54688 302.4344L378.54688 303.45L372.85938 303.45Q372.85938 303.075 372.98438 302.71564Q373.20312 302.1375 373.67188 301.575Q374.15625 301.0125 375.0625 300.27814Q376.46875 299.1219 376.95312 298.45Q377.45312 297.77814 377.45312 297.1844Q377.45312 296.5594 377.0 296.1375Q376.54688 295.7 375.82812 295.7Q375.0625 295.7 374.60938 296.15314Q374.15625 296.60626 374.14062 297.41876L373.0625 297.3094Q373.17188 296.09064 373.89062 295.46564Q374.625 294.825 375.85938 294.825Q377.09375 294.825 377.8125 295.5125Q378.53125 296.2 378.53125 297.21564Q378.53125 297.73126 378.3125 298.23126Q378.10938 298.71564 377.60938 299.27814Q377.125 299.825 376.0 300.77814Q375.04688 301.575 374.76562 301.8719Q374.5 302.15314 374.32812 302.4344L378.54688 302.4344ZM384.45312 300.075L384.45312 299.075L388.07812 299.0594L388.07812 302.2469Q387.25 302.91876 386.35938 303.2625Q385.46875 303.59064 384.53125 303.59064Q383.26562 303.59064 382.21875 303.0594Q381.1875 302.5125 380.65625 301.4969Q380.14062 300.46564 380.14062 299.2Q380.14062 297.9344 380.65625 296.85626Q381.1875 295.7625 382.17188 295.2469Q383.15625 294.71564 384.4375 294.71564Q385.375 294.71564 386.125 295.0125Q386.875 295.3094 387.29688 295.85626Q387.73438 296.3875 387.95312 297.2625L386.9375 297.54376Q386.73438 296.8875 386.4375 296.5125Q386.15625 296.1375 385.625 295.91876Q385.09375 295.6844 384.45312 295.6844Q383.67188 295.6844 383.09375 295.91876Q382.53125 296.15314 382.17188 296.54376Q381.82812 296.9344 381.64062 297.40314Q381.3125 298.2 381.3125 299.1219Q381.3125 300.27814 381.70312 301.0594Q382.10938 301.825 382.85938 302.2Q383.60938 302.575 384.46875 302.575Q385.20312 302.575 385.90625 302.29376Q386.60938 301.9969 386.96875 301.6844L386.96875 300.075L384.45312 300.075Z" fill-rule="nonzero"/><path fill="#000000" d="M418.32953 302.6844Q417.73578 303.1844 417.1889 303.3875Q416.65765 303.59064 416.03265 303.59064Q415.0014 303.59064 414.45453 303.09064Q413.90765 302.59064 413.90765 301.8094Q413.90765 301.35626 414.11078 300.98126Q414.3139 300.59064 414.65765 300.3719Q415.0014 300.1375 415.42328 300.02814Q415.72015 299.9344 416.36078 299.85626Q417.6264 299.71564 418.23578 299.4969Q418.23578 299.27814 418.23578 299.23126Q418.23578 298.575 417.9389 298.3094Q417.53265 297.96564 416.73578 297.96564Q416.0014 297.96564 415.64203 298.23126Q415.28265 298.48126 415.11078 299.1375L414.07953 298.9969Q414.22015 298.34064 414.54828 297.9344Q414.8764 297.52814 415.48578 297.3094Q416.09515 297.09064 416.89203 297.09064Q417.6889 297.09064 418.1889 297.27814Q418.6889 297.46564 418.92328 297.7469Q419.15765 298.02814 419.2514 298.46564Q419.29828 298.73126 419.29828 299.4344L419.29828 300.84064Q419.29828 302.3094 419.36078 302.7Q419.4389 303.09064 419.64203 303.45L418.53265 303.45Q418.3764 303.1219 418.32953 302.6844ZM418.23578 300.325Q417.65765 300.5594 416.51703 300.73126Q415.86078 300.825 415.59515 300.95Q415.32953 301.0594 415.17328 301.27814Q415.03265 301.4969 415.03265 301.77814Q415.03265 302.2 415.34515 302.48126Q415.67328 302.7625 416.28265 302.7625Q416.89203 302.7625 417.36078 302.4969Q417.84515 302.23126 418.0639 301.7625Q418.23578 301.40314 418.23578 300.71564L418.23578 300.325ZM421.2514 303.45L421.2514 297.23126L422.20453 297.23126L422.20453 298.16876Q422.5639 297.5125 422.86078 297.3094Q423.17328 297.09064 423.54828 297.09064Q424.07953 297.09064 424.6264 297.41876L424.26703 298.40314Q423.8764 298.16876 423.5014 298.16876Q423.14203 298.16876 422.86078 298.3875Q422.59515 298.59064 422.48578 298.96564Q422.29828 299.52814 422.29828 300.1844L422.29828 303.45L421.2514 303.45ZM425.26703 303.45L425.26703 297.23126L426.20453 297.23126L426.20453 298.10626Q426.5014 297.6375 426.98578 297.3719Q427.47015 297.09064 428.09515 297.09064Q428.78265 297.09064 429.22015 297.3719Q429.67328 297.65314 429.84515 298.16876Q430.59515 297.09064 431.76703 297.09064Q432.70453 297.09064 433.1889 297.60626Q433.6889 298.10626 433.6889 299.1844L433.6889 303.45L432.64203 303.45L432.64203 299.52814Q432.64203 298.90314 432.53265 298.6219Q432.4389 298.34064 432.17328 298.16876Q431.90765 297.9969 431.53265 297.9969Q430.8764 297.9969 430.4389 298.4344Q430.01703 298.8719 430.01703 299.84064L430.01703 303.45L428.95453 303.45L428.95453 299.40314Q428.95453 298.7 428.6889 298.35626Q428.4389 297.9969 427.86078 297.9969Q427.40765 297.9969 427.03265 298.23126Q426.65765 298.46564 426.48578 298.91876Q426.3139 299.3719 426.3139 300.21564L426.3139 303.45L425.26703 303.45ZM439.26703 303.45L439.26703 297.23126L440.20453 297.23126L440.20453 298.10626Q440.5014 297.6375 440.98578 297.3719Q441.47015 297.09064 442.09515 297.09064Q442.78265 297.09064 443.22015 297.3719Q443.67328 297.65314 443.84515 298.16876Q444.59515 297.09064 445.76703 297.09064Q446.70453 297.09064 447.1889 297.60626Q447.6889 298.10626 447.6889 299.1844L447.6889 303.45L446.64203 303.45L446.64203 299.52814Q446.64203 298.90314 446.53265 298.6219Q446.4389 298.34064 446.17328 298.16876Q445.90765 297.9969 445.53265 297.9969Q444.8764 297.9969 444.4389 298.4344Q444.01703 298.8719 444.01703 299.84064L444.01703 303.45L442.95453 303.45L442.95453 299.40314Q442.95453 298.7 442.6889 298.35626Q442.4389 297.9969 441.86078 297.9969Q441.40765 297.9969 441.03265 298.23126Q440.65765 298.46564 440.48578 298.91876Q440.3139 299.3719 440.3139 300.21564L440.3139 303.45L439.26703 303.45ZM453.9389 303.45L452.89203 303.45L452.89203 296.73126Q452.5014 297.09064 451.8764 297.46564Q451.26703 297.825 450.78265 297.9969L450.78265 296.98126Q451.65765 296.5594 452.3139 295.98126Q452.98578 295.3875 453.26703 294.825L453.9389 294.825L453.9389 303.45ZM463.9389 303.45L462.89203 303.45L462.89203 296.73126Q462.5014 297.09064 461.8764 297.46564Q461.26703 297.825 460.78265 297.9969L460.78265 296.98126Q461.65765 296.5594 462.3139 295.98126Q462.98578 295.3875 463.26703 294.825L463.9389 294.825L463.9389 303.45ZM466.97015 299.21564Q466.97015 297.6844 467.28265 296.7625Q467.59515 295.825 468.20453 295.325Q468.82953 294.825 469.76703 294.825Q470.45453 294.825 470.97015 295.10626Q471.5014 295.3875 471.84515 295.91876Q472.1889 296.4344 472.3764 297.1844Q472.5639 297.9344 472.5639 299.21564Q472.5639 300.73126 472.2514 301.65314Q471.95453 302.575 471.32953 303.09064Q470.72015 303.59064 469.76703 303.59064Q468.53265 303.59064 467.8139 302.7Q466.97015 301.6375 466.97015 299.21564ZM468.04828 299.21564Q468.04828 301.325 468.54828 302.02814Q469.04828 302.73126 469.76703 302.73126Q470.5014 302.73126 470.98578 302.02814Q471.48578 301.325 471.48578 299.21564Q471.48578 297.09064 470.98578 296.40314Q470.5014 295.7 469.7514 295.7Q469.03265 295.7 468.59515 296.3094Q468.04828 297.09064 468.04828 299.21564ZM481.32953 301.16876L482.36078 301.3094Q482.1889 302.3719 481.48578 302.98126Q480.78265 303.59064 479.76703 303.59064Q478.48578 303.59064 477.70453 302.7625Q476.9389 301.91876 476.9389 300.35626Q476.9389 299.35626 477.26703 298.60626Q477.61078 297.84064 478.28265 297.46564Q478.97015 297.09064 479.78265 297.09064Q480.78265 297.09064 481.42328 297.60626Q482.07953 298.10626 482.26703 299.0594L481.23578 299.21564Q481.09515 298.59064 480.72015 298.27814Q480.34515 297.95 479.8139 297.95Q479.01703 297.95 478.51703 298.52814Q478.01703 299.09064 478.01703 300.325Q478.01703 301.59064 478.5014 302.15314Q478.98578 302.71564 479.7514 302.71564Q480.3764 302.71564 480.78265 302.34064Q481.20453 301.96564 481.32953 301.16876ZM482.8764 300.34064Q482.8764 298.60626 483.82953 297.77814Q484.6264 297.09064 485.78265 297.09064Q487.0639 297.09064 487.8764 297.9344Q488.70453 298.7625 488.70453 300.2469Q488.70453 301.45 488.34515 302.1375Q487.98578 302.825 487.28265 303.21564Q486.59515 303.59064 485.78265 303.59064Q484.48578 303.59064 483.67328 302.7625Q482.8764 301.91876 482.8764 300.34064ZM483.95453 300.34064Q483.95453 301.52814 484.47015 302.1219Q485.0014 302.71564 485.78265 302.71564Q486.57953 302.71564 487.09515 302.1219Q487.61078 301.52814 487.61078 300.3094Q487.61078 299.15314 487.07953 298.5594Q486.5639 297.96564 485.78265 297.96564Q485.0014 297.96564 484.47015 298.5594Q483.95453 299.1375 483.95453 300.34064ZM490.2514 303.45L490.2514 297.23126L491.20453 297.23126L491.20453 298.16876Q491.5639 297.5125 491.86078 297.3094Q492.17328 297.09064 492.54828 297.09064Q493.07953 297.09064 493.6264 297.41876L493.26703 298.40314Q492.8764 298.16876 492.5014 298.16876Q492.14203 298.16876 491.86078 298.3875Q491.59515 298.59064 491.48578 298.96564Q491.29828 299.52814 491.29828 300.1844L491.29828 303.45L490.2514 303.45ZM498.51703 301.45L499.61078 301.575Q499.36078 302.52814 498.65765 303.0594Q497.95453 303.59064 496.8764 303.59064Q495.51703 303.59064 494.70453 302.7469Q493.90765 301.90314 493.90765 300.3875Q493.90765 298.825 494.72015 297.96564Q495.53265 297.09064 496.8139 297.09064Q498.0639 297.09064 498.84515 297.9344Q499.64203 298.77814 499.64203 300.325Q499.64203 300.41876 499.64203 300.60626L495.0014 300.60626Q495.0639 301.6375 495.57953 302.1844Q496.09515 302.71564 496.8764 302.71564Q497.45453 302.71564 497.86078 302.41876Q498.28265 302.10626 498.51703 301.45ZM495.0639 299.7469L498.53265 299.7469Q498.47015 298.95 498.14203 298.5594Q497.6264 297.95 496.82953 297.95Q496.09515 297.95 495.59515 298.4344Q495.11078 298.91876 495.0639 299.7469ZM500.84515 301.59064L501.8764 301.4344Q501.97015 302.0594 502.36078 302.3875Q502.76703 302.71564 503.5014 302.71564Q504.22015 302.71564 504.5639 302.4344Q504.92328 302.1375 504.92328 301.73126Q504.92328 301.3719 504.61078 301.16876Q504.39203 301.02814 503.53265 300.8094Q502.3764 300.5125 501.92328 300.3094Q501.48578 300.09064 501.2514 299.71564Q501.01703 299.34064 501.01703 298.8719Q501.01703 298.46564 501.20453 298.10626Q501.39203 297.7469 501.72015 297.5125Q501.97015 297.34064 502.39203 297.21564Q502.8139 297.09064 503.3139 297.09064Q504.03265 297.09064 504.57953 297.3094Q505.14203 297.5125 505.40765 297.8719Q505.67328 298.23126 505.76703 298.825L504.73578 298.96564Q504.67328 298.4969 504.32953 298.23126Q504.0014 297.95 503.3764 297.95Q502.65765 297.95 502.34515 298.2Q502.03265 298.4344 502.03265 298.7625Q502.03265 298.96564 502.15765 299.1219Q502.29828 299.29376 502.5639 299.40314Q502.72015 299.46564 503.5014 299.66876Q504.6264 299.98126 505.0639 300.16876Q505.5014 300.35626 505.7514 300.71564Q506.0014 301.075 506.0014 301.6219Q506.0014 302.15314 505.6889 302.6219Q505.39203 303.075 504.8139 303.34064Q504.23578 303.59064 503.5014 303.59064Q502.28265 303.59064 501.64203 303.09064Q501.01703 302.575 500.84515 301.59064ZM510.97015 301.1844L512.03265 301.04376Q512.2045 301.9344 512.642 302.34064Q513.0795 302.73126 513.7045 302.73126Q514.4545 302.73126 514.97015 302.21564Q515.4858 301.7 515.4858 300.9344Q515.4858 300.21564 515.0014 299.7469Q514.53265 299.2625 513.7983 299.2625Q513.5014 299.2625 513.0483 299.3875L513.1733 298.45Q513.28265 298.46564 513.34515 298.46564Q514.017 298.46564 514.5483 298.1219Q515.09515 297.7625 515.09515 297.02814Q515.09515 296.45 514.7045 296.075Q514.3139 295.6844 513.6889 295.6844Q513.0795 295.6844 512.65765 296.075Q512.2514 296.46564 512.142 297.23126L511.07953 297.04376Q511.26703 295.9969 511.95453 295.41876Q512.642 294.825 513.65765 294.825Q514.3608 294.825 514.9545 295.1375Q515.5483 295.4344 515.8608 295.95Q516.1733 296.46564 516.1733 297.0594Q516.1733 297.60626 515.8764 298.075Q515.5795 298.52814 515.0014 298.79376Q515.7514 298.96564 516.1733 299.52814Q516.59515 300.075 516.59515 300.91876Q516.59515 302.04376 515.767 302.825Q514.9545 303.60626 513.7045 303.60626Q512.5795 303.60626 511.82953 302.9344Q511.07953 302.2469 510.97015 301.1844ZM523.517 302.4344L523.517 303.45L517.8295 303.45Q517.8295 303.075 517.9545 302.71564Q518.1733 302.1375 518.642 301.575Q519.1264 301.0125 520.03265 300.27814Q521.4389 299.1219 521.9233 298.45Q522.4233 297.77814 522.4233 297.1844Q522.4233 296.5594 521.97015 296.1375Q521.517 295.7 520.7983 295.7Q520.03265 295.7 519.5795 296.15314Q519.1264 296.60626 519.1108 297.41876L518.03265 297.3094Q518.142 296.09064 518.8608 295.46564Q519.59515 294.825 520.8295 294.825Q522.0639 294.825 522.78265 295.5125Q523.5014 296.2 523.5014 297.21564Q523.5014 297.73126 523.28265 298.23126Q523.0795 298.71564 522.5795 299.27814Q522.09515 299.825 520.97015 300.77814Q520.017 301.575 519.7358 301.8719Q519.47015 302.15314 519.2983 302.4344L523.517 302.4344ZM529.4233 300.075L529.4233 299.075L533.0483 299.0594L533.0483 302.2469Q532.22015 302.91876 531.3295 303.2625Q530.4389 303.59064 529.5014 303.59064Q528.2358 303.59064 527.1889 303.0594Q526.15765 302.5125 525.6264 301.4969Q525.1108 300.46564 525.1108 299.2Q525.1108 297.9344 525.6264 296.85626Q526.15765 295.7625 527.142 295.2469Q528.1264 294.71564 529.40765 294.71564Q530.34515 294.71564 531.09515 295.0125Q531.84515 295.3094 532.267 295.85626Q532.7045 296.3875 532.9233 297.2625L531.90765 297.54376Q531.7045 296.8875 531.40765 296.5125Q531.1264 296.1375 530.59515 295.91876Q530.0639 295.6844 529.4233 295.6844Q528.642 295.6844 528.0639 295.91876Q527.5014 296.15314 527.142 296.54376Q526.7983 296.9344 526.6108 297.40314Q526.28265 298.2 526.28265 299.1219Q526.28265 300.27814 526.6733 301.0594Q527.0795 301.825 527.8295 302.2Q528.5795 302.575 529.4389 302.575Q530.1733 302.575 530.8764 302.29376Q531.5795 301.9969 531.9389 301.6844L531.9389 300.075L529.4233 300.075Z" fill-rule="nonzero"/><path fill="#4285f4" d="M230.5 56.916668C230.5 56.364384 230.94771 55.916668 231.5 55.916668L241.5 55.916668C242.05229 55.916668 242.5 56.364384 242.5 56.916668L242.5 66.916664C242.5 67.46895 242.05229 67.916664 241.5 67.916664L231.5 67.916664C230.94771 67.916664 230.5 67.46895 230.5 66.916664Z" fill-rule="nonzero"/><path fill="#1a1a1a" d="M251.42188 65.916664L251.42188 57.322914L254.67188 57.322914Q255.51562 57.322914 255.96875 57.40104Q256.60938 57.510414 257.03125 57.80729Q257.46875 58.104164 257.71875 58.635414Q257.98438 59.166664 257.98438 59.80729Q257.98438 60.90104 257.28125 61.666664Q256.59375 62.416664 254.76562 62.416664L252.5625 62.416664L252.5625 65.916664L251.42188 65.916664ZM252.5625 61.416664L254.78125 61.416664Q255.89062 61.416664 256.34375 61.010414Q256.8125 60.58854 256.8125 59.83854Q256.8125 59.30729 256.53125 58.93229Q256.26562 58.541664 255.82812 58.416664Q255.53125 58.33854 254.76562 58.33854L252.5625 58.33854L252.5625 61.416664ZM263.45312 62.541664L263.45312 61.541664L267.07812 61.52604L267.07812 64.71354Q266.25 65.385414 265.35938 65.729164Q264.46875 66.05729 263.53125 66.05729Q262.26562 66.05729 261.21875 65.52604Q260.1875 64.979164 259.65625 63.96354Q259.14062 62.93229 259.14062 61.666664Q259.14062 60.40104 259.65625 59.322914Q260.1875 58.229164 261.17188 57.71354Q262.15625 57.18229 263.4375 57.18229Q264.375 57.18229 265.125 57.479164Q265.875 57.77604 266.29688 58.322914Q266.73438 58.854164 266.95312 59.729164L265.9375 60.010414Q265.73438 59.354164 265.4375 58.979164Q265.15625 58.604164 264.625 58.385414Q264.09375 58.15104 263.45312 58.15104Q262.67188 58.15104 262.09375 58.385414Q261.53125 58.61979 261.17188 59.010414Q260.82812 59.40104 260.64062 59.86979Q260.3125 60.666664 260.3125 61.58854Q260.3125 62.74479 260.70312 63.52604Q261.10938 64.291664 261.85938 64.666664Q262.60938 65.041664 263.46875 65.041664Q264.20312 65.041664 264.90625 64.760414Q265.60938 64.46354 265.96875 64.15104L265.96875 62.541664L263.45312 62.541664ZM273.54688 64.90104L273.54688 65.916664L267.85938 65.916664Q267.85938 65.541664 267.98438 65.18229Q268.20312 64.604164 268.67188 64.041664Q269.15625 63.479164 270.0625 62.74479Q271.46875 61.58854 271.95312 60.916664Q272.45312 60.24479 272.45312 59.65104Q272.45312 59.02604 272.0 58.604164Q271.54688 58.166664 270.82812 58.166664Q270.0625 58.166664 269.60938 58.61979Q269.15625 59.072914 269.14062 59.885414L268.0625 59.77604Q268.17188 58.55729 268.89062 57.93229Q269.625 57.291664 270.85938 57.291664Q272.09375 57.291664 272.8125 57.979164Q273.53125 58.666664 273.53125 59.68229Q273.53125 60.197914 273.3125 60.697914Q273.10938 61.18229 272.60938 61.74479Q272.125 62.291664 271.0 63.24479Q270.04688 64.041664 269.76562 64.33854Q269.5 64.61979 269.32812 64.90104L273.54688 64.90104Z" fill-rule="nonzero"/><path fill="#ea4335" d="M290.5 56.916668C290.5 56.364384 290.94772 55.916668 291.5 55.916668L301.5 55.916668C302.05228 55.916668 302.5 56.364384 302.5 56.916668L302.5 66.916664C302.5 67.46895 302.05228 67.916664 301.5 67.916664L291.5 67.916664C290.94772 67.916664 290.5 67.46895 290.5 66.916664Z" fill-rule="nonzero"/><path fill="#1a1a1a" d="M310.84375 63.479164L311.875 63.33854Q311.90625 64.322914 312.23438 64.68229Q312.5625 65.041664 313.15625 65.041664Q313.57812 65.041664 313.89062 64.854164Q314.20312 64.65104 314.3125 64.322914Q314.4375 63.979164 314.4375 63.24479L314.4375 57.322914L315.5625 57.322914L315.5625 63.18229Q315.5625 64.260414 315.29688 64.854164Q315.04688 65.447914 314.48438 65.760414Q313.92188 66.05729 313.15625 66.05729Q312.03125 66.05729 311.42188 65.416664Q310.82812 64.760414 310.84375 63.479164ZM317.42188 65.916664L317.42188 57.322914L320.39062 57.322914Q321.39062 57.322914 321.92188 57.447914Q322.65625 57.61979 323.17188 58.05729Q323.85938 58.635414 324.1875 59.541664Q324.53125 60.43229 324.53125 61.572914Q324.53125 62.55729 324.29688 63.30729Q324.07812 64.05729 323.71875 64.55729Q323.35938 65.05729 322.92188 65.33854Q322.5 65.61979 321.90625 65.77604Q321.3125 65.916664 320.53125 65.916664L317.42188 65.916664ZM318.5625 64.90104L320.39062 64.90104Q321.25 64.90104 321.73438 64.74479Q322.21875 64.58854 322.5 64.291664Q322.90625 63.90104 323.125 63.21354Q323.35938 62.52604 323.35938 61.55729Q323.35938 60.21354 322.90625 59.49479Q322.46875 58.760414 321.84375 58.510414Q321.375 58.33854 320.375 58.33854L318.5625 58.33854L318.5625 64.90104ZM326.375 65.916664L326.375 57.322914L329.60938 57.322914Q330.59375 57.322914 331.1875 57.58854Q331.78125 57.854164 332.10938 58.40104Q332.45312 58.93229 332.45312 59.52604Q332.45312 60.072914 332.15625 60.55729Q331.85938 61.041664 331.25 61.33854Q332.03125 61.572914 332.4375 62.135414Q332.85938 62.68229 332.85938 63.43229Q332.85938 64.02604 332.60938 64.55729Q332.35938 65.072914 331.98438 65.354164Q331.60938 65.635414 331.03125 65.77604Q330.46875 65.916664 329.65625 65.916664L326.375 65.916664ZM327.51562 60.93229L329.375 60.93229Q330.125 60.93229 330.45312 60.83854Q330.89062 60.71354 331.10938 60.416664Q331.32812 60.104164 331.32812 59.65104Q331.32812 59.229164 331.125 58.90104Q330.92188 58.572914 330.53125 58.46354Q330.15625 58.33854 329.23438 58.33854L327.51562 58.33854L327.51562 60.93229ZM327.51562 64.90104L329.65625 64.90104Q330.20312 64.90104 330.42188 64.854164Q330.82812 64.791664 331.07812 64.635414Q331.34375 64.46354 331.51562 64.15104Q331.6875 63.83854 331.6875 63.43229Q331.6875 62.947914 331.4375 62.58854Q331.20312 62.229164 330.76562 62.08854Q330.32812 61.947914 329.5 61.947914L327.51562 61.947914L327.51562 64.90104ZM340.5625 62.90104L341.6875 63.197914Q341.32812 64.58854 340.40625 65.322914Q339.48438 66.05729 338.14062 66.05729Q336.75 66.05729 335.875 65.49479Q335.0 64.93229 334.54688 63.86979Q334.09375 62.791664 334.09375 61.55729Q334.09375 60.21354 334.60938 59.21354Q335.125 58.21354 336.0625 57.697914Q337.01562 57.18229 338.15625 57.18229Q339.4375 57.18229 340.3125 57.83854Q341.20312 58.49479 341.54688 59.68229L340.42188 59.947914Q340.125 59.010414 339.54688 58.58854Q338.98438 58.15104 338.125 58.15104Q337.14062 58.15104 336.46875 58.635414Q335.8125 59.104164 335.53125 59.90104Q335.26562 60.697914 335.26562 61.55729Q335.26562 62.65104 335.57812 63.46354Q335.90625 64.27604 336.57812 64.68229Q337.25 65.08854 338.04688 65.08854Q339.0 65.08854 339.65625 64.541664Q340.32812 63.99479 340.5625 62.90104ZM343.59375 65.916664L343.59375 64.71354L344.79688 64.71354L344.79688 65.916664L343.59375 65.916664ZM346.42188 65.916664L346.42188 57.322914L347.57812 57.322914L352.09375 64.072914L352.09375 57.322914L353.1875 57.322914L353.1875 65.916664L352.01562 65.916664L347.5 59.166664L347.5 65.916664L346.42188 65.916664ZM359.54688 63.916664L360.64062 64.041664Q360.39062 64.99479 359.6875 65.52604Q358.98438 66.05729 357.90625 66.05729Q356.54688 66.05729 355.73438 65.21354Q354.9375 64.36979 354.9375 62.854164Q354.9375 61.291664 355.75 60.43229Q356.5625 59.55729 357.84375 59.55729Q359.09375 59.55729 359.875 60.40104Q360.67188 61.24479 360.67188 62.791664Q360.67188 62.885414 360.67188 63.072914L356.03125 63.072914Q356.09375 64.104164 356.60938 64.65104Q357.125 65.18229 357.90625 65.18229Q358.48438 65.18229 358.89062 64.885414Q359.3125 64.572914 359.54688 63.916664ZM356.09375 62.21354L359.5625 62.21354Q359.5 61.416664 359.17188 61.02604Q358.65625 60.416664 357.85938 60.416664Q357.125 60.416664 356.625 60.90104Q356.14062 61.385414 356.09375 62.21354ZM361.59375 65.916664L363.85938 62.68229L361.76562 59.697914L363.07812 59.697914L364.03125 61.15104Q364.29688 61.572914 364.46875 61.854164Q364.71875 61.46354 364.9375 61.166664L365.98438 59.697914L367.25 59.697914L365.09375 62.61979L367.40625 65.916664L366.125 65.916664L364.84375 63.979164L364.5 63.46354L362.85938 65.916664L361.59375 65.916664ZM369.59375 64.979164L369.75 65.90104Q369.29688 65.99479 368.95312 65.99479Q368.375 65.99479 368.0625 65.822914Q367.75 65.635414 367.60938 65.33854Q367.48438 65.041664 367.48438 64.08854L367.48438 60.510414L366.71875 60.510414L366.71875 59.697914L367.48438 59.697914L367.48438 58.15104L368.53125 57.52604L368.53125 59.697914L369.59375 59.697914L369.59375 60.510414L368.53125 60.510414L368.53125 64.15104Q368.53125 64.604164 368.57812 64.729164Q368.64062 64.854164 368.76562 64.93229Q368.89062 65.010414 369.125 65.010414Q369.3125 65.010414 369.59375 64.979164Z" fill-rule="nonzero"/><path fill="#757575" d="M20.409374 37.55L20.409374 23.2375L22.315624 23.2375L22.315624 37.55L20.409374 37.55ZM25.8625 37.55L25.8625 27.175L27.45625 27.175L27.45625 28.659374Q28.596874 26.940624 30.753124 26.940624Q31.690624 26.940624 32.471874 27.284374Q33.26875 27.6125 33.659374 28.159374Q34.05 28.70625 34.20625 29.45625Q34.3 29.95625 34.3 31.175L34.3 37.55L32.534374 37.55L32.534374 31.2375Q32.534374 30.159374 32.33125 29.628124Q32.128124 29.096874 31.596874 28.784374Q31.08125 28.471874 30.378124 28.471874Q29.253124 28.471874 28.440624 29.190624Q27.628124 29.89375 27.628124 31.878124L27.628124 37.55L25.8625 37.55ZM35.159374 34.45625L36.909374 34.175Q37.05 35.221874 37.721874 35.784374Q38.39375 36.33125 39.596874 36.33125Q40.8 36.33125 41.378124 35.846874Q41.971874 35.346874 41.971874 34.690624Q41.971874 34.096874 41.45625 33.753124Q41.096874 33.51875 39.659374 33.159374Q37.721874 32.659374 36.971874 32.315624Q36.2375 31.95625 35.846874 31.33125Q35.45625 30.690624 35.45625 29.925Q35.45625 29.2375 35.76875 28.64375Q36.096874 28.05 36.64375 27.659374Q37.05 27.3625 37.753124 27.159374Q38.471874 26.940624 39.284374 26.940624Q40.503124 26.940624 41.425 27.3Q42.346874 27.64375 42.784374 28.253124Q43.221874 28.846874 43.39375 29.846874L41.675 30.08125Q41.55 29.284374 40.9875 28.846874Q40.425 28.39375 39.409374 28.39375Q38.190624 28.39375 37.675 28.8Q37.159374 29.190624 37.159374 29.721874Q37.159374 30.065624 37.378124 30.346874Q37.58125 30.628124 38.05 30.815624Q38.315624 30.909374 39.596874 31.253124Q41.471874 31.753124 42.20625 32.08125Q42.940624 32.39375 43.3625 33.003124Q43.784374 33.596874 43.784374 34.503124Q43.784374 35.378124 43.26875 36.159374Q42.753124 36.940624 41.784374 37.3625Q40.815624 37.784374 39.596874 37.784374Q37.58125 37.784374 36.51875 36.940624Q35.45625 36.096874 35.159374 34.45625ZM52.971874 34.20625L54.784374 34.440624Q54.3625 36.01875 53.190624 36.909374Q52.034374 37.784374 50.221874 37.784374Q47.95625 37.784374 46.6125 36.39375Q45.284374 34.9875 45.284374 32.45625Q45.284374 29.83125 46.628124 28.39375Q47.971874 26.940624 50.128124 26.940624Q52.20625 26.940624 53.51875 28.3625Q54.846874 29.76875 54.846874 32.346874Q54.846874 32.503124 54.83125 32.815624L47.096874 32.815624Q47.190624 34.51875 48.065624 35.425Q48.940624 36.33125 50.2375 36.33125Q51.20625 36.33125 51.878124 35.83125Q52.565624 35.315624 52.971874 34.20625ZM47.190624 31.3625L52.9875 31.3625Q52.878124 30.065624 52.33125 29.409374Q51.4875 28.39375 50.14375 28.39375Q48.940624 28.39375 48.1125 29.20625Q47.284374 30.003124 47.190624 31.3625ZM56.846874 37.55L56.846874 27.175L58.425 27.175L58.425 28.753124Q59.034374 27.64375 59.55 27.3Q60.065624 26.940624 60.675 26.940624Q61.565624 26.940624 62.4875 27.503124L61.878124 29.14375Q61.2375 28.753124 60.596874 28.753124Q60.01875 28.753124 59.55 29.1125Q59.096874 29.45625 58.89375 30.065624Q58.6125 31.003124 58.6125 32.1125L58.6125 37.55L56.846874 37.55ZM67.70625 35.971874L67.95625 37.534374Q67.22188 37.690624 66.62813 37.690624Q65.675 37.690624 65.14375 37.39375Q64.62813 37.08125 64.40938 36.596874Q64.19063 36.096874 64.19063 34.51875L64.19063 28.55L62.909374 28.55L62.909374 27.175L64.19063 27.175L64.19063 24.6125L65.94063 23.55L65.94063 27.175L67.70625 27.175L67.70625 28.55L65.94063 28.55L65.94063 34.6125Q65.94063 35.3625 66.03438 35.58125Q66.12813 35.784374 66.33125 35.925Q66.55 36.05 66.94063 36.05Q67.22188 36.05 67.70625 35.971874ZM69.87813 25.253124L69.87813 23.2375L71.64375 23.2375L71.64375 25.253124L69.87813 25.253124ZM69.87813 37.55L69.87813 27.175L71.64375 27.175L71.64375 37.55L69.87813 37.55ZM73.8625 37.55L73.8625 27.175L75.45625 27.175L75.45625 28.659374Q76.59688 26.940624 78.75313 26.940624Q79.69063 26.940624 80.47188 27.284374Q81.26875 27.6125 81.65938 28.159374Q82.05 28.70625 82.20625 29.45625Q82.3 29.95625 82.3 31.175L82.3 37.55L80.53438 37.55L80.53438 31.2375Q80.53438 30.159374 80.33125 29.628124Q80.12813 29.096874 79.59688 28.784374Q79.08125 28.471874 78.37813 28.471874Q77.25313 28.471874 76.44063 29.190624Q75.62813 29.89375 75.62813 31.878124L75.62813 37.55L73.8625 37.55ZM83.55 38.409374L85.25313 38.659374Q85.3625 39.45625 85.84688 39.815624Q86.50313 40.3 87.64375 40.3Q88.8625 40.3 89.51875 39.815624Q90.19063 39.33125 90.425 38.45625Q90.56563 37.909374 90.55 36.190624Q89.39375 37.55 87.675 37.55Q85.53438 37.55 84.3625 36.003124Q83.19063 34.45625 83.19063 32.3Q83.19063 30.815624 83.72188 29.565624Q84.26875 28.315624 85.28438 27.628124Q86.31563 26.940624 87.69063 26.940624Q89.51875 26.940624 90.72188 28.425L90.72188 27.175L92.33125 27.175L92.33125 36.14375Q92.33125 38.565624 91.83125 39.565624Q91.34688 40.58125 90.26875 41.159374Q89.20625 41.753124 87.64375 41.753124Q85.8 41.753124 84.64375 40.925Q83.50313 40.096874 83.55 38.409374ZM85.00313 32.175Q85.00313 34.221874 85.81563 35.159374Q86.62813 36.096874 87.84688 36.096874Q89.05 36.096874 89.8625 35.159374Q90.69063 34.221874 90.69063 32.2375Q90.69063 30.33125 89.84688 29.3625Q89.00313 28.39375 87.81563 28.39375Q86.64375 28.39375 85.81563 29.346874Q85.00313 30.3 85.00313 32.175ZM107.64375 36.26875Q106.65938 37.096874 105.75313 37.440624Q104.84688 37.784374 103.81563 37.784374Q102.1125 37.784374 101.19063 36.95625Q100.26875 36.1125 100.26875 34.815624Q100.26875 34.05 100.6125 33.425Q100.97188 32.8 101.53438 32.425Q102.09688 32.034374 102.8 31.83125Q103.31563 31.70625 104.3625 31.565624Q106.4875 31.315624 107.4875 30.971874Q107.50313 30.6125 107.50313 30.503124Q107.50313 29.440624 107.00313 28.9875Q106.33125 28.39375 105.00313 28.39375Q103.75313 28.39375 103.15938 28.83125Q102.58125 29.26875 102.3 30.378124L100.58125 30.14375Q100.81563 29.034374 101.34688 28.3625Q101.87813 27.675 102.89375 27.315624Q103.90938 26.940624 105.25313 26.940624Q106.58125 26.940624 107.40938 27.253124Q108.2375 27.565624 108.62813 28.05Q109.01875 28.51875 109.175 29.2375Q109.26875 29.690624 109.26875 30.8625L109.26875 33.20625Q109.26875 35.659374 109.37813 36.315624Q109.4875 36.95625 109.83125 37.55L107.9875 37.55Q107.72188 37.003124 107.64375 36.26875ZM107.4875 32.346874Q106.53438 32.7375 104.6125 33.003124Q103.53438 33.159374 103.08125 33.3625Q102.64375 33.55 102.39375 33.925Q102.14375 34.3 102.14375 34.76875Q102.14375 35.471874 102.675 35.940624Q103.20625 36.409374 104.2375 36.409374Q105.25313 36.409374 106.03438 35.971874Q106.83125 35.51875 107.20625 34.753124Q107.4875 34.14375 107.4875 32.9875L107.4875 32.346874ZM117.84688 37.55L117.84688 27.175L119.425 27.175L119.425 28.753124Q120.03438 27.64375 120.55 27.3Q121.06563 26.940624 121.675 26.940624Q122.56563 26.940624 123.4875 27.503124L122.87813 29.14375Q122.2375 28.753124 121.59688 28.753124Q121.01875 28.753124 120.55 29.1125Q120.09688 29.45625 119.89375 30.065624Q119.6125 31.003124 119.6125 32.1125L119.6125 37.55L117.84688 37.55ZM124.22188 32.3625Q124.22188 29.4875 125.81563 28.096874Q127.15938 26.940624 129.08125 26.940624Q131.22188 26.940624 132.56563 28.346874Q133.925 29.753124 133.925 32.221874Q133.925 34.221874 133.33125 35.378124Q132.7375 36.51875 131.58125 37.159374Q130.44063 37.784374 129.08125 37.784374Q126.89375 37.784374 125.55 36.39375Q124.22188 34.9875 124.22188 32.3625ZM126.01875 32.3625Q126.01875 34.3625 126.87813 35.346874Q127.75313 36.33125 129.08125 36.33125Q130.39375 36.33125 131.25313 35.346874Q132.12813 34.346874 132.12813 32.3Q132.12813 30.378124 131.25313 29.39375Q130.37813 28.39375 129.08125 28.39375Q127.75313 28.39375 126.87813 29.39375Q126.01875 30.378124 126.01875 32.3625ZM137.78438 37.55L134.6125 27.175L136.425 27.175L138.08125 33.159374L138.69063 35.39375Q138.7375 35.221874 139.22188 33.253124L140.87813 27.175L142.69063 27.175L144.2375 33.190624L144.75313 35.175L145.34688 33.175L147.12813 27.175L148.83125 27.175L145.59688 37.55L143.76875 37.55L142.1125 31.33125L141.72188 29.565624L139.6125 37.55L137.78438 37.55ZM158.78438 37.55L155.6125 27.175L157.425 27.175L159.08125 33.159374L159.69063 35.39375Q159.7375 35.221874 160.22188 33.253124L161.87813 27.175L163.69063 27.175L165.2375 33.190624L165.75313 35.175L166.34688 33.175L168.12813 27.175L169.83125 27.175L166.59688 37.55L164.76875 37.55L163.1125 31.33125L162.72188 29.565624L160.6125 37.55L158.78438 37.55ZM171.87813 25.253124L171.87813 23.2375L173.64375 23.2375L173.64375 25.253124L171.87813 25.253124ZM171.87813 37.55L171.87813 27.175L173.64375 27.175L173.64375 37.55L171.87813 37.55ZM179.70625 35.971874L179.95625 37.534374Q179.22188 37.690624 178.62813 37.690624Q177.675 37.690624 177.14375 37.39375Q176.62813 37.08125 176.40938 36.596874Q176.19063 36.096874 176.19063 34.51875L176.19063 28.55L174.90938 28.55L174.90938 27.175L176.19063 27.175L176.19063 24.6125L177.94063 23.55L177.94063 27.175L179.70625 27.175L179.70625 28.55L177.94063 28.55L177.94063 34.6125Q177.94063 35.3625 178.03438 35.58125Q178.12813 35.784374 178.33125 35.925Q178.55 36.05 178.94063 36.05Q179.22188 36.05 179.70625 35.971874ZM181.8625 37.55L181.8625 23.2375L183.62813 23.2375L183.62813 28.3625Q184.8625 26.940624 186.7375 26.940624Q187.87813 26.940624 188.72188 27.39375Q189.58125 27.846874 189.94063 28.659374Q190.31563 29.45625 190.31563 30.971874L190.31563 37.55L188.56563 37.55L188.56563 30.971874Q188.56563 29.659374 187.9875 29.065624Q187.40938 28.45625 186.37813 28.45625Q185.59688 28.45625 184.89375 28.8625Q184.20625 29.26875 183.90938 29.971874Q183.62813 30.659374 183.62813 31.878124L183.62813 37.55L181.8625 37.55ZM197.8625 37.55L197.8625 27.175L199.45625 27.175L199.45625 28.659374Q200.59688 26.940624 202.75313 26.940624Q203.69063 26.940624 204.47188 27.284374Q205.26875 27.6125 205.65938 28.159374Q206.05 28.70625 206.20625 29.45625Q206.3 29.95625 206.3 31.175L206.3 37.55L204.53438 37.55L204.53438 31.2375Q204.53438 30.159374 204.33125 29.628124Q204.12813 29.096874 203.59688 28.784374Q203.08125 28.471874 202.37813 28.471874Q201.25313 28.471874 200.44063 29.190624Q199.62813 29.89375 199.62813 31.878124L199.62813 37.55L197.8625 37.55ZM207.22188 32.3625Q207.22188 29.4875 208.81563 28.096874Q210.15938 26.940624 212.08125 26.940624Q214.22188 26.940624 215.56563 28.346874Q216.925 29.753124 216.925 32.221874Q216.925 34.221874 216.33125 35.378124Q215.7375 36.51875 214.58125 37.159374Q213.44063 37.784374 212.08125 37.784374Q209.89375 37.784374 208.55 36.39375Q207.22188 34.9875 207.22188 32.3625ZM209.01875 32.3625Q209.01875 34.3625 209.87813 35.346874Q210.75313 36.33125 212.08125 36.33125Q213.39375 36.33125 214.25313 35.346874Q215.12813 34.346874 215.12813 32.3Q215.12813 30.378124 214.25313 29.39375Q213.37813 28.39375 212.08125 28.39375Q210.75313 28.39375 209.87813 29.39375Q209.01875 30.378124 209.01875 32.3625ZM228.70625 35.971874L228.95625 37.534374Q228.22188 37.690624 227.62813 37.690624Q226.675 37.690624 226.14375 37.39375Q225.62813 37.08125 225.40938 36.596874Q225.19063 36.096874 225.19063 34.51875L225.19063 28.55L223.90938 28.55L223.90938 27.175L225.19063 27.175L225.19063 24.6125L226.94063 23.55L226.94063 27.175L228.70625 27.175L228.70625 28.55L226.94063 28.55L226.94063 34.6125Q226.94063 35.3625 227.03438 35.58125Q227.12813 35.784374 227.33125 35.925Q227.55 36.05 227.94063 36.05Q228.22188 36.05 228.70625 35.971874ZM230.84688 37.55L230.84688 27.175L232.425 27.175L232.425 28.753124Q233.03438 27.64375 233.55 27.3Q234.06563 26.940624 234.675 26.940624Q235.56563 26.940624 236.4875 27.503124L235.87813 29.14375Q235.2375 28.753124 234.59688 28.753124Q234.01875 28.753124 233.55 29.1125Q233.09688 29.45625 232.89375 30.065624Q232.6125 31.003124 232.6125 32.1125L232.6125 37.55L230.84688 37.55ZM244.64375 36.26875Q243.65938 37.096874 242.75313 37.440624Q241.84688 37.784374 240.81563 37.784374Q239.1125 37.784374 238.19063 36.95625Q237.26875 36.1125 237.26875 34.815624Q237.26875 34.05 237.6125 33.425Q237.97188 32.8 238.53438 32.425Q239.09688 32.034374 239.8 31.83125Q240.31563 31.70625 241.3625 31.565624Q243.4875 31.315624 244.4875 30.971874Q244.50313 30.6125 244.50313 30.503124Q244.50313 29.440624 244.00313 28.9875Q243.33125 28.39375 242.00313 28.39375Q240.75313 28.39375 240.15938 28.83125Q239.58125 29.26875 239.3 30.378124L237.58125 30.14375Q237.81563 29.034374 238.34688 28.3625Q238.87813 27.675 239.89375 27.315624Q240.90938 26.940624 242.25313 26.940624Q243.58125 26.940624 244.40938 27.253124Q245.2375 27.565624 245.62813 28.05Q246.01875 28.51875 246.175 29.2375Q246.26875 29.690624 246.26875 30.8625L246.26875 33.20625Q246.26875 35.659374 246.37813 36.315624Q246.4875 36.95625 246.83125 37.55L244.9875 37.55Q244.72188 37.003124 244.64375 36.26875ZM244.4875 32.346874Q243.53438 32.7375 241.6125 33.003124Q240.53438 33.159374 240.08125 33.3625Q239.64375 33.55 239.39375 33.925Q239.14375 34.3 239.14375 34.76875Q239.14375 35.471874 239.675 35.940624Q240.20625 36.409374 241.2375 36.409374Q242.25313 36.409374 243.03438 35.971874Q243.83125 35.51875 244.20625 34.753124Q244.4875 34.14375 244.4875 32.9875L244.4875 32.346874ZM248.8625 37.55L248.8625 27.175L250.45625 27.175L250.45625 28.659374Q251.59688 26.940624 253.75313 26.940624Q254.69063 26.940624 255.47188 27.284374Q256.26874 27.6125 256.65936 28.159374Q257.05 28.70625 257.20624 29.45625Q257.3 29.95625 257.3 31.175L257.3 37.55L255.53438 37.55L255.53438 31.2375Q255.53438 30.159374 255.33125 29.628124Q255.12813 29.096874 254.59688 28.784374Q254.08125 28.471874 253.37813 28.471874Q252.25313 28.471874 251.44063 29.190624Q250.62813 29.89375 250.62813 31.878124L250.62813 37.55L248.8625 37.55ZM258.15936 34.45625L259.90936 34.175Q260.05 35.221874 260.72186 35.784374Q261.39374 36.33125 262.59686 36.33125Q263.8 36.33125 264.3781 35.846874Q264.97186 35.346874 264.97186 34.690624Q264.97186 34.096874 264.45624 33.753124Q264.09686 33.51875 262.65936 33.159374Q260.72186 32.659374 259.97186 32.315624Q259.2375 31.95625 258.84686 31.33125Q258.45624 30.690624 258.45624 29.925Q258.45624 29.2375 258.76874 28.64375Q259.09686 28.05 259.64374 27.659374Q260.05 27.3625 260.7531 27.159374Q261.47186 26.940624 262.28436 26.940624Q263.5031 26.940624 264.425 27.3Q265.34686 27.64375 265.78436 28.253124Q266.22186 28.846874 266.39374 29.846874L264.675 30.08125Q264.55 29.284374 263.9875 28.846874Q263.425 28.39375 262.40936 28.39375Q261.1906 28.39375 260.675 28.8Q260.15936 29.190624 260.15936 29.721874Q260.15936 30.065624 260.3781 30.346874Q260.58124 30.628124 261.05 30.815624Q261.3156 30.909374 262.59686 31.253124Q264.47186 31.753124 265.20624 32.08125Q265.9406 32.39375 266.3625 33.003124Q266.78436 33.596874 266.78436 34.503124Q266.78436 35.378124 266.26874 36.159374Q265.7531 36.940624 264.78436 37.3625Q263.8156 37.784374 262.59686 37.784374Q260.58124 37.784374 259.51874 36.940624Q258.45624 36.096874 258.15936 34.45625ZM275.64374 36.26875Q274.65936 37.096874 273.7531 37.440624Q272.84686 37.784374 271.8156 37.784374Q270.1125 37.784374 269.1906 36.95625Q268.26874 36.1125 268.26874 34.815624Q268.26874 34.05 268.6125 33.425Q268.97186 32.8 269.53436 32.425Q270.09686 32.034374 270.8 31.83125Q271.3156 31.70625 272.3625 31.565624Q274.4875 31.315624 275.4875 30.971874Q275.5031 30.6125 275.5031 30.503124Q275.5031 29.440624 275.0031 28.9875Q274.33124 28.39375 273.0031 28.39375Q271.7531 28.39375 271.15936 28.83125Q270.58124 29.26875 270.3 30.378124L268.58124 30.14375Q268.8156 29.034374 269.34686 28.3625Q269.8781 27.675 270.89374 27.315624Q271.90936 26.940624 273.2531 26.940624Q274.58124 26.940624 275.40936 27.253124Q276.2375 27.565624 276.6281 28.05Q277.01874 28.51875 277.175 29.2375Q277.26874 29.690624 277.26874 30.8625L277.26874 33.20625Q277.26874 35.659374 277.3781 36.315624Q277.4875 36.95625 277.83124 37.55L275.9875 37.55Q275.72186 37.003124 275.64374 36.26875ZM275.4875 32.346874Q274.53436 32.7375 272.6125 33.003124Q271.53436 33.159374 271.08124 33.3625Q270.64374 33.55 270.39374 33.925Q270.14374 34.3 270.14374 34.76875Q270.14374 35.471874 270.675 35.940624Q271.20624 36.409374 272.2375 36.409374Q273.2531 36.409374 274.03436 35.971874Q274.83124 35.51875 275.20624 34.753124Q275.4875 34.14375 275.4875 32.9875L275.4875 32.346874ZM286.64374 33.753124L288.3625 33.971874Q288.08124 35.76875 286.90936 36.784374Q285.7531 37.784374 284.05 37.784374Q281.925 37.784374 280.6281 36.39375Q279.33124 35.003124 279.33124 32.409374Q279.33124 30.721874 279.8781 29.471874Q280.4406 28.20625 281.58124 27.58125Q282.72186 26.940624 284.0656 26.940624Q285.7531 26.940624 286.8156 27.8Q287.89374 28.659374 288.20624 30.221874L286.4875 30.4875Q286.2531 29.440624 285.6281 28.925Q285.0031 28.39375 284.1281 28.39375Q282.8 28.39375 281.97186 29.346874Q281.14374 30.3 281.14374 32.346874Q281.14374 34.440624 281.9406 35.39375Q282.7375 36.33125 284.03436 36.33125Q285.0656 36.33125 285.7531 35.70625Q286.45624 35.065624 286.64374 33.753124ZM293.70624 35.971874L293.95624 37.534374Q293.22186 37.690624 292.6281 37.690624Q291.675 37.690624 291.14374 37.39375Q290.6281 37.08125 290.40936 36.596874Q290.1906 36.096874 290.1906 34.51875L290.1906 28.55L288.90936 28.55L288.90936 27.175L290.1906 27.175L290.1906 24.6125L291.9406 23.55L291.9406 27.175L293.70624 27.175L293.70624 28.55L291.9406 28.55L291.9406 34.6125Q291.9406 35.3625 292.03436 35.58125Q292.1281 35.784374 292.33124 35.925Q292.55 36.05 292.9406 36.05Q293.22186 36.05 293.70624 35.971874ZM295.8781 25.253124L295.8781 23.2375L297.64374 23.2375L297.64374 25.253124L295.8781 25.253124ZM295.8781 37.55L295.8781 27.175L297.64374 27.175L297.64374 37.55L295.8781 37.55ZM299.22186 32.3625Q299.22186 29.4875 300.8156 28.096874Q302.15936 26.940624 304.08124 26.940624Q306.22186 26.940624 307.5656 28.346874Q308.925 29.753124 308.925 32.221874Q308.925 34.221874 308.33124 35.378124Q307.7375 36.51875 306.58124 37.159374Q305.4406 37.784374 304.08124 37.784374Q301.89374 37.784374 300.55 36.39375Q299.22186 34.9875 299.22186 32.3625ZM301.01874 32.3625Q301.01874 34.3625 301.8781 35.346874Q302.7531 36.33125 304.08124 36.33125Q305.39374 36.33125 306.2531 35.346874Q307.1281 34.346874 307.1281 32.3Q307.1281 30.378124 306.2531 29.39375Q305.3781 28.39375 304.08124 28.39375Q302.7531 28.39375 301.8781 29.39375Q301.01874 30.378124 301.01874 32.3625ZM310.8625 37.55L310.8625 27.175L312.45624 27.175L312.45624 28.659374Q313.59686 26.940624 315.7531 26.940624Q316.6906 26.940624 317.47186 27.284374Q318.26874 27.6125 318.65936 28.159374Q319.05 28.70625 319.20624 29.45625Q319.3 29.95625 319.3 31.175L319.3 37.55L317.53436 37.55L317.53436 31.2375Q317.53436 30.159374 317.33124 29.628124Q317.1281 29.096874 316.59686 28.784374Q316.08124 28.471874 315.3781 28.471874Q314.2531 28.471874 313.4406 29.190624Q312.6281 29.89375 312.6281 31.878124L312.6281 37.55L310.8625 37.55ZM321.33124 37.55L321.33124 35.55L323.33124 35.55L323.33124 37.55Q323.33124 38.659374 322.9406 39.33125Q322.55 40.01875 321.70624 40.378124L321.20624 39.628124Q321.76874 39.39375 322.03436 38.909374Q322.3 38.440624 322.33124 37.55L321.33124 37.55ZM332.8781 25.253124L332.8781 23.2375L334.64374 23.2375L334.64374 25.253124L332.8781 25.253124ZM332.8781 37.55L332.8781 27.175L334.64374 27.175L334.64374 37.55L332.8781 37.55ZM336.8625 37.55L336.8625 27.175L338.45624 27.175L338.45624 28.659374Q339.59686 26.940624 341.7531 26.940624Q342.6906 26.940624 343.47186 27.284374Q344.26874 27.6125 344.65936 28.159374Q345.05 28.70625 345.20624 29.45625Q345.3 29.95625 345.3 31.175L345.3 37.55L343.53436 37.55L343.53436 31.2375Q343.53436 30.159374 343.33124 29.628124Q343.1281 29.096874 342.59686 28.784374Q342.08124 28.471874 341.3781 28.471874Q340.2531 28.471874 339.4406 29.190624Q338.6281 29.89375 338.6281 31.878124L338.6281 37.55L336.8625 37.55ZM361.4875 27.175L361.4875 37.55L359.925 37.55L359.925 36.315624Q359.40936 37.096874 358.90936 37.39375Q358.2375 37.8 357.3156 37.8Q356.51874 37.8 355.89374 37.471874Q355.425 37.221874 354.84686 36.503124L354.84686 41.51875L353.1125 41.51875L353.1125 27.175L354.84686 27.175L354.84686 31.565624Q354.84686 33.971874 355.09686 34.675Q355.3625 35.378124 355.925 35.8Q356.5031 36.20625 357.2375 36.20625Q358.01874 36.20625 358.6281 35.784374Q359.2531 35.346874 359.5031 34.675Q359.76874 33.9875 359.76874 31.596874L359.76874 27.175L361.4875 27.175ZM363.15936 34.45625L364.90936 34.175Q365.05 35.221874 365.72186 35.784374Q366.39374 36.33125 367.59686 36.33125Q368.8 36.33125 369.3781 35.846874Q369.97186 35.346874 369.97186 34.690624Q369.97186 34.096874 369.45624 33.753124Q369.09686 33.51875 367.65936 33.159374Q365.72186 32.659374 364.97186 32.315624Q364.2375 31.95625 363.84686 31.33125Q363.45624 30.690624 363.45624 29.925Q363.45624 29.2375 363.76874 28.64375Q364.09686 28.05 364.64374 27.659374Q365.05 27.3625 365.7531 27.159374Q366.47186 26.940624 367.28436 26.940624Q368.5031 26.940624 369.425 27.3Q370.34686 27.64375 370.78436 28.253124Q371.22186 28.846874 371.39374 29.846874L369.675 30.08125Q369.55 29.284374 368.9875 28.846874Q368.425 28.39375 367.40936 28.39375Q366.1906 28.39375 365.675 28.8Q365.15936 29.190624 365.15936 29.721874Q365.15936 30.065624 365.3781 30.346874Q365.58124 30.628124 366.05 30.815624Q366.3156 30.909374 367.59686 31.253124Q369.47186 31.753124 370.20624 32.08125Q370.9406 32.39375 371.3625 33.003124Q371.78436 33.596874 371.78436 34.503124Q371.78436 35.378124 371.26874 36.159374Q370.7531 36.940624 369.78436 37.3625Q368.8156 37.784374 367.59686 37.784374Q365.58124 37.784374 364.51874 36.940624Q363.45624 36.096874 363.15936 34.45625ZM383.22186 41.753124Q381.76874 39.925 380.76874 37.471874Q379.76874 35.003124 379.76874 32.3625Q379.76874 30.034374 380.51874 27.909374Q381.39374 25.440624 383.22186 22.9875L384.4875 22.9875Q383.3 25.01875 382.925 25.89375Q382.33124 27.2375 381.9875 28.70625Q381.5656 30.534374 381.5656 32.378124Q381.5656 37.065624 384.4875 41.753124L383.22186 41.753124ZM386.83124 37.55L386.83124 23.2375L388.58124 23.2375L388.58124 37.55L386.83124 37.55ZM397.97186 34.20625L399.78436 34.440624Q399.3625 36.01875 398.1906 36.909374Q397.03436 37.784374 395.22186 37.784374Q392.95624 37.784374 391.6125 36.39375Q390.28436 34.9875 390.28436 32.45625Q390.28436 29.83125 391.6281 28.39375Q392.97186 26.940624 395.1281 26.940624Q397.20624 26.940624 398.51874 28.3625Q399.84686 29.76875 399.84686 32.346874Q399.84686 32.503124 399.83124 32.815624L392.09686 32.815624Q392.1906 34.51875 393.0656 35.425Q393.9406 36.33125 395.2375 36.33125Q396.20624 36.33125 396.8781 35.83125Q397.5656 35.315624 397.97186 34.20625ZM392.1906 31.3625L397.9875 31.3625Q397.8781 30.065624 397.33124 29.409374Q396.4875 28.39375 395.14374 28.39375Q393.9406 28.39375 393.1125 29.20625Q392.28436 30.003124 392.1906 31.3625ZM401.15936 34.45625L402.90936 34.175Q403.05 35.221874 403.72186 35.784374Q404.39374 36.33125 405.59686 36.33125Q406.8 36.33125 407.3781 35.846874Q407.97186 35.346874 407.97186 34.690624Q407.97186 34.096874 407.45624 33.753124Q407.09686 33.51875 405.65936 33.159374Q403.72186 32.659374 402.97186 32.315624Q402.2375 31.95625 401.84686 31.33125Q401.45624 30.690624 401.45624 29.925Q401.45624 29.2375 401.76874 28.64375Q402.09686 28.05 402.64374 27.659374Q403.05 27.3625 403.7531 27.159374Q404.47186 26.940624 405.28436 26.940624Q406.5031 26.940624 407.425 27.3Q408.34686 27.64375 408.78436 28.253124Q409.22186 28.846874 409.39374 29.846874L407.675 30.08125Q407.55 29.284374 406.9875 28.846874Q406.425 28.39375 405.40936 28.39375Q404.1906 28.39375 403.675 28.8Q403.15936 29.190624 403.15936 29.721874Q403.15936 30.065624 403.3781 30.346874Q403.58124 30.628124 404.05 30.815624Q404.3156 30.909374 405.59686 31.253124Q407.47186 31.753124 408.20624 32.08125Q408.9406 32.39375 409.3625 33.003124Q409.78436 33.596874 409.78436 34.503124Q409.78436 35.378124 409.26874 36.159374Q408.7531 36.940624 407.78436 37.3625Q406.8156 37.784374 405.59686 37.784374Q403.58124 37.784374 402.51874 36.940624Q401.45624 36.096874 401.15936 34.45625ZM411.15936 34.45625L412.90936 34.175Q413.05 35.221874 413.72186 35.784374Q414.39374 36.33125 415.59686 36.33125Q416.8 36.33125 417.3781 35.846874Q417.97186 35.346874 417.97186 34.690624Q417.97186 34.096874 417.45624 33.753124Q417.09686 33.51875 415.65936 33.159374Q413.72186 32.659374 412.97186 32.315624Q412.2375 31.95625 411.84686 31.33125Q411.45624 30.690624 411.45624 29.925Q411.45624 29.2375 411.76874 28.64375Q412.09686 28.05 412.64374 27.659374Q413.05 27.3625 413.7531 27.159374Q414.47186 26.940624 415.28436 26.940624Q416.5031 26.940624 417.425 27.3Q418.34686 27.64375 418.78436 28.253124Q419.22186 28.846874 419.39374 29.846874L417.675 30.08125Q417.55 29.284374 416.9875 28.846874Q416.425 28.39375 415.40936 28.39375Q414.1906 28.39375 413.675 28.8Q413.15936 29.190624 413.15936 29.721874Q413.15936 30.065624 413.3781 30.346874Q413.58124 30.628124 414.05 30.815624Q414.3156 30.909374 415.59686 31.253124Q417.47186 31.753124 418.20624 32.08125Q418.9406 32.39375 419.3625 33.003124Q419.78436 33.596874 419.78436 34.503124Q419.78436 35.378124 419.26874 36.159374Q418.7531 36.940624 417.78436 37.3625Q416.8156 37.784374 415.59686 37.784374Q413.58124 37.784374 412.51874 36.940624Q411.45624 36.096874 411.15936 34.45625ZM427.8781 25.253124L427.8781 23.2375L429.64374 23.2375L429.64374 25.253124L427.8781 25.253124ZM427.8781 37.55L427.8781 27.175L429.64374 27.175L429.64374 37.55L427.8781 37.55ZM431.15936 34.45625L432.90936 34.175Q433.05 35.221874 433.72186 35.784374Q434.39374 36.33125 435.59686 36.33125Q436.8 36.33125 437.3781 35.846874Q437.97186 35.346874 437.97186 34.690624Q437.97186 34.096874 437.45624 33.753124Q437.09686 33.51875 435.65936 33.159374Q433.72186 32.659374 432.97186 32.315624Q432.2375 31.95625 431.84686 31.33125Q431.45624 30.690624 431.45624 29.925Q431.45624 29.2375 431.76874 28.64375Q432.09686 28.05 432.64374 27.659374Q433.05 27.3625 433.7531 27.159374Q434.47186 26.940624 435.28436 26.940624Q436.5031 26.940624 437.425 27.3Q438.34686 27.64375 438.78436 28.253124Q439.22186 28.846874 439.39374 29.846874L437.675 30.08125Q437.55 29.284374 436.9875 28.846874Q436.425 28.39375 435.40936 28.39375Q434.1906 28.39375 433.675 28.8Q433.15936 29.190624 433.15936 29.721874Q433.15936 30.065624 433.3781 30.346874Q433.58124 30.628124 434.05 30.815624Q434.3156 30.909374 435.59686 31.253124Q437.47186 31.753124 438.20624 32.08125Q438.9406 32.39375 439.3625 33.003124Q439.78436 33.596874 439.78436 34.503124Q439.78436 35.378124 439.26874 36.159374Q438.7531 36.940624 437.78436 37.3625Q436.8156 37.784374 435.59686 37.784374Q433.58124 37.784374 432.51874 36.940624Q431.45624 36.096874 431.15936 34.45625ZM449.4875 37.55L447.8625 37.55L447.8625 23.2375L449.6125 23.2375L449.6125 28.346874Q450.7375 26.940624 452.45624 26.940624Q453.40936 26.940624 454.26874 27.33125Q455.1281 27.721874 455.675 28.425Q456.22186 29.1125 456.53436 30.096874Q456.84686 31.08125 456.84686 32.20625Q456.84686 34.878124 455.53436 36.33125Q454.22186 37.784374 452.3781 37.784374Q450.53436 37.784374 449.4875 36.253124L449.4875 37.55ZM449.47186 32.284374Q449.47186 34.14375 449.97186 34.9875Q450.8156 36.33125 452.22186 36.33125Q453.3781 36.33125 454.20624 35.33125Q455.05 34.33125 455.05 32.346874Q455.05 30.315624 454.2375 29.3625Q453.4406 28.39375 452.3 28.39375Q451.14374 28.39375 450.3 29.39375Q449.47186 30.39375 449.47186 32.284374ZM465.97186 34.20625L467.78436 34.440624Q467.3625 36.01875 466.1906 36.909374Q465.03436 37.784374 463.22186 37.784374Q460.95624 37.784374 459.6125 36.39375Q458.28436 34.9875 458.28436 32.45625Q458.28436 29.83125 459.6281 28.39375Q460.97186 26.940624 463.1281 26.940624Q465.20624 26.940624 466.51874 28.3625Q467.84686 29.76875 467.84686 32.346874Q467.84686 32.503124 467.83124 32.815624L460.09686 32.815624Q460.1906 34.51875 461.0656 35.425Q461.9406 36.33125 463.2375 36.33125Q464.20624 36.33125 464.8781 35.83125Q465.5656 35.315624 465.97186 34.20625ZM460.1906 31.3625L465.9875 31.3625Q465.8781 30.065624 465.33124 29.409374Q464.4875 28.39375 463.14374 28.39375Q461.9406 28.39375 461.1125 29.20625Q460.28436 30.003124 460.1906 31.3625ZM473.70624 35.971874L473.95624 37.534374Q473.22186 37.690624 472.6281 37.690624Q471.675 37.690624 471.14374 37.39375Q470.6281 37.08125 470.40936 36.596874Q470.1906 36.096874 470.1906 34.51875L470.1906 28.55L468.90936 28.55L468.90936 27.175L470.1906 27.175L470.1906 24.6125L471.9406 23.55L471.9406 27.175L473.70624 27.175L473.70624 28.55L471.9406 28.55L471.9406 34.6125Q471.9406 35.3625 472.03436 35.58125Q472.1281 35.784374 472.33124 35.925Q472.55 36.05 472.9406 36.05Q473.22186 36.05 473.70624 35.971874ZM479.70624 35.971874L479.95624 37.534374Q479.22186 37.690624 478.6281 37.690624Q477.675 37.690624 477.14374 37.39375Q476.6281 37.08125 476.40936 36.596874Q476.1906 36.096874 476.1906 34.51875L476.1906 28.55L474.90936 28.55L474.90936 27.175L476.1906 27.175L476.1906 24.6125L477.9406 23.55L477.9406 27.175L479.70624 27.175L479.70624 28.55L477.9406 28.55L477.9406 34.6125Q477.9406 35.3625 478.03436 35.58125Q478.1281 35.784374 478.33124 35.925Q478.55 36.05 478.9406 36.05Q479.22186 36.05 479.70624 35.971874ZM488.97186 34.20625L490.78436 34.440624Q490.3625 36.01875 489.1906 36.909374Q488.03436 37.784374 486.22186 37.784374Q483.95624 37.784374 482.6125 36.39375Q481.28436 34.9875 481.28436 32.45625Q481.28436 29.83125 482.6281 28.39375Q483.97186 26.940624 486.1281 26.940624Q488.20624 26.940624 489.51874 28.3625Q490.84686 29.76875 490.84686 32.346874Q490.84686 32.503124 490.83124 32.815624L483.09686 32.815624Q483.1906 34.51875 484.0656 35.425Q484.9406 36.33125 486.2375 36.33125Q487.20624 36.33125 487.8781 35.83125Q488.5656 35.315624 488.97186 34.20625ZM483.1906 31.3625L488.9875 31.3625Q488.8781 30.065624 488.33124 29.409374Q487.4875 28.39375 486.14374 28.39375Q484.9406 28.39375 484.1125 29.20625Q483.28436 30.003124 483.1906 31.3625ZM492.84686 37.55L492.84686 27.175L494.425 27.175L494.425 28.753124Q495.03436 27.64375 495.55 27.3Q496.0656 26.940624 496.675 26.940624Q497.5656 26.940624 498.4875 27.503124L497.8781 29.14375Q497.2375 28.753124 496.59686 28.753124Q496.01874 28.753124 495.55 29.1125Q495.09686 29.45625 494.89374 30.065624Q494.6125 31.003124 494.6125 32.1125L494.6125 37.55L492.84686 37.55ZM501.01874 41.753124L499.76874 41.753124Q502.675 37.065624 502.675 32.378124Q502.675 30.534374 502.26874 28.7375Q501.925 27.26875 501.33124 25.925Q500.95624 25.034374 499.76874 22.9875L501.01874 22.9875Q502.8625 25.440624 503.7375 27.909374Q504.4875 30.034374 504.4875 32.3625Q504.4875 35.003124 503.47186 37.471874Q502.47186 39.925 501.01874 41.753124Z" fill-rule="nonzero"/></svg>