<svg version="1.1" viewBox="0.0 0.0 600.0 371.0" fill="none" stroke="none" stroke-linecap="square" stroke-miterlimit="10" width="600" height="371" xmlns:xlink="http://www.w3.org/1999/xlink" xmlns="http://www.w3.org/2000/svg"><path fill="#ffffff" d="M0 0L600.0 0L600.0 371.0L0 371.0L0 0Z" fill-rule="nonzero"/><path stroke="#333333" stroke-width="1.0" stroke-linecap="butt" d="M45.5 286.5L581.5 286.5" fill-rule="nonzero"/><path stroke="#cccccc" stroke-width="1.0" stroke-linecap="butt" d="M45.5 246.5L581.5 246.5" fill-rule="nonzero"/><path stroke="#cccccc" stroke-width="1.0" stroke-linecap="butt" d="M45.5 207.5L581.5 207.5" fill-rule="nonzero"/><path stroke="#cccccc" stroke-width="1.0" stroke-linecap="butt" d="M45.5 167.5L581.5 167.5" fill-rule="nonzero"/><path stroke="#cccccc" stroke-width="1.0" stroke-linecap="butt" d="M45.5 127.5L581.5 127.5" fill-rule="nonzero"/><path stroke="#cccccc" stroke-width="1.0" stroke-linecap="butt" d="M45.5 88.5L581.5 88.5" fill-rule="nonzero"/><clipPath id="id_0"><path d="M45.55 88.28333L581.45 88.28333L581.45 286.45L45.55 286.45L45.55 88.28333Z" clip-rule="nonzero"/></clipPath><path stroke="#000000" stroke-width="2.0" stroke-linecap="butt" stroke-opacity="0.0" clip-path="url(#id_0)" d="M153.0 286.0L103.0 286.0L103.0 199.0C103.0 197.89543 103.89543 197.0 105.0 197.0L151.0 197.0C152.10457 197.0 153.0 197.89543 153.0 199.0Z" fill-rule="nonzero"/><path fill="#4285f4" clip-path="url(#id_0)" d="M153.0 286.0L103.0 286.0L103.0 199.0C103.0 197.89543 103.89543 197.0 105.0 197.0L151.0 197.0C152.10457 197.0 153.0 197.89543 153.0 199.0Z" fill-rule="nonzero"/><path stroke="#000000" stroke-width="2.0" stroke-linecap="butt" stroke-opacity="0.0" clip-path="url(#id_0)" d="M313.0 286.0L263.0 286.0L263.0 160.0C263.0 158.89543 263.89542 158.0 265.0 158.0L311.0 158.0C312.10458 158.0 313.0 158.89543 313.0 160.0Z" fill-rule="nonzero"/><path fill="#4285f4" clip-path="url(#id_0)" d="M313.0 286.0L263.0 286.0L263.0 160.0C263.0 158.89543 263.89542 158.0 265.0 158.0L311.0 158.0C312.10458 158.0 313.0 158.89543 313.0 160.0Z" fill-rule="nonzero"/><path stroke="#000000" stroke-width="2.0" stroke-linecap="butt" stroke-opacity="0.0" clip-path="url(#id_0)" d="M472.0 286.0L422.0 286.0L422.0 119.0C422.0 117.89543 422.89542 117.0 424.0 117.0L470.0 117.0C471.10458 117.0 472.0 117.89543 472.0 119.0Z" fill-rule="nonzero"/><path fill="#4285f4" clip-path="url(#id_0)" d="M472.0 286.0L422.0 286.0L422.0 119.0C422.0 117.89543 422.89542 117.0 424.0 117.0L470.0 117.0C471.10458 117.0 472.0 117.89543 472.0 119.0Z" fill-rule="nonzero"/><path stroke="#000000" stroke-width="2.0" stroke-linecap="butt" stroke-opacity="0.0" clip-path="url(#id_0)" d="M205.0 286.0L155.0 286.0L155.0 242.0C155.0 240.89543 155.89543 240.0 157.0 240.0L203.0 240.0C204.10457 240.0 205.0 240.89543 205.0 242.0Z" fill-rule="nonzero"/><path fill="#ea4335" clip-path="url(#id_0)" d="M205.0 286.0L155.0 286.0L155.0 242.0C155.0 240.89543 155.89543 240.0 157.0 240.0L203.0 240.0C204.10457 240.0 205.0 240.89543 205.0 242.0Z" fill-rule="nonzero"/><path stroke="#000000" stroke-width="2.0" stroke-linecap="butt" stroke-opacity="0.0" clip-path="url(#id_0)" d="M365.0 286.0L315.0 286.0L315.0 217.0C315.0 215.89543 315.89542 215.0 317.0 215.0L363.0 215.0C364.10458 215.0 365.0 215.89543 365.0 217.0Z" fill-rule="nonzero"/><path fill="#ea4335" clip-path="url(#id_0)" d="M365.0 286.0L315.0 286.0L315.0 217.0C315.0 215.89543 315.89542 215.0 317.0 215.0L363.0 215.0C364.10458 215.0 365.0 215.89543 365.0 217.0Z" fill-rule="nonzero"/><path stroke="#000000" stroke-width="2.0" stroke-linecap="butt" stroke-opacity="0.0" clip-path="url(#id_0)" d="M524.0 286.0L474.0 286.0L474.0 175.0C474.0 173.89543 474.89542 173.0 476.0 173.0L522.0 173.0C523.10455 173.0 524.0 173.89543 524.0 175.0Z" fill-rule="nonzero"/><path fill="#ea4335" clip-path="url(#id_0)" d="M524.0 286.0L474.0 286.0L474.0 175.0C474.0 173.89543 474.89542 173.0 476.0 173.0L522.0 173.0C523.10455 173.0 524.0 173.89543 524.0 175.0Z" fill-rule="nonzero"/><path fill="#000000" d="M291.42188 349.45L291.42188 340.85626L294.67188 340.85626Q295.51562 340.85626 295.96875 340.9344Q296.60938 341.04376 297.03125 341.34064Q297.46875 341.6375 297.71875 342.16876Q297.98438 342.7 297.98438 343.34064Q297.98438 344.4344 297.28125 345.2Q296.59375 345.95 294.76562 345.95L292.5625 345.95L292.5625 349.45L291.42188 349.45ZM292.5625 344.95L294.78125 344.95Q295.89062 344.95 296.34375 344.54376Q296.8125 344.1219 296.8125 343.3719Q296.8125 342.84064 296.53125 342.46564Q296.26562 342.075 295.82812 341.95Q295.53125 341.8719 294.76562 341.8719L292.5625 341.8719L292.5625 344.95ZM299.26562 349.45L299.26562 340.85626L300.32812 340.85626L300.32812 349.45L299.26562 349.45ZM306.35938 348.6844Q305.76562 349.1844 305.21875 349.3875Q304.6875 349.59064 304.0625 349.59064Q303.03125 349.59064 302.48438 349.09064Q301.9375 348.59064 301.9375 347.8094Q301.9375 347.35626 302.14062 346.98126Q302.34375 346.59064 302.6875 346.3719Q303.03125 346.1375 303.45312 346.02814Q303.75 345.9344 304.39062 345.85626Q305.65625 345.71564 306.26562 345.4969Q306.26562 345.27814 306.26562 345.23126Q306.26562 344.575 305.96875 344.3094Q305.5625 343.96564 304.76562 343.96564Q304.03125 343.96564 303.67188 344.23126Q303.3125 344.48126 303.14062 345.1375L302.10938 344.9969Q302.25 344.34064 302.57812 343.9344Q302.90625 343.52814 303.51562 343.3094Q304.125 343.09064 304.92188 343.09064Q305.71875 343.09064 306.21875 343.27814Q306.71875 343.46564 306.95312 343.7469Q307.1875 344.02814 307.28125 344.46564Q307.32812 344.73126 307.32812 345.4344L307.32812 346.84064Q307.32812 348.3094 307.39062 348.7Q307.46875 349.09064 307.67188 349.45L306.5625 349.45Q306.40625 349.1219 306.35938 348.6844ZM306.26562 346.325Q305.6875 346.5594 304.54688 346.73126Q303.89062 346.825 303.625 346.95Q303.35938 347.0594 303.20312 347.27814Q303.0625 347.4969 303.0625 347.77814Q303.0625 348.2 303.375 348.48126Q303.70312 348.7625 304.3125 348.7625Q304.92188 348.7625 305.39062 348.4969Q305.875 348.23126 306.09375 347.7625Q306.26562 347.40314 306.26562 346.71564L306.26562 346.325ZM311.59375 348.5125L311.75 349.4344Q311.29688 349.52814 310.95312 349.52814Q310.375 349.52814 310.0625 349.35626Q309.75 349.16876 309.60938 348.8719Q309.48438 348.575 309.48438 347.6219L309.48438 344.04376L308.71875 344.04376L308.71875 343.23126L309.48438 343.23126L309.48438 341.6844L310.53125 341.0594L310.53125 343.23126L311.59375 343.23126L311.59375 344.04376L310.53125 344.04376L310.53125 347.6844Q310.53125 348.1375 310.57812 348.2625Q310.64062 348.3875 310.76562 348.46564Q310.89062 348.54376 311.125 348.54376Q311.3125 348.54376 311.59375 348.5125ZM312.54688 349.45L312.54688 344.04376L311.60938 344.04376L311.60938 343.23126L312.54688 343.23126L312.54688 342.5594Q312.54688 341.9344 312.65625 341.6375Q312.8125 341.21564 313.1875 340.96564Q313.57812 340.71564 314.26562 340.71564Q314.71875 340.71564 315.25 340.825L315.09375 341.73126Q314.76562 341.6844 314.46875 341.6844Q313.98438 341.6844 313.78125 341.8875Q313.59375 342.09064 313.59375 342.65314L313.59375 343.23126L314.8125 343.23126L314.8125 344.04376L313.59375 344.04376L313.59375 349.45L312.54688 349.45ZM314.90625 346.34064Q314.90625 344.60626 315.85938 343.77814Q316.65625 343.09064 317.8125 343.09064Q319.09375 343.09064 319.90625 343.9344Q320.73438 344.7625 320.73438 346.2469Q320.73438 347.45 320.375 348.1375Q320.01562 348.825 319.3125 349.21564Q318.625 349.59064 317.8125 349.59064Q316.51562 349.59064 315.70312 348.7625Q314.90625 347.91876 314.90625 346.34064ZM315.98438 346.34064Q315.98438 347.52814 316.5 348.1219Q317.03125 348.71564 317.8125 348.71564Q318.60938 348.71564 319.125 348.1219Q319.64062 347.52814 319.64062 346.3094Q319.64062 345.15314 319.10938 344.5594Q318.59375 343.96564 317.8125 343.96564Q317.03125 343.96564 316.5 344.5594Q315.98438 345.1375 315.98438 346.34064ZM322.28125 349.45L322.28125 343.23126L323.23438 343.23126L323.23438 344.16876Q323.59375 343.5125 323.89062 343.3094Q324.20312 343.09064 324.57812 343.09064Q325.10938 343.09064 325.65625 343.41876L325.29688 344.40314Q324.90625 344.16876 324.53125 344.16876Q324.17188 344.16876 323.89062 344.3875Q323.625 344.59064 323.51562 344.96564Q323.32812 345.52814 323.32812 346.1844L323.32812 349.45L322.28125 349.45ZM326.29688 349.45L326.29688 343.23126L327.23438 343.23126L327.23438 344.10626Q327.53125 343.6375 328.01562 343.3719Q328.5 343.09064 329.125 343.09064Q329.8125 343.09064 330.25 343.3719Q330.70312 343.65314 330.875 344.16876Q331.625 343.09064 332.79688 343.09064Q333.73438 343.09064 334.21875 343.60626Q334.71875 344.10626 334.71875 345.1844L334.71875 349.45L333.67188 349.45L333.67188 345.52814Q333.67188 344.90314 333.5625 344.6219Q333.46875 344.34064 333.20312 344.16876Q332.9375 343.9969 332.5625 343.9969Q331.90625 343.9969 331.46875 344.4344Q331.04688 344.8719 331.04688 345.84064L331.04688 349.45L329.98438 349.45L329.98438 345.40314Q329.98438 344.7 329.71875 344.35626Q329.46875 343.9969 328.89062 343.9969Q328.4375 343.9969 328.0625 344.23126Q327.6875 344.46564 327.51562 344.91876Q327.34375 345.3719 327.34375 346.21564L327.34375 349.45L326.29688 349.45Z" fill-rule="nonzero"/><path fill="#000000" d="M33.05 286.21564Q33.05 284.6844 33.3625 283.7625Q33.675 282.825 34.284374 282.325Q34.909374 281.825 35.846874 281.825Q36.534374 281.825 37.05 282.10626Q37.58125 282.3875 37.925 282.91876Q38.26875 283.4344 38.45625 284.1844Q38.64375 284.9344 38.64375 286.21564Q38.64375 287.73126 38.33125 288.65314Q38.034374 289.575 37.409374 290.09064Q36.8 290.59064 35.846874 290.59064Q34.6125 290.59064 33.89375 289.7Q33.05 288.6375 33.05 286.21564ZM34.128124 286.21564Q34.128124 288.325 34.628124 289.02814Q35.128124 289.73126 35.846874 289.73126Q36.58125 289.73126 37.065624 289.02814Q37.565624 288.325 37.565624 286.21564Q37.565624 284.09064 37.065624 283.40314Q36.58125 282.7 35.83125 282.7Q35.1125 282.7 34.675 283.3094Q34.128124 284.09064 34.128124 286.21564Z" fill-rule="nonzero"/><path fill="#000000" d="M23.01875 250.81667L21.971874 250.81667L21.971874 244.09792Q21.58125 244.45729 20.95625 244.83229Q20.346874 245.19167 19.8625 245.36354L19.8625 244.34792Q20.7375 243.92604 21.39375 243.34792Q22.065624 242.75417 22.346874 242.19167L23.01875 242.19167L23.01875 250.81667ZM26.05 246.58229Q26.05 245.05104 26.3625 244.12917Q26.675 243.19167 27.284374 242.69167Q27.909374 242.19167 28.846874 242.19167Q29.534374 242.19167 30.05 242.47292Q30.58125 242.75417 30.925 243.28542Q31.26875 243.80104 31.45625 244.55104Q31.64375 245.30104 31.64375 246.58229Q31.64375 248.09792 31.33125 249.01979Q31.034374 249.94167 30.409374 250.45729Q29.8 250.95729 28.846874 250.95729Q27.6125 250.95729 26.89375 250.06667Q26.05 249.00417 26.05 246.58229ZM27.128124 246.58229Q27.128124 248.69167 27.628124 249.39479Q28.128124 250.09792 28.846874 250.09792Q29.58125 250.09792 30.065624 249.39479Q30.565624 248.69167 30.565624 246.58229Q30.565624 244.45729 30.065624 243.76979Q29.58125 243.06667 28.83125 243.06667Q28.1125 243.06667 27.675 243.67604Q27.128124 244.45729 27.128124 246.58229ZM33.05 246.58229Q33.05 245.05104 33.3625 244.12917Q33.675 243.19167 34.284374 242.69167Q34.909374 242.19167 35.846874 242.19167Q36.534374 242.19167 37.05 242.47292Q37.58125 242.75417 37.925 243.28542Q38.26875 243.80104 38.45625 244.55104Q38.64375 245.30104 38.64375 246.58229Q38.64375 248.09792 38.33125 249.01979Q38.034374 249.94167 37.409374 250.45729Q36.8 250.95729 35.846874 250.95729Q34.6125 250.95729 33.89375 250.06667Q33.05 249.00417 33.05 246.58229ZM34.128124 246.58229Q34.128124 248.69167 34.628124 249.39479Q35.128124 250.09792 35.846874 250.09792Q36.58125 250.09792 37.065624 249.39479Q37.565624 248.69167 37.565624 246.58229Q37.565624 244.45729 37.065624 243.76979Q36.58125 243.06667 35.83125 243.06667Q35.1125 243.06667 34.675 243.67604Q34.128124 244.45729 34.128124 246.58229Z" fill-rule="nonzero"/><path fill="#000000" d="M24.596874 210.16771L24.596874 211.18333L18.909374 211.18333Q18.909374 210.80833 19.034374 210.44896Q19.253124 209.87083 19.721874 209.30833Q20.20625 208.74583 21.1125 208.01146Q22.51875 206.85521 23.003124 206.18333Q23.503124 205.51146 23.503124 204.91771Q23.503124 204.29271 23.05 203.87083Q22.596874 203.43333 21.878124 203.43333Q21.1125 203.43333 20.659374 203.88646Q20.20625 204.33958 20.190624 205.15208L19.1125 205.04271Q19.221874 203.82396 19.940624 203.19896Q20.675 202.55833 21.909374 202.55833Q23.14375 202.55833 23.8625 203.24583Q24.58125 203.93333 24.58125 204.94896Q24.58125 205.46458 24.3625 205.96458Q24.159374 206.44896 23.659374 207.01146Q23.175 207.55833 22.05 208.51146Q21.096874 209.30833 20.815624 209.60521Q20.55 209.88646 20.378124 210.16771L24.596874 210.16771ZM26.05 206.94896Q26.05 205.41771 26.3625 204.49583Q26.675 203.55833 27.284374 203.05833Q27.909374 202.55833 28.846874 202.55833Q29.534374 202.55833 30.05 202.83958Q30.58125 203.12083 30.925 203.65208Q31.26875 204.16771 31.45625 204.91771Q31.64375 205.66771 31.64375 206.94896Q31.64375 208.46458 31.33125 209.38646Q31.034374 210.30833 30.409374 210.82396Q29.8 211.32396 28.846874 211.32396Q27.6125 211.32396 26.89375 210.43333Q26.05 209.37083 26.05 206.94896ZM27.128124 206.94896Q27.128124 209.05833 27.628124 209.76146Q28.128124 210.46458 28.846874 210.46458Q29.58125 210.46458 30.065624 209.76146Q30.565624 209.05833 30.565624 206.94896Q30.565624 204.82396 30.065624 204.13646Q29.58125 203.43333 28.83125 203.43333Q28.1125 203.43333 27.675 204.04271Q27.128124 204.82396 27.128124 206.94896ZM33.05 206.94896Q33.05 205.41771 33.3625 204.49583Q33.675 203.55833 34.284374 203.05833Q34.909374 202.55833 35.846874 202.55833Q36.534374 202.55833 37.05 202.83958Q37.58125 203.12083 37.925 203.65208Q38.26875 204.16771 38.45625 204.91771Q38.64375 205.66771 38.64375 206.94896Q38.64375 208.46458 38.33125 209.38646Q38.034374 210.30833 37.409374 210.82396Q36.8 211.32396 35.846874 211.32396Q34.6125 211.32396 33.89375 210.43333Q33.05 209.37083 33.05 206.94896ZM34.128124 206.94896Q34.128124 209.05833 34.628124 209.76146Q35.128124 210.46458 35.846874 210.46458Q36.58125 210.46458 37.065624 209.76146Q37.565624 209.05833 37.565624 206.94896Q37.565624 204.82396 37.065624 204.13646Q36.58125 203.43333 35.83125 203.43333Q35.1125 203.43333 34.675 204.04271Q34.128124 204.82396 34.128124 206.94896Z" fill-rule="nonzero"/><path fill="#000000" d="M19.05 169.28438L20.1125 169.14375Q20.284374 170.03438 20.721874 170.44063Q21.159374 170.83125 21.784374 170.83125Q22.534374 170.83125 23.05 170.31563Q23.565624 169.8 23.565624 169.03438Q23.565624 168.31563 23.08125 167.84688Q22.6125 167.3625 21.878124 167.3625Q21.58125 167.3625 21.128124 167.4875L21.253124 166.55Q21.3625 166.56563 21.425 166.56563Q22.096874 166.56563 22.628124 166.22188Q23.175 165.8625 23.175 165.12813Q23.175 164.55 22.784374 164.175Q22.39375 163.78438 21.76875 163.78438Q21.159374 163.78438 20.7375 164.175Q20.33125 164.56563 20.221874 165.33125L19.159374 165.14375Q19.346874 164.09688 20.034374 163.51875Q20.721874 162.925 21.7375 162.925Q22.440624 162.925 23.034374 163.2375Q23.628124 163.53438 23.940624 164.05Q24.253124 164.56563 24.253124 165.15938Q24.253124 165.70625 23.95625 166.175Q23.659374 166.62813 23.08125 166.89375Q23.83125 167.06563 24.253124 167.62813Q24.675 168.175 24.675 169.01875Q24.675 170.14375 23.846874 170.925Q23.034374 171.70625 21.784374 171.70625Q20.659374 171.70625 19.909374 171.03438Q19.159374 170.34688 19.05 169.28438ZM26.05 167.31563Q26.05 165.78438 26.3625 164.8625Q26.675 163.925 27.284374 163.425Q27.909374 162.925 28.846874 162.925Q29.534374 162.925 30.05 163.20625Q30.58125 163.4875 30.925 164.01875Q31.26875 164.53438 31.45625 165.28438Q31.64375 166.03438 31.64375 167.31563Q31.64375 168.83125 31.33125 169.75313Q31.034374 170.675 30.409374 171.19063Q29.8 171.69063 28.846874 171.69063Q27.6125 171.69063 26.89375 170.8Q26.05 169.7375 26.05 167.31563ZM27.128124 167.31563Q27.128124 169.425 27.628124 170.12813Q28.128124 170.83125 28.846874 170.83125Q29.58125 170.83125 30.065624 170.12813Q30.565624 169.425 30.565624 167.31563Q30.565624 165.19063 30.065624 164.50313Q29.58125 163.8 28.83125 163.8Q28.1125 163.8 27.675 164.40938Q27.128124 165.19063 27.128124 167.31563ZM33.05 167.31563Q33.05 165.78438 33.3625 164.8625Q33.675 163.925 34.284374 163.425Q34.909374 162.925 35.846874 162.925Q36.534374 162.925 37.05 163.20625Q37.58125 163.4875 37.925 164.01875Q38.26875 164.53438 38.45625 165.28438Q38.64375 166.03438 38.64375 167.31563Q38.64375 168.83125 38.33125 169.75313Q38.034374 170.675 37.409374 171.19063Q36.8 171.69063 35.846874 171.69063Q34.6125 171.69063 33.89375 170.8Q33.05 169.7375 33.05 167.31563ZM34.128124 167.31563Q34.128124 169.425 34.628124 170.12813Q35.128124 170.83125 35.846874 170.83125Q36.58125 170.83125 37.065624 170.12813Q37.565624 169.425 37.565624 167.31563Q37.565624 165.19063 37.065624 164.50313Q36.58125 163.8 35.83125 163.8Q35.1125 163.8 34.675 164.40938Q34.128124 165.19063 34.128124 167.31563Z" fill-rule="nonzero"/><path fill="#000000" d="M22.425 131.91667L22.425 129.85417L18.70625 129.85417L18.70625 128.88542L22.628124 123.32292L23.4875 123.32292L23.4875 128.88542L24.64375 128.88542L24.64375 129.85417L23.4875 129.85417L23.4875 131.91667L22.425 131.91667ZM22.425 128.88542L22.425 125.02605L19.7375 128.88542L22.425 128.88542ZM26.05 127.6823Q26.05 126.15105 26.3625 125.22917Q26.675 124.29167 27.284374 123.79167Q27.909374 123.29167 28.846874 123.29167Q29.534374 123.29167 30.05 123.57292Q30.58125 123.85417 30.925 124.38542Q31.26875 124.90105 31.45625 125.65105Q31.64375 126.40105 31.64375 127.6823Q31.64375 129.19792 31.33125 130.1198Q31.034374 131.04167 30.409374 131.5573Q29.8 132.0573 28.846874 132.0573Q27.6125 132.0573 26.89375 131.16667Q26.05 130.10417 26.05 127.6823ZM27.128124 127.6823Q27.128124 129.79167 27.628124 130.4948Q28.128124 131.19792 28.846874 131.19792Q29.58125 131.19792 30.065624 130.4948Q30.565624 129.79167 30.565624 127.6823Q30.565624 125.5573 30.065624 124.8698Q29.58125 124.16667 28.83125 124.16667Q28.1125 124.16667 27.675 124.77605Q27.128124 125.5573 27.128124 127.6823ZM33.05 127.6823Q33.05 126.15105 33.3625 125.22917Q33.675 124.29167 34.284374 123.79167Q34.909374 123.29167 35.846874 123.29167Q36.534374 123.29167 37.05 123.57292Q37.58125 123.85417 37.925 124.38542Q38.26875 124.90105 38.45625 125.65105Q38.64375 126.40105 38.64375 127.6823Q38.64375 129.19792 38.33125 130.1198Q38.034374 131.04167 37.409374 131.5573Q36.8 132.0573 35.846874 132.0573Q34.6125 132.0573 33.89375 131.16667Q33.05 130.10417 33.05 127.6823ZM34.128124 127.6823Q34.128124 129.79167 34.628124 130.4948Q35.128124 131.19792 35.846874 131.19792Q36.58125 131.19792 37.065624 130.4948Q37.565624 129.79167 37.565624 127.6823Q37.565624 125.5573 37.065624 124.8698Q36.58125 124.16667 35.83125 124.16667Q35.1125 124.16667 34.675 124.77605Q34.128124 125.5573 34.128124 127.6823Z" fill-rule="nonzero"/><path fill="#000000" d="M19.05 90.03333L20.159374 89.93958Q20.284374 90.75208 20.721874 91.15833Q21.175 91.56458 21.815624 91.56458Q22.565624 91.56458 23.096874 90.98646Q23.628124 90.40833 23.628124 89.47083Q23.628124 88.56458 23.1125 88.04896Q22.6125 87.51771 21.784374 87.51771Q21.284374 87.51771 20.8625 87.75208Q20.45625 87.98646 20.221874 88.34583L19.2375 88.22083L20.065624 83.81458L24.346874 83.81458L24.346874 84.81458L20.909374 84.81458L20.45625 87.12708Q21.221874 86.58021 22.065624 86.58021Q23.190624 86.58021 23.95625 87.36146Q24.7375 88.14271 24.7375 89.37708Q24.7375 90.53333 24.065624 91.39271Q23.2375 92.42396 21.815624 92.42396Q20.64375 92.42396 19.89375 91.76771Q19.159374 91.11146 19.05 90.03333ZM26.05 88.04896Q26.05 86.51771 26.3625 85.59583Q26.675 84.65833 27.284374 84.15833Q27.909374 83.65833 28.846874 83.65833Q29.534374 83.65833 30.05 83.93958Q30.58125 84.22083 30.925 84.75208Q31.26875 85.26771 31.45625 86.01771Q31.64375 86.76771 31.64375 88.04896Q31.64375 89.56458 31.33125 90.48646Q31.034374 91.40833 30.409374 91.92396Q29.8 92.42396 28.846874 92.42396Q27.6125 92.42396 26.89375 91.53333Q26.05 90.47083 26.05 88.04896ZM27.128124 88.04896Q27.128124 90.15833 27.628124 90.86146Q28.128124 91.56458 28.846874 91.56458Q29.58125 91.56458 30.065624 90.86146Q30.565624 90.15833 30.565624 88.04896Q30.565624 85.92396 30.065624 85.23646Q29.58125 84.53333 28.83125 84.53333Q28.1125 84.53333 27.675 85.14271Q27.128124 85.92396 27.128124 88.04896ZM33.05 88.04896Q33.05 86.51771 33.3625 85.59583Q33.675 84.65833 34.284374 84.15833Q34.909374 83.65833 35.846874 83.65833Q36.534374 83.65833 37.05 83.93958Q37.58125 84.22083 37.925 84.75208Q38.26875 85.26771 38.45625 86.01771Q38.64375 86.76771 38.64375 88.04896Q38.64375 89.56458 38.33125 90.48646Q38.034374 91.40833 37.409374 91.92396Q36.8 92.42396 35.846874 92.42396Q34.6125 92.42396 33.89375 91.53333Q33.05 90.47083 33.05 88.04896ZM34.128124 88.04896Q34.128124 90.15833 34.628124 90.86146Q35.128124 91.56458 35.846874 91.56458Q36.58125 91.56458 37.065624 90.86146Q37.565624 90.15833 37.565624 88.04896Q37.565624 85.92396 37.065624 85.23646Q36.58125 84.53333 35.83125 84.53333Q35.1125 84.53333 34.675 85.14271Q34.128124 85.92396 34.128124 88.04896Z" fill-rule="nonzero"/><path fill="#000000" d="M89.88923 301.16876L90.92048 301.3094Q90.748604 302.3719 90.04548 302.98126Q89.342354 303.59064 88.32673 303.59064Q87.04548 303.59064 86.26423 302.7625Q85.498604 301.91876 85.498604 300.35626Q85.498604 299.35626 85.82673 298.60626Q86.17048 297.84064 86.842354 297.46564Q87.529854 297.09064 88.342354 297.09064Q89.342354 297.09064 89.98298 297.60626Q90.63923 298.10626 90.82673 299.0594L89.79548 299.21564Q89.654854 298.59064 89.279854 298.27814Q88.904854 297.95 88.373604 297.95Q87.57673 297.95 87.07673 298.52814Q86.57673 299.09064 86.57673 300.325Q86.57673 301.59064 87.061104 302.15314Q87.54548 302.71564 88.311104 302.71564Q88.936104 302.71564 89.342354 302.34064Q89.76423 301.96564 89.88923 301.16876ZM91.436104 300.34064Q91.436104 298.60626 92.38923 297.77814Q93.186104 297.09064 94.342354 297.09064Q95.623604 297.09064 96.436104 297.9344Q97.26423 298.7625 97.26423 300.2469Q97.26423 301.45 96.904854 302.1375Q96.54548 302.825 95.842354 303.21564Q95.154854 303.59064 94.342354 303.59064Q93.04548 303.59064 92.23298 302.7625Q91.436104 301.91876 91.436104 300.34064ZM92.51423 300.34064Q92.51423 301.52814 93.029854 302.1219Q93.561104 302.71564 94.342354 302.71564Q95.13923 302.71564 95.654854 302.1219Q96.17048 301.52814 96.17048 300.3094Q96.17048 299.15314 95.63923 298.5594Q95.123604 297.96564 94.342354 297.96564Q93.561104 297.96564 93.029854 298.5594Q92.51423 299.1375 92.51423 300.34064ZM98.811104 303.45L98.811104 297.23126L99.76423 297.23126L99.76423 298.16876Q100.123604 297.5125 100.42048 297.3094Q100.73298 297.09064 101.10798 297.09064Q101.63923 297.09064 102.186104 297.41876L101.82673 298.40314Q101.436104 298.16876 101.061104 298.16876Q100.70173 298.16876 100.42048 298.3875Q100.154854 298.59064 100.04548 298.96564Q99.85798 299.52814 99.85798 300.1844L99.85798 303.45L98.811104 303.45ZM107.07673 301.45L108.17048 301.575Q107.92048 302.52814 107.217354 303.0594Q106.51423 303.59064 105.436104 303.59064Q104.07673 303.59064 103.26423 302.7469Q102.467354 301.90314 102.467354 300.3875Q102.467354 298.825 103.279854 297.96564Q104.092354 297.09064 105.373604 297.09064Q106.623604 297.09064 107.404854 297.9344Q108.20173 298.77814 108.20173 300.325Q108.20173 300.41876 108.20173 300.60626L103.561104 300.60626Q103.623604 301.6375 104.13923 302.1844Q104.654854 302.71564 105.436104 302.71564Q106.01423 302.71564 106.42048 302.41876Q106.842354 302.10626 107.07673 301.45ZM103.623604 299.7469L107.092354 299.7469Q107.029854 298.95 106.70173 298.5594Q106.186104 297.95 105.38923 297.95Q104.654854 297.95 104.154854 298.4344Q103.67048 298.91876 103.623604 299.7469ZM112.82673 296.075L112.82673 294.85626L113.88923 294.85626L113.88923 296.075L112.82673 296.075ZM112.82673 303.45L112.82673 297.23126L113.88923 297.23126L113.88923 303.45L112.82673 303.45ZM115.529854 301.2L116.63923 301.10626Q116.76423 301.91876 117.20173 302.325Q117.654854 302.73126 118.29548 302.73126Q119.04548 302.73126 119.57673 302.15314Q120.10798 301.575 120.10798 300.6375Q120.10798 299.73126 119.592354 299.21564Q119.092354 298.6844 118.26423 298.6844Q117.76423 298.6844 117.342354 298.91876Q116.936104 299.15314 116.70173 299.5125L115.717354 299.3875L116.54548 294.98126L120.82673 294.98126L120.82673 295.98126L117.38923 295.98126L116.936104 298.29376Q117.70173 297.7469 118.54548 297.7469Q119.67048 297.7469 120.436104 298.52814Q121.217354 299.3094 121.217354 300.54376Q121.217354 301.7 120.54548 302.5594Q119.717354 303.59064 118.29548 303.59064Q117.123604 303.59064 116.373604 302.9344Q115.63923 302.27814 115.529854 301.2ZM131.07672 302.4344L131.07672 303.45L125.38923 303.45Q125.38923 303.075 125.51423 302.71564Q125.73298 302.1375 126.20173 301.575Q126.686104 301.0125 127.592354 300.27814Q128.9986 299.1219 129.48297 298.45Q129.98297 297.77814 129.98297 297.1844Q129.98297 296.5594 129.52985 296.1375Q129.07672 295.7 128.35797 295.7Q127.592354 295.7 127.13923 296.15314Q126.686104 296.60626 126.67048 297.41876L125.592354 297.3094Q125.70173 296.09064 126.42048 295.46564Q127.154854 294.825 128.38922 294.825Q129.6236 294.825 130.34235 295.5125Q131.0611 296.2 131.0611 297.21564Q131.0611 297.73126 130.84235 298.23126Q130.63922 298.71564 130.13922 299.27814Q129.65485 299.825 128.52985 300.77814Q127.57673 301.575 127.29548 301.8719Q127.029854 302.15314 126.85798 302.4344L131.07672 302.4344ZM139.98297 300.075L139.98297 299.075L143.60797 299.0594L143.60797 302.2469Q142.77985 302.91876 141.88922 303.2625Q140.9986 303.59064 140.0611 303.59064Q138.79547 303.59064 137.7486 303.0594Q136.71735 302.5125 136.1861 301.4969Q135.67047 300.46564 135.67047 299.2Q135.67047 297.9344 136.1861 296.85626Q136.71735 295.7625 137.70172 295.2469Q138.6861 294.71564 139.96735 294.71564Q140.90485 294.71564 141.65485 295.0125Q142.40485 295.3094 142.82672 295.85626Q143.26422 296.3875 143.48297 297.2625L142.46735 297.54376Q142.26422 296.8875 141.96735 296.5125Q141.6861 296.1375 141.15485 295.91876Q140.6236 295.6844 139.98297 295.6844Q139.20172 295.6844 138.6236 295.91876Q138.0611 296.15314 137.70172 296.54376Q137.35797 296.9344 137.17047 297.40314Q136.84235 298.2 136.84235 299.1219Q136.84235 300.27814 137.23297 301.0594Q137.63922 301.825 138.38922 302.2Q139.13922 302.575 139.9986 302.575Q140.73297 302.575 141.4361 302.29376Q142.13922 301.9969 142.4986 301.6844L142.4986 300.075L139.98297 300.075ZM144.9986 303.45L144.9986 294.85626L146.1236 294.85626L146.1236 298.3875L150.59235 298.3875L150.59235 294.85626L151.73297 294.85626L151.73297 303.45L150.59235 303.45L150.59235 299.40314L146.1236 299.40314L146.1236 303.45L144.9986 303.45ZM153.26422 303.45L153.26422 302.59064L157.23297 298.04376Q156.54547 298.075 156.02985 298.075L153.4986 298.075L153.4986 297.23126L158.59235 297.23126L158.59235 297.91876L155.21735 301.8719L154.5611 302.59064Q155.27985 302.54376 155.88922 302.54376L158.77985 302.54376L158.77985 303.45L153.26422 303.45ZM168.46735 302.52814Q169.26422 303.075 169.92047 303.325L169.59235 304.1219Q168.67047 303.77814 167.7486 303.0594Q166.79547 303.59064 165.63922 303.59064Q164.46735 303.59064 163.51422 303.02814Q162.57672 302.46564 162.0611 301.45Q161.54547 300.4344 161.54547 299.15314Q161.54547 297.8875 162.0611 296.84064Q162.57672 295.79376 163.52985 295.2469Q164.48297 294.7 165.65485 294.7Q166.84235 294.7 167.79547 295.27814Q168.76422 295.84064 169.26422 296.85626Q169.76422 297.8719 169.76422 299.15314Q169.76422 300.21564 169.4361 301.0594Q169.1236 301.90314 168.46735 302.52814ZM165.96735 301.075Q166.95172 301.35626 167.59235 301.90314Q168.59235 300.98126 168.59235 299.15314Q168.59235 298.10626 168.23297 297.325Q167.8736 296.54376 167.1861 296.1219Q166.51422 295.6844 165.67047 295.6844Q164.38922 295.6844 163.54547 296.5594Q162.71735 297.41876 162.71735 299.15314Q162.71735 300.825 163.54547 301.73126Q164.3736 302.6219 165.67047 302.6219Q166.27985 302.6219 166.8111 302.3875Q166.27985 302.04376 165.6861 301.90314L165.96735 301.075ZM174.90485 303.45L174.90485 302.52814Q174.17047 303.59064 172.92047 303.59064Q172.3736 303.59064 171.88922 303.3875Q171.42047 303.16876 171.1861 302.85626Q170.95172 302.52814 170.85797 302.0594Q170.79547 301.7625 170.79547 301.075L170.79547 297.23126L171.85797 297.23126L171.85797 300.6844Q171.85797 301.4969 171.92047 301.79376Q172.01422 302.2 172.32672 302.45Q172.65485 302.6844 173.13922 302.6844Q173.60797 302.6844 174.01422 302.45Q174.4361 302.2 174.60797 301.77814Q174.79547 301.35626 174.79547 300.5594L174.79547 297.23126L175.84235 297.23126L175.84235 303.45L174.90485 303.45ZM181.88922 302.6844Q181.29547 303.1844 180.7486 303.3875Q180.21735 303.59064 179.59235 303.59064Q178.5611 303.59064 178.01422 303.09064Q177.46735 302.59064 177.46735 301.8094Q177.46735 301.35626 177.67047 300.98126Q177.8736 300.59064 178.21735 300.3719Q178.5611 300.1375 178.98297 300.02814Q179.27985 299.9344 179.92047 299.85626Q181.1861 299.71564 181.79547 299.4969Q181.79547 299.27814 181.79547 299.23126Q181.79547 298.575 181.4986 298.3094Q181.09235 297.96564 180.29547 297.96564Q179.5611 297.96564 179.20172 298.23126Q178.84235 298.48126 178.67047 299.1375L177.63922 298.9969Q177.77985 298.34064 178.10797 297.9344Q178.4361 297.52814 179.04547 297.3094Q179.65485 297.09064 180.45172 297.09064Q181.2486 297.09064 181.7486 297.27814Q182.2486 297.46564 182.48297 297.7469Q182.71735 298.02814 182.8111 298.46564Q182.85797 298.73126 182.85797 299.4344L182.85797 300.84064Q182.85797 302.3094 182.92047 302.7Q182.9986 303.09064 183.20172 303.45L182.09235 303.45Q181.9361 303.1219 181.88922 302.6844ZM181.79547 300.325Q181.21735 300.5594 180.07672 300.73126Q179.42047 300.825 179.15485 300.95Q178.88922 301.0594 178.73297 301.27814Q178.59235 301.4969 178.59235 301.77814Q178.59235 302.2 178.90485 302.48126Q179.23297 302.7625 179.84235 302.7625Q180.45172 302.7625 180.92047 302.4969Q181.40485 302.23126 181.6236 301.7625Q181.79547 301.40314 181.79547 300.71564L181.79547 300.325ZM188.85797 303.45L188.85797 302.66876Q188.26422 303.59064 187.1236 303.59064Q186.3736 303.59064 185.7486 303.1844Q185.1236 302.7625 184.77985 302.02814Q184.4361 301.29376 184.4361 300.34064Q184.4361 299.41876 184.7486 298.65314Q185.0611 297.8875 185.6861 297.4969Q186.3111 297.09064 187.07672 297.09064Q187.63922 297.09064 188.07672 297.325Q188.51422 297.5594 188.79547 297.9344L188.79547 294.85626L189.84235 294.85626L189.84235 303.45L188.85797 303.45ZM185.52985 300.34064Q185.52985 301.54376 186.02985 302.1375Q186.52985 302.71564 187.21735 302.71564Q187.90485 302.71564 188.38922 302.15314Q188.8736 301.59064 188.8736 300.4344Q188.8736 299.15314 188.3736 298.5594Q187.88922 297.96564 187.17047 297.96564Q186.46735 297.96564 185.9986 298.54376Q185.52985 299.10626 185.52985 300.34064ZM191.40485 300.8719L191.40485 299.8094L194.65485 299.8094L194.65485 300.8719L191.40485 300.8719ZM202.09235 300.4344L203.21735 300.73126Q202.85797 302.1219 201.9361 302.85626Q201.01422 303.59064 199.67047 303.59064Q198.27985 303.59064 197.40485 303.02814Q196.52985 302.46564 196.07672 301.40314Q195.6236 300.325 195.6236 299.09064Q195.6236 297.7469 196.13922 296.7469Q196.65485 295.7469 197.59235 295.23126Q198.54547 294.71564 199.6861 294.71564Q200.96735 294.71564 201.84235 295.3719Q202.73297 296.02814 203.07672 297.21564L201.95172 297.48126Q201.65485 296.54376 201.07672 296.1219Q200.51422 295.6844 199.65485 295.6844Q198.67047 295.6844 197.9986 296.16876Q197.34235 296.6375 197.0611 297.4344Q196.79547 298.23126 196.79547 299.09064Q196.79547 300.1844 197.10797 300.9969Q197.4361 301.8094 198.10797 302.21564Q198.77985 302.6219 199.57672 302.6219Q200.52985 302.6219 201.1861 302.075Q201.85797 301.52814 202.09235 300.4344ZM204.4361 300.34064Q204.4361 298.60626 205.38922 297.77814Q206.1861 297.09064 207.34235 297.09064Q208.6236 297.09064 209.4361 297.9344Q210.26422 298.7625 210.26422 300.2469Q210.26422 301.45 209.90485 302.1375Q209.54547 302.825 208.84235 303.21564Q208.15485 303.59064 207.34235 303.59064Q206.04547 303.59064 205.23297 302.7625Q204.4361 301.91876 204.4361 300.34064ZM205.51422 300.34064Q205.51422 301.52814 206.02985 302.1219Q206.5611 302.71564 207.34235 302.71564Q208.13922 302.71564 208.65485 302.1219Q209.17047 301.52814 209.17047 300.3094Q209.17047 299.15314 208.63922 298.5594Q208.1236 297.96564 207.34235 297.96564Q206.5611 297.96564 206.02985 298.5594Q205.51422 299.1375 205.51422 300.34064ZM211.8111 303.45L211.8111 297.23126L212.76422 297.23126L212.76422 298.16876Q213.1236 297.5125 213.42047 297.3094Q213.73297 297.09064 214.10797 297.09064Q214.63922 297.09064 215.1861 297.41876L214.82672 298.40314Q214.4361 298.16876 214.0611 298.16876Q213.70172 298.16876 213.42047 298.3875Q213.15485 298.59064 213.04547 298.96564Q212.85797 299.52814 212.85797 300.1844L212.85797 303.45L211.8111 303.45ZM220.07672 301.45L221.17047 301.575Q220.92047 302.52814 220.21735 303.0594Q219.51422 303.59064 218.4361 303.59064Q217.07672 303.59064 216.26422 302.7469Q215.46735 301.90314 215.46735 300.3875Q215.46735 298.825 216.27985 297.96564Q217.09235 297.09064 218.3736 297.09064Q219.6236 297.09064 220.40485 297.9344Q221.20172 298.77814 221.20172 300.325Q221.20172 300.41876 221.20172 300.60626L216.5611 300.60626Q216.6236 301.6375 217.13922 302.1844Q217.65485 302.71564 218.4361 302.71564Q219.01422 302.71564 219.42047 302.41876Q219.84235 302.10626 220.07672 301.45ZM216.6236 299.7469L220.09235 299.7469Q220.02985 298.95 219.70172 298.5594Q219.1861 297.95 218.38922 297.95Q217.65485 297.95 217.15485 298.4344Q216.67047 298.91876 216.6236 299.7469Z" fill-rule="nonzero"/><path fill="#000000" d="M146.4986 317.45L145.45172 317.45L145.45172 310.73126Q145.0611 311.09064 144.4361 311.46564Q143.82672 311.825 143.34235 311.9969L143.34235 310.98126Q144.21735 310.5594 144.8736 309.98126Q145.54547 309.3875 145.82672 308.825L146.4986 308.825L146.4986 317.45ZM154.9986 310.96564L153.95172 311.04376Q153.8111 310.41876 153.5611 310.1375Q153.1236 309.6844 152.4986 309.6844Q151.9986 309.6844 151.60797 309.96564Q151.1236 310.34064 150.82672 311.04376Q150.54547 311.73126 150.52985 313.0125Q150.90485 312.4344 151.45172 312.15314Q152.01422 311.8719 152.6236 311.8719Q153.67047 311.8719 154.40485 312.65314Q155.15485 313.4344 155.15485 314.65314Q155.15485 315.46564 154.79547 316.16876Q154.45172 316.85626 153.84235 317.23126Q153.23297 317.59064 152.46735 317.59064Q151.13922 317.59064 150.3111 316.6219Q149.48297 315.65314 149.48297 313.4344Q149.48297 310.9344 150.40485 309.8094Q151.20172 308.825 152.5611 308.825Q153.57672 308.825 154.21735 309.40314Q154.8736 309.96564 154.9986 310.96564ZM150.70172 314.66876Q150.70172 315.21564 150.92047 315.71564Q151.15485 316.2 151.5611 316.46564Q151.98297 316.73126 152.45172 316.73126Q153.10797 316.73126 153.59235 316.2Q154.07672 315.65314 154.07672 314.73126Q154.07672 313.84064 153.59235 313.325Q153.1236 312.8094 152.40485 312.8094Q151.6861 312.8094 151.1861 313.325Q150.70172 313.84064 150.70172 314.66876ZM160.98297 314.075L160.98297 313.075L164.60797 313.0594L164.60797 316.2469Q163.77985 316.91876 162.88922 317.2625Q161.9986 317.59064 161.0611 317.59064Q159.79547 317.59064 158.7486 317.0594Q157.71735 316.5125 157.1861 315.4969Q156.67047 314.46564 156.67047 313.2Q156.67047 311.9344 157.1861 310.85626Q157.71735 309.7625 158.70172 309.2469Q159.6861 308.71564 160.96735 308.71564Q161.90485 308.71564 162.65485 309.0125Q163.40485 309.3094 163.82672 309.85626Q164.26422 310.3875 164.48297 311.2625L163.46735 311.54376Q163.26422 310.8875 162.96735 310.5125Q162.6861 310.1375 162.15485 309.91876Q161.6236 309.6844 160.98297 309.6844Q160.20172 309.6844 159.6236 309.91876Q159.0611 310.15314 158.70172 310.54376Q158.35797 310.9344 158.17047 311.40314Q157.84235 312.2 157.84235 313.1219Q157.84235 314.27814 158.23297 315.0594Q158.63922 315.825 159.38922 316.2Q160.13922 316.575 160.9986 316.575Q161.73297 316.575 162.4361 316.29376Q163.13922 315.9969 163.4986 315.6844L163.4986 314.075L160.98297 314.075Z" fill-rule="nonzero"/><path fill="#000000" d="M243.35938 301.16876L244.39062 301.3094Q244.21875 302.3719 243.51562 302.98126Q242.8125 303.59064 241.79688 303.59064Q240.51562 303.59064 239.73438 302.7625Q238.96875 301.91876 238.96875 300.35626Q238.96875 299.35626 239.29688 298.60626Q239.64062 297.84064 240.3125 297.46564Q241.0 297.09064 241.8125 297.09064Q242.8125 297.09064 243.45312 297.60626Q244.10938 298.10626 244.29688 299.0594L243.26562 299.21564Q243.125 298.59064 242.75 298.27814Q242.375 297.95 241.84375 297.95Q241.04688 297.95 240.54688 298.52814Q240.04688 299.09064 240.04688 300.325Q240.04688 301.59064 240.53125 302.15314Q241.01562 302.71564 241.78125 302.71564Q242.40625 302.71564 242.8125 302.34064Q243.23438 301.96564 243.35938 301.16876ZM244.90625 300.34064Q244.90625 298.60626 245.85938 297.77814Q246.65625 297.09064 247.8125 297.09064Q249.09375 297.09064 249.90625 297.9344Q250.73438 298.7625 250.73438 300.2469Q250.73438 301.45 250.375 302.1375Q250.01562 302.825 249.3125 303.21564Q248.625 303.59064 247.8125 303.59064Q246.51562 303.59064 245.70312 302.7625Q244.90625 301.91876 244.90625 300.34064ZM245.98438 300.34064Q245.98438 301.52814 246.5 302.1219Q247.03125 302.71564 247.8125 302.71564Q248.60938 302.71564 249.125 302.1219Q249.64062 301.52814 249.64062 300.3094Q249.64062 299.15314 249.10938 298.5594Q248.59375 297.96564 247.8125 297.96564Q247.03125 297.96564 246.5 298.5594Q245.98438 299.1375 245.98438 300.34064ZM252.28125 303.45L252.28125 297.23126L253.23438 297.23126L253.23438 298.16876Q253.59375 297.5125 253.89062 297.3094Q254.20312 297.09064 254.57812 297.09064Q255.10938 297.09064 255.65625 297.41876L255.29688 298.40314Q254.90625 298.16876 254.53125 298.16876Q254.17188 298.16876 253.89062 298.3875Q253.625 298.59064 253.51562 298.96564Q253.32812 299.52814 253.32812 300.1844L253.32812 303.45L252.28125 303.45ZM260.54688 301.45L261.64062 301.575Q261.39062 302.52814 260.6875 303.0594Q259.98438 303.59064 258.90625 303.59064Q257.54688 303.59064 256.73438 302.7469Q255.9375 301.90314 255.9375 300.3875Q255.9375 298.825 256.75 297.96564Q257.5625 297.09064 258.84375 297.09064Q260.09375 297.09064 260.875 297.9344Q261.67188 298.77814 261.67188 300.325Q261.67188 300.41876 261.67188 300.60626L257.03125 300.60626Q257.09375 301.6375 257.60938 302.1844Q258.125 302.71564 258.90625 302.71564Q259.48438 302.71564 259.89062 302.41876Q260.3125 302.10626 260.54688 301.45ZM257.09375 299.7469L260.5625 299.7469Q260.5 298.95 260.17188 298.5594Q259.65625 297.95 258.85938 297.95Q258.125 297.95 257.625 298.4344Q257.14062 298.91876 257.09375 299.7469ZM266.29688 296.075L266.29688 294.85626L267.35938 294.85626L267.35938 296.075L266.29688 296.075ZM266.29688 303.45L266.29688 297.23126L267.35938 297.23126L267.35938 303.45L266.29688 303.45ZM269.15625 301.46564L270.17188 301.3719Q270.29688 302.09064 270.65625 302.41876Q271.03125 302.73126 271.59375 302.73126Q272.07812 302.73126 272.4375 302.5125Q272.8125 302.27814 273.04688 301.91876Q273.28125 301.54376 273.4375 300.91876Q273.59375 300.27814 273.59375 299.6219Q273.59375 299.54376 273.59375 299.40314Q273.28125 299.90314 272.73438 300.23126Q272.1875 300.54376 271.54688 300.54376Q270.46875 300.54376 269.73438 299.77814Q269.0 298.9969 269.0 297.73126Q269.0 296.41876 269.76562 295.6219Q270.54688 294.825 271.70312 294.825Q272.53125 294.825 273.21875 295.27814Q273.92188 295.73126 274.28125 296.575Q274.64062 297.40314 274.64062 298.98126Q274.64062 300.6219 274.28125 301.60626Q273.9375 302.575 273.21875 303.09064Q272.51562 303.59064 271.57812 303.59064Q270.5625 303.59064 269.92188 303.04376Q269.28125 302.48126 269.15625 301.46564ZM273.46875 297.66876Q273.46875 296.7625 272.98438 296.23126Q272.51562 295.7 271.82812 295.7Q271.125 295.7 270.59375 296.27814Q270.07812 296.84064 270.07812 297.7625Q270.07812 298.575 270.57812 299.09064Q271.07812 299.60626 271.79688 299.60626Q272.53125 299.60626 273.0 299.09064Q273.46875 298.575 273.46875 297.66876ZM284.54688 302.4344L284.54688 303.45L278.85938 303.45Q278.85938 303.075 278.98438 302.71564Q279.20312 302.1375 279.67188 301.575Q280.15625 301.0125 281.0625 300.27814Q282.46875 299.1219 282.95312 298.45Q283.45312 297.77814 283.45312 297.1844Q283.45312 296.5594 283.0 296.1375Q282.54688 295.7 281.82812 295.7Q281.0625 295.7 280.60938 296.15314Q280.15625 296.60626 280.14062 297.41876L279.0625 297.3094Q279.17188 296.09064 279.89062 295.46564Q280.625 294.825 281.85938 294.825Q283.09375 294.825 283.8125 295.5125Q284.53125 296.2 284.53125 297.21564Q284.53125 297.73126 284.3125 298.23126Q284.10938 298.71564 283.60938 299.27814Q283.125 299.825 282.0 300.77814Q281.04688 301.575 280.76562 301.8719Q280.5 302.15314 280.32812 302.4344L284.54688 302.4344ZM286.5625 303.45L286.5625 302.2469L287.76562 302.2469L287.76562 303.45Q287.76562 304.10626 287.53125 304.5125Q287.29688 304.9344 286.79688 305.15314L286.5 304.7Q286.82812 304.5594 286.98438 304.2625Q287.14062 303.98126 287.17188 303.45L286.5625 303.45ZM292.375 303.45L292.375 301.3875L288.65625 301.3875L288.65625 300.41876L292.57812 294.85626L293.4375 294.85626L293.4375 300.41876L294.59375 300.41876L294.59375 301.3875L293.4375 301.3875L293.4375 303.45L292.375 303.45ZM292.375 300.41876L292.375 296.5594L289.6875 300.41876L292.375 300.41876ZM303.45312 300.075L303.45312 299.075L307.07812 299.0594L307.07812 302.2469Q306.25 302.91876 305.35938 303.2625Q304.46875 303.59064 303.53125 303.59064Q302.26562 303.59064 301.21875 303.0594Q300.1875 302.5125 299.65625 301.4969Q299.14062 300.46564 299.14062 299.2Q299.14062 297.9344 299.65625 296.85626Q300.1875 295.7625 301.17188 295.2469Q302.15625 294.71564 303.4375 294.71564Q304.375 294.71564 305.125 295.0125Q305.875 295.3094 306.29688 295.85626Q306.73438 296.3875 306.95312 297.2625L305.9375 297.54376Q305.73438 296.8875 305.4375 296.5125Q305.15625 296.1375 304.625 295.91876Q304.09375 295.6844 303.45312 295.6844Q302.67188 295.6844 302.09375 295.91876Q301.53125 296.15314 301.17188 296.54376Q300.82812 296.9344 300.64062 297.40314Q300.3125 298.2 300.3125 299.1219Q300.3125 300.27814 300.70312 301.0594Q301.10938 301.825 301.85938 302.2Q302.60938 302.575 303.46875 302.575Q304.20312 302.575 304.90625 302.29376Q305.60938 301.9969 305.96875 301.6844L305.96875 300.075L303.45312 300.075ZM308.46875 303.45L308.46875 294.85626L309.59375 294.85626L309.59375 298.3875L314.0625 298.3875L314.0625 294.85626L315.20312 294.85626L315.20312 303.45L314.0625 303.45L314.0625 299.40314L309.59375 299.40314L309.59375 303.45L308.46875 303.45ZM316.73438 303.45L316.73438 302.59064L320.70312 298.04376Q320.01562 298.075 319.5 298.075L316.96875 298.075L316.96875 297.23126L322.0625 297.23126L322.0625 297.91876L318.6875 301.8719L318.03125 302.59064Q318.75 302.54376 319.35938 302.54376L322.25 302.54376L322.25 303.45L316.73438 303.45ZM326.625 298.79376Q325.96875 298.54376 325.64062 298.10626Q325.32812 297.65314 325.32812 297.04376Q325.32812 296.10626 326.0 295.46564Q326.6875 294.825 327.79688 294.825Q328.92188 294.825 329.60938 295.48126Q330.29688 296.1375 330.29688 297.075Q330.29688 297.66876 329.98438 298.10626Q329.67188 298.54376 329.03125 298.79376Q329.82812 299.04376 330.23438 299.6219Q330.64062 300.2 330.64062 300.9969Q330.64062 302.09064 329.85938 302.84064Q329.09375 303.59064 327.8125 303.59064Q326.54688 303.59064 325.76562 302.84064Q324.98438 302.09064 324.98438 300.96564Q324.98438 300.1219 325.40625 299.5594Q325.84375 298.9969 326.625 298.79376ZM326.40625 296.9969Q326.40625 297.60626 326.79688 297.9969Q327.20312 298.3875 327.82812 298.3875Q328.4375 298.3875 328.82812 298.0125Q329.21875 297.6219 329.21875 297.0594Q329.21875 296.48126 328.8125 296.09064Q328.40625 295.6844 327.8125 295.6844Q327.20312 295.6844 326.79688 296.075Q326.40625 296.46564 326.40625 296.9969ZM326.07812 300.96564Q326.07812 301.41876 326.28125 301.84064Q326.5 302.2625 326.92188 302.4969Q327.34375 302.73126 327.82812 302.73126Q328.57812 302.73126 329.0625 302.2469Q329.5625 301.7625 329.5625 301.0125Q329.5625 300.2469 329.0625 299.7469Q328.5625 299.2469 327.79688 299.2469Q327.04688 299.2469 326.5625 299.7469Q326.07812 300.23126 326.07812 300.96564ZM331.875 300.8719L331.875 299.8094L335.125 299.8094L335.125 300.8719L331.875 300.8719ZM342.5625 300.4344L343.6875 300.73126Q343.32812 302.1219 342.40625 302.85626Q341.48438 303.59064 340.14062 303.59064Q338.75 303.59064 337.875 303.02814Q337.0 302.46564 336.54688 301.40314Q336.09375 300.325 336.09375 299.09064Q336.09375 297.7469 336.60938 296.7469Q337.125 295.7469 338.0625 295.23126Q339.01562 294.71564 340.15625 294.71564Q341.4375 294.71564 342.3125 295.3719Q343.20312 296.02814 343.54688 297.21564L342.42188 297.48126Q342.125 296.54376 341.54688 296.1219Q340.98438 295.6844 340.125 295.6844Q339.14062 295.6844 338.46875 296.16876Q337.8125 296.6375 337.53125 297.4344Q337.26562 298.23126 337.26562 299.09064Q337.26562 300.1844 337.57812 300.9969Q337.90625 301.8094 338.57812 302.21564Q339.25 302.6219 340.04688 302.6219Q341.0 302.6219 341.65625 302.075Q342.32812 301.52814 342.5625 300.4344ZM344.90625 300.34064Q344.90625 298.60626 345.85938 297.77814Q346.65625 297.09064 347.8125 297.09064Q349.09375 297.09064 349.90625 297.9344Q350.73438 298.7625 350.73438 300.2469Q350.73438 301.45 350.375 302.1375Q350.01562 302.825 349.3125 303.21564Q348.625 303.59064 347.8125 303.59064Q346.51562 303.59064 345.70312 302.7625Q344.90625 301.91876 344.90625 300.34064ZM345.98438 300.34064Q345.98438 301.52814 346.5 302.1219Q347.03125 302.71564 347.8125 302.71564Q348.60938 302.71564 349.125 302.1219Q349.64062 301.52814 349.64062 300.3094Q349.64062 299.15314 349.10938 298.5594Q348.59375 297.96564 347.8125 297.96564Q347.03125 297.96564 346.5 298.5594Q345.98438 299.1375 345.98438 300.34064ZM352.28125 303.45L352.28125 297.23126L353.23438 297.23126L353.23438 298.16876Q353.59375 297.5125 353.89062 297.3094Q354.20312 297.09064 354.57812 297.09064Q355.10938 297.09064 355.65625 297.41876L355.29688 298.40314Q354.90625 298.16876 354.53125 298.16876Q354.17188 298.16876 353.89062 298.3875Q353.625 298.59064 353.51562 298.96564Q353.32812 299.52814 353.32812 300.1844L353.32812 303.45L352.28125 303.45ZM360.54688 301.45L361.64062 301.575Q361.39062 302.52814 360.6875 303.0594Q359.98438 303.59064 358.90625 303.59064Q357.54688 303.59064 356.73438 302.7469Q355.9375 301.90314 355.9375 300.3875Q355.9375 298.825 356.75 297.96564Q357.5625 297.09064 358.84375 297.09064Q360.09375 297.09064 360.875 297.9344Q361.67188 298.77814 361.67188 300.325Q361.67188 300.41876 361.67188 300.60626L357.03125 300.60626Q357.09375 301.6375 357.60938 302.1844Q358.125 302.71564 358.90625 302.71564Q359.48438 302.71564 359.89062 302.41876Q360.3125 302.10626 360.54688 301.45ZM357.09375 299.7469L360.5625 299.7469Q360.5 298.95 360.17188 298.5594Q359.65625 297.95 358.85938 297.95Q358.125 297.95 357.625 298.4344Q357.14062 298.91876 357.09375 299.7469ZM366.0 301.1844L367.0625 301.04376Q367.23438 301.9344 367.67188 302.34064Q368.10938 302.73126 368.73438 302.73126Q369.48438 302.73126 370.0 302.21564Q370.51562 301.7 370.51562 300.9344Q370.51562 300.21564 370.03125 299.7469Q369.5625 299.2625 368.82812 299.2625Q368.53125 299.2625 368.07812 299.3875L368.20312 298.45Q368.3125 298.46564 368.375 298.46564Q369.04688 298.46564 369.57812 298.1219Q370.125 297.7625 370.125 297.02814Q370.125 296.45 369.73438 296.075Q369.34375 295.6844 368.71875 295.6844Q368.10938 295.6844 367.6875 296.075Q367.28125 296.46564 367.17188 297.23126L366.10938 297.04376Q366.29688 295.9969 366.98438 295.41876Q367.67188 294.825 368.6875 294.825Q369.39062 294.825 369.98438 295.1375Q370.57812 295.4344 370.89062 295.95Q371.20312 296.46564 371.20312 297.0594Q371.20312 297.60626 370.90625 298.075Q370.60938 298.52814 370.03125 298.79376Q370.78125 298.96564 371.20312 299.52814Q371.625 300.075 371.625 300.91876Q371.625 302.04376 370.79688 302.825Q369.98438 303.60626 368.73438 303.60626Q367.60938 303.60626 366.85938 302.9344Q366.10938 302.2469 366.0 301.1844ZM378.54688 302.4344L378.54688 303.45L372.85938 303.45Q372.85938 303.075 372.98438 302.71564Q373.20312 302.1375 373.67188 301.575Q374.15625 301.0125 375.0625 300.27814Q376.46875 299.1219 376.95312 298.45Q377.45312 297.77814 377.45312 297.1844Q377.45312 296.5594 377.0 296.1375Q376.54688 295.7 375.82812 295.7Q375.0625 295.7 374.60938 296.15314Q374.15625 296.60626 374.14062 297.41876L373.0625 297.3094Q373.17188 296.09064 373.89062 295.46564Q374.625 294.825 375.85938 294.825Q377.09375 294.825 377.8125 295.5125Q378.53125 296.2 378.53125 297.21564Q378.53125 297.73126 378.3125 298.23126Q378.10938 298.71564 377.60938 299.27814Q377.125 299.825 376.0 300.77814Q375.04688 301.575 374.76562 301.8719Q374.5 302.15314 374.32812 302.4344L378.54688 302.4344ZM384.45312 300.075L384.45312 299.075L388.07812 299.0594L388.07812 302.2469Q387.25 302.91876 386.35938 303.2625Q385.46875 303.59064 384.53125 303.59064Q383.26562 303.59064 382.21875 303.0594Q381.1875 302.5125 380.65625 301.4969Q380.14062 300.46564 380.14062 299.2Q380.14062 297.9344 380.65625 296.85626Q381.1875 295.7625 382.17188 295.2469Q383.15625 294.71564 384.4375 294.71564Q385.375 294.71564 386.125 295.0125Q386.875 295.3094 387.29688 295.85626Q387.73438 296.3875 387.95312 297.2625L386.9375 297.54376Q386.73438 296.8875 386.4375 296.5125Q386.15625 296.1375 385.625 295.91876Q385.09375 295.6844 384.45312 295.6844Q383.67188 295.6844 383.09375 295.91876Q382.53125 296.15314 382.17188 296.54376Q381.82812 296.9344 381.64062 297.40314Q381.3125 298.2 381.3125 299.1219Q381.3125 300.27814 381.70312 301.0594Q382.10938 301.825 382.85938 302.2Q383.60938 302.575 384.46875 302.575Q385.20312 302.575 385.90625 302.29376Q386.60938 301.9969 386.96875 301.6844L386.96875 300.075L384.45312 300.075Z" fill-rule="nonzero"/><path fill="#000000" d="M418.32953 302.6844Q417.73578 303.1844 417.1889 303.3875Q416.65765 303.59064 416.03265 303.59064Q415.0014 303.59064 414.45453 303.09064Q413.90765 302.59064 413.90765 301.8094Q413.90765 301.35626 414.11078 300.98126Q414.3139 300.59064 414.65765 300.3719Q415.0014 300.1375 415.42328 300.02814Q415.72015 299.9344 416.36078 299.85626Q417.6264 299.71564 418.23578 299.4969Q418.23578 299.27814 418.23578 299.23126Q418.23578 298.575 417.9389 298.3094Q417.53265 297.96564 416.73578 297.96564Q416.0014 297.96564 415.64203 298.23126Q415.28265 298.48126 415.11078 299.1375L414.07953 298.9969Q414.22015 298.34064 414.54828 297.9344Q414.8764 297.52814 415.48578 297.3094Q416.09515 297.09064 416.89203 297.09064Q417.6889 297.09064 418.1889 297.27814Q418.6889 297.46564 418.92328 297.7469Q419.15765 298.02814 419.2514 298.46564Q419.29828 298.73126 419.29828 299.4344L419.29828 300.84064Q419.29828 302.3094 419.36078 302.7Q419.4389 303.09064 419.64203 303.45L418.53265 303.45Q418.3764 303.1219 418.32953 302.6844ZM418.23578 300.325Q417.65765 300.5594 416.51703 300.73126Q415.86078 300.825 415.59515 300.95Q415.32953 301.0594 415.17328 301.27814Q415.03265 301.4969 415.03265 301.77814Q415.03265 302.2 415.34515 302.48126Q415.67328 302.7625 416.28265 302.7625Q416.89203 302.7625 417.36078 302.4969Q417.84515 302.23126 418.0639 301.7625Q418.23578 301.40314 418.23578 300.71564L418.23578 300.325ZM421.2514 303.45L421.2514 297.23126L422.20453 297.23126L422.20453 298.16876Q422.5639 297.5125 422.86078 297.3094Q423.17328 297.09064 423.54828 297.09064Q424.07953 297.09064 424.6264 297.41876L424.26703 298.40314Q423.8764 298.16876 423.5014 298.16876Q423.14203 298.16876 422.86078 298.3875Q422.59515 298.59064 422.48578 298.96564Q422.29828 299.52814 422.29828 300.1844L422.29828 303.45L421.2514 303.45ZM425.26703 303.45L425.26703 297.23126L426.20453 297.23126L426.20453 298.10626Q426.5014 297.6375 426.98578 297.3719Q427.47015 297.09064 428.09515 297.09064Q428.78265 297.09064 429.22015 297.3719Q429.67328 297.65314 429.84515 298.16876Q430.59515 297.09064 431.76703 297.09064Q432.70453 297.09064 433.1889 297.60626Q433.6889 298.10626 433.6889 299.1844L433.6889 303.45L432.64203 303.45L432.64203 299.52814Q432.64203 298.90314 432.53265 298.6219Q432.4389 298.34064 432.17328 298.16876Q431.90765 297.9969 431.53265 297.9969Q430.8764 297.9969 430.4389 298.4344Q430.01703 298.8719 430.01703 299.84064L430.01703 303.45L428.95453 303.45L428.95453 299.40314Q428.95453 298.7 428.6889 298.35626Q428.4389 297.9969 427.86078 297.9969Q427.40765 297.9969 427.03265 298.23126Q426.65765 298.46564 426.48578 298.91876Q426.3139 299.3719 426.3139 300.21564L426.3139 303.45L425.26703 303.45ZM439.26703 303.45L439.26703 297.23126L440.20453 297.23126L440.20453 298.10626Q440.5014 297.6375 440.98578 297.3719Q441.47015 297.09064 442.09515 297.09064Q442.78265 297.09064 443.22015 297.3719Q443.67328 297.65314 443.84515 298.16876Q444.59515 297.09064 445.76703 297.09064Q446.70453 297.09064 447.1889 297.60626Q447.6889 298.10626 447.6889 299.1844L447.6889 303.45L446.64203 303.45L446.64203 299.52814Q446.64203 298.90314 446.53265 298.6219Q446.4389 298.34064 446.17328 298.16876Q445.90765 297.9969 445.53265 297.9969Q444.8764 297.9969 444.4389 298.4344Q444.01703 298.8719 444.01703 299.84064L444.01703 303.45L442.95453 303.45L442.95453 299.40314Q442.95453 298.7 442.6889 298.35626Q442.4389 297.9969 441.86078 297.9969Q441.40765 297.9969 441.03265 298.23126Q440.65765 298.46564 440.48578 298.91876Q440.3139 299.3719 440.3139 300.21564L440.3139 303.45L439.26703 303.45ZM453.9389 303.45L452.89203 303.45L452.89203 296.73126Q452.5014 297.09064 451.8764 297.46564Q451.26703 297.825 450.78265 297.9969L450.78265 296.98126Q451.65765 296.5594 452.3139 295.98126Q452.98578 295.3875 453.26703 294.825L453.9389 294.825L453.9389 303.45ZM463.9389 303.45L462.89203 303.45L462.89203 296.73126Q462.5014 297.09064 461.8764 297.46564Q461.26703 297.825 460.78265 297.9969L460.78265 296.98126Q461.65765 296.5594 462.3139 295.98126Q462.98578 295.3875 463.26703 294.825L463.9389 294.825L463.9389 303.45ZM466.97015 299.21564Q466.97015 297.6844 467.28265 296.7625Q467.59515 295.825 468.20453 295.325Q468.82953 294.825 469.76703 294.825Q470.45453 294.825 470.97015 295.10626Q471.5014 295.3875 471.84515 295.91876Q472.1889 296.4344 472.3764 297.1844Q472.5639 297.9344 472.5639 299.21564Q472.5639 300.73126 472.2514 301.65314Q471.95453 302.575 471.32953 303.09064Q470.72015 303.59064 469.76703 303.59064Q468.53265 303.59064 467.8139 302.7Q466.97015 301.6375 466.97015 299.21564ZM468.04828 299.21564Q468.04828 301.325 468.54828 302.02814Q469.04828 302.73126 469.76703 302.73126Q470.5014 302.73126 470.98578 302.02814Q471.48578 301.325 471.48578 299.21564Q471.48578 297.09064 470.98578 296.40314Q470.5014 295.7 469.7514 295.7Q469.03265 295.7 468.59515 296.3094Q468.04828 297.09064 468.04828 299.21564ZM481.32953 301.16876L482.36078 301.3094Q482.1889 302.3719 481.48578 302.98126Q480.78265 303.59064 479.76703 303.59064Q478.48578 303.59064 477.70453 302.7625Q476.9389 301.91876 476.9389 300.35626Q476.9389 299.35626 477.26703 298.60626Q477.61078 297.84064 478.28265 297.46564Q478.97015 297.09064 479.78265 297.09064Q480.78265 297.09064 481.42328 297.60626Q482.07953 298.10626 482.26703 299.0594L481.23578 299.21564Q481.09515 298.59064 480.72015 298.27814Q480.34515 297.95 479.8139 297.95Q479.01703 297.95 478.51703 298.52814Q478.01703 299.09064 478.01703 300.325Q478.01703 301.59064 478.5014 302.15314Q478.98578 302.71564 479.7514 302.71564Q480.3764 302.71564 480.78265 302.34064Q481.20453 301.96564 481.32953 301.16876ZM482.8764 300.34064Q482.8764 298.60626 483.82953 297.77814Q484.6264 297.09064 485.78265 297.09064Q487.0639 297.09064 487.8764 297.9344Q488.70453 298.7625 488.70453 300.2469Q488.70453 301.45 488.34515 302.1375Q487.98578 302.825 487.28265 303.21564Q486.59515 303.59064 485.78265 303.59064Q484.48578 303.59064 483.67328 302.7625Q482.8764 301.91876 482.8764 300.34064ZM483.95453 300.34064Q483.95453 301.52814 484.47015 302.1219Q485.0014 302.71564 485.78265 302.71564Q486.57953 302.71564 487.09515 302.1219Q487.61078 301.52814 487.61078 300.3094Q487.61078 299.15314 487.07953 298.5594Q486.5639 297.96564 485.78265 297.96564Q485.0014 297.96564 484.47015 298.5594Q483.95453 299.1375 483.95453 300.34064ZM490.2514 303.45L490.2514 297.23126L491.20453 297.23126L491.20453 298.16876Q491.5639 297.5125 491.86078 297.3094Q492.17328 297.09064 492.54828 297.09064Q493.07953 297.09064 493.6264 297.41876L493.26703 298.40314Q492.8764 298.16876 492.5014 298.16876Q492.14203 298.16876 491.86078 298.3875Q491.59515 298.59064 491.48578 298.96564Q491.29828 299.52814 491.29828 300.1844L491.29828 303.45L490.2514 303.45ZM498.51703 301.45L499.61078 301.575Q499.36078 302.52814 498.65765 303.0594Q497.95453 303.59064 496.8764 303.59064Q495.51703 303.59064 494.70453 302.7469Q493.90765 301.90314 493.90765 300.3875Q493.90765 298.825 494.72015 297.96564Q495.53265 297.09064 496.8139 297.09064Q498.0639 297.09064 498.84515 297.9344Q499.64203 298.77814 499.64203 300.325Q499.64203 300.41876 499.64203 300.60626L495.0014 300.60626Q495.0639 301.6375 495.57953 302.1844Q496.09515 302.71564 496.8764 302.71564Q497.45453 302.71564 497.86078 302.41876Q498.28265 302.10626 498.51703 301.45ZM495.0639 299.7469L498.53265 299.7469Q498.47015 298.95 498.14203 298.5594Q497.6264 297.95 496.82953 297.95Q496.09515 297.95 495.59515 298.4344Q495.11078 298.91876 495.0639 299.7469ZM500.84515 301.59064L501.8764 301.4344Q501.97015 302.0594 502.36078 302.3875Q502.76703 302.71564 503.5014 302.71564Q504.22015 302.71564 504.5639 302.4344Q504.92328 302.1375 504.92328 301.73126Q504.92328 301.3719 504.61078 301.16876Q504.39203 301.02814 503.53265 300.8094Q502.3764 300.5125 501.92328 300.3094Q501.48578 300.09064 501.2514 299.71564Q501.01703 299.34064 501.01703 298.8719Q501.01703 298.46564 501.20453 298.10626Q501.39203 297.7469 501.72015 297.5125Q501.97015 297.34064 502.39203 297.21564Q502.8139 297.09064 503.3139 297.09064Q504.03265 297.09064 504.57953 297.3094Q505.14203 297.5125 505.40765 297.8719Q505.67328 298.23126 505.76703 298.825L504.73578 298.96564Q504.67328 298.4969 504.32953 298.23126Q504.0014 297.95 503.3764 297.95Q502.65765 297.95 502.34515 298.2Q502.03265 298.4344 502.03265 298.7625Q502.03265 298.96564 502.15765 299.1219Q502.29828 299.29376 502.5639 299.40314Q502.72015 299.46564 503.5014 299.66876Q504.6264 299.98126 505.0639 300.16876Q505.5014 300.35626 505.7514 300.71564Q506.0014 301.075 506.0014 301.6219Q506.0014 302.15314 505.6889 302.6219Q505.39203 303.075 504.8139 303.34064Q504.23578 303.59064 503.5014 303.59064Q502.28265 303.59064 501.64203 303.09064Q501.01703 302.575 500.84515 301.59064ZM510.97015 301.1844L512.03265 301.04376Q512.2045 301.9344 512.642 302.34064Q513.0795 302.73126 513.7045 302.73126Q514.4545 302.73126 514.97015 302.21564Q515.4858 301.7 515.4858 300.9344Q515.4858 300.21564 515.0014 299.7469Q514.53265 299.2625 513.7983 299.2625Q513.5014 299.2625 513.0483 299.3875L513.1733 298.45Q513.28265 298.46564 513.34515 298.46564Q514.017 298.46564 514.5483 298.1219Q515.09515 297.7625 515.09515 297.02814Q515.09515 296.45 514.7045 296.075Q514.3139 295.6844 513.6889 295.6844Q513.0795 295.6844 512.65765 296.075Q512.2514 296.46564 512.142 297.23126L511.07953 297.04376Q511.26703 295.9969 511.95453 295.41876Q512.642 294.825 513.65765 294.825Q514.3608 294.825 514.9545 295.1375Q515.5483 295.4344 515.8608 295.95Q516.1733 296.46564 516.1733 297.0594Q516.1733 297.60626 515.8764 298.075Q515.5795 298.52814 515.0014 298.79376Q515.7514 298.96564 516.1733 299.52814Q516.59515 300.075 516.59515 300.91876Q516.59515 302.04376 515.767 302.825Q514.9545 303.60626 513.7045 303.60626Q512.5795 303.60626 511.82953 302.9344Q511.07953 302.2469 510.97015 301.1844ZM523.517 302.4344L523.517 303.45L517.8295 303.45Q517.8295 303.075 517.9545 302.71564Q518.1733 302.1375 518.642 301.575Q519.1264 301.0125 520.03265 300.27814Q521.4389 299.1219 521.9233 298.45Q522.4233 297.77814 522.4233 297.1844Q522.4233 296.5594 521.97015 296.1375Q521.517 295.7 520.7983 295.7Q520.03265 295.7 519.5795 296.15314Q519.1264 296.60626 519.1108 297.41876L518.03265 297.3094Q518.142 296.09064 518.8608 295.46564Q519.59515 294.825 520.8295 294.825Q522.0639 294.825 522.78265 295.5125Q523.5014 296.2 523.5014 297.21564Q523.5014 297.73126 523.28265 298.23126Q523.0795 298.71564 522.5795 299.27814Q522.09515 299.825 520.97015 300.77814Q520.017 301.575 519.7358 301.8719Q519.47015 302.15314 519.2983 302.4344L523.517 302.4344ZM529.4233 300.075L529.4233 299.075L533.0483 299.0594L533.0483 302.2469Q532.22015 302.91876 531.3295 303.2625Q530.4389 303.59064 529.5014 303.59064Q528.2358 303.59064 527.1889 303.0594Q526.15765 302.5125 525.6264 301.4969Q525.1108 300.46564 525.1108 299.2Q525.1108 297.9344 525.6264 296.85626Q526.15765 295.7625 527.142 295.2469Q528.1264 294.71564 529.40765 294.71564Q530.34515 294.71564 531.09515 295.0125Q531.84515 295.3094 532.267 295.85626Q532.7045 296.3875 532.9233 297.2625L531.90765 297.54376Q531.7045 296.8875 531.40765 296.5125Q531.1264 296.1375 530.59515 295.91876Q530.0639 295.6844 529.4233 295.6844Q528.642 295.6844 528.0639 295.91876Q527.5014 296.15314 527.142 296.54376Q526.7983 296.9344 526.6108 297.40314Q526.28265 298.2 526.28265 299.1219Q526.28265 300.27814 526.6733 301.0594Q527.0795 301.825 527.8295 302.2Q528.5795 302.575 529.4389 302.575Q530.1733 302.575 530.8764 302.29376Q531.5795 301.9969 531.9389 301.6844L531.9389 300.075L529.4233 300.075Z" fill-rule="nonzero"/><path fill="#4285f4" d="M230.5 56.916668C230.5 56.364384 230.94771 55.916668 231.5 55.916668L241.5 55.916668C242.05229 55.916668 242.5 56.364384 242.5 56.916668L242.5 66.916664C242.5 67.46895 242.05229 67.916664 241.5 67.916664L231.5 67.916664C230.94771 67.916664 230.5 67.46895 230.5 66.916664Z" fill-rule="nonzero"/><path fill="#1a1a1a" d="M251.42188 65.916664L251.42188 57.322914L254.67188 57.322914Q255.51562 57.322914 255.96875 57.40104Q256.60938 57.510414 257.03125 57.80729Q257.46875 58.104164 257.71875 58.635414Q257.98438 59.166664 257.98438 59.80729Q257.98438 60.90104 257.28125 61.666664Q256.59375 62.416664 254.76562 62.416664L252.5625 62.416664L252.5625 65.916664L251.42188 65.916664ZM252.5625 61.416664L254.78125 61.416664Q255.89062 61.416664 256.34375 61.010414Q256.8125 60.58854 256.8125 59.83854Q256.8125 59.30729 256.53125 58.93229Q256.26562 58.541664 255.82812 58.416664Q255.53125 58.33854 254.76562 58.33854L252.5625 58.33854L252.5625 61.416664ZM263.45312 62.541664L263.45312 61.541664L267.07812 61.52604L267.07812 64.71354Q266.25 65.385414 265.35938 65.729164Q264.46875 66.05729 263.53125 66.05729Q262.26562 66.05729 261.21875 65.52604Q260.1875 64.979164 259.65625 63.96354Q259.14062 62.93229 259.14062 61.666664Q259.14062 60.40104 259.65625 59.322914Q260.1875 58.229164 261.17188 57.71354Q262.15625 57.18229 263.4375 57.18229Q264.375 57.18229 265.125 57.479164Q265.875 57.77604 266.29688 58.322914Q266.73438 58.854164 266.95312 59.729164L265.9375 60.010414Q265.73438 59.354164 265.4375 58.979164Q265.15625 58.604164 264.625 58.385414Q264.09375 58.15104 263.45312 58.15104Q262.67188 58.15104 262.09375 58.385414Q261.53125 58.61979 261.17188 59.010414Q260.82812 59.40104 260.64062 59.86979Q260.3125 60.666664 260.3125 61.58854Q260.3125 62.74479 260.70312 63.52604Q261.10938 64.291664 261.85938 64.666664Q262.60938 65.041664 263.46875 65.041664Q264.20312 65.041664 264.90625 64.760414Q265.60938 64.46354 265.96875 64.15104L265.96875 62.541664L263.45312 62.541664ZM273.54688 64.90104L273.54688 65.916664L267.85938 65.916664Q267.85938 65.541664 267.98438 65.18229Q268.20312 64.604164 268.67188 64.041664Q269.15625 63.479164 270.0625 62.74479Q271.46875 61.58854 271.95312 60.916664Q272.45312 60.24479 272.45312 59.65104Q272.45312 59.02604 272.0 58.604164Q271.54688 58.166664 270.82812 58.166664Q270.0625 58.166664 269.60938 58.61979Q269.15625 59.072914 269.14062 59.885414L268.0625 59.77604Q268.17188 58.55729 268.89062 57.93229Q269.625 57.291664 270.85938 57.291664Q272.09375 57.291664 272.8125 57.979164Q273.53125 58.666664 273.53125 59.68229Q273.53125 60.197914 273.3125 60.697914Q273.10938 61.18229 272.60938 61.74479Q272.125 62.291664 271.0 63.24479Q270.04688 64.041664 269.76562 64.33854Q269.5 64.61979 269.32812 64.90104L273.54688 64.90104Z" fill-rule="nonzero"/><path fill="#ea4335" d="M290.5 56.916668C290.5 56.364384 290.94772 55.916668 291.5 55.916668L301.5 55.916668C302.05228 55.916668 302.5 56.364384 302.5 56.916668L302.5 66.916664C302.5 67.46895 302.05228 67.916664 301.5 67.916664L291.5 67.916664C290.94772 67.916664 290.5 67.46895 290.5 66.916664Z" fill-rule="nonzero"/><path fill="#1a1a1a" d="M310.84375 63.479164L311.875 63.33854Q311.90625 64.322914 312.23438 64.68229Q312.5625 65.041664 313.15625 65.041664Q313.57812 65.041664 313.89062 64.854164Q314.20312 64.65104 314.3125 64.322914Q314.4375 63.979164 314.4375 63.24479L314.4375 57.322914L315.5625 57.322914L315.5625 63.18229Q315.5625 64.260414 315.29688 64.854164Q315.04688 65.447914 314.48438 65.760414Q313.92188 66.05729 313.15625 66.05729Q312.03125 66.05729 311.42188 65.416664Q310.82812 64.760414 310.84375 63.479164ZM317.42188 65.916664L317.42188 57.322914L320.39062 57.322914Q321.39062 57.322914 321.92188 57.447914Q322.65625 57.61979 323.17188 58.05729Q323.85938 58.635414 324.1875 59.541664Q324.53125 60.43229 324.53125 61.572914Q324.53125 62.55729 324.29688 63.30729Q324.07812 64.05729 323.71875 64.55729Q323.35938 65.05729 322.92188 65.33854Q322.5 65.61979 321.90625 65.77604Q321.3125 65.916664 320.53125 65.916664L317.42188 65.916664ZM318.5625 64.90104L320.39062 64.90104Q321.25 64.90104 321.73438 64.74479Q322.21875 64.58854 322.5 64.291664Q322.90625 63.90104 323.125 63.21354Q323.35938 62.52604 323.35938 61.55729Q323.35938 60.21354 322.90625 59.49479Q322.46875 58.760414 321.84375 58.510414Q321.375 58.33854 320.375 58.33854L318.5625 58.33854L318.5625 64.90104ZM326.375 65.916664L326.375 57.322914L329.60938 57.322914Q330.59375 57.322914 331.1875 57.58854Q331.78125 57.854164 332.10938 58.40104Q332.45312 58.93229 332.45312 59.52604Q332.45312 60.072914 332.15625 60.55729Q331.85938 61.041664 331.25 61.33854Q332.03125 61.572914 332.4375 62.135414Q332.85938 62.68229 332.85938 63.43229Q332.85938 64.02604 332.60938 64.55729Q332.35938 65.072914 331.98438 65.354164Q331.60938 65.635414 331.03125 65.77604Q330.46875 65.916664 329.65625 65.916664L326.375 65.916664ZM327.51562 60.93229L329.375 60.93229Q330.125 60.93229 330.45312 60.83854Q330.89062 60.71354 331.10938 60.416664Q331.32812 60.104164 331.32812 59.65104Q331.32812 59.229164 331.125 58.90104Q330.92188 58.572914 330.53125 58.46354Q330.15625 58.33854 329.23438 58.33854L327.51562 58.33854L327.51562 60.93229ZM327.51562 64.90104L329.65625 64.90104Q330.20312 64.90104 330.42188 64.854164Q330.82812 64.791664 331.07812 64.635414Q331.34375 64.46354 331.51562 64.15104Q331.6875 63.83854 331.6875 63.43229Q331.6875 62.947914 331.4375 62.58854Q331.20312 62.229164 330.76562 62.08854Q330.32812 61.947914 329.5 61.947914L327.51562 61.947914L327.51562 64.90104ZM340.5625 62.90104L341.6875 63.197914Q341.32812 64.58854 340.40625 65.322914Q339.48438 66.05729 338.14062 66.05729Q336.75 66.05729 335.875 65.49479Q335.0 64.93229 334.54688 63.86979Q334.09375 62.791664 334.09375 61.55729Q334.09375 60.21354 334.60938 59.21354Q335.125 58.21354 336.0625 57.697914Q337.01562 57.18229 338.15625 57.18229Q339.4375 57.18229 340.3125 57.83854Q341.20312 58.49479 341.54688 59.68229L340.42188 59.947914Q340.125 59.010414 339.54688 58.58854Q338.98438 58.15104 338.125 58.15104Q337.14062 58.15104 336.46875 58.635414Q335.8125 59.104164 335.53125 59.90104Q335.26562 60.697914 335.26562 61.55729Q335.26562 62.65104 335.57812 63.46354Q335.90625 64.27604 336.57812 64.68229Q337.25 65.08854 338.04688 65.08854Q339.0 65.08854 339.65625 64.541664Q340.32812 63.99479 340.5625 62.90104ZM343.59375 65.916664L343.59375 64.71354L344.79688 64.71354L344.79688 65.916664L343.59375 65.916664ZM346.42188 65.916664L346.42188 57.322914L347.57812 57.322914L352.09375 64.072914L352.09375 57.322914L353.1875 57.322914L353.1875 65.916664L352.01562 65.916664L347.5 59.166664L347.5 65.916664L346.42188 65.916664ZM359.54688 63.916664L360.64062 64.041664Q360.39062 64.99479 359.6875 65.52604Q358.98438 66.05729 357.90625 66.05729Q356.54688 66.05729 355.73438 65.21354Q354.9375 64.36979 354.9375 62.854164Q354.9375 61.291664 355.75 60.43229Q356.5625 59.55729 357.84375 59.55729Q359.09375 59.55729 359.875 60.40104Q360.67188 61.24479 360.67188 62.791664Q360.67188 62.885414 360.67188 63.072914L356.03125 63.072914Q356.09375 64.104164 356.60938 64.65104Q357.125 65.18229 357.90625 65.18229Q358.48438 65.18229 358.89062 64.885414Q359.3125 64.572914 359.54688 63.916664ZM356.09375 62.21354L359.5625 62.21354Q359.5 61.416664 359.17188 61.02604Q358.65625 60.416664 357.85938 60.416664Q357.125 60.416664 356.625 60.90104Q356.14062 61.385414 356.09375 62.21354ZM361.59375 65.916664L363.85938 62.68229L361.76562 59.697914L363.07812 59.697914L364.03125 61.15104Q364.29688 61.572914 364.46875 61.854164Q364.71875 61.46354 364.9375 61.166664L365.98438 59.697914L367.25 59.697914L365.09375 62.61979L367.40625 65.916664L366.125 65.916664L364.84375 63.979164L364.5 63.46354L362.85938 65.916664L361.59375 65.916664ZM369.59375 64.979164L369.75 65.90104Q369.29688 65.99479 368.95312 65.99479Q368.375 65.99479 368.0625 65.822914Q367.75 65.635414 367.60938 65.33854Q367.48438 65.041664 367.48438 64.08854L367.48438 60.510414L366.71875 60.510414L366.71875 59.697914L367.48438 59.697914L367.48438 58.15104L368.53125 57.52604L368.53125 59.697914L369.59375 59.697914L369.59375 60.510414L368.53125 60.510414L368.53125 64.15104Q368.53125 64.604164 368.57812 64.729164Q368.64062 64.854164 368.76562 64.93229Q368.89062 65.010414 369.125 65.010414Q369.3125 65.010414 369.59375 64.979164Z" fill-rule="nonzero"/><path fill="#757575" d="M20.159374 37.55L20.159374 23.2375L22.05 23.2375L22.05 29.1125L29.4875 29.1125L29.4875 23.2375L31.378124 23.2375L31.378124 37.55L29.4875 37.55L29.4875 30.8L22.05 30.8L22.05 37.55L20.159374 37.55ZM36.7375 37.55L36.7375 24.925L32.01875 24.925L32.01875 23.2375L43.3625 23.2375L43.3625 24.925L38.628124 24.925L38.628124 37.55L36.7375 37.55ZM48.7375 37.55L48.7375 24.925L44.01875 24.925L44.01875 23.2375L55.3625 23.2375L55.3625 24.925L50.628124 24.925L50.628124 37.55L48.7375 37.55ZM57.096874 37.55L57.096874 23.2375L62.4875 23.2375Q63.925 23.2375 64.675 23.3625Q65.72188 23.55 66.44063 24.05Q67.15938 24.534374 67.58125 25.425Q68.01875 26.315624 68.01875 27.378124Q68.01875 29.20625 66.84688 30.471874Q65.69063 31.721874 62.659374 31.721874L58.9875 31.721874L58.9875 37.55L57.096874 37.55ZM58.9875 30.034374L62.690624 30.034374Q64.51875 30.034374 65.28438 29.3625Q66.06563 28.675 66.06563 27.425Q66.06563 26.534374 65.6125 25.89375Q65.15938 25.253124 64.425 25.05Q63.940624 24.925 62.64375 24.925L58.9875 24.925L58.9875 30.034374ZM75.12813 33.4875L76.83125 33.253124Q76.90938 34.89375 77.45625 35.503124Q78.00313 36.096874 78.97188 36.096874Q79.675 36.096874 80.19063 35.784374Q80.70625 35.45625 80.89375 34.89375Q81.09688 34.33125 81.09688 33.096874L81.09688 23.2375L83.00313 23.2375L83.00313 32.9875Q83.00313 34.784374 82.56563 35.76875Q82.12813 36.753124 81.175 37.284374Q80.2375 37.8 78.97188 37.8Q77.09688 37.8 76.08125 36.721874Q75.08125 35.628124 75.12813 33.4875ZM85.45625 32.95625L87.2375 32.8Q87.3625 33.8625 87.81563 34.55Q88.28438 35.2375 89.25313 35.675Q90.2375 36.096874 91.47188 36.096874Q92.55 36.096874 93.37813 35.784374Q94.20625 35.45625 94.6125 34.89375Q95.01875 34.33125 95.01875 33.659374Q95.01875 32.9875 94.62813 32.4875Q94.2375 31.9875 93.34688 31.64375Q92.76875 31.409374 90.78438 30.940624Q88.81563 30.471874 88.03438 30.05Q87.00313 29.51875 86.50313 28.721874Q86.00313 27.925 86.00313 26.940624Q86.00313 25.846874 86.6125 24.909374Q87.22188 23.971874 88.40938 23.4875Q89.59688 22.9875 91.03438 22.9875Q92.62813 22.9875 93.84688 23.503124Q95.06563 24.01875 95.70625 25.01875Q96.3625 26.003124 96.40938 27.26875L94.59688 27.409374Q94.45625 26.05 93.6125 25.3625Q92.76875 24.659374 91.1125 24.659374Q89.39375 24.659374 88.59688 25.3Q87.81563 25.925 87.81563 26.8Q87.81563 27.58125 88.37813 28.08125Q88.925 28.58125 91.2375 29.096874Q93.55 29.6125 94.40938 30.003124Q95.65938 30.58125 96.25313 31.471874Q96.84688 32.346874 96.84688 33.503124Q96.84688 34.64375 96.19063 35.659374Q95.53438 36.675 94.3 37.2375Q93.08125 37.8 91.55 37.8Q89.6125 37.8 88.3 37.2375Q86.9875 36.659374 86.2375 35.51875Q85.4875 34.378124 85.45625 32.95625ZM98.51875 30.58125Q98.51875 27.01875 100.425 25.003124Q102.34688 22.971874 105.37813 22.971874Q107.3625 22.971874 108.94063 23.925Q110.53438 24.878124 111.3625 26.58125Q112.20625 28.26875 112.20625 30.409374Q112.20625 32.58125 111.33125 34.3Q110.45625 36.01875 108.83125 36.909374Q107.22188 37.8 105.3625 37.8Q103.34688 37.8 101.75313 36.83125Q100.15938 35.846874 99.33125 34.159374Q98.51875 32.45625 98.51875 30.58125ZM100.47188 30.6125Q100.47188 33.190624 101.8625 34.690624Q103.25313 36.175 105.34688 36.175Q107.4875 36.175 108.8625 34.675Q110.25313 33.159374 110.25313 30.39375Q110.25313 28.659374 109.65938 27.3625Q109.08125 26.05 107.94063 25.33125Q106.8 24.6125 105.37813 24.6125Q103.37813 24.6125 101.925 26.003124Q100.47188 27.378124 100.47188 30.6125ZM115.08125 37.55L115.08125 23.2375L117.01875 23.2375L124.53438 34.471874L124.53438 23.2375L126.34688 23.2375L126.34688 37.55L124.40938 37.55L116.89375 26.3L116.89375 37.55L115.08125 37.55ZM132.51875 37.55L138.01875 23.2375L140.06563 23.2375L145.925 37.55L143.76875 37.55L142.09688 33.20625L136.1125 33.20625L134.53438 37.55L132.51875 37.55ZM136.65938 31.675L141.50313 31.675L140.01875 27.70625Q139.33125 25.89375 139.00313 24.7375Q138.72188 26.1125 138.22188 27.471874L136.65938 31.675ZM147.09688 37.55L147.09688 23.2375L152.4875 23.2375Q153.925 23.2375 154.675 23.3625Q155.72188 23.55 156.44063 24.05Q157.15938 24.534374 157.58125 25.425Q158.01875 26.315624 158.01875 27.378124Q158.01875 29.20625 156.84688 30.471874Q155.69063 31.721874 152.65938 31.721874L148.9875 31.721874L148.9875 37.55L147.09688 37.55ZM148.9875 30.034374L152.69063 30.034374Q154.51875 30.034374 155.28438 29.3625Q156.06563 28.675 156.06563 27.425Q156.06563 26.534374 155.6125 25.89375Q155.15938 25.253124 154.425 25.05Q153.94063 24.925 152.64375 24.925L148.9875 24.925L148.9875 30.034374ZM160.40938 37.55L160.40938 23.2375L162.31563 23.2375L162.31563 37.55L160.40938 37.55ZM166.33125 37.55L166.33125 35.55L168.33125 35.55L168.33125 37.55Q168.33125 38.659374 167.94063 39.33125Q167.55 40.01875 166.70625 40.378124L166.20625 39.628124Q166.76875 39.39375 167.03438 38.909374Q167.3 38.440624 167.33125 37.55L166.33125 37.55ZM178.12813 37.55L178.12813 23.2375L184.47188 23.2375Q186.37813 23.2375 187.37813 23.628124Q188.37813 24.003124 188.97188 24.9875Q189.56563 25.95625 189.56563 27.14375Q189.56563 28.659374 188.58125 29.70625Q187.59688 30.753124 185.53438 31.034374Q186.28438 31.39375 186.675 31.753124Q187.50313 32.503124 188.25313 33.659374L190.7375 37.55L188.3625 37.55L186.45625 34.565624Q185.62813 33.284374 185.09688 32.596874Q184.56563 31.909374 184.12813 31.64375Q183.70625 31.3625 183.26875 31.253124Q182.94063 31.190624 182.22188 31.190624L180.01875 31.190624L180.01875 37.55L178.12813 37.55ZM180.01875 29.55L184.09688 29.55Q185.39375 29.55 186.1125 29.284374Q186.84688 29.01875 187.22188 28.425Q187.6125 27.83125 187.6125 27.14375Q187.6125 26.128124 186.87813 25.471874Q186.14375 24.815624 184.55 24.815624L180.01875 24.815624L180.01875 29.55ZM192.09688 37.55L192.09688 23.2375L197.4875 23.2375Q198.925 23.2375 199.675 23.3625Q200.72188 23.55 201.44063 24.05Q202.15938 24.534374 202.58125 25.425Q203.01875 26.315624 203.01875 27.378124Q203.01875 29.20625 201.84688 30.471874Q200.69063 31.721874 197.65938 31.721874L193.9875 31.721874L193.9875 37.55L192.09688 37.55ZM193.9875 30.034374L197.69063 30.034374Q199.51875 30.034374 200.28438 29.3625Q201.06563 28.675 201.06563 27.425Q201.06563 26.534374 200.6125 25.89375Q200.15938 25.253124 199.425 25.05Q198.94063 24.925 197.64375 24.925L193.9875 24.925L193.9875 30.034374ZM204.45625 32.95625L206.2375 32.8Q206.3625 33.8625 206.81563 34.55Q207.28438 35.2375 208.25313 35.675Q209.2375 36.096874 210.47188 36.096874Q211.55 36.096874 212.37813 35.784374Q213.20625 35.45625 213.6125 34.89375Q214.01875 34.33125 214.01875 33.659374Q214.01875 32.9875 213.62813 32.4875Q213.2375 31.9875 212.34688 31.64375Q211.76875 31.409374 209.78438 30.940624Q207.81563 30.471874 207.03438 30.05Q206.00313 29.51875 205.50313 28.721874Q205.00313 27.925 205.00313 26.940624Q205.00313 25.846874 205.6125 24.909374Q206.22188 23.971874 207.40938 23.4875Q208.59688 22.9875 210.03438 22.9875Q211.62813 22.9875 212.84688 23.503124Q214.06563 24.01875 214.70625 25.01875Q215.3625 26.003124 215.40938 27.26875L213.59688 27.409374Q213.45625 26.05 212.6125 25.3625Q211.76875 24.659374 210.1125 24.659374Q208.39375 24.659374 207.59688 25.3Q206.81563 25.925 206.81563 26.8Q206.81563 27.58125 207.37813 28.08125Q207.925 28.58125 210.2375 29.096874Q212.55 29.6125 213.40938 30.003124Q214.65938 30.58125 215.25313 31.471874Q215.84688 32.346874 215.84688 33.503124Q215.84688 34.64375 215.19063 35.659374Q214.53438 36.675 213.3 37.2375Q212.08125 37.8 210.55 37.8Q208.6125 37.8 207.3 37.2375Q205.9875 36.659374 205.2375 35.51875Q204.4875 34.378124 204.45625 32.95625ZM218.33125 37.55L218.33125 35.55L220.33125 35.55L220.33125 37.55Q220.33125 38.659374 219.94063 39.33125Q219.55 40.01875 218.70625 40.378124L218.20625 39.628124Q218.76875 39.39375 219.03438 38.909374Q219.3 38.440624 219.33125 37.55L218.33125 37.55ZM236.64375 36.26875Q235.65938 37.096874 234.75313 37.440624Q233.84688 37.784374 232.81563 37.784374Q231.1125 37.784374 230.19063 36.95625Q229.26875 36.1125 229.26875 34.815624Q229.26875 34.05 229.6125 33.425Q229.97188 32.8 230.53438 32.425Q231.09688 32.034374 231.8 31.83125Q232.31563 31.70625 233.3625 31.565624Q235.4875 31.315624 236.4875 30.971874Q236.50313 30.6125 236.50313 30.503124Q236.50313 29.440624 236.00313 28.9875Q235.33125 28.39375 234.00313 28.39375Q232.75313 28.39375 232.15938 28.83125Q231.58125 29.26875 231.3 30.378124L229.58125 30.14375Q229.81563 29.034374 230.34688 28.3625Q230.87813 27.675 231.89375 27.315624Q232.90938 26.940624 234.25313 26.940624Q235.58125 26.940624 236.40938 27.253124Q237.2375 27.565624 237.62813 28.05Q238.01875 28.51875 238.175 29.2375Q238.26875 29.690624 238.26875 30.8625L238.26875 33.20625Q238.26875 35.659374 238.37813 36.315624Q238.4875 36.95625 238.83125 37.55L236.9875 37.55Q236.72188 37.003124 236.64375 36.26875ZM236.4875 32.346874Q235.53438 32.7375 233.6125 33.003124Q232.53438 33.159374 232.08125 33.3625Q231.64375 33.55 231.39375 33.925Q231.14375 34.3 231.14375 34.76875Q231.14375 35.471874 231.675 35.940624Q232.20625 36.409374 233.2375 36.409374Q234.25313 36.409374 235.03438 35.971874Q235.83125 35.51875 236.20625 34.753124Q236.4875 34.14375 236.4875 32.9875L236.4875 32.346874ZM242.4875 37.55L240.8625 37.55L240.8625 23.2375L242.6125 23.2375L242.6125 28.346874Q243.7375 26.940624 245.45625 26.940624Q246.40938 26.940624 247.26875 27.33125Q248.12813 27.721874 248.675 28.425Q249.22188 29.1125 249.53438 30.096874Q249.84688 31.08125 249.84688 32.20625Q249.84688 34.878124 248.53438 36.33125Q247.22188 37.784374 245.37813 37.784374Q243.53438 37.784374 242.4875 36.253124L242.4875 37.55ZM242.47188 32.284374Q242.47188 34.14375 242.97188 34.9875Q243.81563 36.33125 245.22188 36.33125Q246.37813 36.33125 247.20625 35.33125Q248.05 34.33125 248.05 32.346874Q248.05 30.315624 247.2375 29.3625Q246.44063 28.39375 245.3 28.39375Q244.14375 28.39375 243.3 29.39375Q242.47188 30.39375 242.47188 32.284374ZM264.0031 37.55L262.2375 37.55L262.2375 26.346874Q261.6125 26.95625 260.58124 27.565624Q259.55 28.159374 258.72186 28.471874L258.72186 26.76875Q260.20624 26.08125 261.3 25.096874Q262.40936 24.096874 262.8625 23.175L264.0031 23.175L264.0031 37.55ZM268.3781 30.4875Q268.3781 27.95625 268.89374 26.409374Q269.425 24.846874 270.45624 24.01875Q271.4875 23.175 273.05 23.175Q274.20624 23.175 275.0656 23.64375Q275.9406 24.096874 276.5031 24.971874Q277.0656 25.846874 277.39374 27.1125Q277.72186 28.3625 277.72186 30.4875Q277.72186 33.003124 277.1906 34.55Q276.675 36.096874 275.64374 36.95625Q274.6281 37.8 273.05 37.8Q270.97186 37.8 269.8 36.315624Q268.3781 34.51875 268.3781 30.4875ZM270.1906 30.4875Q270.1906 34.01875 271.0031 35.190624Q271.83124 36.346874 273.05 36.346874Q274.2531 36.346874 275.08124 35.175Q275.90936 34.003124 275.90936 30.4875Q275.90936 26.95625 275.08124 25.8Q274.2531 24.628124 273.03436 24.628124Q271.8156 24.628124 271.09686 25.659374Q270.1906 26.95625 270.1906 30.4875ZM279.3781 30.4875Q279.3781 27.95625 279.89374 26.409374Q280.425 24.846874 281.45624 24.01875Q282.4875 23.175 284.05 23.175Q285.20624 23.175 286.0656 23.64375Q286.9406 24.096874 287.5031 24.971874Q288.0656 25.846874 288.39374 27.1125Q288.72186 28.3625 288.72186 30.4875Q288.72186 33.003124 288.1906 34.55Q287.675 36.096874 286.64374 36.95625Q285.6281 37.8 284.05 37.8Q281.97186 37.8 280.8 36.315624Q279.3781 34.51875 279.3781 30.4875ZM281.1906 30.4875Q281.1906 34.01875 282.0031 35.190624Q282.83124 36.346874 284.05 36.346874Q285.2531 36.346874 286.08124 35.175Q286.90936 34.003124 286.90936 30.4875Q286.90936 26.95625 286.08124 25.8Q285.2531 24.628124 284.03436 24.628124Q282.8156 24.628124 282.09686 25.659374Q281.1906 26.95625 281.1906 30.4875ZM290.3781 30.4875Q290.3781 27.95625 290.89374 26.409374Q291.425 24.846874 292.45624 24.01875Q293.4875 23.175 295.05 23.175Q296.20624 23.175 297.0656 23.64375Q297.9406 24.096874 298.5031 24.971874Q299.0656 25.846874 299.39374 27.1125Q299.72186 28.3625 299.72186 30.4875Q299.72186 33.003124 299.1906 34.55Q298.675 36.096874 297.64374 36.95625Q296.6281 37.8 295.05 37.8Q292.97186 37.8 291.8 36.315624Q290.3781 34.51875 290.3781 30.4875ZM292.1906 30.4875Q292.1906 34.01875 293.0031 35.190624Q293.83124 36.346874 295.05 36.346874Q296.2531 36.346874 297.08124 35.175Q297.90936 34.003124 297.90936 30.4875Q297.90936 26.95625 297.08124 25.8Q296.2531 24.628124 295.03436 24.628124Q293.8156 24.628124 293.09686 25.659374Q292.1906 26.95625 292.1906 30.4875ZM300.55 37.8L304.70624 22.9875L306.1125 22.9875L301.97186 37.8L300.55 37.8ZM314.0031 37.55L312.2375 37.55L312.2375 26.346874Q311.6125 26.95625 310.58124 27.565624Q309.55 28.159374 308.72186 28.471874L308.72186 26.76875Q310.20624 26.08125 311.3 25.096874Q312.40936 24.096874 312.8625 23.175L314.0031 23.175L314.0031 37.55ZM328.22186 41.753124Q326.76874 39.925 325.76874 37.471874Q324.76874 35.003124 324.76874 32.3625Q324.76874 30.034374 325.51874 27.909374Q326.39374 25.440624 328.22186 22.9875L329.4875 22.9875Q328.3 25.01875 327.925 25.89375Q327.33124 27.2375 326.9875 28.70625Q326.5656 30.534374 326.5656 32.378124Q326.5656 37.065624 329.4875 41.753124L328.22186 41.753124ZM331.8625 37.55L331.8625 27.175L333.4406 27.175L333.4406 28.628124Q333.925 27.878124 334.7375 27.409374Q335.55 26.940624 336.58124 26.940624Q337.7375 26.940624 338.47186 27.425Q339.20624 27.89375 339.51874 28.753124Q340.7531 26.940624 342.72186 26.940624Q344.26874 26.940624 345.09686 27.8Q345.925 28.659374 345.925 30.425L345.925 37.55L344.175 37.55L344.175 31.01875Q344.175 29.95625 344.0031 29.503124Q343.83124 29.034374 343.3781 28.753124Q342.9406 28.471874 342.33124 28.471874Q341.2375 28.471874 340.5031 29.20625Q339.78436 29.925 339.78436 31.51875L339.78436 37.55L338.03436 37.55L338.03436 30.815624Q338.03436 29.64375 337.59686 29.065624Q337.175 28.471874 336.1906 28.471874Q335.45624 28.471874 334.8156 28.8625Q334.1906 29.253124 333.90936 30.003124Q333.6281 30.753124 333.6281 32.175L333.6281 37.55L331.8625 37.55ZM347.22186 32.3625Q347.22186 29.4875 348.8156 28.096874Q350.15936 26.940624 352.08124 26.940624Q354.22186 26.940624 355.5656 28.346874Q356.925 29.753124 356.925 32.221874Q356.925 34.221874 356.33124 35.378124Q355.7375 36.51875 354.58124 37.159374Q353.4406 37.784374 352.08124 37.784374Q349.89374 37.784374 348.55 36.39375Q347.22186 34.9875 347.22186 32.3625ZM349.01874 32.3625Q349.01874 34.3625 349.8781 35.346874Q350.7531 36.33125 352.08124 36.33125Q353.39374 36.33125 354.2531 35.346874Q355.1281 34.346874 355.1281 32.3Q355.1281 30.378124 354.2531 29.39375Q353.3781 28.39375 352.08124 28.39375Q350.7531 28.39375 349.8781 29.39375Q349.01874 30.378124 349.01874 32.3625ZM358.84686 37.55L358.84686 27.175L360.425 27.175L360.425 28.753124Q361.03436 27.64375 361.55 27.3Q362.0656 26.940624 362.675 26.940624Q363.5656 26.940624 364.4875 27.503124L363.8781 29.14375Q363.2375 28.753124 362.59686 28.753124Q362.01874 28.753124 361.55 29.1125Q361.09686 29.45625 360.89374 30.065624Q360.6125 31.003124 360.6125 32.1125L360.6125 37.55L358.84686 37.55ZM372.97186 34.20625L374.78436 34.440624Q374.3625 36.01875 373.1906 36.909374Q372.03436 37.784374 370.22186 37.784374Q367.95624 37.784374 366.6125 36.39375Q365.28436 34.9875 365.28436 32.45625Q365.28436 29.83125 366.6281 28.39375Q367.97186 26.940624 370.1281 26.940624Q372.20624 26.940624 373.51874 28.3625Q374.84686 29.76875 374.84686 32.346874Q374.84686 32.503124 374.83124 32.815624L367.09686 32.815624Q367.1906 34.51875 368.0656 35.425Q368.9406 36.33125 370.2375 36.33125Q371.20624 36.33125 371.8781 35.83125Q372.5656 35.315624 372.97186 34.20625ZM367.1906 31.3625L372.9875 31.3625Q372.8781 30.065624 372.33124 29.409374Q371.4875 28.39375 370.14374 28.39375Q368.9406 28.39375 368.1125 29.20625Q367.28436 30.003124 367.1906 31.3625ZM382.8781 25.253124L382.8781 23.2375L384.64374 23.2375L384.64374 25.253124L382.8781 25.253124ZM382.8781 37.55L382.8781 27.175L384.64374 27.175L384.64374 37.55L382.8781 37.55ZM386.15936 34.45625L387.90936 34.175Q388.05 35.221874 388.72186 35.784374Q389.39374 36.33125 390.59686 36.33125Q391.8 36.33125 392.3781 35.846874Q392.97186 35.346874 392.97186 34.690624Q392.97186 34.096874 392.45624 33.753124Q392.09686 33.51875 390.65936 33.159374Q388.72186 32.659374 387.97186 32.315624Q387.2375 31.95625 386.84686 31.33125Q386.45624 30.690624 386.45624 29.925Q386.45624 29.2375 386.76874 28.64375Q387.09686 28.05 387.64374 27.659374Q388.05 27.3625 388.7531 27.159374Q389.47186 26.940624 390.28436 26.940624Q391.5031 26.940624 392.425 27.3Q393.34686 27.64375 393.78436 28.253124Q394.22186 28.846874 394.39374 29.846874L392.675 30.08125Q392.55 29.284374 391.9875 28.846874Q391.425 28.39375 390.40936 28.39375Q389.1906 28.39375 388.675 28.8Q388.15936 29.190624 388.15936 29.721874Q388.15936 30.065624 388.3781 30.346874Q388.58124 30.628124 389.05 30.815624Q389.3156 30.909374 390.59686 31.253124Q392.47186 31.753124 393.20624 32.08125Q393.9406 32.39375 394.3625 33.003124Q394.78436 33.596874 394.78436 34.503124Q394.78436 35.378124 394.26874 36.159374Q393.7531 36.940624 392.78436 37.3625Q391.8156 37.784374 390.59686 37.784374Q388.58124 37.784374 387.51874 36.940624Q386.45624 36.096874 386.15936 34.45625ZM404.4875 37.55L402.8625 37.55L402.8625 23.2375L404.6125 23.2375L404.6125 28.346874Q405.7375 26.940624 407.45624 26.940624Q408.40936 26.940624 409.26874 27.33125Q410.1281 27.721874 410.675 28.425Q411.22186 29.1125 411.53436 30.096874Q411.84686 31.08125 411.84686 32.20625Q411.84686 34.878124 410.53436 36.33125Q409.22186 37.784374 407.3781 37.784374Q405.53436 37.784374 404.4875 36.253124L404.4875 37.55ZM404.47186 32.284374Q404.47186 34.14375 404.97186 34.9875Q405.8156 36.33125 407.22186 36.33125Q408.3781 36.33125 409.20624 35.33125Q410.05 34.33125 410.05 32.346874Q410.05 30.315624 409.2375 29.3625Q408.4406 28.39375 407.3 28.39375Q406.14374 28.39375 405.3 29.39375Q404.47186 30.39375 404.47186 32.284374ZM420.97186 34.20625L422.78436 34.440624Q422.3625 36.01875 421.1906 36.909374Q420.03436 37.784374 418.22186 37.784374Q415.95624 37.784374 414.6125 36.39375Q413.28436 34.9875 413.28436 32.45625Q413.28436 29.83125 414.6281 28.39375Q415.97186 26.940624 418.1281 26.940624Q420.20624 26.940624 421.51874 28.3625Q422.84686 29.76875 422.84686 32.346874Q422.84686 32.503124 422.83124 32.815624L415.09686 32.815624Q415.1906 34.51875 416.0656 35.425Q416.9406 36.33125 418.2375 36.33125Q419.20624 36.33125 419.8781 35.83125Q420.5656 35.315624 420.97186 34.20625ZM415.1906 31.3625L420.9875 31.3625Q420.8781 30.065624 420.33124 29.409374Q419.4875 28.39375 418.14374 28.39375Q416.9406 28.39375 416.1125 29.20625Q415.28436 30.003124 415.1906 31.3625ZM428.70624 35.971874L428.95624 37.534374Q428.22186 37.690624 427.6281 37.690624Q426.675 37.690624 426.14374 37.39375Q425.6281 37.08125 425.40936 36.596874Q425.1906 36.096874 425.1906 34.51875L425.1906 28.55L423.90936 28.55L423.90936 27.175L425.1906 27.175L425.1906 24.6125L426.9406 23.55L426.9406 27.175L428.70624 27.175L428.70624 28.55L426.9406 28.55L426.9406 34.6125Q426.9406 35.3625 427.03436 35.58125Q427.1281 35.784374 427.33124 35.925Q427.55 36.05 427.9406 36.05Q428.22186 36.05 428.70624 35.971874ZM434.70624 35.971874L434.95624 37.534374Q434.22186 37.690624 433.6281 37.690624Q432.675 37.690624 432.14374 37.39375Q431.6281 37.08125 431.40936 36.596874Q431.1906 36.096874 431.1906 34.51875L431.1906 28.55L429.90936 28.55L429.90936 27.175L431.1906 27.175L431.1906 24.6125L432.9406 23.55L432.9406 27.175L434.70624 27.175L434.70624 28.55L432.9406 28.55L432.9406 34.6125Q432.9406 35.3625 433.03436 35.58125Q433.1281 35.784374 433.33124 35.925Q433.55 36.05 433.9406 36.05Q434.22186 36.05 434.70624 35.971874ZM443.97186 34.20625L445.78436 34.440624Q445.3625 36.01875 444.1906 36.909374Q443.03436 37.784374 441.22186 37.784374Q438.95624 37.784374 437.6125 36.39375Q436.28436 34.9875 436.28436 32.45625Q436.28436 29.83125 437.6281 28.39375Q438.97186 26.940624 441.1281 26.940624Q443.20624 26.940624 444.51874 28.3625Q445.84686 29.76875 445.84686 32.346874Q445.84686 32.503124 445.83124 32.815624L438.09686 32.815624Q438.1906 34.51875 439.0656 35.425Q439.9406 36.33125 441.2375 36.33125Q442.20624 36.33125 442.8781 35.83125Q443.5656 35.315624 443.97186 34.20625ZM438.1906 31.3625L443.9875 31.3625Q443.8781 30.065624 443.33124 29.409374Q442.4875 28.39375 441.14374 28.39375Q439.9406 28.39375 439.1125 29.20625Q438.28436 30.003124 438.1906 31.3625ZM447.84686 37.55L447.84686 27.175L449.425 27.175L449.425 28.753124Q450.03436 27.64375 450.55 27.3Q451.0656 26.940624 451.675 26.940624Q452.5656 26.940624 453.4875 27.503124L452.8781 29.14375Q452.2375 28.753124 451.59686 28.753124Q451.01874 28.753124 450.55 29.1125Q450.09686 29.45625 449.89374 30.065624Q449.6125 31.003124 449.6125 32.1125L449.6125 37.55L447.84686 37.55ZM456.01874 41.753124L454.76874 41.753124Q457.675 37.065624 457.675 32.378124Q457.675 30.534374 457.26874 28.7375Q456.925 27.26875 456.33124 25.925Q455.95624 25.034374 454.76874 22.9875L456.01874 22.9875Q457.8625 25.440624 458.7375 27.909374Q459.4875 30.034374 459.4875 32.3625Q459.4875 35.003124 458.47186 37.471874Q457.47186 39.925 456.01874 41.753124Z" fill-rule="nonzero"/></svg>