<svg version="1.1" viewBox="0.0 0.0 600.0 371.0" fill="none" stroke="none" stroke-linecap="square" stroke-miterlimit="10" width="600" height="371" xmlns:xlink="http://www.w3.org/1999/xlink" xmlns="http://www.w3.org/2000/svg"><path fill="#ffffff" d="M0 0L600.0 0L600.0 371.0L0 371.0L0 0Z" fill-rule="nonzero"/><path stroke="#333333" stroke-width="1.0" stroke-linecap="butt" d="M52.5 286.5L581.5 286.5" fill-rule="nonzero"/><path stroke="#cccccc" stroke-width="1.0" stroke-linecap="butt" d="M52.5 220.5L581.5 220.5" fill-rule="nonzero"/><path stroke="#cccccc" stroke-width="1.0" stroke-linecap="butt" d="M52.5 154.5L581.5 154.5" fill-rule="nonzero"/><path stroke="#cccccc" stroke-width="1.0" stroke-linecap="butt" d="M52.5 88.5L581.5 88.5" fill-rule="nonzero"/><clipPath id="id_0"><path d="M52.55 88.28333L581.45 88.28333L581.45 286.45L52.55 286.45L52.55 88.28333Z" clip-rule="nonzero"/></clipPath><path stroke="#000000" stroke-width="2.0" stroke-linecap="butt" stroke-opacity="0.0" clip-path="url(#id_0)" d="M158.0 286.0L109.0 286.0L109.0 224.0C109.0 222.89543 109.89543 222.0 111.0 222.0L156.0 222.0C157.10457 222.0 158.0 222.89543 158.0 224.0Z" fill-rule="nonzero"/><path fill="#4285f4" clip-path="url(#id_0)" d="M158.0 286.0L109.0 286.0L109.0 224.0C109.0 222.89543 109.89543 222.0 111.0 222.0L156.0 222.0C157.10457 222.0 158.0 222.89543 158.0 224.0Z" fill-rule="nonzero"/><path stroke="#000000" stroke-width="2.0" stroke-linecap="butt" stroke-opacity="0.0" clip-path="url(#id_0)" d="M316.0 286.0L267.0 286.0L267.0 162.0C267.0 160.89543 267.89542 160.0 269.0 160.0L314.0 160.0C315.10458 160.0 316.0 160.89543 316.0 162.0Z" fill-rule="nonzero"/><path fill="#4285f4" clip-path="url(#id_0)" d="M316.0 286.0L267.0 286.0L267.0 162.0C267.0 160.89543 267.89542 160.0 269.0 160.0L314.0 160.0C315.10458 160.0 316.0 160.89543 316.0 162.0Z" fill-rule="nonzero"/><path stroke="#000000" stroke-width="2.0" stroke-linecap="butt" stroke-opacity="0.0" clip-path="url(#id_0)" d="M474.0 286.0L425.0 286.0L425.0 90.0C425.0 88.89543 425.89542 88.0 427.0 88.0L472.0 88.0C473.10458 88.0 474.0 88.89543 474.0 90.0Z" fill-rule="nonzero"/><path fill="#4285f4" clip-path="url(#id_0)" d="M474.0 286.0L425.0 286.0L425.0 90.0C425.0 88.89543 425.89542 88.0 427.0 88.0L472.0 88.0C473.10458 88.0 474.0 88.89543 474.0 90.0Z" fill-rule="nonzero"/><path stroke="#000000" stroke-width="2.0" stroke-linecap="butt" stroke-opacity="0.0" clip-path="url(#id_0)" d="M209.0 286.0L160.0 286.0L160.0 252.0C160.0 250.89543 160.89543 250.0 162.0 250.0L207.0 250.0C208.10457 250.0 209.0 250.89543 209.0 252.0Z" fill-rule="nonzero"/><path fill="#ea4335" clip-path="url(#id_0)" d="M209.0 286.0L160.0 286.0L160.0 252.0C160.0 250.89543 160.89543 250.0 162.0 250.0L207.0 250.0C208.10457 250.0 209.0 250.89543 209.0 252.0Z" fill-rule="nonzero"/><path stroke="#000000" stroke-width="2.0" stroke-linecap="butt" stroke-opacity="0.0" clip-path="url(#id_0)" d="M367.0 286.0L318.0 286.0L318.0 202.0C318.0 200.89543 318.89542 200.0 320.0 200.0L365.0 200.0C366.10458 200.0 367.0 200.89543 367.0 202.0Z" fill-rule="nonzero"/><path fill="#ea4335" clip-path="url(#id_0)" d="M367.0 286.0L318.0 286.0L318.0 202.0C318.0 200.89543 318.89542 200.0 320.0 200.0L365.0 200.0C366.10458 200.0 367.0 200.89543 367.0 202.0Z" fill-rule="nonzero"/><path stroke="#000000" stroke-width="2.0" stroke-linecap="butt" stroke-opacity="0.0" clip-path="url(#id_0)" d="M525.0 286.0L476.0 286.0L476.0 163.0C476.0 161.89543 476.89542 161.0 478.0 161.0L523.0 161.0C524.10455 161.0 525.0 161.89543 525.0 163.0Z" fill-rule="nonzero"/><path fill="#ea4335" clip-path="url(#id_0)" d="M525.0 286.0L476.0 286.0L476.0 163.0C476.0 161.89543 476.89542 161.0 478.0 161.0L523.0 161.0C524.10455 161.0 525.0 161.89543 525.0 163.0Z" fill-rule="nonzero"/><path fill="#000000" d="M294.92188 349.45L294.92188 340.85626L298.17188 340.85626Q299.01562 340.85626 299.46875 340.9344Q300.10938 341.04376 300.53125 341.34064Q300.96875 341.6375 301.21875 342.16876Q301.48438 342.7 301.48438 343.34064Q301.48438 344.4344 300.78125 345.2Q300.09375 345.95 298.26562 345.95L296.0625 345.95L296.0625 349.45L294.92188 349.45ZM296.0625 344.95L298.28125 344.95Q299.39062 344.95 299.84375 344.54376Q300.3125 344.1219 300.3125 343.3719Q300.3125 342.84064 300.03125 342.46564Q299.76562 342.075 299.32812 341.95Q299.03125 341.8719 298.26562 341.8719L296.0625 341.8719L296.0625 344.95ZM302.76562 349.45L302.76562 340.85626L303.82812 340.85626L303.82812 349.45L302.76562 349.45ZM309.85938 348.6844Q309.26562 349.1844 308.71875 349.3875Q308.1875 349.59064 307.5625 349.59064Q306.53125 349.59064 305.98438 349.09064Q305.4375 348.59064 305.4375 347.8094Q305.4375 347.35626 305.64062 346.98126Q305.84375 346.59064 306.1875 346.3719Q306.53125 346.1375 306.95312 346.02814Q307.25 345.9344 307.89062 345.85626Q309.15625 345.71564 309.76562 345.4969Q309.76562 345.27814 309.76562 345.23126Q309.76562 344.575 309.46875 344.3094Q309.0625 343.96564 308.26562 343.96564Q307.53125 343.96564 307.17188 344.23126Q306.8125 344.48126 306.64062 345.1375L305.60938 344.9969Q305.75 344.34064 306.07812 343.9344Q306.40625 343.52814 307.01562 343.3094Q307.625 343.09064 308.42188 343.09064Q309.21875 343.09064 309.71875 343.27814Q310.21875 343.46564 310.45312 343.7469Q310.6875 344.02814 310.78125 344.46564Q310.82812 344.73126 310.82812 345.4344L310.82812 346.84064Q310.82812 348.3094 310.89062 348.7Q310.96875 349.09064 311.17188 349.45L310.0625 349.45Q309.90625 349.1219 309.85938 348.6844ZM309.76562 346.325Q309.1875 346.5594 308.04688 346.73126Q307.39062 346.825 307.125 346.95Q306.85938 347.0594 306.70312 347.27814Q306.5625 347.4969 306.5625 347.77814Q306.5625 348.2 306.875 348.48126Q307.20312 348.7625 307.8125 348.7625Q308.42188 348.7625 308.89062 348.4969Q309.375 348.23126 309.59375 347.7625Q309.76562 347.40314 309.76562 346.71564L309.76562 346.325ZM315.09375 348.5125L315.25 349.4344Q314.79688 349.52814 314.45312 349.52814Q313.875 349.52814 313.5625 349.35626Q313.25 349.16876 313.10938 348.8719Q312.98438 348.575 312.98438 347.6219L312.98438 344.04376L312.21875 344.04376L312.21875 343.23126L312.98438 343.23126L312.98438 341.6844L314.03125 341.0594L314.03125 343.23126L315.09375 343.23126L315.09375 344.04376L314.03125 344.04376L314.03125 347.6844Q314.03125 348.1375 314.07812 348.2625Q314.14062 348.3875 314.26562 348.46564Q314.39062 348.54376 314.625 348.54376Q314.8125 348.54376 315.09375 348.5125ZM316.04688 349.45L316.04688 344.04376L315.10938 344.04376L315.10938 343.23126L316.04688 343.23126L316.04688 342.5594Q316.04688 341.9344 316.15625 341.6375Q316.3125 341.21564 316.6875 340.96564Q317.07812 340.71564 317.76562 340.71564Q318.21875 340.71564 318.75 340.825L318.59375 341.73126Q318.26562 341.6844 317.96875 341.6844Q317.48438 341.6844 317.28125 341.8875Q317.09375 342.09064 317.09375 342.65314L317.09375 343.23126L318.3125 343.23126L318.3125 344.04376L317.09375 344.04376L317.09375 349.45L316.04688 349.45ZM318.40625 346.34064Q318.40625 344.60626 319.35938 343.77814Q320.15625 343.09064 321.3125 343.09064Q322.59375 343.09064 323.40625 343.9344Q324.23438 344.7625 324.23438 346.2469Q324.23438 347.45 323.875 348.1375Q323.51562 348.825 322.8125 349.21564Q322.125 349.59064 321.3125 349.59064Q320.01562 349.59064 319.20312 348.7625Q318.40625 347.91876 318.40625 346.34064ZM319.48438 346.34064Q319.48438 347.52814 320.0 348.1219Q320.53125 348.71564 321.3125 348.71564Q322.10938 348.71564 322.625 348.1219Q323.14062 347.52814 323.14062 346.3094Q323.14062 345.15314 322.60938 344.5594Q322.09375 343.96564 321.3125 343.96564Q320.53125 343.96564 320.0 344.5594Q319.48438 345.1375 319.48438 346.34064ZM325.78125 349.45L325.78125 343.23126L326.73438 343.23126L326.73438 344.16876Q327.09375 343.5125 327.39062 343.3094Q327.70312 343.09064 328.07812 343.09064Q328.60938 343.09064 329.15625 343.41876L328.79688 344.40314Q328.40625 344.16876 328.03125 344.16876Q327.67188 344.16876 327.39062 344.3875Q327.125 344.59064 327.01562 344.96564Q326.82812 345.52814 326.82812 346.1844L326.82812 349.45L325.78125 349.45ZM329.79688 349.45L329.79688 343.23126L330.73438 343.23126L330.73438 344.10626Q331.03125 343.6375 331.51562 343.3719Q332.0 343.09064 332.625 343.09064Q333.3125 343.09064 333.75 343.3719Q334.20312 343.65314 334.375 344.16876Q335.125 343.09064 336.29688 343.09064Q337.23438 343.09064 337.71875 343.60626Q338.21875 344.10626 338.21875 345.1844L338.21875 349.45L337.17188 349.45L337.17188 345.52814Q337.17188 344.90314 337.0625 344.6219Q336.96875 344.34064 336.70312 344.16876Q336.4375 343.9969 336.0625 343.9969Q335.40625 343.9969 334.96875 344.4344Q334.54688 344.8719 334.54688 345.84064L334.54688 349.45L333.48438 349.45L333.48438 345.40314Q333.48438 344.7 333.21875 344.35626Q332.96875 343.9969 332.39062 343.9969Q331.9375 343.9969 331.5625 344.23126Q331.1875 344.46564 331.01562 344.91876Q330.84375 345.3719 330.84375 346.21564L330.84375 349.45L329.79688 349.45Z" fill-rule="nonzero"/><path fill="#000000" d="M40.05 286.21564Q40.05 284.6844 40.3625 283.7625Q40.675 282.825 41.284374 282.325Q41.909374 281.825 42.846874 281.825Q43.534374 281.825 44.05 282.10626Q44.58125 282.3875 44.925 282.91876Q45.26875 283.4344 45.45625 284.1844Q45.64375 284.9344 45.64375 286.21564Q45.64375 287.73126 45.33125 288.65314Q45.034374 289.575 44.409374 290.09064Q43.8 290.59064 42.846874 290.59064Q41.6125 290.59064 40.89375 289.7Q40.05 288.6375 40.05 286.21564ZM41.128124 286.21564Q41.128124 288.325 41.628124 289.02814Q42.128124 289.73126 42.846874 289.73126Q43.58125 289.73126 44.065624 289.02814Q44.565624 288.325 44.565624 286.21564Q44.565624 284.09064 44.065624 283.40314Q43.58125 282.7 42.83125 282.7Q42.1125 282.7 41.675 283.3094Q41.128124 284.09064 41.128124 286.21564Z" fill-rule="nonzero"/><path fill="#000000" d="M23.01875 224.39444L21.971874 224.39444L21.971874 217.67569Q21.58125 218.03506 20.95625 218.41006Q20.346874 218.76944 19.8625 218.94131L19.8625 217.92569Q20.7375 217.50381 21.39375 216.92569Q22.065624 216.33194 22.346874 215.76944L23.01875 215.76944L23.01875 224.39444ZM26.05 220.16006Q26.05 218.62881 26.3625 217.70694Q26.675 216.76944 27.284374 216.26944Q27.909374 215.76944 28.846874 215.76944Q29.534374 215.76944 30.05 216.05069Q30.58125 216.33194 30.925 216.86319Q31.26875 217.37881 31.45625 218.12881Q31.64375 218.87881 31.64375 220.16006Q31.64375 221.67569 31.33125 222.59756Q31.034374 223.51944 30.409374 224.03506Q29.8 224.53506 28.846874 224.53506Q27.6125 224.53506 26.89375 223.64444Q26.05 222.58194 26.05 220.16006ZM27.128124 220.16006Q27.128124 222.26944 27.628124 222.97256Q28.128124 223.67569 28.846874 223.67569Q29.58125 223.67569 30.065624 222.97256Q30.565624 222.26944 30.565624 220.16006Q30.565624 218.03506 30.065624 217.34756Q29.58125 216.64444 28.83125 216.64444Q28.1125 216.64444 27.675 217.25381Q27.128124 218.03506 27.128124 220.16006ZM33.05 220.16006Q33.05 218.62881 33.3625 217.70694Q33.675 216.76944 34.284374 216.26944Q34.909374 215.76944 35.846874 215.76944Q36.534374 215.76944 37.05 216.05069Q37.58125 216.33194 37.925 216.86319Q38.26875 217.37881 38.45625 218.12881Q38.64375 218.87881 38.64375 220.16006Q38.64375 221.67569 38.33125 222.59756Q38.034374 223.51944 37.409374 224.03506Q36.8 224.53506 35.846874 224.53506Q34.6125 224.53506 33.89375 223.64444Q33.05 222.58194 33.05 220.16006ZM34.128124 220.16006Q34.128124 222.26944 34.628124 222.97256Q35.128124 223.67569 35.846874 223.67569Q36.58125 223.67569 37.065624 222.97256Q37.565624 222.26944 37.565624 220.16006Q37.565624 218.03506 37.065624 217.34756Q36.58125 216.64444 35.83125 216.64444Q35.1125 216.64444 34.675 217.25381Q34.128124 218.03506 34.128124 220.16006ZM40.05 220.16006Q40.05 218.62881 40.3625 217.70694Q40.675 216.76944 41.284374 216.26944Q41.909374 215.76944 42.846874 215.76944Q43.534374 215.76944 44.05 216.05069Q44.58125 216.33194 44.925 216.86319Q45.26875 217.37881 45.45625 218.12881Q45.64375 218.87881 45.64375 220.16006Q45.64375 221.67569 45.33125 222.59756Q45.034374 223.51944 44.409374 224.03506Q43.8 224.53506 42.846874 224.53506Q41.6125 224.53506 40.89375 223.64444Q40.05 222.58194 40.05 220.16006ZM41.128124 220.16006Q41.128124 222.26944 41.628124 222.97256Q42.128124 223.67569 42.846874 223.67569Q43.58125 223.67569 44.065624 222.97256Q44.565624 222.26944 44.565624 220.16006Q44.565624 218.03506 44.065624 217.34756Q43.58125 216.64444 42.83125 216.64444Q42.1125 216.64444 41.675 217.25381Q41.128124 218.03506 41.128124 220.16006Z" fill-rule="nonzero"/><path fill="#000000" d="M24.596874 157.32326L24.596874 158.33888L18.909374 158.33888Q18.909374 157.96388 19.034374 157.6045Q19.253124 157.02638 19.721874 156.46388Q20.20625 155.90138 21.1125 155.167Q22.51875 154.01076 23.003124 153.33888Q23.503124 152.667 23.503124 152.07326Q23.503124 151.44826 23.05 151.02638Q22.596874 150.58888 21.878124 150.58888Q21.1125 150.58888 20.659374 151.042Q20.20625 151.49513 20.190624 152.30763L19.1125 152.19826Q19.221874 150.9795 19.940624 150.3545Q20.675 149.71388 21.909374 149.71388Q23.14375 149.71388 23.8625 150.40138Q24.58125 151.08888 24.58125 152.1045Q24.58125 152.62013 24.3625 153.12013Q24.159374 153.6045 23.659374 154.167Q23.175 154.71388 22.05 155.667Q21.096874 156.46388 20.815624 156.76076Q20.55 157.042 20.378124 157.32326L24.596874 157.32326ZM26.05 154.1045Q26.05 152.57326 26.3625 151.65138Q26.675 150.71388 27.284374 150.21388Q27.909374 149.71388 28.846874 149.71388Q29.534374 149.71388 30.05 149.99513Q30.58125 150.27638 30.925 150.80763Q31.26875 151.32326 31.45625 152.07326Q31.64375 152.82326 31.64375 154.1045Q31.64375 155.62013 31.33125 156.542Q31.034374 157.46388 30.409374 157.9795Q29.8 158.4795 28.846874 158.4795Q27.6125 158.4795 26.89375 157.58888Q26.05 156.52638 26.05 154.1045ZM27.128124 154.1045Q27.128124 156.21388 27.628124 156.917Q28.128124 157.62013 28.846874 157.62013Q29.58125 157.62013 30.065624 156.917Q30.565624 156.21388 30.565624 154.1045Q30.565624 151.9795 30.065624 151.292Q29.58125 150.58888 28.83125 150.58888Q28.1125 150.58888 27.675 151.19826Q27.128124 151.9795 27.128124 154.1045ZM33.05 154.1045Q33.05 152.57326 33.3625 151.65138Q33.675 150.71388 34.284374 150.21388Q34.909374 149.71388 35.846874 149.71388Q36.534374 149.71388 37.05 149.99513Q37.58125 150.27638 37.925 150.80763Q38.26875 151.32326 38.45625 152.07326Q38.64375 152.82326 38.64375 154.1045Q38.64375 155.62013 38.33125 156.542Q38.034374 157.46388 37.409374 157.9795Q36.8 158.4795 35.846874 158.4795Q34.6125 158.4795 33.89375 157.58888Q33.05 156.52638 33.05 154.1045ZM34.128124 154.1045Q34.128124 156.21388 34.628124 156.917Q35.128124 157.62013 35.846874 157.62013Q36.58125 157.62013 37.065624 156.917Q37.565624 156.21388 37.565624 154.1045Q37.565624 151.9795 37.065624 151.292Q36.58125 150.58888 35.83125 150.58888Q35.1125 150.58888 34.675 151.19826Q34.128124 151.9795 34.128124 154.1045ZM40.05 154.1045Q40.05 152.57326 40.3625 151.65138Q40.675 150.71388 41.284374 150.21388Q41.909374 149.71388 42.846874 149.71388Q43.534374 149.71388 44.05 149.99513Q44.58125 150.27638 44.925 150.80763Q45.26875 151.32326 45.45625 152.07326Q45.64375 152.82326 45.64375 154.1045Q45.64375 155.62013 45.33125 156.542Q45.034374 157.46388 44.409374 157.9795Q43.8 158.4795 42.846874 158.4795Q41.6125 158.4795 40.89375 157.58888Q40.05 156.52638 40.05 154.1045ZM41.128124 154.1045Q41.128124 156.21388 41.628124 156.917Q42.128124 157.62013 42.846874 157.62013Q43.58125 157.62013 44.065624 156.917Q44.565624 156.21388 44.565624 154.1045Q44.565624 151.9795 44.065624 151.292Q43.58125 150.58888 42.83125 150.58888Q42.1125 150.58888 41.675 151.19826Q41.128124 151.9795 41.128124 154.1045Z" fill-rule="nonzero"/><path fill="#000000" d="M19.05 90.01771L20.1125 89.87708Q20.284374 90.76771 20.721874 91.17396Q21.159374 91.56458 21.784374 91.56458Q22.534374 91.56458 23.05 91.04896Q23.565624 90.53333 23.565624 89.76771Q23.565624 89.04896 23.08125 88.58021Q22.6125 88.09583 21.878124 88.09583Q21.58125 88.09583 21.128124 88.22083L21.253124 87.28333Q21.3625 87.29896 21.425 87.29896Q22.096874 87.29896 22.628124 86.95521Q23.175 86.59583 23.175 85.86146Q23.175 85.28333 22.784374 84.90833Q22.39375 84.51771 21.76875 84.51771Q21.159374 84.51771 20.7375 84.90833Q20.33125 85.29896 20.221874 86.06458L19.159374 85.87708Q19.346874 84.83021 20.034374 84.25208Q20.721874 83.65833 21.7375 83.65833Q22.440624 83.65833 23.034374 83.97083Q23.628124 84.26771 23.940624 84.78333Q24.253124 85.29896 24.253124 85.89271Q24.253124 86.43958 23.95625 86.90833Q23.659374 87.36146 23.08125 87.62708Q23.83125 87.79896 24.253124 88.36146Q24.675 88.90833 24.675 89.75208Q24.675 90.87708 23.846874 91.65833Q23.034374 92.43958 21.784374 92.43958Q20.659374 92.43958 19.909374 91.76771Q19.159374 91.08021 19.05 90.01771ZM26.05 88.04896Q26.05 86.51771 26.3625 85.59583Q26.675 84.65833 27.284374 84.15833Q27.909374 83.65833 28.846874 83.65833Q29.534374 83.65833 30.05 83.93958Q30.58125 84.22083 30.925 84.75208Q31.26875 85.26771 31.45625 86.01771Q31.64375 86.76771 31.64375 88.04896Q31.64375 89.56458 31.33125 90.48646Q31.034374 91.40833 30.409374 91.92396Q29.8 92.42396 28.846874 92.42396Q27.6125 92.42396 26.89375 91.53333Q26.05 90.47083 26.05 88.04896ZM27.128124 88.04896Q27.128124 90.15833 27.628124 90.86146Q28.128124 91.56458 28.846874 91.56458Q29.58125 91.56458 30.065624 90.86146Q30.565624 90.15833 30.565624 88.04896Q30.565624 85.92396 30.065624 85.23646Q29.58125 84.53333 28.83125 84.53333Q28.1125 84.53333 27.675 85.14271Q27.128124 85.92396 27.128124 88.04896ZM33.05 88.04896Q33.05 86.51771 33.3625 85.59583Q33.675 84.65833 34.284374 84.15833Q34.909374 83.65833 35.846874 83.65833Q36.534374 83.65833 37.05 83.93958Q37.58125 84.22083 37.925 84.75208Q38.26875 85.26771 38.45625 86.01771Q38.64375 86.76771 38.64375 88.04896Q38.64375 89.56458 38.33125 90.48646Q38.034374 91.40833 37.409374 91.92396Q36.8 92.42396 35.846874 92.42396Q34.6125 92.42396 33.89375 91.53333Q33.05 90.47083 33.05 88.04896ZM34.128124 88.04896Q34.128124 90.15833 34.628124 90.86146Q35.128124 91.56458 35.846874 91.56458Q36.58125 91.56458 37.065624 90.86146Q37.565624 90.15833 37.565624 88.04896Q37.565624 85.92396 37.065624 85.23646Q36.58125 84.53333 35.83125 84.53333Q35.1125 84.53333 34.675 85.14271Q34.128124 85.92396 34.128124 88.04896ZM40.05 88.04896Q40.05 86.51771 40.3625 85.59583Q40.675 84.65833 41.284374 84.15833Q41.909374 83.65833 42.846874 83.65833Q43.534374 83.65833 44.05 83.93958Q44.58125 84.22083 44.925 84.75208Q45.26875 85.26771 45.45625 86.01771Q45.64375 86.76771 45.64375 88.04896Q45.64375 89.56458 45.33125 90.48646Q45.034374 91.40833 44.409374 91.92396Q43.8 92.42396 42.846874 92.42396Q41.6125 92.42396 40.89375 91.53333Q40.05 90.47083 40.05 88.04896ZM41.128124 88.04896Q41.128124 90.15833 41.628124 90.86146Q42.128124 91.56458 42.846874 91.56458Q43.58125 91.56458 44.065624 90.86146Q44.565624 90.15833 44.565624 88.04896Q44.565624 85.92396 44.065624 85.23646Q43.58125 84.53333 42.83125 84.53333Q42.1125 84.53333 41.675 85.14271Q41.128124 85.92396 41.128124 88.04896Z" fill-rule="nonzero"/><path fill="#000000" d="M95.478775 301.16876L96.510025 301.3094Q96.33815 302.3719 95.635025 302.98126Q94.9319 303.59064 93.916275 303.59064Q92.635025 303.59064 91.853775 302.7625Q91.08815 301.91876 91.08815 300.35626Q91.08815 299.35626 91.416275 298.60626Q91.760025 297.84064 92.4319 297.46564Q93.1194 297.09064 93.9319 297.09064Q94.9319 297.09064 95.572525 297.60626Q96.228775 298.10626 96.416275 299.0594L95.385025 299.21564Q95.2444 298.59064 94.8694 298.27814Q94.4944 297.95 93.96315 297.95Q93.166275 297.95 92.666275 298.52814Q92.166275 299.09064 92.166275 300.325Q92.166275 301.59064 92.65065 302.15314Q93.135025 302.71564 93.90065 302.71564Q94.52565 302.71564 94.9319 302.34064Q95.353775 301.96564 95.478775 301.16876ZM97.02565 300.34064Q97.02565 298.60626 97.978775 297.77814Q98.77565 297.09064 99.9319 297.09064Q101.21315 297.09064 102.02565 297.9344Q102.853775 298.7625 102.853775 300.2469Q102.853775 301.45 102.4944 302.1375Q102.135025 302.825 101.4319 303.21564Q100.7444 303.59064 99.9319 303.59064Q98.635025 303.59064 97.822525 302.7625Q97.02565 301.91876 97.02565 300.34064ZM98.103775 300.34064Q98.103775 301.52814 98.6194 302.1219Q99.15065 302.71564 99.9319 302.71564Q100.728775 302.71564 101.2444 302.1219Q101.760025 301.52814 101.760025 300.3094Q101.760025 299.15314 101.228775 298.5594Q100.71315 297.96564 99.9319 297.96564Q99.15065 297.96564 98.6194 298.5594Q98.103775 299.1375 98.103775 300.34064ZM104.40065 303.45L104.40065 297.23126L105.353775 297.23126L105.353775 298.16876Q105.71315 297.5125 106.010025 297.3094Q106.322525 297.09064 106.697525 297.09064Q107.228775 297.09064 107.77565 297.41876L107.416275 298.40314Q107.02565 298.16876 106.65065 298.16876Q106.291275 298.16876 106.010025 298.3875Q105.7444 298.59064 105.635025 298.96564Q105.447525 299.52814 105.447525 300.1844L105.447525 303.45L104.40065 303.45ZM112.666275 301.45L113.760025 301.575Q113.510025 302.52814 112.8069 303.0594Q112.103775 303.59064 111.02565 303.59064Q109.666275 303.59064 108.853775 302.7469Q108.0569 301.90314 108.0569 300.3875Q108.0569 298.825 108.8694 297.96564Q109.6819 297.09064 110.96315 297.09064Q112.21315 297.09064 112.9944 297.9344Q113.791275 298.77814 113.791275 300.325Q113.791275 300.41876 113.791275 300.60626L109.15065 300.60626Q109.21315 301.6375 109.728775 302.1844Q110.2444 302.71564 111.02565 302.71564Q111.603775 302.71564 112.010025 302.41876Q112.4319 302.10626 112.666275 301.45ZM109.21315 299.7469L112.6819 299.7469Q112.6194 298.95 112.291275 298.5594Q111.77565 297.95 110.978775 297.95Q110.2444 297.95 109.7444 298.4344Q109.260025 298.91876 109.21315 299.7469ZM118.416275 296.075L118.416275 294.85626L119.478775 294.85626L119.478775 296.075L118.416275 296.075ZM118.416275 303.45L118.416275 297.23126L119.478775 297.23126L119.478775 303.45L118.416275 303.45ZM121.1194 301.2L122.228775 301.10626Q122.353775 301.91876 122.791275 302.325Q123.2444 302.73126 123.885025 302.73126Q124.635025 302.73126 125.166275 302.15314Q125.697525 301.575 125.697525 300.6375Q125.697525 299.73126 125.1819 299.21564Q124.6819 298.6844 123.853775 298.6844Q123.353775 298.6844 122.9319 298.91876Q122.52565 299.15314 122.291275 299.5125L121.3069 299.3875L122.135025 294.98126L126.416275 294.98126L126.416275 295.98126L122.978775 295.98126L122.52565 298.29376Q123.291275 297.7469 124.135025 297.7469Q125.260025 297.7469 126.02565 298.52814Q126.8069 299.3094 126.8069 300.54376Q126.8069 301.7 126.135025 302.5594Q125.3069 303.59064 123.885025 303.59064Q122.71315 303.59064 121.96315 302.9344Q121.228775 302.27814 121.1194 301.2ZM136.66628 302.4344L136.66628 303.45L130.97878 303.45Q130.97878 303.075 131.10378 302.71564Q131.32253 302.1375 131.79128 301.575Q132.27565 301.0125 133.1819 300.27814Q134.58815 299.1219 135.07253 298.45Q135.57253 297.77814 135.57253 297.1844Q135.57253 296.5594 135.1194 296.1375Q134.66628 295.7 133.94753 295.7Q133.1819 295.7 132.72878 296.15314Q132.27565 296.60626 132.26003 297.41876L131.1819 297.3094Q131.29128 296.09064 132.01003 295.46564Q132.7444 294.825 133.97878 294.825Q135.21315 294.825 135.9319 295.5125Q136.65065 296.2 136.65065 297.21564Q136.65065 297.73126 136.4319 298.23126Q136.22878 298.71564 135.72878 299.27814Q135.2444 299.825 134.1194 300.77814Q133.16628 301.575 132.88503 301.8719Q132.6194 302.15314 132.44753 302.4344L136.66628 302.4344ZM145.57253 300.075L145.57253 299.075L149.19753 299.0594L149.19753 302.2469Q148.3694 302.91876 147.47878 303.2625Q146.58815 303.59064 145.65065 303.59064Q144.38503 303.59064 143.33815 303.0594Q142.3069 302.5125 141.77565 301.4969Q141.26003 300.46564 141.26003 299.2Q141.26003 297.9344 141.77565 296.85626Q142.3069 295.7625 143.29128 295.2469Q144.27565 294.71564 145.5569 294.71564Q146.4944 294.71564 147.2444 295.0125Q147.9944 295.3094 148.41628 295.85626Q148.85378 296.3875 149.07253 297.2625L148.0569 297.54376Q147.85378 296.8875 147.5569 296.5125Q147.27565 296.1375 146.7444 295.91876Q146.21315 295.6844 145.57253 295.6844Q144.79128 295.6844 144.21315 295.91876Q143.65065 296.15314 143.29128 296.54376Q142.94753 296.9344 142.76003 297.40314Q142.4319 298.2 142.4319 299.1219Q142.4319 300.27814 142.82253 301.0594Q143.22878 301.825 143.97878 302.2Q144.72878 302.575 145.58815 302.575Q146.32253 302.575 147.02565 302.29376Q147.72878 301.9969 148.08815 301.6844L148.08815 300.075L145.57253 300.075ZM150.58815 303.45L150.58815 294.85626L151.71315 294.85626L151.71315 298.3875L156.1819 298.3875L156.1819 294.85626L157.32253 294.85626L157.32253 303.45L156.1819 303.45L156.1819 299.40314L151.71315 299.40314L151.71315 303.45L150.58815 303.45ZM158.85378 303.45L158.85378 302.59064L162.82253 298.04376Q162.13503 298.075 161.6194 298.075L159.08815 298.075L159.08815 297.23126L164.1819 297.23126L164.1819 297.91876L160.8069 301.8719L160.15065 302.59064Q160.8694 302.54376 161.47878 302.54376L164.3694 302.54376L164.3694 303.45L158.85378 303.45ZM174.0569 302.52814Q174.85378 303.075 175.51003 303.325L175.1819 304.1219Q174.26003 303.77814 173.33815 303.0594Q172.38503 303.59064 171.22878 303.59064Q170.0569 303.59064 169.10378 303.02814Q168.16628 302.46564 167.65065 301.45Q167.13503 300.4344 167.13503 299.15314Q167.13503 297.8875 167.65065 296.84064Q168.16628 295.79376 169.1194 295.2469Q170.07253 294.7 171.2444 294.7Q172.4319 294.7 173.38503 295.27814Q174.35378 295.84064 174.85378 296.85626Q175.35378 297.8719 175.35378 299.15314Q175.35378 300.21564 175.02565 301.0594Q174.71315 301.90314 174.0569 302.52814ZM171.5569 301.075Q172.54128 301.35626 173.1819 301.90314Q174.1819 300.98126 174.1819 299.15314Q174.1819 298.10626 173.82253 297.325Q173.46315 296.54376 172.77565 296.1219Q172.10378 295.6844 171.26003 295.6844Q169.97878 295.6844 169.13503 296.5594Q168.3069 297.41876 168.3069 299.15314Q168.3069 300.825 169.13503 301.73126Q169.96315 302.6219 171.26003 302.6219Q171.8694 302.6219 172.40065 302.3875Q171.8694 302.04376 171.27565 301.90314L171.5569 301.075ZM180.4944 303.45L180.4944 302.52814Q179.76003 303.59064 178.51003 303.59064Q177.96315 303.59064 177.47878 303.3875Q177.01003 303.16876 176.77565 302.85626Q176.54128 302.52814 176.44753 302.0594Q176.38503 301.7625 176.38503 301.075L176.38503 297.23126L177.44753 297.23126L177.44753 300.6844Q177.44753 301.4969 177.51003 301.79376Q177.60378 302.2 177.91628 302.45Q178.2444 302.6844 178.72878 302.6844Q179.19753 302.6844 179.60378 302.45Q180.02565 302.2 180.19753 301.77814Q180.38503 301.35626 180.38503 300.5594L180.38503 297.23126L181.4319 297.23126L181.4319 303.45L180.4944 303.45ZM187.47878 302.6844Q186.88503 303.1844 186.33815 303.3875Q185.8069 303.59064 185.1819 303.59064Q184.15065 303.59064 183.60378 303.09064Q183.0569 302.59064 183.0569 301.8094Q183.0569 301.35626 183.26003 300.98126Q183.46315 300.59064 183.8069 300.3719Q184.15065 300.1375 184.57253 300.02814Q184.8694 299.9344 185.51003 299.85626Q186.77565 299.71564 187.38503 299.4969Q187.38503 299.27814 187.38503 299.23126Q187.38503 298.575 187.08815 298.3094Q186.6819 297.96564 185.88503 297.96564Q185.15065 297.96564 184.79128 298.23126Q184.4319 298.48126 184.26003 299.1375L183.22878 298.9969Q183.3694 298.34064 183.69753 297.9344Q184.02565 297.52814 184.63503 297.3094Q185.2444 297.09064 186.04128 297.09064Q186.83815 297.09064 187.33815 297.27814Q187.83815 297.46564 188.07253 297.7469Q188.3069 298.02814 188.40065 298.46564Q188.44753 298.73126 188.44753 299.4344L188.44753 300.84064Q188.44753 302.3094 188.51003 302.7Q188.58815 303.09064 188.79128 303.45L187.6819 303.45Q187.52565 303.1219 187.47878 302.6844ZM187.38503 300.325Q186.8069 300.5594 185.66628 300.73126Q185.01003 300.825 184.7444 300.95Q184.47878 301.0594 184.32253 301.27814Q184.1819 301.4969 184.1819 301.77814Q184.1819 302.2 184.4944 302.48126Q184.82253 302.7625 185.4319 302.7625Q186.04128 302.7625 186.51003 302.4969Q186.9944 302.23126 187.21315 301.7625Q187.38503 301.40314 187.38503 300.71564L187.38503 300.325ZM194.44753 303.45L194.44753 302.66876Q193.85378 303.59064 192.71315 303.59064Q191.96315 303.59064 191.33815 303.1844Q190.71315 302.7625 190.3694 302.02814Q190.02565 301.29376 190.02565 300.34064Q190.02565 299.41876 190.33815 298.65314Q190.65065 297.8875 191.27565 297.4969Q191.90065 297.09064 192.66628 297.09064Q193.22878 297.09064 193.66628 297.325Q194.10378 297.5594 194.38503 297.9344L194.38503 294.85626L195.4319 294.85626L195.4319 303.45L194.44753 303.45ZM191.1194 300.34064Q191.1194 301.54376 191.6194 302.1375Q192.1194 302.71564 192.8069 302.71564Q193.4944 302.71564 193.97878 302.15314Q194.46315 301.59064 194.46315 300.4344Q194.46315 299.15314 193.96315 298.5594Q193.47878 297.96564 192.76003 297.96564Q192.0569 297.96564 191.58815 298.54376Q191.1194 299.10626 191.1194 300.34064ZM196.9944 300.8719L196.9944 299.8094L200.2444 299.8094L200.2444 300.8719L196.9944 300.8719ZM207.6819 300.4344L208.8069 300.73126Q208.44753 302.1219 207.52565 302.85626Q206.60378 303.59064 205.26003 303.59064Q203.8694 303.59064 202.9944 303.02814Q202.1194 302.46564 201.66628 301.40314Q201.21315 300.325 201.21315 299.09064Q201.21315 297.7469 201.72878 296.7469Q202.2444 295.7469 203.1819 295.23126Q204.13503 294.71564 205.27565 294.71564Q206.5569 294.71564 207.4319 295.3719Q208.32253 296.02814 208.66628 297.21564L207.54128 297.48126Q207.2444 296.54376 206.66628 296.1219Q206.10378 295.6844 205.2444 295.6844Q204.26003 295.6844 203.58815 296.16876Q202.9319 296.6375 202.65065 297.4344Q202.38503 298.23126 202.38503 299.09064Q202.38503 300.1844 202.69753 300.9969Q203.02565 301.8094 203.69753 302.21564Q204.3694 302.6219 205.16628 302.6219Q206.1194 302.6219 206.77565 302.075Q207.44753 301.52814 207.6819 300.4344ZM210.02565 300.34064Q210.02565 298.60626 210.97878 297.77814Q211.77565 297.09064 212.9319 297.09064Q214.21315 297.09064 215.02565 297.9344Q215.85378 298.7625 215.85378 300.2469Q215.85378 301.45 215.4944 302.1375Q215.13503 302.825 214.4319 303.21564Q213.7444 303.59064 212.9319 303.59064Q211.63503 303.59064 210.82253 302.7625Q210.02565 301.91876 210.02565 300.34064ZM211.10378 300.34064Q211.10378 301.52814 211.6194 302.1219Q212.15065 302.71564 212.9319 302.71564Q213.72878 302.71564 214.2444 302.1219Q214.76003 301.52814 214.76003 300.3094Q214.76003 299.15314 214.22878 298.5594Q213.71315 297.96564 212.9319 297.96564Q212.15065 297.96564 211.6194 298.5594Q211.10378 299.1375 211.10378 300.34064ZM217.40065 303.45L217.40065 297.23126L218.35378 297.23126L218.35378 298.16876Q218.71315 297.5125 219.01003 297.3094Q219.32253 297.09064 219.69753 297.09064Q220.22878 297.09064 220.77565 297.41876L220.41628 298.40314Q220.02565 298.16876 219.65065 298.16876Q219.29128 298.16876 219.01003 298.3875Q218.7444 298.59064 218.63503 298.96564Q218.44753 299.52814 218.44753 300.1844L218.44753 303.45L217.40065 303.45ZM225.66628 301.45L226.76003 301.575Q226.51003 302.52814 225.8069 303.0594Q225.10378 303.59064 224.02565 303.59064Q222.66628 303.59064 221.85378 302.7469Q221.0569 301.90314 221.0569 300.3875Q221.0569 298.825 221.8694 297.96564Q222.6819 297.09064 223.96315 297.09064Q225.21315 297.09064 225.9944 297.9344Q226.79128 298.77814 226.79128 300.325Q226.79128 300.41876 226.79128 300.60626L222.15065 300.60626Q222.21315 301.6375 222.72878 302.1844Q223.2444 302.71564 224.02565 302.71564Q224.60378 302.71564 225.01003 302.41876Q225.4319 302.10626 225.66628 301.45ZM222.21315 299.7469L225.6819 299.7469Q225.6194 298.95 225.29128 298.5594Q224.77565 297.95 223.97878 297.95Q223.2444 297.95 222.7444 298.4344Q222.26003 298.91876 222.21315 299.7469Z" fill-rule="nonzero"/><path fill="#000000" d="M152.08815 317.45L151.04128 317.45L151.04128 310.73126Q150.65065 311.09064 150.02565 311.46564Q149.41628 311.825 148.9319 311.9969L148.9319 310.98126Q149.8069 310.5594 150.46315 309.98126Q151.13503 309.3875 151.41628 308.825L152.08815 308.825L152.08815 317.45ZM160.58815 310.96564L159.54128 311.04376Q159.40065 310.41876 159.15065 310.1375Q158.71315 309.6844 158.08815 309.6844Q157.58815 309.6844 157.19753 309.96564Q156.71315 310.34064 156.41628 311.04376Q156.13503 311.73126 156.1194 313.0125Q156.4944 312.4344 157.04128 312.15314Q157.60378 311.8719 158.21315 311.8719Q159.26003 311.8719 159.9944 312.65314Q160.7444 313.4344 160.7444 314.65314Q160.7444 315.46564 160.38503 316.16876Q160.04128 316.85626 159.4319 317.23126Q158.82253 317.59064 158.0569 317.59064Q156.72878 317.59064 155.90065 316.6219Q155.07253 315.65314 155.07253 313.4344Q155.07253 310.9344 155.9944 309.8094Q156.79128 308.825 158.15065 308.825Q159.16628 308.825 159.8069 309.40314Q160.46315 309.96564 160.58815 310.96564ZM156.29128 314.66876Q156.29128 315.21564 156.51003 315.71564Q156.7444 316.2 157.15065 316.46564Q157.57253 316.73126 158.04128 316.73126Q158.69753 316.73126 159.1819 316.2Q159.66628 315.65314 159.66628 314.73126Q159.66628 313.84064 159.1819 313.325Q158.71315 312.8094 157.9944 312.8094Q157.27565 312.8094 156.77565 313.325Q156.29128 313.84064 156.29128 314.66876ZM166.57253 314.075L166.57253 313.075L170.19753 313.0594L170.19753 316.2469Q169.3694 316.91876 168.47878 317.2625Q167.58815 317.59064 166.65065 317.59064Q165.38503 317.59064 164.33815 317.0594Q163.3069 316.5125 162.77565 315.4969Q162.26003 314.46564 162.26003 313.2Q162.26003 311.9344 162.77565 310.85626Q163.3069 309.7625 164.29128 309.2469Q165.27565 308.71564 166.5569 308.71564Q167.4944 308.71564 168.2444 309.0125Q168.9944 309.3094 169.41628 309.85626Q169.85378 310.3875 170.07253 311.2625L169.0569 311.54376Q168.85378 310.8875 168.5569 310.5125Q168.27565 310.1375 167.7444 309.91876Q167.21315 309.6844 166.57253 309.6844Q165.79128 309.6844 165.21315 309.91876Q164.65065 310.15314 164.29128 310.54376Q163.94753 310.9344 163.76003 311.40314Q163.4319 312.2 163.4319 313.1219Q163.4319 314.27814 163.82253 315.0594Q164.22878 315.825 164.97878 316.2Q165.72878 316.575 166.58815 316.575Q167.32253 316.575 168.02565 316.29376Q168.72878 315.9969 169.08815 315.6844L169.08815 314.075L166.57253 314.075Z" fill-rule="nonzero"/><path fill="#000000" d="M246.85938 301.16876L247.89062 301.3094Q247.71875 302.3719 247.01562 302.98126Q246.3125 303.59064 245.29688 303.59064Q244.01562 303.59064 243.23438 302.7625Q242.46875 301.91876 242.46875 300.35626Q242.46875 299.35626 242.79688 298.60626Q243.14062 297.84064 243.8125 297.46564Q244.5 297.09064 245.3125 297.09064Q246.3125 297.09064 246.95312 297.60626Q247.60938 298.10626 247.79688 299.0594L246.76562 299.21564Q246.625 298.59064 246.25 298.27814Q245.875 297.95 245.34375 297.95Q244.54688 297.95 244.04688 298.52814Q243.54688 299.09064 243.54688 300.325Q243.54688 301.59064 244.03125 302.15314Q244.51562 302.71564 245.28125 302.71564Q245.90625 302.71564 246.3125 302.34064Q246.73438 301.96564 246.85938 301.16876ZM248.40625 300.34064Q248.40625 298.60626 249.35938 297.77814Q250.15625 297.09064 251.3125 297.09064Q252.59375 297.09064 253.40625 297.9344Q254.23438 298.7625 254.23438 300.2469Q254.23438 301.45 253.875 302.1375Q253.51562 302.825 252.8125 303.21564Q252.125 303.59064 251.3125 303.59064Q250.01562 303.59064 249.20312 302.7625Q248.40625 301.91876 248.40625 300.34064ZM249.48438 300.34064Q249.48438 301.52814 250.0 302.1219Q250.53125 302.71564 251.3125 302.71564Q252.10938 302.71564 252.625 302.1219Q253.14062 301.52814 253.14062 300.3094Q253.14062 299.15314 252.60938 298.5594Q252.09375 297.96564 251.3125 297.96564Q250.53125 297.96564 250.0 298.5594Q249.48438 299.1375 249.48438 300.34064ZM255.78125 303.45L255.78125 297.23126L256.73438 297.23126L256.73438 298.16876Q257.09375 297.5125 257.39062 297.3094Q257.70312 297.09064 258.07812 297.09064Q258.60938 297.09064 259.15625 297.41876L258.79688 298.40314Q258.40625 298.16876 258.03125 298.16876Q257.67188 298.16876 257.39062 298.3875Q257.125 298.59064 257.01562 298.96564Q256.82812 299.52814 256.82812 300.1844L256.82812 303.45L255.78125 303.45ZM264.04688 301.45L265.14062 301.575Q264.89062 302.52814 264.1875 303.0594Q263.48438 303.59064 262.40625 303.59064Q261.04688 303.59064 260.23438 302.7469Q259.4375 301.90314 259.4375 300.3875Q259.4375 298.825 260.25 297.96564Q261.0625 297.09064 262.34375 297.09064Q263.59375 297.09064 264.375 297.9344Q265.17188 298.77814 265.17188 300.325Q265.17188 300.41876 265.17188 300.60626L260.53125 300.60626Q260.59375 301.6375 261.10938 302.1844Q261.625 302.71564 262.40625 302.71564Q262.98438 302.71564 263.39062 302.41876Q263.8125 302.10626 264.04688 301.45ZM260.59375 299.7469L264.0625 299.7469Q264.0 298.95 263.67188 298.5594Q263.15625 297.95 262.35938 297.95Q261.625 297.95 261.125 298.4344Q260.64062 298.91876 260.59375 299.7469ZM269.79688 296.075L269.79688 294.85626L270.85938 294.85626L270.85938 296.075L269.79688 296.075ZM269.79688 303.45L269.79688 297.23126L270.85938 297.23126L270.85938 303.45L269.79688 303.45ZM272.65625 301.46564L273.67188 301.3719Q273.79688 302.09064 274.15625 302.41876Q274.53125 302.73126 275.09375 302.73126Q275.57812 302.73126 275.9375 302.5125Q276.3125 302.27814 276.54688 301.91876Q276.78125 301.54376 276.9375 300.91876Q277.09375 300.27814 277.09375 299.6219Q277.09375 299.54376 277.09375 299.40314Q276.78125 299.90314 276.23438 300.23126Q275.6875 300.54376 275.04688 300.54376Q273.96875 300.54376 273.23438 299.77814Q272.5 298.9969 272.5 297.73126Q272.5 296.41876 273.26562 295.6219Q274.04688 294.825 275.20312 294.825Q276.03125 294.825 276.71875 295.27814Q277.42188 295.73126 277.78125 296.575Q278.14062 297.40314 278.14062 298.98126Q278.14062 300.6219 277.78125 301.60626Q277.4375 302.575 276.71875 303.09064Q276.01562 303.59064 275.07812 303.59064Q274.0625 303.59064 273.42188 303.04376Q272.78125 302.48126 272.65625 301.46564ZM276.96875 297.66876Q276.96875 296.7625 276.48438 296.23126Q276.01562 295.7 275.32812 295.7Q274.625 295.7 274.09375 296.27814Q273.57812 296.84064 273.57812 297.7625Q273.57812 298.575 274.07812 299.09064Q274.57812 299.60626 275.29688 299.60626Q276.03125 299.60626 276.5 299.09064Q276.96875 298.575 276.96875 297.66876ZM288.04688 302.4344L288.04688 303.45L282.35938 303.45Q282.35938 303.075 282.48438 302.71564Q282.70312 302.1375 283.17188 301.575Q283.65625 301.0125 284.5625 300.27814Q285.96875 299.1219 286.45312 298.45Q286.95312 297.77814 286.95312 297.1844Q286.95312 296.5594 286.5 296.1375Q286.04688 295.7 285.32812 295.7Q284.5625 295.7 284.10938 296.15314Q283.65625 296.60626 283.64062 297.41876L282.5625 297.3094Q282.67188 296.09064 283.39062 295.46564Q284.125 294.825 285.35938 294.825Q286.59375 294.825 287.3125 295.5125Q288.03125 296.2 288.03125 297.21564Q288.03125 297.73126 287.8125 298.23126Q287.60938 298.71564 287.10938 299.27814Q286.625 299.825 285.5 300.77814Q284.54688 301.575 284.26562 301.8719Q284.0 302.15314 283.82812 302.4344L288.04688 302.4344ZM290.0625 303.45L290.0625 302.2469L291.26562 302.2469L291.26562 303.45Q291.26562 304.10626 291.03125 304.5125Q290.79688 304.9344 290.29688 305.15314L290.0 304.7Q290.32812 304.5594 290.48438 304.2625Q290.64062 303.98126 290.67188 303.45L290.0625 303.45ZM295.875 303.45L295.875 301.3875L292.15625 301.3875L292.15625 300.41876L296.07812 294.85626L296.9375 294.85626L296.9375 300.41876L298.09375 300.41876L298.09375 301.3875L296.9375 301.3875L296.9375 303.45L295.875 303.45ZM295.875 300.41876L295.875 296.5594L293.1875 300.41876L295.875 300.41876ZM306.95312 300.075L306.95312 299.075L310.57812 299.0594L310.57812 302.2469Q309.75 302.91876 308.85938 303.2625Q307.96875 303.59064 307.03125 303.59064Q305.76562 303.59064 304.71875 303.0594Q303.6875 302.5125 303.15625 301.4969Q302.64062 300.46564 302.64062 299.2Q302.64062 297.9344 303.15625 296.85626Q303.6875 295.7625 304.67188 295.2469Q305.65625 294.71564 306.9375 294.71564Q307.875 294.71564 308.625 295.0125Q309.375 295.3094 309.79688 295.85626Q310.23438 296.3875 310.45312 297.2625L309.4375 297.54376Q309.23438 296.8875 308.9375 296.5125Q308.65625 296.1375 308.125 295.91876Q307.59375 295.6844 306.95312 295.6844Q306.17188 295.6844 305.59375 295.91876Q305.03125 296.15314 304.67188 296.54376Q304.32812 296.9344 304.14062 297.40314Q303.8125 298.2 303.8125 299.1219Q303.8125 300.27814 304.20312 301.0594Q304.60938 301.825 305.35938 302.2Q306.10938 302.575 306.96875 302.575Q307.70312 302.575 308.40625 302.29376Q309.10938 301.9969 309.46875 301.6844L309.46875 300.075L306.95312 300.075ZM311.96875 303.45L311.96875 294.85626L313.09375 294.85626L313.09375 298.3875L317.5625 298.3875L317.5625 294.85626L318.70312 294.85626L318.70312 303.45L317.5625 303.45L317.5625 299.40314L313.09375 299.40314L313.09375 303.45L311.96875 303.45ZM320.23438 303.45L320.23438 302.59064L324.20312 298.04376Q323.51562 298.075 323.0 298.075L320.46875 298.075L320.46875 297.23126L325.5625 297.23126L325.5625 297.91876L322.1875 301.8719L321.53125 302.59064Q322.25 302.54376 322.85938 302.54376L325.75 302.54376L325.75 303.45L320.23438 303.45ZM330.125 298.79376Q329.46875 298.54376 329.14062 298.10626Q328.82812 297.65314 328.82812 297.04376Q328.82812 296.10626 329.5 295.46564Q330.1875 294.825 331.29688 294.825Q332.42188 294.825 333.10938 295.48126Q333.79688 296.1375 333.79688 297.075Q333.79688 297.66876 333.48438 298.10626Q333.17188 298.54376 332.53125 298.79376Q333.32812 299.04376 333.73438 299.6219Q334.14062 300.2 334.14062 300.9969Q334.14062 302.09064 333.35938 302.84064Q332.59375 303.59064 331.3125 303.59064Q330.04688 303.59064 329.26562 302.84064Q328.48438 302.09064 328.48438 300.96564Q328.48438 300.1219 328.90625 299.5594Q329.34375 298.9969 330.125 298.79376ZM329.90625 296.9969Q329.90625 297.60626 330.29688 297.9969Q330.70312 298.3875 331.32812 298.3875Q331.9375 298.3875 332.32812 298.0125Q332.71875 297.6219 332.71875 297.0594Q332.71875 296.48126 332.3125 296.09064Q331.90625 295.6844 331.3125 295.6844Q330.70312 295.6844 330.29688 296.075Q329.90625 296.46564 329.90625 296.9969ZM329.57812 300.96564Q329.57812 301.41876 329.78125 301.84064Q330.0 302.2625 330.42188 302.4969Q330.84375 302.73126 331.32812 302.73126Q332.07812 302.73126 332.5625 302.2469Q333.0625 301.7625 333.0625 301.0125Q333.0625 300.2469 332.5625 299.7469Q332.0625 299.2469 331.29688 299.2469Q330.54688 299.2469 330.0625 299.7469Q329.57812 300.23126 329.57812 300.96564ZM335.375 300.8719L335.375 299.8094L338.625 299.8094L338.625 300.8719L335.375 300.8719ZM346.0625 300.4344L347.1875 300.73126Q346.82812 302.1219 345.90625 302.85626Q344.98438 303.59064 343.64062 303.59064Q342.25 303.59064 341.375 303.02814Q340.5 302.46564 340.04688 301.40314Q339.59375 300.325 339.59375 299.09064Q339.59375 297.7469 340.10938 296.7469Q340.625 295.7469 341.5625 295.23126Q342.51562 294.71564 343.65625 294.71564Q344.9375 294.71564 345.8125 295.3719Q346.70312 296.02814 347.04688 297.21564L345.92188 297.48126Q345.625 296.54376 345.04688 296.1219Q344.48438 295.6844 343.625 295.6844Q342.64062 295.6844 341.96875 296.16876Q341.3125 296.6375 341.03125 297.4344Q340.76562 298.23126 340.76562 299.09064Q340.76562 300.1844 341.07812 300.9969Q341.40625 301.8094 342.07812 302.21564Q342.75 302.6219 343.54688 302.6219Q344.5 302.6219 345.15625 302.075Q345.82812 301.52814 346.0625 300.4344ZM348.40625 300.34064Q348.40625 298.60626 349.35938 297.77814Q350.15625 297.09064 351.3125 297.09064Q352.59375 297.09064 353.40625 297.9344Q354.23438 298.7625 354.23438 300.2469Q354.23438 301.45 353.875 302.1375Q353.51562 302.825 352.8125 303.21564Q352.125 303.59064 351.3125 303.59064Q350.01562 303.59064 349.20312 302.7625Q348.40625 301.91876 348.40625 300.34064ZM349.48438 300.34064Q349.48438 301.52814 350.0 302.1219Q350.53125 302.71564 351.3125 302.71564Q352.10938 302.71564 352.625 302.1219Q353.14062 301.52814 353.14062 300.3094Q353.14062 299.15314 352.60938 298.5594Q352.09375 297.96564 351.3125 297.96564Q350.53125 297.96564 350.0 298.5594Q349.48438 299.1375 349.48438 300.34064ZM355.78125 303.45L355.78125 297.23126L356.73438 297.23126L356.73438 298.16876Q357.09375 297.5125 357.39062 297.3094Q357.70312 297.09064 358.07812 297.09064Q358.60938 297.09064 359.15625 297.41876L358.79688 298.40314Q358.40625 298.16876 358.03125 298.16876Q357.67188 298.16876 357.39062 298.3875Q357.125 298.59064 357.01562 298.96564Q356.82812 299.52814 356.82812 300.1844L356.82812 303.45L355.78125 303.45ZM364.04688 301.45L365.14062 301.575Q364.89062 302.52814 364.1875 303.0594Q363.48438 303.59064 362.40625 303.59064Q361.04688 303.59064 360.23438 302.7469Q359.4375 301.90314 359.4375 300.3875Q359.4375 298.825 360.25 297.96564Q361.0625 297.09064 362.34375 297.09064Q363.59375 297.09064 364.375 297.9344Q365.17188 298.77814 365.17188 300.325Q365.17188 300.41876 365.17188 300.60626L360.53125 300.60626Q360.59375 301.6375 361.10938 302.1844Q361.625 302.71564 362.40625 302.71564Q362.98438 302.71564 363.39062 302.41876Q363.8125 302.10626 364.04688 301.45ZM360.59375 299.7469L364.0625 299.7469Q364.0 298.95 363.67188 298.5594Q363.15625 297.95 362.35938 297.95Q361.625 297.95 361.125 298.4344Q360.64062 298.91876 360.59375 299.7469ZM369.5 301.1844L370.5625 301.04376Q370.73438 301.9344 371.17188 302.34064Q371.60938 302.73126 372.23438 302.73126Q372.98438 302.73126 373.5 302.21564Q374.01562 301.7 374.01562 300.9344Q374.01562 300.21564 373.53125 299.7469Q373.0625 299.2625 372.32812 299.2625Q372.03125 299.2625 371.57812 299.3875L371.70312 298.45Q371.8125 298.46564 371.875 298.46564Q372.54688 298.46564 373.07812 298.1219Q373.625 297.7625 373.625 297.02814Q373.625 296.45 373.23438 296.075Q372.84375 295.6844 372.21875 295.6844Q371.60938 295.6844 371.1875 296.075Q370.78125 296.46564 370.67188 297.23126L369.60938 297.04376Q369.79688 295.9969 370.48438 295.41876Q371.17188 294.825 372.1875 294.825Q372.89062 294.825 373.48438 295.1375Q374.07812 295.4344 374.39062 295.95Q374.70312 296.46564 374.70312 297.0594Q374.70312 297.60626 374.40625 298.075Q374.10938 298.52814 373.53125 298.79376Q374.28125 298.96564 374.70312 299.52814Q375.125 300.075 375.125 300.91876Q375.125 302.04376 374.29688 302.825Q373.48438 303.60626 372.23438 303.60626Q371.10938 303.60626 370.35938 302.9344Q369.60938 302.2469 369.5 301.1844ZM382.04688 302.4344L382.04688 303.45L376.35938 303.45Q376.35938 303.075 376.48438 302.71564Q376.70312 302.1375 377.17188 301.575Q377.65625 301.0125 378.5625 300.27814Q379.96875 299.1219 380.45312 298.45Q380.95312 297.77814 380.95312 297.1844Q380.95312 296.5594 380.5 296.1375Q380.04688 295.7 379.32812 295.7Q378.5625 295.7 378.10938 296.15314Q377.65625 296.60626 377.64062 297.41876L376.5625 297.3094Q376.67188 296.09064 377.39062 295.46564Q378.125 294.825 379.35938 294.825Q380.59375 294.825 381.3125 295.5125Q382.03125 296.2 382.03125 297.21564Q382.03125 297.73126 381.8125 298.23126Q381.60938 298.71564 381.10938 299.27814Q380.625 299.825 379.5 300.77814Q378.54688 301.575 378.26562 301.8719Q378.0 302.15314 377.82812 302.4344L382.04688 302.4344ZM387.95312 300.075L387.95312 299.075L391.57812 299.0594L391.57812 302.2469Q390.75 302.91876 389.85938 303.2625Q388.96875 303.59064 388.03125 303.59064Q386.76562 303.59064 385.71875 303.0594Q384.6875 302.5125 384.15625 301.4969Q383.64062 300.46564 383.64062 299.2Q383.64062 297.9344 384.15625 296.85626Q384.6875 295.7625 385.67188 295.2469Q386.65625 294.71564 387.9375 294.71564Q388.875 294.71564 389.625 295.0125Q390.375 295.3094 390.79688 295.85626Q391.23438 296.3875 391.45312 297.2625L390.4375 297.54376Q390.23438 296.8875 389.9375 296.5125Q389.65625 296.1375 389.125 295.91876Q388.59375 295.6844 387.95312 295.6844Q387.17188 295.6844 386.59375 295.91876Q386.03125 296.15314 385.67188 296.54376Q385.32812 296.9344 385.14062 297.40314Q384.8125 298.2 384.8125 299.1219Q384.8125 300.27814 385.20312 301.0594Q385.60938 301.825 386.35938 302.2Q387.10938 302.575 387.96875 302.575Q388.70312 302.575 389.40625 302.29376Q390.10938 301.9969 390.46875 301.6844L390.46875 300.075L387.95312 300.075Z" fill-rule="nonzero"/><path fill="#000000" d="M419.73996 302.6844Q419.1462 303.1844 418.59933 303.3875Q418.06808 303.59064 417.44308 303.59064Q416.41183 303.59064 415.86496 303.09064Q415.31808 302.59064 415.31808 301.8094Q415.31808 301.35626 415.5212 300.98126Q415.72433 300.59064 416.06808 300.3719Q416.41183 300.1375 416.8337 300.02814Q417.13058 299.9344 417.7712 299.85626Q419.03683 299.71564 419.6462 299.4969Q419.6462 299.27814 419.6462 299.23126Q419.6462 298.575 419.34933 298.3094Q418.94308 297.96564 418.1462 297.96564Q417.41183 297.96564 417.05246 298.23126Q416.69308 298.48126 416.5212 299.1375L415.48996 298.9969Q415.63058 298.34064 415.9587 297.9344Q416.28683 297.52814 416.8962 297.3094Q417.50558 297.09064 418.30246 297.09064Q419.09933 297.09064 419.59933 297.27814Q420.09933 297.46564 420.3337 297.7469Q420.56808 298.02814 420.66183 298.46564Q420.7087 298.73126 420.7087 299.4344L420.7087 300.84064Q420.7087 302.3094 420.7712 302.7Q420.84933 303.09064 421.05246 303.45L419.94308 303.45Q419.78683 303.1219 419.73996 302.6844ZM419.6462 300.325Q419.06808 300.5594 417.92746 300.73126Q417.2712 300.825 417.00558 300.95Q416.73996 301.0594 416.5837 301.27814Q416.44308 301.4969 416.44308 301.77814Q416.44308 302.2 416.75558 302.48126Q417.0837 302.7625 417.69308 302.7625Q418.30246 302.7625 418.7712 302.4969Q419.25558 302.23126 419.47433 301.7625Q419.6462 301.40314 419.6462 300.71564L419.6462 300.325ZM422.66183 303.45L422.66183 297.23126L423.61496 297.23126L423.61496 298.16876Q423.97433 297.5125 424.2712 297.3094Q424.5837 297.09064 424.9587 297.09064Q425.48996 297.09064 426.03683 297.41876L425.67746 298.40314Q425.28683 298.16876 424.91183 298.16876Q424.55246 298.16876 424.2712 298.3875Q424.00558 298.59064 423.8962 298.96564Q423.7087 299.52814 423.7087 300.1844L423.7087 303.45L422.66183 303.45ZM426.67746 303.45L426.67746 297.23126L427.61496 297.23126L427.61496 298.10626Q427.91183 297.6375 428.3962 297.3719Q428.88058 297.09064 429.50558 297.09064Q430.19308 297.09064 430.63058 297.3719Q431.0837 297.65314 431.25558 298.16876Q432.00558 297.09064 433.17746 297.09064Q434.11496 297.09064 434.59933 297.60626Q435.09933 298.10626 435.09933 299.1844L435.09933 303.45L434.05246 303.45L434.05246 299.52814Q434.05246 298.90314 433.94308 298.6219Q433.84933 298.34064 433.5837 298.16876Q433.31808 297.9969 432.94308 297.9969Q432.28683 297.9969 431.84933 298.4344Q431.42746 298.8719 431.42746 299.84064L431.42746 303.45L430.36496 303.45L430.36496 299.40314Q430.36496 298.7 430.09933 298.35626Q429.84933 297.9969 429.2712 297.9969Q428.81808 297.9969 428.44308 298.23126Q428.06808 298.46564 427.8962 298.91876Q427.72433 299.3719 427.72433 300.21564L427.72433 303.45L426.67746 303.45ZM440.67746 303.45L440.67746 297.23126L441.61496 297.23126L441.61496 298.10626Q441.91183 297.6375 442.3962 297.3719Q442.88058 297.09064 443.50558 297.09064Q444.19308 297.09064 444.63058 297.3719Q445.0837 297.65314 445.25558 298.16876Q446.00558 297.09064 447.17746 297.09064Q448.11496 297.09064 448.59933 297.60626Q449.09933 298.10626 449.09933 299.1844L449.09933 303.45L448.05246 303.45L448.05246 299.52814Q448.05246 298.90314 447.94308 298.6219Q447.84933 298.34064 447.5837 298.16876Q447.31808 297.9969 446.94308 297.9969Q446.28683 297.9969 445.84933 298.4344Q445.42746 298.8719 445.42746 299.84064L445.42746 303.45L444.36496 303.45L444.36496 299.40314Q444.36496 298.7 444.09933 298.35626Q443.84933 297.9969 443.2712 297.9969Q442.81808 297.9969 442.44308 298.23126Q442.06808 298.46564 441.8962 298.91876Q441.72433 299.3719 441.72433 300.21564L441.72433 303.45L440.67746 303.45ZM455.34933 303.45L454.30246 303.45L454.30246 296.73126Q453.91183 297.09064 453.28683 297.46564Q452.67746 297.825 452.19308 297.9969L452.19308 296.98126Q453.06808 296.5594 453.72433 295.98126Q454.3962 295.3875 454.67746 294.825L455.34933 294.825L455.34933 303.45ZM465.34933 303.45L464.30246 303.45L464.30246 296.73126Q463.91183 297.09064 463.28683 297.46564Q462.67746 297.825 462.19308 297.9969L462.19308 296.98126Q463.06808 296.5594 463.72433 295.98126Q464.3962 295.3875 464.67746 294.825L465.34933 294.825L465.34933 303.45ZM468.38058 299.21564Q468.38058 297.6844 468.69308 296.7625Q469.00558 295.825 469.61496 295.325Q470.23996 294.825 471.17746 294.825Q471.86496 294.825 472.38058 295.10626Q472.91183 295.3875 473.25558 295.91876Q473.59933 296.4344 473.78683 297.1844Q473.97433 297.9344 473.97433 299.21564Q473.97433 300.73126 473.66183 301.65314Q473.36496 302.575 472.73996 303.09064Q472.13058 303.59064 471.17746 303.59064Q469.94308 303.59064 469.22433 302.7Q468.38058 301.6375 468.38058 299.21564ZM469.4587 299.21564Q469.4587 301.325 469.9587 302.02814Q470.4587 302.73126 471.17746 302.73126Q471.91183 302.73126 472.3962 302.02814Q472.8962 301.325 472.8962 299.21564Q472.8962 297.09064 472.3962 296.40314Q471.91183 295.7 471.16183 295.7Q470.44308 295.7 470.00558 296.3094Q469.4587 297.09064 469.4587 299.21564ZM482.73996 301.16876L483.7712 301.3094Q483.59933 302.3719 482.8962 302.98126Q482.19308 303.59064 481.17746 303.59064Q479.8962 303.59064 479.11496 302.7625Q478.34933 301.91876 478.34933 300.35626Q478.34933 299.35626 478.67746 298.60626Q479.0212 297.84064 479.69308 297.46564Q480.38058 297.09064 481.19308 297.09064Q482.19308 297.09064 482.8337 297.60626Q483.48996 298.10626 483.67746 299.0594L482.6462 299.21564Q482.50558 298.59064 482.13058 298.27814Q481.75558 297.95 481.22433 297.95Q480.42746 297.95 479.92746 298.52814Q479.42746 299.09064 479.42746 300.325Q479.42746 301.59064 479.91183 302.15314Q480.3962 302.71564 481.16183 302.71564Q481.78683 302.71564 482.19308 302.34064Q482.61496 301.96564 482.73996 301.16876ZM484.28683 300.34064Q484.28683 298.60626 485.23996 297.77814Q486.03683 297.09064 487.19308 297.09064Q488.47433 297.09064 489.28683 297.9344Q490.11496 298.7625 490.11496 300.2469Q490.11496 301.45 489.75558 302.1375Q489.3962 302.825 488.69308 303.21564Q488.00558 303.59064 487.19308 303.59064Q485.8962 303.59064 485.0837 302.7625Q484.28683 301.91876 484.28683 300.34064ZM485.36496 300.34064Q485.36496 301.52814 485.88058 302.1219Q486.41183 302.71564 487.19308 302.71564Q487.98996 302.71564 488.50558 302.1219Q489.0212 301.52814 489.0212 300.3094Q489.0212 299.15314 488.48996 298.5594Q487.97433 297.96564 487.19308 297.96564Q486.41183 297.96564 485.88058 298.5594Q485.36496 299.1375 485.36496 300.34064ZM491.66183 303.45L491.66183 297.23126L492.61496 297.23126L492.61496 298.16876Q492.97433 297.5125 493.2712 297.3094Q493.5837 297.09064 493.9587 297.09064Q494.48996 297.09064 495.03683 297.41876L494.67746 298.40314Q494.28683 298.16876 493.91183 298.16876Q493.55246 298.16876 493.2712 298.3875Q493.00558 298.59064 492.8962 298.96564Q492.7087 299.52814 492.7087 300.1844L492.7087 303.45L491.66183 303.45ZM499.92746 301.45L501.0212 301.575Q500.7712 302.52814 500.06808 303.0594Q499.36496 303.59064 498.28683 303.59064Q496.92746 303.59064 496.11496 302.7469Q495.31808 301.90314 495.31808 300.3875Q495.31808 298.825 496.13058 297.96564Q496.94308 297.09064 498.22433 297.09064Q499.47433 297.09064 500.25558 297.9344Q501.05246 298.77814 501.05246 300.325Q501.05246 300.41876 501.05246 300.60626L496.41183 300.60626Q496.47433 301.6375 496.98996 302.1844Q497.50558 302.71564 498.28683 302.71564Q498.86496 302.71564 499.2712 302.41876Q499.69308 302.10626 499.92746 301.45ZM496.47433 299.7469L499.94308 299.7469Q499.88058 298.95 499.55246 298.5594Q499.03683 297.95 498.23996 297.95Q497.50558 297.95 497.00558 298.4344Q496.5212 298.91876 496.47433 299.7469ZM502.25558 301.59064L503.28683 301.4344Q503.38058 302.0594 503.7712 302.3875Q504.17746 302.71564 504.91183 302.71564Q505.63058 302.71564 505.97433 302.4344Q506.3337 302.1375 506.3337 301.73126Q506.3337 301.3719 506.0212 301.16876Q505.80246 301.02814 504.94308 300.8094Q503.78683 300.5125 503.3337 300.3094Q502.8962 300.09064 502.66183 299.71564Q502.42746 299.34064 502.42746 298.8719Q502.42746 298.46564 502.61496 298.10626Q502.80246 297.7469 503.13058 297.5125Q503.38058 297.34064 503.80246 297.21564Q504.22433 297.09064 504.72433 297.09064Q505.44308 297.09064 505.98996 297.3094Q506.55246 297.5125 506.81808 297.8719Q507.0837 298.23126 507.17746 298.825L506.1462 298.96564Q506.0837 298.4969 505.73996 298.23126Q505.41183 297.95 504.78683 297.95Q504.06808 297.95 503.75558 298.2Q503.44308 298.4344 503.44308 298.7625Q503.44308 298.96564 503.56808 299.1219Q503.7087 299.29376 503.97433 299.40314Q504.13058 299.46564 504.91183 299.66876Q506.03683 299.98126 506.47433 300.16876Q506.91183 300.35626 507.16183 300.71564Q507.41183 301.075 507.41183 301.6219Q507.41183 302.15314 507.09933 302.6219Q506.80246 303.075 506.22433 303.34064Q505.6462 303.59064 504.91183 303.59064Q503.69308 303.59064 503.05246 303.09064Q502.42746 302.575 502.25558 301.59064ZM512.3806 301.1844L513.4431 301.04376Q513.615 301.9344 514.0525 302.34064Q514.49 302.73126 515.115 302.73126Q515.865 302.73126 516.3806 302.21564Q516.89624 301.7 516.89624 300.9344Q516.89624 300.21564 516.41187 299.7469Q515.9431 299.2625 515.20874 299.2625Q514.91187 299.2625 514.45874 299.3875L514.58374 298.45Q514.6931 298.46564 514.7556 298.46564Q515.4275 298.46564 515.95874 298.1219Q516.5056 297.7625 516.5056 297.02814Q516.5056 296.45 516.115 296.075Q515.72437 295.6844 515.09937 295.6844Q514.49 295.6844 514.0681 296.075Q513.66187 296.46564 513.5525 297.23126L512.49 297.04376Q512.6775 295.9969 513.365 295.41876Q514.0525 294.825 515.0681 294.825Q515.77124 294.825 516.365 295.1375Q516.95874 295.4344 517.27124 295.95Q517.58374 296.46564 517.58374 297.0594Q517.58374 297.60626 517.28687 298.075Q516.99 298.52814 516.41187 298.79376Q517.16187 298.96564 517.58374 299.52814Q518.0056 300.075 518.0056 300.91876Q518.0056 302.04376 517.1775 302.825Q516.365 303.60626 515.115 303.60626Q513.99 303.60626 513.24 302.9344Q512.49 302.2469 512.3806 301.1844ZM524.9275 302.4344L524.9275 303.45L519.24 303.45Q519.24 303.075 519.365 302.71564Q519.58374 302.1375 520.0525 301.575Q520.53687 301.0125 521.4431 300.27814Q522.84937 299.1219 523.33374 298.45Q523.83374 297.77814 523.83374 297.1844Q523.83374 296.5594 523.3806 296.1375Q522.9275 295.7 522.20874 295.7Q521.4431 295.7 520.99 296.15314Q520.53687 296.60626 520.52124 297.41876L519.4431 297.3094Q519.5525 296.09064 520.27124 295.46564Q521.0056 294.825 522.24 294.825Q523.47437 294.825 524.1931 295.5125Q524.91187 296.2 524.91187 297.21564Q524.91187 297.73126 524.6931 298.23126Q524.49 298.71564 523.99 299.27814Q523.5056 299.825 522.3806 300.77814Q521.4275 301.575 521.14624 301.8719Q520.8806 302.15314 520.70874 302.4344L524.9275 302.4344ZM530.83374 300.075L530.83374 299.075L534.45874 299.0594L534.45874 302.2469Q533.6306 302.91876 532.74 303.2625Q531.84937 303.59064 530.91187 303.59064Q529.64624 303.59064 528.59937 303.0594Q527.5681 302.5125 527.03687 301.4969Q526.52124 300.46564 526.52124 299.2Q526.52124 297.9344 527.03687 296.85626Q527.5681 295.7625 528.5525 295.2469Q529.53687 294.71564 530.8181 294.71564Q531.7556 294.71564 532.5056 295.0125Q533.2556 295.3094 533.6775 295.85626Q534.115 296.3875 534.33374 297.2625L533.3181 297.54376Q533.115 296.8875 532.8181 296.5125Q532.53687 296.1375 532.0056 295.91876Q531.47437 295.6844 530.83374 295.6844Q530.0525 295.6844 529.47437 295.91876Q528.91187 296.15314 528.5525 296.54376Q528.20874 296.9344 528.02124 297.40314Q527.6931 298.2 527.6931 299.1219Q527.6931 300.27814 528.08374 301.0594Q528.49 301.825 529.24 302.2Q529.99 302.575 530.84937 302.575Q531.58374 302.575 532.28687 302.29376Q532.99 301.9969 533.34937 301.6844L533.34937 300.075L530.83374 300.075Z" fill-rule="nonzero"/><path fill="#4285f4" d="M230.5 56.916668C230.5 56.364384 230.94771 55.916668 231.5 55.916668L241.5 55.916668C242.05229 55.916668 242.5 56.364384 242.5 56.916668L242.5 66.916664C242.5 67.46895 242.05229 67.916664 241.5 67.916664L231.5 67.916664C230.94771 67.916664 230.5 67.46895 230.5 66.916664Z" fill-rule="nonzero"/><path fill="#1a1a1a" d="M251.42188 65.916664L251.42188 57.322914L254.67188 57.322914Q255.51562 57.322914 255.96875 57.40104Q256.60938 57.510414 257.03125 57.80729Q257.46875 58.104164 257.71875 58.635414Q257.98438 59.166664 257.98438 59.80729Q257.98438 60.90104 257.28125 61.666664Q256.59375 62.416664 254.76562 62.416664L252.5625 62.416664L252.5625 65.916664L251.42188 65.916664ZM252.5625 61.416664L254.78125 61.416664Q255.89062 61.416664 256.34375 61.010414Q256.8125 60.58854 256.8125 59.83854Q256.8125 59.30729 256.53125 58.93229Q256.26562 58.541664 255.82812 58.416664Q255.53125 58.33854 254.76562 58.33854L252.5625 58.33854L252.5625 61.416664ZM263.45312 62.541664L263.45312 61.541664L267.07812 61.52604L267.07812 64.71354Q266.25 65.385414 265.35938 65.729164Q264.46875 66.05729 263.53125 66.05729Q262.26562 66.05729 261.21875 65.52604Q260.1875 64.979164 259.65625 63.96354Q259.14062 62.93229 259.14062 61.666664Q259.14062 60.40104 259.65625 59.322914Q260.1875 58.229164 261.17188 57.71354Q262.15625 57.18229 263.4375 57.18229Q264.375 57.18229 265.125 57.479164Q265.875 57.77604 266.29688 58.322914Q266.73438 58.854164 266.95312 59.729164L265.9375 60.010414Q265.73438 59.354164 265.4375 58.979164Q265.15625 58.604164 264.625 58.385414Q264.09375 58.15104 263.45312 58.15104Q262.67188 58.15104 262.09375 58.385414Q261.53125 58.61979 261.17188 59.010414Q260.82812 59.40104 260.64062 59.86979Q260.3125 60.666664 260.3125 61.58854Q260.3125 62.74479 260.70312 63.52604Q261.10938 64.291664 261.85938 64.666664Q262.60938 65.041664 263.46875 65.041664Q264.20312 65.041664 264.90625 64.760414Q265.60938 64.46354 265.96875 64.15104L265.96875 62.541664L263.45312 62.541664ZM273.54688 64.90104L273.54688 65.916664L267.85938 65.916664Q267.85938 65.541664 267.98438 65.18229Q268.20312 64.604164 268.67188 64.041664Q269.15625 63.479164 270.0625 62.74479Q271.46875 61.58854 271.95312 60.916664Q272.45312 60.24479 272.45312 59.65104Q272.45312 59.02604 272.0 58.604164Q271.54688 58.166664 270.82812 58.166664Q270.0625 58.166664 269.60938 58.61979Q269.15625 59.072914 269.14062 59.885414L268.0625 59.77604Q268.17188 58.55729 268.89062 57.93229Q269.625 57.291664 270.85938 57.291664Q272.09375 57.291664 272.8125 57.979164Q273.53125 58.666664 273.53125 59.68229Q273.53125 60.197914 273.3125 60.697914Q273.10938 61.18229 272.60938 61.74479Q272.125 62.291664 271.0 63.24479Q270.04688 64.041664 269.76562 64.33854Q269.5 64.61979 269.32812 64.90104L273.54688 64.90104Z" fill-rule="nonzero"/><path fill="#ea4335" d="M290.5 56.916668C290.5 56.364384 290.94772 55.916668 291.5 55.916668L301.5 55.916668C302.05228 55.916668 302.5 56.364384 302.5 56.916668L302.5 66.916664C302.5 67.46895 302.05228 67.916664 301.5 67.916664L291.5 67.916664C290.94772 67.916664 290.5 67.46895 290.5 66.916664Z" fill-rule="nonzero"/><path fill="#1a1a1a" d="M310.84375 63.479164L311.875 63.33854Q311.90625 64.322914 312.23438 64.68229Q312.5625 65.041664 313.15625 65.041664Q313.57812 65.041664 313.89062 64.854164Q314.20312 64.65104 314.3125 64.322914Q314.4375 63.979164 314.4375 63.24479L314.4375 57.322914L315.5625 57.322914L315.5625 63.18229Q315.5625 64.260414 315.29688 64.854164Q315.04688 65.447914 314.48438 65.760414Q313.92188 66.05729 313.15625 66.05729Q312.03125 66.05729 311.42188 65.416664Q310.82812 64.760414 310.84375 63.479164ZM317.42188 65.916664L317.42188 57.322914L320.39062 57.322914Q321.39062 57.322914 321.92188 57.447914Q322.65625 57.61979 323.17188 58.05729Q323.85938 58.635414 324.1875 59.541664Q324.53125 60.43229 324.53125 61.572914Q324.53125 62.55729 324.29688 63.30729Q324.07812 64.05729 323.71875 64.55729Q323.35938 65.05729 322.92188 65.33854Q322.5 65.61979 321.90625 65.77604Q321.3125 65.916664 320.53125 65.916664L317.42188 65.916664ZM318.5625 64.90104L320.39062 64.90104Q321.25 64.90104 321.73438 64.74479Q322.21875 64.58854 322.5 64.291664Q322.90625 63.90104 323.125 63.21354Q323.35938 62.52604 323.35938 61.55729Q323.35938 60.21354 322.90625 59.49479Q322.46875 58.760414 321.84375 58.510414Q321.375 58.33854 320.375 58.33854L318.5625 58.33854L318.5625 64.90104ZM326.375 65.916664L326.375 57.322914L329.60938 57.322914Q330.59375 57.322914 331.1875 57.58854Q331.78125 57.854164 332.10938 58.40104Q332.45312 58.93229 332.45312 59.52604Q332.45312 60.072914 332.15625 60.55729Q331.85938 61.041664 331.25 61.33854Q332.03125 61.572914 332.4375 62.135414Q332.85938 62.68229 332.85938 63.43229Q332.85938 64.02604 332.60938 64.55729Q332.35938 65.072914 331.98438 65.354164Q331.60938 65.635414 331.03125 65.77604Q330.46875 65.916664 329.65625 65.916664L326.375 65.916664ZM327.51562 60.93229L329.375 60.93229Q330.125 60.93229 330.45312 60.83854Q330.89062 60.71354 331.10938 60.416664Q331.32812 60.104164 331.32812 59.65104Q331.32812 59.229164 331.125 58.90104Q330.92188 58.572914 330.53125 58.46354Q330.15625 58.33854 329.23438 58.33854L327.51562 58.33854L327.51562 60.93229ZM327.51562 64.90104L329.65625 64.90104Q330.20312 64.90104 330.42188 64.854164Q330.82812 64.791664 331.07812 64.635414Q331.34375 64.46354 331.51562 64.15104Q331.6875 63.83854 331.6875 63.43229Q331.6875 62.947914 331.4375 62.58854Q331.20312 62.229164 330.76562 62.08854Q330.32812 61.947914 329.5 61.947914L327.51562 61.947914L327.51562 64.90104ZM340.5625 62.90104L341.6875 63.197914Q341.32812 64.58854 340.40625 65.322914Q339.48438 66.05729 338.14062 66.05729Q336.75 66.05729 335.875 65.49479Q335.0 64.93229 334.54688 63.86979Q334.09375 62.791664 334.09375 61.55729Q334.09375 60.21354 334.60938 59.21354Q335.125 58.21354 336.0625 57.697914Q337.01562 57.18229 338.15625 57.18229Q339.4375 57.18229 340.3125 57.83854Q341.20312 58.49479 341.54688 59.68229L340.42188 59.947914Q340.125 59.010414 339.54688 58.58854Q338.98438 58.15104 338.125 58.15104Q337.14062 58.15104 336.46875 58.635414Q335.8125 59.104164 335.53125 59.90104Q335.26562 60.697914 335.26562 61.55729Q335.26562 62.65104 335.57812 63.46354Q335.90625 64.27604 336.57812 64.68229Q337.25 65.08854 338.04688 65.08854Q339.0 65.08854 339.65625 64.541664Q340.32812 63.99479 340.5625 62.90104ZM343.59375 65.916664L343.59375 64.71354L344.79688 64.71354L344.79688 65.916664L343.59375 65.916664ZM346.42188 65.916664L346.42188 57.322914L347.57812 57.322914L352.09375 64.072914L352.09375 57.322914L353.1875 57.322914L353.1875 65.916664L352.01562 65.916664L347.5 59.166664L347.5 65.916664L346.42188 65.916664ZM359.54688 63.916664L360.64062 64.041664Q360.39062 64.99479 359.6875 65.52604Q358.98438 66.05729 357.90625 66.05729Q356.54688 66.05729 355.73438 65.21354Q354.9375 64.36979 354.9375 62.854164Q354.9375 61.291664 355.75 60.43229Q356.5625 59.55729 357.84375 59.55729Q359.09375 59.55729 359.875 60.40104Q360.67188 61.24479 360.67188 62.791664Q360.67188 62.885414 360.67188 63.072914L356.03125 63.072914Q356.09375 64.104164 356.60938 64.65104Q357.125 65.18229 357.90625 65.18229Q358.48438 65.18229 358.89062 64.885414Q359.3125 64.572914 359.54688 63.916664ZM356.09375 62.21354L359.5625 62.21354Q359.5 61.416664 359.17188 61.02604Q358.65625 60.416664 357.85938 60.416664Q357.125 60.416664 356.625 60.90104Q356.14062 61.385414 356.09375 62.21354ZM361.59375 65.916664L363.85938 62.68229L361.76562 59.697914L363.07812 59.697914L364.03125 61.15104Q364.29688 61.572914 364.46875 61.854164Q364.71875 61.46354 364.9375 61.166664L365.98438 59.697914L367.25 59.697914L365.09375 62.61979L367.40625 65.916664L366.125 65.916664L364.84375 63.979164L364.5 63.46354L362.85938 65.916664L361.59375 65.916664ZM369.59375 64.979164L369.75 65.90104Q369.29688 65.99479 368.95312 65.99479Q368.375 65.99479 368.0625 65.822914Q367.75 65.635414 367.60938 65.33854Q367.48438 65.041664 367.48438 64.08854L367.48438 60.510414L366.71875 60.510414L366.71875 59.697914L367.48438 59.697914L367.48438 58.15104L368.53125 57.52604L368.53125 59.697914L369.59375 59.697914L369.59375 60.510414L368.53125 60.510414L368.53125 64.15104Q368.53125 64.604164 368.57812 64.729164Q368.64062 64.854164 368.76562 64.93229Q368.89062 65.010414 369.125 65.010414Q369.3125 65.010414 369.59375 64.979164Z" fill-rule="nonzero"/><path fill="#757575" d="M20.159374 37.55L20.159374 23.2375L22.05 23.2375L22.05 29.1125L29.4875 29.1125L29.4875 23.2375L31.378124 23.2375L31.378124 37.55L29.4875 37.55L29.4875 30.8L22.05 30.8L22.05 37.55L20.159374 37.55ZM36.7375 37.55L36.7375 24.925L32.01875 24.925L32.01875 23.2375L43.3625 23.2375L43.3625 24.925L38.628124 24.925L38.628124 37.55L36.7375 37.55ZM48.7375 37.55L48.7375 24.925L44.01875 24.925L44.01875 23.2375L55.3625 23.2375L55.3625 24.925L50.628124 24.925L50.628124 37.55L48.7375 37.55ZM57.096874 37.55L57.096874 23.2375L62.4875 23.2375Q63.925 23.2375 64.675 23.3625Q65.72188 23.55 66.44063 24.05Q67.15938 24.534374 67.58125 25.425Q68.01875 26.315624 68.01875 27.378124Q68.01875 29.20625 66.84688 30.471874Q65.69063 31.721874 62.659374 31.721874L58.9875 31.721874L58.9875 37.55L57.096874 37.55ZM58.9875 30.034374L62.690624 30.034374Q64.51875 30.034374 65.28438 29.3625Q66.06563 28.675 66.06563 27.425Q66.06563 26.534374 65.6125 25.89375Q65.15938 25.253124 64.425 25.05Q63.940624 24.925 62.64375 24.925L58.9875 24.925L58.9875 30.034374ZM75.12813 33.4875L76.83125 33.253124Q76.90938 34.89375 77.45625 35.503124Q78.00313 36.096874 78.97188 36.096874Q79.675 36.096874 80.19063 35.784374Q80.70625 35.45625 80.89375 34.89375Q81.09688 34.33125 81.09688 33.096874L81.09688 23.2375L83.00313 23.2375L83.00313 32.9875Q83.00313 34.784374 82.56563 35.76875Q82.12813 36.753124 81.175 37.284374Q80.2375 37.8 78.97188 37.8Q77.09688 37.8 76.08125 36.721874Q75.08125 35.628124 75.12813 33.4875ZM85.45625 32.95625L87.2375 32.8Q87.3625 33.8625 87.81563 34.55Q88.28438 35.2375 89.25313 35.675Q90.2375 36.096874 91.47188 36.096874Q92.55 36.096874 93.37813 35.784374Q94.20625 35.45625 94.6125 34.89375Q95.01875 34.33125 95.01875 33.659374Q95.01875 32.9875 94.62813 32.4875Q94.2375 31.9875 93.34688 31.64375Q92.76875 31.409374 90.78438 30.940624Q88.81563 30.471874 88.03438 30.05Q87.00313 29.51875 86.50313 28.721874Q86.00313 27.925 86.00313 26.940624Q86.00313 25.846874 86.6125 24.909374Q87.22188 23.971874 88.40938 23.4875Q89.59688 22.9875 91.03438 22.9875Q92.62813 22.9875 93.84688 23.503124Q95.06563 24.01875 95.70625 25.01875Q96.3625 26.003124 96.40938 27.26875L94.59688 27.409374Q94.45625 26.05 93.6125 25.3625Q92.76875 24.659374 91.1125 24.659374Q89.39375 24.659374 88.59688 25.3Q87.81563 25.925 87.81563 26.8Q87.81563 27.58125 88.37813 28.08125Q88.925 28.58125 91.2375 29.096874Q93.55 29.6125 94.40938 30.003124Q95.65938 30.58125 96.25313 31.471874Q96.84688 32.346874 96.84688 33.503124Q96.84688 34.64375 96.19063 35.659374Q95.53438 36.675 94.3 37.2375Q93.08125 37.8 91.55 37.8Q89.6125 37.8 88.3 37.2375Q86.9875 36.659374 86.2375 35.51875Q85.4875 34.378124 85.45625 32.95625ZM98.51875 30.58125Q98.51875 27.01875 100.425 25.003124Q102.34688 22.971874 105.37813 22.971874Q107.3625 22.971874 108.94063 23.925Q110.53438 24.878124 111.3625 26.58125Q112.20625 28.26875 112.20625 30.409374Q112.20625 32.58125 111.33125 34.3Q110.45625 36.01875 108.83125 36.909374Q107.22188 37.8 105.3625 37.8Q103.34688 37.8 101.75313 36.83125Q100.15938 35.846874 99.33125 34.159374Q98.51875 32.45625 98.51875 30.58125ZM100.47188 30.6125Q100.47188 33.190624 101.8625 34.690624Q103.25313 36.175 105.34688 36.175Q107.4875 36.175 108.8625 34.675Q110.25313 33.159374 110.25313 30.39375Q110.25313 28.659374 109.65938 27.3625Q109.08125 26.05 107.94063 25.33125Q106.8 24.6125 105.37813 24.6125Q103.37813 24.6125 101.925 26.003124Q100.47188 27.378124 100.47188 30.6125ZM115.08125 37.55L115.08125 23.2375L117.01875 23.2375L124.53438 34.471874L124.53438 23.2375L126.34688 23.2375L126.34688 37.55L124.40938 37.55L116.89375 26.3L116.89375 37.55L115.08125 37.55ZM132.51875 37.55L138.01875 23.2375L140.06563 23.2375L145.925 37.55L143.76875 37.55L142.09688 33.20625L136.1125 33.20625L134.53438 37.55L132.51875 37.55ZM136.65938 31.675L141.50313 31.675L140.01875 27.70625Q139.33125 25.89375 139.00313 24.7375Q138.72188 26.1125 138.22188 27.471874L136.65938 31.675ZM147.09688 37.55L147.09688 23.2375L152.4875 23.2375Q153.925 23.2375 154.675 23.3625Q155.72188 23.55 156.44063 24.05Q157.15938 24.534374 157.58125 25.425Q158.01875 26.315624 158.01875 27.378124Q158.01875 29.20625 156.84688 30.471874Q155.69063 31.721874 152.65938 31.721874L148.9875 31.721874L148.9875 37.55L147.09688 37.55ZM148.9875 30.034374L152.69063 30.034374Q154.51875 30.034374 155.28438 29.3625Q156.06563 28.675 156.06563 27.425Q156.06563 26.534374 155.6125 25.89375Q155.15938 25.253124 154.425 25.05Q153.94063 24.925 152.64375 24.925L148.9875 24.925L148.9875 30.034374ZM160.40938 37.55L160.40938 23.2375L162.31563 23.2375L162.31563 37.55L160.40938 37.55ZM166.33125 37.55L166.33125 35.55L168.33125 35.55L168.33125 37.55Q168.33125 38.659374 167.94063 39.33125Q167.55 40.01875 166.70625 40.378124L166.20625 39.628124Q166.76875 39.39375 167.03438 38.909374Q167.3 38.440624 167.33125 37.55L166.33125 37.55ZM178.12813 37.55L178.12813 23.2375L184.47188 23.2375Q186.37813 23.2375 187.37813 23.628124Q188.37813 24.003124 188.97188 24.9875Q189.56563 25.95625 189.56563 27.14375Q189.56563 28.659374 188.58125 29.70625Q187.59688 30.753124 185.53438 31.034374Q186.28438 31.39375 186.675 31.753124Q187.50313 32.503124 188.25313 33.659374L190.7375 37.55L188.3625 37.55L186.45625 34.565624Q185.62813 33.284374 185.09688 32.596874Q184.56563 31.909374 184.12813 31.64375Q183.70625 31.3625 183.26875 31.253124Q182.94063 31.190624 182.22188 31.190624L180.01875 31.190624L180.01875 37.55L178.12813 37.55ZM180.01875 29.55L184.09688 29.55Q185.39375 29.55 186.1125 29.284374Q186.84688 29.01875 187.22188 28.425Q187.6125 27.83125 187.6125 27.14375Q187.6125 26.128124 186.87813 25.471874Q186.14375 24.815624 184.55 24.815624L180.01875 24.815624L180.01875 29.55ZM192.09688 37.55L192.09688 23.2375L197.4875 23.2375Q198.925 23.2375 199.675 23.3625Q200.72188 23.55 201.44063 24.05Q202.15938 24.534374 202.58125 25.425Q203.01875 26.315624 203.01875 27.378124Q203.01875 29.20625 201.84688 30.471874Q200.69063 31.721874 197.65938 31.721874L193.9875 31.721874L193.9875 37.55L192.09688 37.55ZM193.9875 30.034374L197.69063 30.034374Q199.51875 30.034374 200.28438 29.3625Q201.06563 28.675 201.06563 27.425Q201.06563 26.534374 200.6125 25.89375Q200.15938 25.253124 199.425 25.05Q198.94063 24.925 197.64375 24.925L193.9875 24.925L193.9875 30.034374ZM204.45625 32.95625L206.2375 32.8Q206.3625 33.8625 206.81563 34.55Q207.28438 35.2375 208.25313 35.675Q209.2375 36.096874 210.47188 36.096874Q211.55 36.096874 212.37813 35.784374Q213.20625 35.45625 213.6125 34.89375Q214.01875 34.33125 214.01875 33.659374Q214.01875 32.9875 213.62813 32.4875Q213.2375 31.9875 212.34688 31.64375Q211.76875 31.409374 209.78438 30.940624Q207.81563 30.471874 207.03438 30.05Q206.00313 29.51875 205.50313 28.721874Q205.00313 27.925 205.00313 26.940624Q205.00313 25.846874 205.6125 24.909374Q206.22188 23.971874 207.40938 23.4875Q208.59688 22.9875 210.03438 22.9875Q211.62813 22.9875 212.84688 23.503124Q214.06563 24.01875 214.70625 25.01875Q215.3625 26.003124 215.40938 27.26875L213.59688 27.409374Q213.45625 26.05 212.6125 25.3625Q211.76875 24.659374 210.1125 24.659374Q208.39375 24.659374 207.59688 25.3Q206.81563 25.925 206.81563 26.8Q206.81563 27.58125 207.37813 28.08125Q207.925 28.58125 210.2375 29.096874Q212.55 29.6125 213.40938 30.003124Q214.65938 30.58125 215.25313 31.471874Q215.84688 32.346874 215.84688 33.503124Q215.84688 34.64375 215.19063 35.659374Q214.53438 36.675 213.3 37.2375Q212.08125 37.8 210.55 37.8Q208.6125 37.8 207.3 37.2375Q205.9875 36.659374 205.2375 35.51875Q204.4875 34.378124 204.45625 32.95625ZM218.33125 37.55L218.33125 35.55L220.33125 35.55L220.33125 37.55Q220.33125 38.659374 219.94063 39.33125Q219.55 40.01875 218.70625 40.378124L218.20625 39.628124Q218.76875 39.39375 219.03438 38.909374Q219.3 38.440624 219.33125 37.55L218.33125 37.55ZM236.64375 36.26875Q235.65938 37.096874 234.75313 37.440624Q233.84688 37.784374 232.81563 37.784374Q231.1125 37.784374 230.19063 36.95625Q229.26875 36.1125 229.26875 34.815624Q229.26875 34.05 229.6125 33.425Q229.97188 32.8 230.53438 32.425Q231.09688 32.034374 231.8 31.83125Q232.31563 31.70625 233.3625 31.565624Q235.4875 31.315624 236.4875 30.971874Q236.50313 30.6125 236.50313 30.503124Q236.50313 29.440624 236.00313 28.9875Q235.33125 28.39375 234.00313 28.39375Q232.75313 28.39375 232.15938 28.83125Q231.58125 29.26875 231.3 30.378124L229.58125 30.14375Q229.81563 29.034374 230.34688 28.3625Q230.87813 27.675 231.89375 27.315624Q232.90938 26.940624 234.25313 26.940624Q235.58125 26.940624 236.40938 27.253124Q237.2375 27.565624 237.62813 28.05Q238.01875 28.51875 238.175 29.2375Q238.26875 29.690624 238.26875 30.8625L238.26875 33.20625Q238.26875 35.659374 238.37813 36.315624Q238.4875 36.95625 238.83125 37.55L236.9875 37.55Q236.72188 37.003124 236.64375 36.26875ZM236.4875 32.346874Q235.53438 32.7375 233.6125 33.003124Q232.53438 33.159374 232.08125 33.3625Q231.64375 33.55 231.39375 33.925Q231.14375 34.3 231.14375 34.76875Q231.14375 35.471874 231.675 35.940624Q232.20625 36.409374 233.2375 36.409374Q234.25313 36.409374 235.03438 35.971874Q235.83125 35.51875 236.20625 34.753124Q236.4875 34.14375 236.4875 32.9875L236.4875 32.346874ZM242.4875 37.55L240.8625 37.55L240.8625 23.2375L242.6125 23.2375L242.6125 28.346874Q243.7375 26.940624 245.45625 26.940624Q246.40938 26.940624 247.26875 27.33125Q248.12813 27.721874 248.675 28.425Q249.22188 29.1125 249.53438 30.096874Q249.84688 31.08125 249.84688 32.20625Q249.84688 34.878124 248.53438 36.33125Q247.22188 37.784374 245.37813 37.784374Q243.53438 37.784374 242.4875 36.253124L242.4875 37.55ZM242.47188 32.284374Q242.47188 34.14375 242.97188 34.9875Q243.81563 36.33125 245.22188 36.33125Q246.37813 36.33125 247.20625 35.33125Q248.05 34.33125 248.05 32.346874Q248.05 30.315624 247.2375 29.3625Q246.44063 28.39375 245.3 28.39375Q244.14375 28.39375 243.3 29.39375Q242.47188 30.39375 242.47188 32.284374ZM264.0031 37.55L262.2375 37.55L262.2375 26.346874Q261.6125 26.95625 260.58124 27.565624Q259.55 28.159374 258.72186 28.471874L258.72186 26.76875Q260.20624 26.08125 261.3 25.096874Q262.40936 24.096874 262.8625 23.175L264.0031 23.175L264.0031 37.55ZM268.3781 30.4875Q268.3781 27.95625 268.89374 26.409374Q269.425 24.846874 270.45624 24.01875Q271.4875 23.175 273.05 23.175Q274.20624 23.175 275.0656 23.64375Q275.9406 24.096874 276.5031 24.971874Q277.0656 25.846874 277.39374 27.1125Q277.72186 28.3625 277.72186 30.4875Q277.72186 33.003124 277.1906 34.55Q276.675 36.096874 275.64374 36.95625Q274.6281 37.8 273.05 37.8Q270.97186 37.8 269.8 36.315624Q268.3781 34.51875 268.3781 30.4875ZM270.1906 30.4875Q270.1906 34.01875 271.0031 35.190624Q271.83124 36.346874 273.05 36.346874Q274.2531 36.346874 275.08124 35.175Q275.90936 34.003124 275.90936 30.4875Q275.90936 26.95625 275.08124 25.8Q274.2531 24.628124 273.03436 24.628124Q271.8156 24.628124 271.09686 25.659374Q270.1906 26.95625 270.1906 30.4875ZM279.3781 30.4875Q279.3781 27.95625 279.89374 26.409374Q280.425 24.846874 281.45624 24.01875Q282.4875 23.175 284.05 23.175Q285.20624 23.175 286.0656 23.64375Q286.9406 24.096874 287.5031 24.971874Q288.0656 25.846874 288.39374 27.1125Q288.72186 28.3625 288.72186 30.4875Q288.72186 33.003124 288.1906 34.55Q287.675 36.096874 286.64374 36.95625Q285.6281 37.8 284.05 37.8Q281.97186 37.8 280.8 36.315624Q279.3781 34.51875 279.3781 30.4875ZM281.1906 30.4875Q281.1906 34.01875 282.0031 35.190624Q282.83124 36.346874 284.05 36.346874Q285.2531 36.346874 286.08124 35.175Q286.90936 34.003124 286.90936 30.4875Q286.90936 26.95625 286.08124 25.8Q285.2531 24.628124 284.03436 24.628124Q282.8156 24.628124 282.09686 25.659374Q281.1906 26.95625 281.1906 30.4875ZM290.3781 30.4875Q290.3781 27.95625 290.89374 26.409374Q291.425 24.846874 292.45624 24.01875Q293.4875 23.175 295.05 23.175Q296.20624 23.175 297.0656 23.64375Q297.9406 24.096874 298.5031 24.971874Q299.0656 25.846874 299.39374 27.1125Q299.72186 28.3625 299.72186 30.4875Q299.72186 33.003124 299.1906 34.55Q298.675 36.096874 297.64374 36.95625Q296.6281 37.8 295.05 37.8Q292.97186 37.8 291.8 36.315624Q290.3781 34.51875 290.3781 30.4875ZM292.1906 30.4875Q292.1906 34.01875 293.0031 35.190624Q293.83124 36.346874 295.05 36.346874Q296.2531 36.346874 297.08124 35.175Q297.90936 34.003124 297.90936 30.4875Q297.90936 26.95625 297.08124 25.8Q296.2531 24.628124 295.03436 24.628124Q293.8156 24.628124 293.09686 25.659374Q292.1906 26.95625 292.1906 30.4875ZM300.55 37.8L304.70624 22.9875L306.1125 22.9875L301.97186 37.8L300.55 37.8ZM314.0031 37.55L312.2375 37.55L312.2375 26.346874Q311.6125 26.95625 310.58124 27.565624Q309.55 28.159374 308.72186 28.471874L308.72186 26.76875Q310.20624 26.08125 311.3 25.096874Q312.40936 24.096874 312.8625 23.175L314.0031 23.175L314.0031 37.55ZM327.5031 26.7375L325.7531 26.878124Q325.51874 25.846874 325.09686 25.378124Q324.3781 24.6125 323.33124 24.6125Q322.4875 24.6125 321.8625 25.08125Q321.03436 25.690624 320.55 26.8625Q320.0656 28.01875 320.05 30.159374Q320.6906 29.20625 321.59686 28.7375Q322.51874 28.26875 323.53436 28.26875Q325.28436 28.26875 326.51874 29.565624Q327.7531 30.846874 327.7531 32.89375Q327.7531 34.253124 327.175 35.409374Q326.59686 36.565624 325.58124 37.190624Q324.5656 37.8 323.26874 37.8Q321.08124 37.8 319.6906 36.190624Q318.3 34.565624 318.3 30.846874Q318.3 26.70625 319.83124 24.815624Q321.175 23.175 323.4406 23.175Q325.1281 23.175 326.20624 24.128124Q327.28436 25.065624 327.5031 26.7375ZM320.33124 32.909374Q320.33124 33.815624 320.70624 34.64375Q321.09686 35.471874 321.78436 35.909374Q322.4875 36.346874 323.2375 36.346874Q324.3625 36.346874 325.15936 35.45625Q325.95624 34.55 325.95624 33.003124Q325.95624 31.51875 325.15936 30.675Q324.3781 29.815624 323.175 29.815624Q321.9875 29.815624 321.15936 30.675Q320.33124 31.51875 320.33124 32.909374ZM339.22186 41.753124Q337.76874 39.925 336.76874 37.471874Q335.76874 35.003124 335.76874 32.3625Q335.76874 30.034374 336.51874 27.909374Q337.39374 25.440624 339.22186 22.9875L340.4875 22.9875Q339.3 25.01875 338.925 25.89375Q338.33124 27.2375 337.9875 28.70625Q337.5656 30.534374 337.5656 32.378124Q337.5656 37.065624 340.4875 41.753124L339.22186 41.753124ZM342.8625 37.55L342.8625 27.175L344.4406 27.175L344.4406 28.628124Q344.925 27.878124 345.7375 27.409374Q346.55 26.940624 347.58124 26.940624Q348.7375 26.940624 349.47186 27.425Q350.20624 27.89375 350.51874 28.753124Q351.7531 26.940624 353.72186 26.940624Q355.26874 26.940624 356.09686 27.8Q356.925 28.659374 356.925 30.425L356.925 37.55L355.175 37.55L355.175 31.01875Q355.175 29.95625 355.0031 29.503124Q354.83124 29.034374 354.3781 28.753124Q353.9406 28.471874 353.33124 28.471874Q352.2375 28.471874 351.5031 29.20625Q350.78436 29.925 350.78436 31.51875L350.78436 37.55L349.03436 37.55L349.03436 30.815624Q349.03436 29.64375 348.59686 29.065624Q348.175 28.471874 347.1906 28.471874Q346.45624 28.471874 345.8156 28.8625Q345.1906 29.253124 344.90936 30.003124Q344.6281 30.753124 344.6281 32.175L344.6281 37.55L342.8625 37.55ZM358.22186 32.3625Q358.22186 29.4875 359.8156 28.096874Q361.15936 26.940624 363.08124 26.940624Q365.22186 26.940624 366.5656 28.346874Q367.925 29.753124 367.925 32.221874Q367.925 34.221874 367.33124 35.378124Q366.7375 36.51875 365.58124 37.159374Q364.4406 37.784374 363.08124 37.784374Q360.89374 37.784374 359.55 36.39375Q358.22186 34.9875 358.22186 32.3625ZM360.01874 32.3625Q360.01874 34.3625 360.8781 35.346874Q361.7531 36.33125 363.08124 36.33125Q364.39374 36.33125 365.2531 35.346874Q366.1281 34.346874 366.1281 32.3Q366.1281 30.378124 365.2531 29.39375Q364.3781 28.39375 363.08124 28.39375Q361.7531 28.39375 360.8781 29.39375Q360.01874 30.378124 360.01874 32.3625ZM369.84686 37.55L369.84686 27.175L371.425 27.175L371.425 28.753124Q372.03436 27.64375 372.55 27.3Q373.0656 26.940624 373.675 26.940624Q374.5656 26.940624 375.4875 27.503124L374.8781 29.14375Q374.2375 28.753124 373.59686 28.753124Q373.01874 28.753124 372.55 29.1125Q372.09686 29.45625 371.89374 30.065624Q371.6125 31.003124 371.6125 32.1125L371.6125 37.55L369.84686 37.55ZM383.97186 34.20625L385.78436 34.440624Q385.3625 36.01875 384.1906 36.909374Q383.03436 37.784374 381.22186 37.784374Q378.95624 37.784374 377.6125 36.39375Q376.28436 34.9875 376.28436 32.45625Q376.28436 29.83125 377.6281 28.39375Q378.97186 26.940624 381.1281 26.940624Q383.20624 26.940624 384.51874 28.3625Q385.84686 29.76875 385.84686 32.346874Q385.84686 32.503124 385.83124 32.815624L378.09686 32.815624Q378.1906 34.51875 379.0656 35.425Q379.9406 36.33125 381.2375 36.33125Q382.20624 36.33125 382.8781 35.83125Q383.5656 35.315624 383.97186 34.20625ZM378.1906 31.3625L383.9875 31.3625Q383.8781 30.065624 383.33124 29.409374Q382.4875 28.39375 381.14374 28.39375Q379.9406 28.39375 379.1125 29.20625Q378.28436 30.003124 378.1906 31.3625ZM393.8781 25.253124L393.8781 23.2375L395.64374 23.2375L395.64374 25.253124L393.8781 25.253124ZM393.8781 37.55L393.8781 27.175L395.64374 27.175L395.64374 37.55L393.8781 37.55ZM397.15936 34.45625L398.90936 34.175Q399.05 35.221874 399.72186 35.784374Q400.39374 36.33125 401.59686 36.33125Q402.8 36.33125 403.3781 35.846874Q403.97186 35.346874 403.97186 34.690624Q403.97186 34.096874 403.45624 33.753124Q403.09686 33.51875 401.65936 33.159374Q399.72186 32.659374 398.97186 32.315624Q398.2375 31.95625 397.84686 31.33125Q397.45624 30.690624 397.45624 29.925Q397.45624 29.2375 397.76874 28.64375Q398.09686 28.05 398.64374 27.659374Q399.05 27.3625 399.7531 27.159374Q400.47186 26.940624 401.28436 26.940624Q402.5031 26.940624 403.425 27.3Q404.34686 27.64375 404.78436 28.253124Q405.22186 28.846874 405.39374 29.846874L403.675 30.08125Q403.55 29.284374 402.9875 28.846874Q402.425 28.39375 401.40936 28.39375Q400.1906 28.39375 399.675 28.8Q399.15936 29.190624 399.15936 29.721874Q399.15936 30.065624 399.3781 30.346874Q399.58124 30.628124 400.05 30.815624Q400.3156 30.909374 401.59686 31.253124Q403.47186 31.753124 404.20624 32.08125Q404.9406 32.39375 405.3625 33.003124Q405.78436 33.596874 405.78436 34.503124Q405.78436 35.378124 405.26874 36.159374Q404.7531 36.940624 403.78436 37.3625Q402.8156 37.784374 401.59686 37.784374Q399.58124 37.784374 398.51874 36.940624Q397.45624 36.096874 397.15936 34.45625ZM415.4875 37.55L413.8625 37.55L413.8625 23.2375L415.6125 23.2375L415.6125 28.346874Q416.7375 26.940624 418.45624 26.940624Q419.40936 26.940624 420.26874 27.33125Q421.1281 27.721874 421.675 28.425Q422.22186 29.1125 422.53436 30.096874Q422.84686 31.08125 422.84686 32.20625Q422.84686 34.878124 421.53436 36.33125Q420.22186 37.784374 418.3781 37.784374Q416.53436 37.784374 415.4875 36.253124L415.4875 37.55ZM415.47186 32.284374Q415.47186 34.14375 415.97186 34.9875Q416.8156 36.33125 418.22186 36.33125Q419.3781 36.33125 420.20624 35.33125Q421.05 34.33125 421.05 32.346874Q421.05 30.315624 420.2375 29.3625Q419.4406 28.39375 418.3 28.39375Q417.14374 28.39375 416.3 29.39375Q415.47186 30.39375 415.47186 32.284374ZM431.97186 34.20625L433.78436 34.440624Q433.3625 36.01875 432.1906 36.909374Q431.03436 37.784374 429.22186 37.784374Q426.95624 37.784374 425.6125 36.39375Q424.28436 34.9875 424.28436 32.45625Q424.28436 29.83125 425.6281 28.39375Q426.97186 26.940624 429.1281 26.940624Q431.20624 26.940624 432.51874 28.3625Q433.84686 29.76875 433.84686 32.346874Q433.84686 32.503124 433.83124 32.815624L426.09686 32.815624Q426.1906 34.51875 427.0656 35.425Q427.9406 36.33125 429.2375 36.33125Q430.20624 36.33125 430.8781 35.83125Q431.5656 35.315624 431.97186 34.20625ZM426.1906 31.3625L431.9875 31.3625Q431.8781 30.065624 431.33124 29.409374Q430.4875 28.39375 429.14374 28.39375Q427.9406 28.39375 427.1125 29.20625Q426.28436 30.003124 426.1906 31.3625ZM439.70624 35.971874L439.95624 37.534374Q439.22186 37.690624 438.6281 37.690624Q437.675 37.690624 437.14374 37.39375Q436.6281 37.08125 436.40936 36.596874Q436.1906 36.096874 436.1906 34.51875L436.1906 28.55L434.90936 28.55L434.90936 27.175L436.1906 27.175L436.1906 24.6125L437.9406 23.55L437.9406 27.175L439.70624 27.175L439.70624 28.55L437.9406 28.55L437.9406 34.6125Q437.9406 35.3625 438.03436 35.58125Q438.1281 35.784374 438.33124 35.925Q438.55 36.05 438.9406 36.05Q439.22186 36.05 439.70624 35.971874ZM445.70624 35.971874L445.95624 37.534374Q445.22186 37.690624 444.6281 37.690624Q443.675 37.690624 443.14374 37.39375Q442.6281 37.08125 442.40936 36.596874Q442.1906 36.096874 442.1906 34.51875L442.1906 28.55L440.90936 28.55L440.90936 27.175L442.1906 27.175L442.1906 24.6125L443.9406 23.55L443.9406 27.175L445.70624 27.175L445.70624 28.55L443.9406 28.55L443.9406 34.6125Q443.9406 35.3625 444.03436 35.58125Q444.1281 35.784374 444.33124 35.925Q444.55 36.05 444.9406 36.05Q445.22186 36.05 445.70624 35.971874ZM454.97186 34.20625L456.78436 34.440624Q456.3625 36.01875 455.1906 36.909374Q454.03436 37.784374 452.22186 37.784374Q449.95624 37.784374 448.6125 36.39375Q447.28436 34.9875 447.28436 32.45625Q447.28436 29.83125 448.6281 28.39375Q449.97186 26.940624 452.1281 26.940624Q454.20624 26.940624 455.51874 28.3625Q456.84686 29.76875 456.84686 32.346874Q456.84686 32.503124 456.83124 32.815624L449.09686 32.815624Q449.1906 34.51875 450.0656 35.425Q450.9406 36.33125 452.2375 36.33125Q453.20624 36.33125 453.8781 35.83125Q454.5656 35.315624 454.97186 34.20625ZM449.1906 31.3625L454.9875 31.3625Q454.8781 30.065624 454.33124 29.409374Q453.4875 28.39375 452.14374 28.39375Q450.9406 28.39375 450.1125 29.20625Q449.28436 30.003124 449.1906 31.3625ZM458.84686 37.55L458.84686 27.175L460.425 27.175L460.425 28.753124Q461.03436 27.64375 461.55 27.3Q462.0656 26.940624 462.675 26.940624Q463.5656 26.940624 464.4875 27.503124L463.8781 29.14375Q463.2375 28.753124 462.59686 28.753124Q462.01874 28.753124 461.55 29.1125Q461.09686 29.45625 460.89374 30.065624Q460.6125 31.003124 460.6125 32.1125L460.6125 37.55L458.84686 37.55ZM467.01874 41.753124L465.76874 41.753124Q468.675 37.065624 468.675 32.378124Q468.675 30.534374 468.26874 28.7375Q467.925 27.26875 467.33124 25.925Q466.95624 25.034374 465.76874 22.9875L467.01874 22.9875Q468.8625 25.440624 469.7375 27.909374Q470.4875 30.034374 470.4875 32.3625Q470.4875 35.003124 469.47186 37.471874Q468.47186 39.925 467.01874 41.753124Z" fill-rule="nonzero"/></svg>