<svg version="1.1" viewBox="0.0 0.0 600.0 371.0" fill="none" stroke="none" stroke-linecap="square" stroke-miterlimit="10" width="600" height="371" xmlns:xlink="http://www.w3.org/1999/xlink" xmlns="http://www.w3.org/2000/svg"><path fill="#ffffff" d="M0 0L600.0 0L600.0 371.0L0 371.0L0 0Z" fill-rule="nonzero"/><path stroke="#333333" stroke-width="1.0" stroke-linecap="butt" d="M59.5 300.5L581.5 300.5" fill-rule="nonzero"/><path stroke="#cccccc" stroke-width="1.0" stroke-linecap="butt" d="M59.5 229.5L581.5 229.5" fill-rule="nonzero"/><path stroke="#cccccc" stroke-width="1.0" stroke-linecap="butt" d="M59.5 159.5L581.5 159.5" fill-rule="nonzero"/><path stroke="#cccccc" stroke-width="1.0" stroke-linecap="butt" d="M59.5 88.5L581.5 88.5" fill-rule="nonzero"/><clipPath id="id_0"><path d="M59.55 88.28333L581.45 88.28333L581.45 300.45L59.55 300.45L59.55 88.28333Z" clip-rule="nonzero"/></clipPath><path stroke="#000000" stroke-width="2.0" stroke-linecap="butt" stroke-opacity="0.0" clip-path="url(#id_0)" d="M124.0 300.0L94.0 300.0L94.0 109.0C94.0 107.89543 94.89543 107.0 96.0 107.0L122.0 107.0C123.10457 107.0 124.0 107.89543 124.0 109.0Z" fill-rule="nonzero"/><path fill="#4285f4" clip-path="url(#id_0)" d="M124.0 300.0L94.0 300.0L94.0 109.0C94.0 107.89543 94.89543 107.0 96.0 107.0L122.0 107.0C123.10457 107.0 124.0 107.89543 124.0 109.0Z" fill-rule="nonzero"/><path stroke="#000000" stroke-width="2.0" stroke-linecap="butt" stroke-opacity="0.0" clip-path="url(#id_0)" d="M222.0 300.0L192.0 300.0L192.0 119.0C192.0 117.89543 192.89543 117.0 194.0 117.0L220.0 117.0C221.10457 117.0 222.0 117.89543 222.0 119.0Z" fill-rule="nonzero"/><path fill="#4285f4" clip-path="url(#id_0)" d="M222.0 300.0L192.0 300.0L192.0 119.0C192.0 117.89543 192.89543 117.0 194.0 117.0L220.0 117.0C221.10457 117.0 222.0 117.89543 222.0 119.0Z" fill-rule="nonzero"/><path stroke="#000000" stroke-width="2.0" stroke-linecap="butt" stroke-opacity="0.0" clip-path="url(#id_0)" d="M320.0 300.0L290.0 300.0L290.0 102.0C290.0 100.89543 290.89542 100.0 292.0 100.0L318.0 100.0C319.10458 100.0 320.0 100.89543 320.0 102.0Z" fill-rule="nonzero"/><path fill="#4285f4" clip-path="url(#id_0)" d="M320.0 300.0L290.0 300.0L290.0 102.0C290.0 100.89543 290.89542 100.0 292.0 100.0L318.0 100.0C319.10458 100.0 320.0 100.89543 320.0 102.0Z" fill-rule="nonzero"/><path stroke="#000000" stroke-width="2.0" stroke-linecap="butt" stroke-opacity="0.0" clip-path="url(#id_0)" d="M417.0 300.0L387.0 300.0L387.0 116.0C387.0 114.89543 387.89542 114.0 389.0 114.0L415.0 114.0C416.10458 114.0 417.0 114.89543 417.0 116.0Z" fill-rule="nonzero"/><path fill="#4285f4" clip-path="url(#id_0)" d="M417.0 300.0L387.0 300.0L387.0 116.0C387.0 114.89543 387.89542 114.0 389.0 114.0L415.0 114.0C416.10458 114.0 417.0 114.89543 417.0 116.0Z" fill-rule="nonzero"/><path stroke="#000000" stroke-width="2.0" stroke-linecap="butt" stroke-opacity="0.0" clip-path="url(#id_0)" d="M515.0 300.0L485.0 300.0L485.0 124.0C485.0 122.89543 485.89542 122.0 487.0 122.0L513.0 122.0C514.10455 122.0 515.0 122.89543 515.0 124.0Z" fill-rule="nonzero"/><path fill="#4285f4" clip-path="url(#id_0)" d="M515.0 300.0L485.0 300.0L485.0 124.0C485.0 122.89543 485.89542 122.0 487.0 122.0L513.0 122.0C514.10455 122.0 515.0 122.89543 515.0 124.0Z" fill-rule="nonzero"/><path stroke="#000000" stroke-width="2.0" stroke-linecap="butt" stroke-opacity="0.0" clip-path="url(#id_0)" d="M156.0 300.0L126.0 300.0L126.0 115.0C126.0 113.89543 126.89543 113.0 128.0 113.0L154.0 113.0C155.10457 113.0 156.0 113.89543 156.0 115.0Z" fill-rule="nonzero"/><path fill="#ea4335" clip-path="url(#id_0)" d="M156.0 300.0L126.0 300.0L126.0 115.0C126.0 113.89543 126.89543 113.0 128.0 113.0L154.0 113.0C155.10457 113.0 156.0 113.89543 156.0 115.0Z" fill-rule="nonzero"/><path stroke="#000000" stroke-width="2.0" stroke-linecap="butt" stroke-opacity="0.0" clip-path="url(#id_0)" d="M254.0 300.0L224.0 300.0L224.0 112.0C224.0 110.89543 224.89543 110.0 226.0 110.0L252.0 110.0C253.10457 110.0 254.0 110.89543 254.0 112.0Z" fill-rule="nonzero"/><path fill="#ea4335" clip-path="url(#id_0)" d="M254.0 300.0L224.0 300.0L224.0 112.0C224.0 110.89543 224.89543 110.0 226.0 110.0L252.0 110.0C253.10457 110.0 254.0 110.89543 254.0 112.0Z" fill-rule="nonzero"/><path stroke="#000000" stroke-width="2.0" stroke-linecap="butt" stroke-opacity="0.0" clip-path="url(#id_0)" d="M352.0 300.0L322.0 300.0L322.0 119.0C322.0 117.89543 322.89542 117.0 324.0 117.0L350.0 117.0C351.10458 117.0 352.0 117.89543 352.0 119.0Z" fill-rule="nonzero"/><path fill="#ea4335" clip-path="url(#id_0)" d="M352.0 300.0L322.0 300.0L322.0 119.0C322.0 117.89543 322.89542 117.0 324.0 117.0L350.0 117.0C351.10458 117.0 352.0 117.89543 352.0 119.0Z" fill-rule="nonzero"/><path stroke="#000000" stroke-width="2.0" stroke-linecap="butt" stroke-opacity="0.0" clip-path="url(#id_0)" d="M449.0 300.0L419.0 300.0L419.0 122.0C419.0 120.89543 419.89542 120.0 421.0 120.0L447.0 120.0C448.10458 120.0 449.0 120.89543 449.0 122.0Z" fill-rule="nonzero"/><path fill="#ea4335" clip-path="url(#id_0)" d="M449.0 300.0L419.0 300.0L419.0 122.0C419.0 120.89543 419.89542 120.0 421.0 120.0L447.0 120.0C448.10458 120.0 449.0 120.89543 449.0 122.0Z" fill-rule="nonzero"/><path stroke="#000000" stroke-width="2.0" stroke-linecap="butt" stroke-opacity="0.0" clip-path="url(#id_0)" d="M547.0 300.0L517.0 300.0L517.0 120.0C517.0 118.89543 517.89545 118.0 519.0 118.0L545.0 118.0C546.10455 118.0 547.0 118.89543 547.0 120.0Z" fill-rule="nonzero"/><path fill="#ea4335" clip-path="url(#id_0)" d="M547.0 300.0L517.0 300.0L517.0 120.0C517.0 118.89543 517.89545 118.0 519.0 118.0L545.0 118.0C546.10455 118.0 547.0 118.89543 547.0 120.0Z" fill-rule="nonzero"/><path fill="#000000" d="M299.98438 349.45L303.28125 340.85626L304.5 340.85626L308.01562 349.45L306.73438 349.45L305.71875 346.84064L302.14062 346.84064L301.1875 349.45L299.98438 349.45ZM302.46875 345.91876L305.375 345.91876L304.48438 343.54376Q304.0625 342.46564 303.875 341.7625Q303.70312 342.59064 303.40625 343.40314L302.46875 345.91876ZM310.09375 348.5125L310.25 349.4344Q309.79688 349.52814 309.45312 349.52814Q308.875 349.52814 308.5625 349.35626Q308.25 349.16876 308.10938 348.8719Q307.98438 348.575 307.98438 347.6219L307.98438 344.04376L307.21875 344.04376L307.21875 343.23126L307.98438 343.23126L307.98438 341.6844L309.03125 341.0594L309.03125 343.23126L310.09375 343.23126L310.09375 344.04376L309.03125 344.04376L309.03125 347.6844Q309.03125 348.1375 309.07812 348.2625Q309.14062 348.3875 309.26562 348.46564Q309.39062 348.54376 309.625 348.54376Q309.8125 348.54376 310.09375 348.5125ZM313.09375 348.5125L313.25 349.4344Q312.79688 349.52814 312.45312 349.52814Q311.875 349.52814 311.5625 349.35626Q311.25 349.16876 311.10938 348.8719Q310.98438 348.575 310.98438 347.6219L310.98438 344.04376L310.21875 344.04376L310.21875 343.23126L310.98438 343.23126L310.98438 341.6844L312.03125 341.0594L312.03125 343.23126L313.09375 343.23126L313.09375 344.04376L312.03125 344.04376L312.03125 347.6844Q312.03125 348.1375 312.07812 348.2625Q312.14062 348.3875 312.26562 348.46564Q312.39062 348.54376 312.625 348.54376Q312.8125 348.54376 313.09375 348.5125ZM318.04688 347.45L319.14062 347.575Q318.89062 348.52814 318.1875 349.0594Q317.48438 349.59064 316.40625 349.59064Q315.04688 349.59064 314.23438 348.7469Q313.4375 347.90314 313.4375 346.3875Q313.4375 344.825 314.25 343.96564Q315.0625 343.09064 316.34375 343.09064Q317.59375 343.09064 318.375 343.9344Q319.17188 344.77814 319.17188 346.325Q319.17188 346.41876 319.17188 346.60626L314.53125 346.60626Q314.59375 347.6375 315.10938 348.1844Q315.625 348.71564 316.40625 348.71564Q316.98438 348.71564 317.39062 348.41876Q317.8125 348.10626 318.04688 347.45ZM314.59375 345.7469L318.0625 345.7469Q318.0 344.95 317.67188 344.5594Q317.15625 343.95 316.35938 343.95Q315.625 343.95 315.125 344.4344Q314.64062 344.91876 314.59375 345.7469ZM320.79688 349.45L320.79688 343.23126L321.73438 343.23126L321.73438 344.10626Q322.03125 343.6375 322.51562 343.3719Q323.0 343.09064 323.625 343.09064Q324.3125 343.09064 324.75 343.3719Q325.20312 343.65314 325.375 344.16876Q326.125 343.09064 327.29688 343.09064Q328.23438 343.09064 328.71875 343.60626Q329.21875 344.10626 329.21875 345.1844L329.21875 349.45L328.17188 349.45L328.17188 345.52814Q328.17188 344.90314 328.0625 344.6219Q327.96875 344.34064 327.70312 344.16876Q327.4375 343.9969 327.0625 343.9969Q326.40625 343.9969 325.96875 344.4344Q325.54688 344.8719 325.54688 345.84064L325.54688 349.45L324.48438 349.45L324.48438 345.40314Q324.48438 344.7 324.21875 344.35626Q323.96875 343.9969 323.39062 343.9969Q322.9375 343.9969 322.5625 344.23126Q322.1875 344.46564 322.01562 344.91876Q321.84375 345.3719 321.84375 346.21564L321.84375 349.45L320.79688 349.45ZM331.79688 351.84064L331.79688 343.23126L332.75 343.23126L332.75 344.02814Q333.09375 343.5594 333.51562 343.325Q333.95312 343.09064 334.5625 343.09064Q335.35938 343.09064 335.96875 343.4969Q336.57812 343.90314 336.875 344.65314Q337.1875 345.40314 337.1875 346.29376Q337.1875 347.2469 336.84375 348.0125Q336.51562 348.77814 335.85938 349.1844Q335.20312 349.59064 334.48438 349.59064Q333.95312 349.59064 333.53125 349.3719Q333.10938 349.1375 332.84375 348.8094L332.84375 351.84064L331.79688 351.84064ZM332.75 346.3719Q332.75 347.575 333.23438 348.15314Q333.71875 348.71564 334.40625 348.71564Q335.10938 348.71564 335.60938 348.1219Q336.10938 347.52814 336.10938 346.27814Q336.10938 345.09064 335.625 344.5125Q335.14062 343.91876 334.45312 343.91876Q333.78125 343.91876 333.26562 344.54376Q332.75 345.16876 332.75 346.3719ZM341.09375 348.5125L341.25 349.4344Q340.79688 349.52814 340.45312 349.52814Q339.875 349.52814 339.5625 349.35626Q339.25 349.16876 339.10938 348.8719Q338.98438 348.575 338.98438 347.6219L338.98438 344.04376L338.21875 344.04376L338.21875 343.23126L338.98438 343.23126L338.98438 341.6844L340.03125 341.0594L340.03125 343.23126L341.09375 343.23126L341.09375 344.04376L340.03125 344.04376L340.03125 347.6844Q340.03125 348.1375 340.07812 348.2625Q340.14062 348.3875 340.26562 348.46564Q340.39062 348.54376 340.625 348.54376Q340.8125 348.54376 341.09375 348.5125Z" fill-rule="nonzero"/><path fill="#000000" d="M47.05 300.21564Q47.05 298.6844 47.3625 297.7625Q47.675 296.825 48.284374 296.325Q48.909374 295.825 49.846874 295.825Q50.534374 295.825 51.05 296.10626Q51.58125 296.3875 51.925 296.91876Q52.26875 297.4344 52.45625 298.1844Q52.64375 298.9344 52.64375 300.21564Q52.64375 301.73126 52.33125 302.65314Q52.034374 303.575 51.409374 304.09064Q50.8 304.59064 49.846874 304.59064Q48.6125 304.59064 47.89375 303.7Q47.05 302.6375 47.05 300.21564ZM48.128124 300.21564Q48.128124 302.325 48.628124 303.02814Q49.128124 303.73126 49.846874 303.73126Q50.58125 303.73126 51.065624 303.02814Q51.565624 302.325 51.565624 300.21564Q51.565624 298.09064 51.065624 297.40314Q50.58125 296.7 49.83125 296.7Q49.1125 296.7 48.675 297.3094Q48.128124 298.09064 48.128124 300.21564Z" fill-rule="nonzero"/><path fill="#000000" d="M26.05 231.47778L27.159374 231.38403Q27.284374 232.19653 27.721874 232.60278Q28.175 233.00903 28.815624 233.00903Q29.565624 233.00903 30.096874 232.43091Q30.628124 231.85278 30.628124 230.91528Q30.628124 230.00903 30.1125 229.49341Q29.6125 228.96216 28.784374 228.96216Q28.284374 228.96216 27.8625 229.19653Q27.45625 229.43091 27.221874 229.79028L26.2375 229.66528L27.065624 225.25903L31.346874 225.25903L31.346874 226.25903L27.909374 226.25903L27.45625 228.57153Q28.221874 228.02466 29.065624 228.02466Q30.190624 228.02466 30.95625 228.80591Q31.7375 229.58716 31.7375 230.82153Q31.7375 231.97778 31.065624 232.83716Q30.2375 233.86841 28.815624 233.86841Q27.64375 233.86841 26.89375 233.21216Q26.159374 232.55591 26.05 231.47778ZM33.05 229.49341Q33.05 227.96216 33.3625 227.04028Q33.675 226.10278 34.284374 225.60278Q34.909374 225.10278 35.846874 225.10278Q36.534374 225.10278 37.05 225.38403Q37.58125 225.66528 37.925 226.19653Q38.26875 226.71216 38.45625 227.46216Q38.64375 228.21216 38.64375 229.49341Q38.64375 231.00903 38.33125 231.93091Q38.034374 232.85278 37.409374 233.36841Q36.8 233.86841 35.846874 233.86841Q34.6125 233.86841 33.89375 232.97778Q33.05 231.91528 33.05 229.49341ZM34.128124 229.49341Q34.128124 231.60278 34.628124 232.30591Q35.128124 233.00903 35.846874 233.00903Q36.58125 233.00903 37.065624 232.30591Q37.565624 231.60278 37.565624 229.49341Q37.565624 227.36841 37.065624 226.68091Q36.58125 225.97778 35.83125 225.97778Q35.1125 225.97778 34.675 226.58716Q34.128124 227.36841 34.128124 229.49341ZM40.05 229.49341Q40.05 227.96216 40.3625 227.04028Q40.675 226.10278 41.284374 225.60278Q41.909374 225.10278 42.846874 225.10278Q43.534374 225.10278 44.05 225.38403Q44.58125 225.66528 44.925 226.19653Q45.26875 226.71216 45.45625 227.46216Q45.64375 228.21216 45.64375 229.49341Q45.64375 231.00903 45.33125 231.93091Q45.034374 232.85278 44.409374 233.36841Q43.8 233.86841 42.846874 233.86841Q41.6125 233.86841 40.89375 232.97778Q40.05 231.91528 40.05 229.49341ZM41.128124 229.49341Q41.128124 231.60278 41.628124 232.30591Q42.128124 233.00903 42.846874 233.00903Q43.58125 233.00903 44.065624 232.30591Q44.565624 231.60278 44.565624 229.49341Q44.565624 227.36841 44.065624 226.68091Q43.58125 225.97778 42.83125 225.97778Q42.1125 225.97778 41.675 226.58716Q41.128124 227.36841 41.128124 229.49341ZM47.05 229.49341Q47.05 227.96216 47.3625 227.04028Q47.675 226.10278 48.284374 225.60278Q48.909374 225.10278 49.846874 225.10278Q50.534374 225.10278 51.05 225.38403Q51.58125 225.66528 51.925 226.19653Q52.26875 226.71216 52.45625 227.46216Q52.64375 228.21216 52.64375 229.49341Q52.64375 231.00903 52.33125 231.93091Q52.034374 232.85278 51.409374 233.36841Q50.8 233.86841 49.846874 233.86841Q48.6125 233.86841 47.89375 232.97778Q47.05 231.91528 47.05 229.49341ZM48.128124 229.49341Q48.128124 231.60278 48.628124 232.30591Q49.128124 233.00903 49.846874 233.00903Q50.58125 233.00903 51.065624 232.30591Q51.565624 231.60278 51.565624 229.49341Q51.565624 227.36841 51.065624 226.68091Q50.58125 225.97778 49.83125 225.97778Q49.1125 225.97778 48.675 226.58716Q48.128124 227.36841 48.128124 229.49341Z" fill-rule="nonzero"/><path fill="#000000" d="M23.01875 163.00555L21.971874 163.00555L21.971874 156.2868Q21.58125 156.64618 20.95625 157.02118Q20.346874 157.38055 19.8625 157.55243L19.8625 156.5368Q20.7375 156.11493 21.39375 155.5368Q22.065624 154.94305 22.346874 154.38055L23.01875 154.38055L23.01875 163.00555ZM26.05 158.77118Q26.05 157.23993 26.3625 156.31805Q26.675 155.38055 27.284374 154.88055Q27.909374 154.38055 28.846874 154.38055Q29.534374 154.38055 30.05 154.6618Q30.58125 154.94305 30.925 155.4743Q31.26875 155.98993 31.45625 156.73993Q31.64375 157.48993 31.64375 158.77118Q31.64375 160.2868 31.33125 161.20868Q31.034374 162.13055 30.409374 162.64618Q29.8 163.14618 28.846874 163.14618Q27.6125 163.14618 26.89375 162.25555Q26.05 161.19305 26.05 158.77118ZM27.128124 158.77118Q27.128124 160.88055 27.628124 161.58368Q28.128124 162.2868 28.846874 162.2868Q29.58125 162.2868 30.065624 161.58368Q30.565624 160.88055 30.565624 158.77118Q30.565624 156.64618 30.065624 155.95868Q29.58125 155.25555 28.83125 155.25555Q28.1125 155.25555 27.675 155.86493Q27.128124 156.64618 27.128124 158.77118ZM33.05 158.77118Q33.05 157.23993 33.3625 156.31805Q33.675 155.38055 34.284374 154.88055Q34.909374 154.38055 35.846874 154.38055Q36.534374 154.38055 37.05 154.6618Q37.58125 154.94305 37.925 155.4743Q38.26875 155.98993 38.45625 156.73993Q38.64375 157.48993 38.64375 158.77118Q38.64375 160.2868 38.33125 161.20868Q38.034374 162.13055 37.409374 162.64618Q36.8 163.14618 35.846874 163.14618Q34.6125 163.14618 33.89375 162.25555Q33.05 161.19305 33.05 158.77118ZM34.128124 158.77118Q34.128124 160.88055 34.628124 161.58368Q35.128124 162.2868 35.846874 162.2868Q36.58125 162.2868 37.065624 161.58368Q37.565624 160.88055 37.565624 158.77118Q37.565624 156.64618 37.065624 155.95868Q36.58125 155.25555 35.83125 155.25555Q35.1125 155.25555 34.675 155.86493Q34.128124 156.64618 34.128124 158.77118ZM40.05 158.77118Q40.05 157.23993 40.3625 156.31805Q40.675 155.38055 41.284374 154.88055Q41.909374 154.38055 42.846874 154.38055Q43.534374 154.38055 44.05 154.6618Q44.58125 154.94305 44.925 155.4743Q45.26875 155.98993 45.45625 156.73993Q45.64375 157.48993 45.64375 158.77118Q45.64375 160.2868 45.33125 161.20868Q45.034374 162.13055 44.409374 162.64618Q43.8 163.14618 42.846874 163.14618Q41.6125 163.14618 40.89375 162.25555Q40.05 161.19305 40.05 158.77118ZM41.128124 158.77118Q41.128124 160.88055 41.628124 161.58368Q42.128124 162.2868 42.846874 162.2868Q43.58125 162.2868 44.065624 161.58368Q44.565624 160.88055 44.565624 158.77118Q44.565624 156.64618 44.065624 155.95868Q43.58125 155.25555 42.83125 155.25555Q42.1125 155.25555 41.675 155.86493Q41.128124 156.64618 41.128124 158.77118ZM47.05 158.77118Q47.05 157.23993 47.3625 156.31805Q47.675 155.38055 48.284374 154.88055Q48.909374 154.38055 49.846874 154.38055Q50.534374 154.38055 51.05 154.6618Q51.58125 154.94305 51.925 155.4743Q52.26875 155.98993 52.45625 156.73993Q52.64375 157.48993 52.64375 158.77118Q52.64375 160.2868 52.33125 161.20868Q52.034374 162.13055 51.409374 162.64618Q50.8 163.14618 49.846874 163.14618Q48.6125 163.14618 47.89375 162.25555Q47.05 161.19305 47.05 158.77118ZM48.128124 158.77118Q48.128124 160.88055 48.628124 161.58368Q49.128124 162.2868 49.846874 162.2868Q50.58125 162.2868 51.065624 161.58368Q51.565624 160.88055 51.565624 158.77118Q51.565624 156.64618 51.065624 155.95868Q50.58125 155.25555 49.83125 155.25555Q49.1125 155.25555 48.675 155.86493Q48.128124 156.64618 48.128124 158.77118Z" fill-rule="nonzero"/><path fill="#000000" d="M23.01875 92.28333L21.971874 92.28333L21.971874 85.56458Q21.58125 85.92396 20.95625 86.29896Q20.346874 86.65833 19.8625 86.83021L19.8625 85.81458Q20.7375 85.39271 21.39375 84.81458Q22.065624 84.22083 22.346874 83.65833L23.01875 83.65833L23.01875 92.28333ZM26.05 90.03333L27.159374 89.93958Q27.284374 90.75208 27.721874 91.15833Q28.175 91.56458 28.815624 91.56458Q29.565624 91.56458 30.096874 90.98646Q30.628124 90.40833 30.628124 89.47083Q30.628124 88.56458 30.1125 88.04896Q29.6125 87.51771 28.784374 87.51771Q28.284374 87.51771 27.8625 87.75208Q27.45625 87.98646 27.221874 88.34583L26.2375 88.22083L27.065624 83.81458L31.346874 83.81458L31.346874 84.81458L27.909374 84.81458L27.45625 87.12708Q28.221874 86.58021 29.065624 86.58021Q30.190624 86.58021 30.95625 87.36146Q31.7375 88.14271 31.7375 89.37708Q31.7375 90.53333 31.065624 91.39271Q30.2375 92.42396 28.815624 92.42396Q27.64375 92.42396 26.89375 91.76771Q26.159374 91.11146 26.05 90.03333ZM33.05 88.04896Q33.05 86.51771 33.3625 85.59583Q33.675 84.65833 34.284374 84.15833Q34.909374 83.65833 35.846874 83.65833Q36.534374 83.65833 37.05 83.93958Q37.58125 84.22083 37.925 84.75208Q38.26875 85.26771 38.45625 86.01771Q38.64375 86.76771 38.64375 88.04896Q38.64375 89.56458 38.33125 90.48646Q38.034374 91.40833 37.409374 91.92396Q36.8 92.42396 35.846874 92.42396Q34.6125 92.42396 33.89375 91.53333Q33.05 90.47083 33.05 88.04896ZM34.128124 88.04896Q34.128124 90.15833 34.628124 90.86146Q35.128124 91.56458 35.846874 91.56458Q36.58125 91.56458 37.065624 90.86146Q37.565624 90.15833 37.565624 88.04896Q37.565624 85.92396 37.065624 85.23646Q36.58125 84.53333 35.83125 84.53333Q35.1125 84.53333 34.675 85.14271Q34.128124 85.92396 34.128124 88.04896ZM40.05 88.04896Q40.05 86.51771 40.3625 85.59583Q40.675 84.65833 41.284374 84.15833Q41.909374 83.65833 42.846874 83.65833Q43.534374 83.65833 44.05 83.93958Q44.58125 84.22083 44.925 84.75208Q45.26875 85.26771 45.45625 86.01771Q45.64375 86.76771 45.64375 88.04896Q45.64375 89.56458 45.33125 90.48646Q45.034374 91.40833 44.409374 91.92396Q43.8 92.42396 42.846874 92.42396Q41.6125 92.42396 40.89375 91.53333Q40.05 90.47083 40.05 88.04896ZM41.128124 88.04896Q41.128124 90.15833 41.628124 90.86146Q42.128124 91.56458 42.846874 91.56458Q43.58125 91.56458 44.065624 90.86146Q44.565624 90.15833 44.565624 88.04896Q44.565624 85.92396 44.065624 85.23646Q43.58125 84.53333 42.83125 84.53333Q42.1125 84.53333 41.675 85.14271Q41.128124 85.92396 41.128124 88.04896ZM47.05 88.04896Q47.05 86.51771 47.3625 85.59583Q47.675 84.65833 48.284374 84.15833Q48.909374 83.65833 49.846874 83.65833Q50.534374 83.65833 51.05 83.93958Q51.58125 84.22083 51.925 84.75208Q52.26875 85.26771 52.45625 86.01771Q52.64375 86.76771 52.64375 88.04896Q52.64375 89.56458 52.33125 90.48646Q52.034374 91.40833 51.409374 91.92396Q50.8 92.42396 49.846874 92.42396Q48.6125 92.42396 47.89375 91.53333Q47.05 90.47083 47.05 88.04896ZM48.128124 88.04896Q48.128124 90.15833 48.628124 90.86146Q49.128124 91.56458 49.846874 91.56458Q50.58125 91.56458 51.065624 90.86146Q51.565624 90.15833 51.565624 88.04896Q51.565624 85.92396 51.065624 85.23646Q50.58125 84.53333 49.83125 84.53333Q49.1125 84.53333 48.675 85.14271Q48.128124 85.92396 48.128124 88.04896Z" fill-rule="nonzero"/><path fill="#000000" d="M126.365944 317.45L125.31907 317.45L125.31907 310.73126Q124.928444 311.09064 124.303444 311.46564Q123.69407 311.825 123.209694 311.9969L123.209694 310.98126Q124.084694 310.5594 124.740944 309.98126Q125.41282 309.3875 125.69407 308.825L126.365944 308.825L126.365944 317.45Z" fill-rule="nonzero"/><path fill="#000000" d="M225.49547 316.4344L225.49547 317.45L219.80797 317.45Q219.80797 317.075 219.93297 316.71564Q220.15172 316.1375 220.62047 315.575Q221.10484 315.0125 222.0111 314.27814Q223.41734 313.1219 223.90172 312.45Q224.40172 311.77814 224.40172 311.1844Q224.40172 310.5594 223.9486 310.1375Q223.49547 309.7 222.77672 309.7Q222.0111 309.7 221.55797 310.15314Q221.10484 310.60626 221.08922 311.41876L220.0111 311.3094Q220.12047 310.09064 220.83922 309.46564Q221.5736 308.825 222.80797 308.825Q224.04234 308.825 224.7611 309.5125Q225.47984 310.2 225.47984 311.21564Q225.47984 311.73126 225.2611 312.23126Q225.05797 312.71564 224.55797 313.27814Q224.0736 313.825 222.9486 314.77814Q221.99547 315.575 221.71422 315.8719Q221.4486 316.15314 221.27672 316.4344L225.49547 316.4344Z" fill-rule="nonzero"/><path fill="#000000" d="M317.5 315.1844L318.5625 315.04376Q318.73438 315.9344 319.17188 316.34064Q319.60938 316.73126 320.23438 316.73126Q320.98438 316.73126 321.5 316.21564Q322.01562 315.7 322.01562 314.9344Q322.01562 314.21564 321.53125 313.7469Q321.0625 313.2625 320.32812 313.2625Q320.03125 313.2625 319.57812 313.3875L319.70312 312.45Q319.8125 312.46564 319.875 312.46564Q320.54688 312.46564 321.07812 312.1219Q321.625 311.7625 321.625 311.02814Q321.625 310.45 321.23438 310.075Q320.84375 309.6844 320.21875 309.6844Q319.60938 309.6844 319.1875 310.075Q318.78125 310.46564 318.67188 311.23126L317.60938 311.04376Q317.79688 309.9969 318.48438 309.41876Q319.17188 308.825 320.1875 308.825Q320.89062 308.825 321.48438 309.1375Q322.07812 309.4344 322.39062 309.95Q322.70312 310.46564 322.70312 311.0594Q322.70312 311.60626 322.40625 312.075Q322.10938 312.52814 321.53125 312.79376Q322.28125 312.96564 322.70312 313.52814Q323.125 314.075 323.125 314.91876Q323.125 316.04376 322.29688 316.825Q321.48438 317.60626 320.23438 317.60626Q319.10938 317.60626 318.35938 316.9344Q317.60938 316.2469 317.5 315.1844Z" fill-rule="nonzero"/><path fill="#000000" d="M418.4264 317.45L418.4264 315.3875L414.70764 315.3875L414.70764 314.41876L418.62952 308.85626L419.4889 308.85626L419.4889 314.41876L420.64514 314.41876L420.64514 315.3875L419.4889 315.3875L419.4889 317.45L418.4264 317.45ZM418.4264 314.41876L418.4264 310.5594L415.7389 314.41876L418.4264 314.41876Z" fill-rule="nonzero"/><path fill="#000000" d="M512.6028 315.2L513.71216 315.10626Q513.83716 315.91876 514.27466 316.325Q514.7278 316.73126 515.3684 316.73126Q516.1184 316.73126 516.64966 316.15314Q517.1809 315.575 517.1809 314.6375Q517.1809 313.73126 516.6653 313.21564Q516.1653 312.6844 515.33716 312.6844Q514.83716 312.6844 514.4153 312.91876Q514.00903 313.15314 513.77466 313.5125L512.7903 313.3875L513.6184 308.98126L517.89966 308.98126L517.89966 309.98126L514.46216 309.98126L514.00903 312.29376Q514.77466 311.7469 515.6184 311.7469Q516.7434 311.7469 517.50903 312.52814Q518.2903 313.3094 518.2903 314.54376Q518.2903 315.7 517.6184 316.5594Q516.7903 317.59064 515.3684 317.59064Q514.19653 317.59064 513.44653 316.9344Q512.71216 316.27814 512.6028 315.2Z" fill-rule="nonzero"/><path fill="#4285f4" d="M248.5 56.916668C248.5 56.364384 248.94771 55.916668 249.5 55.916668L259.5 55.916668C260.05228 55.916668 260.5 56.364384 260.5 56.916668L260.5 66.916664C260.5 67.46895 260.05228 67.916664 259.5 67.916664L249.5 67.916664C248.94771 67.916664 248.5 67.46895 248.5 66.916664Z" fill-rule="nonzero"/><path fill="#1a1a1a" d="M268.84375 63.479164L269.875 63.33854Q269.90625 64.322914 270.23438 64.68229Q270.5625 65.041664 271.15625 65.041664Q271.57812 65.041664 271.89062 64.854164Q272.20312 64.65104 272.3125 64.322914Q272.4375 63.979164 272.4375 63.24479L272.4375 57.322914L273.5625 57.322914L273.5625 63.18229Q273.5625 64.260414 273.29688 64.854164Q273.04688 65.447914 272.48438 65.760414Q271.92188 66.05729 271.15625 66.05729Q270.03125 66.05729 269.42188 65.416664Q268.82812 64.760414 268.84375 63.479164ZM279.54688 63.916664L280.64062 64.041664Q280.39062 64.99479 279.6875 65.52604Q278.98438 66.05729 277.90625 66.05729Q276.54688 66.05729 275.73438 65.21354Q274.9375 64.36979 274.9375 62.854164Q274.9375 61.291664 275.75 60.43229Q276.5625 59.55729 277.84375 59.55729Q279.09375 59.55729 279.875 60.40104Q280.67188 61.24479 280.67188 62.791664Q280.67188 62.885414 280.67188 63.072914L276.03125 63.072914Q276.09375 64.104164 276.60938 64.65104Q277.125 65.18229 277.90625 65.18229Q278.48438 65.18229 278.89062 64.885414Q279.3125 64.572914 279.54688 63.916664ZM276.09375 62.21354L279.5625 62.21354Q279.5 61.416664 279.17188 61.02604Q278.65625 60.416664 277.85938 60.416664Q277.125 60.416664 276.625 60.90104Q276.14062 61.385414 276.09375 62.21354ZM284.59375 64.979164L284.75 65.90104Q284.29688 65.99479 283.95312 65.99479Q283.375 65.99479 283.0625 65.822914Q282.75 65.635414 282.60938 65.33854Q282.48438 65.041664 282.48438 64.08854L282.48438 60.510414L281.71875 60.510414L281.71875 59.697914L282.48438 59.697914L282.48438 58.15104L283.53125 57.52604L283.53125 59.697914L284.59375 59.697914L284.59375 60.510414L283.53125 60.510414L283.53125 64.15104Q283.53125 64.604164 283.57812 64.729164Q283.64062 64.854164 283.76562 64.93229Q283.89062 65.010414 284.125 65.010414Q284.3125 65.010414 284.59375 64.979164ZM287.59375 64.979164L287.75 65.90104Q287.29688 65.99479 286.95312 65.99479Q286.375 65.99479 286.0625 65.822914Q285.75 65.635414 285.60938 65.33854Q285.48438 65.041664 285.48438 64.08854L285.48438 60.510414L284.71875 60.510414L284.71875 59.697914L285.48438 59.697914L285.48438 58.15104L286.53125 57.52604L286.53125 59.697914L287.59375 59.697914L287.59375 60.510414L286.53125 60.510414L286.53125 64.15104Q286.53125 64.604164 286.57812 64.729164Q286.64062 64.854164 286.76562 64.93229Q286.89062 65.010414 287.125 65.010414Q287.3125 65.010414 287.59375 64.979164ZM288.25 68.30729L288.125 67.322914Q288.46875 67.416664 288.73438 67.416664Q289.07812 67.416664 289.28125 67.291664Q289.5 67.18229 289.64062 66.979164Q289.73438 66.80729 289.96875 66.18229Q289.98438 66.104164 290.0625 65.93229L287.6875 59.697914L288.82812 59.697914L290.125 63.291664Q290.375 63.979164 290.57812 64.74479Q290.76562 64.010414 291.01562 63.322914L292.34375 59.697914L293.39062 59.697914L291.03125 66.02604Q290.64062 67.041664 290.4375 67.43229Q290.15625 67.96354 289.78125 68.197914Q289.42188 68.447914 288.92188 68.447914Q288.625 68.447914 288.25 68.30729Z" fill-rule="nonzero"/><path fill="#ea4335" d="M308.5 56.916668C308.5 56.364384 308.94772 55.916668 309.5 55.916668L319.5 55.916668C320.05228 55.916668 320.5 56.364384 320.5 56.916668L320.5 66.916664C320.5 67.46895 320.05228 67.916664 319.5 67.916664L309.5 67.916664C308.94772 67.916664 308.5 67.46895 308.5 66.916664Z" fill-rule="nonzero"/><path fill="#1a1a1a" d="M328.84375 63.479164L329.875 63.33854Q329.90625 64.322914 330.23438 64.68229Q330.5625 65.041664 331.15625 65.041664Q331.57812 65.041664 331.89062 64.854164Q332.20312 64.65104 332.3125 64.322914Q332.4375 63.979164 332.4375 63.24479L332.4375 57.322914L333.5625 57.322914L333.5625 63.18229Q333.5625 64.260414 333.29688 64.854164Q333.04688 65.447914 332.48438 65.760414Q331.92188 66.05729 331.15625 66.05729Q330.03125 66.05729 329.42188 65.416664Q328.82812 64.760414 328.84375 63.479164ZM335.42188 65.916664L335.42188 57.322914L338.39062 57.322914Q339.39062 57.322914 339.92188 57.447914Q340.65625 57.61979 341.17188 58.05729Q341.85938 58.635414 342.1875 59.541664Q342.53125 60.43229 342.53125 61.572914Q342.53125 62.55729 342.29688 63.30729Q342.07812 64.05729 341.71875 64.55729Q341.35938 65.05729 340.92188 65.33854Q340.5 65.61979 339.90625 65.77604Q339.3125 65.916664 338.53125 65.916664L335.42188 65.916664ZM336.5625 64.90104L338.39062 64.90104Q339.25 64.90104 339.73438 64.74479Q340.21875 64.58854 340.5 64.291664Q340.90625 63.90104 341.125 63.21354Q341.35938 62.52604 341.35938 61.55729Q341.35938 60.21354 340.90625 59.49479Q340.46875 58.760414 339.84375 58.510414Q339.375 58.33854 338.375 58.33854L336.5625 58.33854L336.5625 64.90104ZM344.375 65.916664L344.375 57.322914L345.51562 57.322914L345.51562 61.58854L349.78125 57.322914L351.32812 57.322914L347.71875 60.80729L351.48438 65.916664L349.98438 65.916664L346.92188 61.572914L345.51562 62.93229L345.51562 65.916664L344.375 65.916664Z" fill-rule="nonzero"/><path fill="#757575" d="M19.128124 33.4875L20.83125 33.253124Q20.909374 34.89375 21.45625 35.503124Q22.003124 36.096874 22.971874 36.096874Q23.675 36.096874 24.190624 35.784374Q24.70625 35.45625 24.89375 34.89375Q25.096874 34.33125 25.096874 33.096874L25.096874 23.2375L27.003124 23.2375L27.003124 32.9875Q27.003124 34.784374 26.565624 35.76875Q26.128124 36.753124 25.175 37.284374Q24.2375 37.8 22.971874 37.8Q21.096874 37.8 20.08125 36.721874Q19.08125 35.628124 19.128124 33.4875ZM36.971874 34.20625L38.784374 34.440624Q38.3625 36.01875 37.190624 36.909374Q36.034374 37.784374 34.221874 37.784374Q31.95625 37.784374 30.6125 36.39375Q29.284374 34.9875 29.284374 32.45625Q29.284374 29.83125 30.628124 28.39375Q31.971874 26.940624 34.128124 26.940624Q36.20625 26.940624 37.51875 28.3625Q38.846874 29.76875 38.846874 32.346874Q38.846874 32.503124 38.83125 32.815624L31.096874 32.815624Q31.190624 34.51875 32.065624 35.425Q32.940624 36.33125 34.2375 36.33125Q35.20625 36.33125 35.878124 35.83125Q36.565624 35.315624 36.971874 34.20625ZM31.190624 31.3625L36.9875 31.3625Q36.878124 30.065624 36.33125 29.409374Q35.4875 28.39375 34.14375 28.39375Q32.940624 28.39375 32.1125 29.20625Q31.284374 30.003124 31.190624 31.3625ZM44.70625 35.971874L44.95625 37.534374Q44.221874 37.690624 43.628124 37.690624Q42.675 37.690624 42.14375 37.39375Q41.628124 37.08125 41.409374 36.596874Q41.190624 36.096874 41.190624 34.51875L41.190624 28.55L39.909374 28.55L39.909374 27.175L41.190624 27.175L41.190624 24.6125L42.940624 23.55L42.940624 27.175L44.70625 27.175L44.70625 28.55L42.940624 28.55L42.940624 34.6125Q42.940624 35.3625 43.034374 35.58125Q43.128124 35.784374 43.33125 35.925Q43.55 36.05 43.940624 36.05Q44.221874 36.05 44.70625 35.971874ZM50.70625 35.971874L50.95625 37.534374Q50.221874 37.690624 49.628124 37.690624Q48.675 37.690624 48.14375 37.39375Q47.628124 37.08125 47.409374 36.596874Q47.190624 36.096874 47.190624 34.51875L47.190624 28.55L45.909374 28.55L45.909374 27.175L47.190624 27.175L47.190624 24.6125L48.940624 23.55L48.940624 27.175L50.70625 27.175L50.70625 28.55L48.940624 28.55L48.940624 34.6125Q48.940624 35.3625 49.034374 35.58125Q49.128124 35.784374 49.33125 35.925Q49.55 36.05 49.940624 36.05Q50.221874 36.05 50.70625 35.971874ZM52.784374 41.55L52.596874 39.89375Q53.175 40.05 53.596874 40.05Q54.190624 40.05 54.534374 39.846874Q54.89375 39.659374 55.1125 39.315624Q55.284374 39.05 55.659374 38.003124Q55.70625 37.846874 55.815624 37.565624L51.878124 27.175L53.76875 27.175L55.925 33.190624Q56.346874 34.33125 56.675 35.58125Q56.9875 34.378124 57.39375 33.221874L59.6125 27.175L61.378124 27.175L57.425 37.721874Q56.8 39.440624 56.440624 40.08125Q55.971874 40.95625 55.3625 41.346874Q54.76875 41.753124 53.925 41.753124Q53.409374 41.753124 52.784374 41.55ZM71.75313 37.55L67.8 27.175L69.65938 27.175L71.89375 33.39375Q72.25313 34.39375 72.55 35.471874Q72.78438 34.659374 73.20625 33.503124L75.50313 27.175L77.31563 27.175L73.39375 37.55L71.75313 37.55ZM77.15938 34.45625L78.90938 34.175Q79.05 35.221874 79.72188 35.784374Q80.39375 36.33125 81.59688 36.33125Q82.8 36.33125 83.37813 35.846874Q83.97188 35.346874 83.97188 34.690624Q83.97188 34.096874 83.45625 33.753124Q83.09688 33.51875 81.65938 33.159374Q79.72188 32.659374 78.97188 32.315624Q78.2375 31.95625 77.84688 31.33125Q77.45625 30.690624 77.45625 29.925Q77.45625 29.2375 77.76875 28.64375Q78.09688 28.05 78.64375 27.659374Q79.05 27.3625 79.75313 27.159374Q80.47188 26.940624 81.28438 26.940624Q82.50313 26.940624 83.425 27.3Q84.34688 27.64375 84.78438 28.253124Q85.22188 28.846874 85.39375 29.846874L83.675 30.08125Q83.55 29.284374 82.9875 28.846874Q82.425 28.39375 81.40938 28.39375Q80.19063 28.39375 79.675 28.8Q79.15938 29.190624 79.15938 29.721874Q79.15938 30.065624 79.37813 30.346874Q79.58125 30.628124 80.05 30.815624Q80.31563 30.909374 81.59688 31.253124Q83.47188 31.753124 84.20625 32.08125Q84.94063 32.39375 85.3625 33.003124Q85.78438 33.596874 85.78438 34.503124Q85.78438 35.378124 85.26875 36.159374Q84.75313 36.940624 83.78438 37.3625Q82.81563 37.784374 81.59688 37.784374Q79.58125 37.784374 78.51875 36.940624Q77.45625 36.096874 77.15938 34.45625ZM93.12813 33.4875L94.83125 33.253124Q94.90938 34.89375 95.45625 35.503124Q96.00313 36.096874 96.97188 36.096874Q97.675 36.096874 98.19063 35.784374Q98.70625 35.45625 98.89375 34.89375Q99.09688 34.33125 99.09688 33.096874L99.09688 23.2375L101.00313 23.2375L101.00313 32.9875Q101.00313 34.784374 100.56563 35.76875Q100.12813 36.753124 99.175 37.284374Q98.2375 37.8 96.97188 37.8Q95.09688 37.8 94.08125 36.721874Q93.08125 35.628124 93.12813 33.4875ZM104.09688 37.55L104.09688 23.2375L109.01875 23.2375Q110.69063 23.2375 111.58125 23.440624Q112.8 23.721874 113.675 24.45625Q114.8 25.425 115.3625 26.909374Q115.925 28.39375 115.925 30.315624Q115.925 31.940624 115.55 33.20625Q115.175 34.45625 114.56563 35.284374Q113.97188 36.1125 113.26875 36.596874Q112.56563 37.065624 111.56563 37.315624Q110.56563 37.55 109.25313 37.55L104.09688 37.55ZM105.9875 35.8625L109.05 35.8625Q110.45625 35.8625 111.25313 35.596874Q112.06563 35.33125 112.55 34.846874Q113.22188 34.175 113.59688 33.05Q113.97188 31.909374 113.97188 30.284374Q113.97188 28.034374 113.2375 26.83125Q112.50313 25.628124 111.44063 25.221874Q110.69063 24.925 109.00313 24.925L105.9875 24.925L105.9875 35.8625ZM118.01875 37.55L118.01875 23.2375L119.90938 23.2375L119.90938 30.33125L127.01875 23.2375L129.58125 23.2375L123.58125 29.034374L129.84688 37.55L127.34688 37.55L122.25313 30.3L119.90938 32.58125L119.90938 37.55L118.01875 37.55ZM136.84688 37.55L136.84688 27.175L138.425 27.175L138.425 28.753124Q139.03438 27.64375 139.55 27.3Q140.06563 26.940624 140.675 26.940624Q141.56563 26.940624 142.4875 27.503124L141.87813 29.14375Q141.2375 28.753124 140.59688 28.753124Q140.01875 28.753124 139.55 29.1125Q139.09688 29.45625 138.89375 30.065624Q138.6125 31.003124 138.6125 32.1125L138.6125 37.55L136.84688 37.55ZM143.8625 41.51875L143.8625 27.175L145.47188 27.175L145.47188 28.51875Q146.03438 27.7375 146.7375 27.346874Q147.45625 26.940624 148.47188 26.940624Q149.8 26.940624 150.81563 27.628124Q151.83125 28.315624 152.34688 29.565624Q152.87813 30.8 152.87813 32.284374Q152.87813 33.878124 152.3 35.159374Q151.7375 36.425 150.64375 37.1125Q149.55 37.784374 148.34688 37.784374Q147.47188 37.784374 146.76875 37.409374Q146.08125 37.034374 145.62813 36.471874L145.62813 41.51875L143.8625 41.51875ZM145.45625 32.425Q145.45625 34.425 146.26875 35.378124Q147.08125 36.33125 148.2375 36.33125Q149.40938 36.33125 150.2375 35.346874Q151.08125 34.3625 151.08125 32.26875Q151.08125 30.3 150.25313 29.315624Q149.44063 28.315624 148.31563 28.315624Q147.19063 28.315624 146.31563 29.378124Q145.45625 30.425 145.45625 32.425ZM154.15938 34.45625L155.90938 34.175Q156.05 35.221874 156.72188 35.784374Q157.39375 36.33125 158.59688 36.33125Q159.8 36.33125 160.37813 35.846874Q160.97188 35.346874 160.97188 34.690624Q160.97188 34.096874 160.45625 33.753124Q160.09688 33.51875 158.65938 33.159374Q156.72188 32.659374 155.97188 32.315624Q155.2375 31.95625 154.84688 31.33125Q154.45625 30.690624 154.45625 29.925Q154.45625 29.2375 154.76875 28.64375Q155.09688 28.05 155.64375 27.659374Q156.05 27.3625 156.75313 27.159374Q157.47188 26.940624 158.28438 26.940624Q159.50313 26.940624 160.425 27.3Q161.34688 27.64375 161.78438 28.253124Q162.22188 28.846874 162.39375 29.846874L160.675 30.08125Q160.55 29.284374 159.9875 28.846874Q159.425 28.39375 158.40938 28.39375Q157.19063 28.39375 156.675 28.8Q156.15938 29.190624 156.15938 29.721874Q156.15938 30.065624 156.37813 30.346874Q156.58125 30.628124 157.05 30.815624Q157.31563 30.909374 158.59688 31.253124Q160.47188 31.753124 161.20625 32.08125Q161.94063 32.39375 162.3625 33.003124Q162.78438 33.596874 162.78438 34.503124Q162.78438 35.378124 162.26875 36.159374Q161.75313 36.940624 160.78438 37.3625Q159.81563 37.784374 158.59688 37.784374Q156.58125 37.784374 155.51875 36.940624Q154.45625 36.096874 154.15938 34.45625ZM165.33125 37.55L165.33125 35.55L167.33125 35.55L167.33125 37.55Q167.33125 38.659374 166.94063 39.33125Q166.55 40.01875 165.70625 40.378124L165.20625 39.628124Q165.76875 39.39375 166.03438 38.909374Q166.3 38.440624 166.33125 37.55L165.33125 37.55ZM176.8625 37.55L176.8625 27.175L178.44063 27.175L178.44063 28.628124Q178.925 27.878124 179.7375 27.409374Q180.55 26.940624 181.58125 26.940624Q182.7375 26.940624 183.47188 27.425Q184.20625 27.89375 184.51875 28.753124Q185.75313 26.940624 187.72188 26.940624Q189.26875 26.940624 190.09688 27.8Q190.925 28.659374 190.925 30.425L190.925 37.55L189.175 37.55L189.175 31.01875Q189.175 29.95625 189.00313 29.503124Q188.83125 29.034374 188.37813 28.753124Q187.94063 28.471874 187.33125 28.471874Q186.2375 28.471874 185.50313 29.20625Q184.78438 29.925 184.78438 31.51875L184.78438 37.55L183.03438 37.55L183.03438 30.815624Q183.03438 29.64375 182.59688 29.065624Q182.175 28.471874 181.19063 28.471874Q180.45625 28.471874 179.81563 28.8625Q179.19063 29.253124 178.90938 30.003124Q178.62813 30.753124 178.62813 32.175L178.62813 37.55L176.8625 37.55ZM192.22188 32.3625Q192.22188 29.4875 193.81563 28.096874Q195.15938 26.940624 197.08125 26.940624Q199.22188 26.940624 200.56563 28.346874Q201.925 29.753124 201.925 32.221874Q201.925 34.221874 201.33125 35.378124Q200.7375 36.51875 199.58125 37.159374Q198.44063 37.784374 197.08125 37.784374Q194.89375 37.784374 193.55 36.39375Q192.22188 34.9875 192.22188 32.3625ZM194.01875 32.3625Q194.01875 34.3625 194.87813 35.346874Q195.75313 36.33125 197.08125 36.33125Q198.39375 36.33125 199.25313 35.346874Q200.12813 34.346874 200.12813 32.3Q200.12813 30.378124 199.25313 29.39375Q198.37813 28.39375 197.08125 28.39375Q195.75313 28.39375 194.87813 29.39375Q194.01875 30.378124 194.01875 32.3625ZM203.84688 37.55L203.84688 27.175L205.425 27.175L205.425 28.753124Q206.03438 27.64375 206.55 27.3Q207.06563 26.940624 207.675 26.940624Q208.56563 26.940624 209.4875 27.503124L208.87813 29.14375Q208.2375 28.753124 207.59688 28.753124Q207.01875 28.753124 206.55 29.1125Q206.09688 29.45625 205.89375 30.065624Q205.6125 31.003124 205.6125 32.1125L205.6125 37.55L203.84688 37.55ZM217.97188 34.20625L219.78438 34.440624Q219.3625 36.01875 218.19063 36.909374Q217.03438 37.784374 215.22188 37.784374Q212.95625 37.784374 211.6125 36.39375Q210.28438 34.9875 210.28438 32.45625Q210.28438 29.83125 211.62813 28.39375Q212.97188 26.940624 215.12813 26.940624Q217.20625 26.940624 218.51875 28.3625Q219.84688 29.76875 219.84688 32.346874Q219.84688 32.503124 219.83125 32.815624L212.09688 32.815624Q212.19063 34.51875 213.06563 35.425Q213.94063 36.33125 215.2375 36.33125Q216.20625 36.33125 216.87813 35.83125Q217.56563 35.315624 217.97188 34.20625ZM212.19063 31.3625L217.9875 31.3625Q217.87813 30.065624 217.33125 29.409374Q216.4875 28.39375 215.14375 28.39375Q213.94063 28.39375 213.1125 29.20625Q212.28438 30.003124 212.19063 31.3625ZM227.87813 25.253124L227.87813 23.2375L229.64375 23.2375L229.64375 25.253124L227.87813 25.253124ZM227.87813 37.55L227.87813 27.175L229.64375 27.175L229.64375 37.55L227.87813 37.55ZM231.15938 34.45625L232.90938 34.175Q233.05 35.221874 233.72188 35.784374Q234.39375 36.33125 235.59688 36.33125Q236.8 36.33125 237.37813 35.846874Q237.97188 35.346874 237.97188 34.690624Q237.97188 34.096874 237.45625 33.753124Q237.09688 33.51875 235.65938 33.159374Q233.72188 32.659374 232.97188 32.315624Q232.2375 31.95625 231.84688 31.33125Q231.45625 30.690624 231.45625 29.925Q231.45625 29.2375 231.76875 28.64375Q232.09688 28.05 232.64375 27.659374Q233.05 27.3625 233.75313 27.159374Q234.47188 26.940624 235.28438 26.940624Q236.50313 26.940624 237.425 27.3Q238.34688 27.64375 238.78438 28.253124Q239.22188 28.846874 239.39375 29.846874L237.675 30.08125Q237.55 29.284374 236.9875 28.846874Q236.425 28.39375 235.40938 28.39375Q234.19063 28.39375 233.675 28.8Q233.15938 29.190624 233.15938 29.721874Q233.15938 30.065624 233.37813 30.346874Q233.58125 30.628124 234.05 30.815624Q234.31563 30.909374 235.59688 31.253124Q237.47188 31.753124 238.20625 32.08125Q238.94063 32.39375 239.3625 33.003124Q239.78438 33.596874 239.78438 34.503124Q239.78438 35.378124 239.26875 36.159374Q238.75313 36.940624 237.78438 37.3625Q236.81563 37.784374 235.59688 37.784374Q233.58125 37.784374 232.51875 36.940624Q231.45625 36.096874 231.15938 34.45625ZM249.4875 37.55L247.8625 37.55L247.8625 23.2375L249.6125 23.2375L249.6125 28.346874Q250.7375 26.940624 252.45625 26.940624Q253.40938 26.940624 254.26875 27.33125Q255.12813 27.721874 255.675 28.425Q256.22186 29.1125 256.53436 30.096874Q256.84686 31.08125 256.84686 32.20625Q256.84686 34.878124 255.53438 36.33125Q254.22188 37.784374 252.37813 37.784374Q250.53438 37.784374 249.4875 36.253124L249.4875 37.55ZM249.47188 32.284374Q249.47188 34.14375 249.97188 34.9875Q250.81563 36.33125 252.22188 36.33125Q253.37813 36.33125 254.20625 35.33125Q255.05 34.33125 255.05 32.346874Q255.05 30.315624 254.2375 29.3625Q253.44063 28.39375 252.3 28.39375Q251.14375 28.39375 250.3 29.39375Q249.47188 30.39375 249.47188 32.284374ZM265.97186 34.20625L267.78436 34.440624Q267.3625 36.01875 266.1906 36.909374Q265.03436 37.784374 263.22186 37.784374Q260.95624 37.784374 259.6125 36.39375Q258.28436 34.9875 258.28436 32.45625Q258.28436 29.83125 259.6281 28.39375Q260.97186 26.940624 263.1281 26.940624Q265.20624 26.940624 266.51874 28.3625Q267.84686 29.76875 267.84686 32.346874Q267.84686 32.503124 267.83124 32.815624L260.09686 32.815624Q260.1906 34.51875 261.0656 35.425Q261.9406 36.33125 263.2375 36.33125Q264.20624 36.33125 264.8781 35.83125Q265.5656 35.315624 265.97186 34.20625ZM260.1906 31.3625L265.9875 31.3625Q265.8781 30.065624 265.33124 29.409374Q264.4875 28.39375 263.14374 28.39375Q261.9406 28.39375 261.1125 29.20625Q260.28436 30.003124 260.1906 31.3625ZM273.70624 35.971874L273.95624 37.534374Q273.22186 37.690624 272.6281 37.690624Q271.675 37.690624 271.14374 37.39375Q270.6281 37.08125 270.40936 36.596874Q270.1906 36.096874 270.1906 34.51875L270.1906 28.55L268.90936 28.55L268.90936 27.175L270.1906 27.175L270.1906 24.6125L271.9406 23.55L271.9406 27.175L273.70624 27.175L273.70624 28.55L271.9406 28.55L271.9406 34.6125Q271.9406 35.3625 272.03436 35.58125Q272.1281 35.784374 272.33124 35.925Q272.55 36.05 272.9406 36.05Q273.22186 36.05 273.70624 35.971874ZM279.70624 35.971874L279.95624 37.534374Q279.22186 37.690624 278.6281 37.690624Q277.675 37.690624 277.14374 37.39375Q276.6281 37.08125 276.40936 36.596874Q276.1906 36.096874 276.1906 34.51875L276.1906 28.55L274.90936 28.55L274.90936 27.175L276.1906 27.175L276.1906 24.6125L277.9406 23.55L277.9406 27.175L279.70624 27.175L279.70624 28.55L277.9406 28.55L277.9406 34.6125Q277.9406 35.3625 278.03436 35.58125Q278.1281 35.784374 278.33124 35.925Q278.55 36.05 278.9406 36.05Q279.22186 36.05 279.70624 35.971874ZM288.97186 34.20625L290.78436 34.440624Q290.3625 36.01875 289.1906 36.909374Q288.03436 37.784374 286.22186 37.784374Q283.95624 37.784374 282.6125 36.39375Q281.28436 34.9875 281.28436 32.45625Q281.28436 29.83125 282.6281 28.39375Q283.97186 26.940624 286.1281 26.940624Q288.20624 26.940624 289.51874 28.3625Q290.84686 29.76875 290.84686 32.346874Q290.84686 32.503124 290.83124 32.815624L283.09686 32.815624Q283.1906 34.51875 284.0656 35.425Q284.9406 36.33125 286.2375 36.33125Q287.20624 36.33125 287.8781 35.83125Q288.5656 35.315624 288.97186 34.20625ZM283.1906 31.3625L288.9875 31.3625Q288.8781 30.065624 288.33124 29.409374Q287.4875 28.39375 286.14374 28.39375Q284.9406 28.39375 284.1125 29.20625Q283.28436 30.003124 283.1906 31.3625ZM292.84686 37.55L292.84686 27.175L294.425 27.175L294.425 28.753124Q295.03436 27.64375 295.55 27.3Q296.0656 26.940624 296.675 26.940624Q297.5656 26.940624 298.4875 27.503124L297.8781 29.14375Q297.2375 28.753124 296.59686 28.753124Q296.01874 28.753124 295.55 29.1125Q295.09686 29.45625 294.89374 30.065624Q294.6125 31.003124 294.6125 32.1125L294.6125 37.55L292.84686 37.55Z" fill-rule="nonzero"/></svg>